<svg width="526" height="881" viewBox="0 0 526 881" fill="none" xmlns="http://www.w3.org/2000/svg">
<path d="M372.217 889.515H2.15654C1.96661 888.64 1.79254 887.766 1.60262 886.908C-0.758305 877.433 -0.506632 867.492 2.33066 858.151C3.62851 854.208 8.31343 839.885 20.6905 833.813C35.0934 826.739 44.4316 838.423 64.0101 834.544C81.2778 831.142 92.2937 818.425 95.5699 814.641C103.816 805.103 103.626 799.349 117.602 754.917C124.376 733.362 127.652 724.443 136.69 716.559C140.361 713.379 150.238 704.763 162.393 707.021C163.042 707.148 173.979 709.31 179.281 718.832C184.583 728.354 178.347 734.586 179.281 753.487C179.803 764.185 180.357 775.265 188.081 782.975C198.796 793.658 216.175 790.923 218.929 790.351C232.873 787.855 242.464 778.381 251.233 769.685C264.654 756.412 266.379 748.225 273.992 747.573C281.605 746.921 288.648 754.663 292.89 760.386C293.824 761.658 294.631 762.818 295.28 763.772C342.778 833.352 368.498 871.138 372.217 889.515Z" fill="#4D58A7"/>
<path d="M267.86 850.021C259.587 852.266 250.997 851.613 242.582 850.626C235.945 849.894 229.134 848.397 224.609 843.428C213.129 852.983 199.204 860.133 183.866 858.461H183.485H183.136C172.72 856.869 162.336 854.99 151.888 853.684C122.641 849.846 82.121 850.021 67.1165 880.963C67.5711 883.79 67.773 886.652 67.7199 889.515H62.3531C62.4413 886.811 62.2498 884.105 61.7816 881.441C61.702 881.198 61.6539 880.947 61.6386 880.692C60.1653 872.927 56.5134 865.745 51.1117 859.99C48.9794 857.388 46.2574 855.334 43.1728 854.002C39.686 853.107 36.0109 853.29 32.6299 854.528C29.6428 855.371 26.8777 856.864 24.5313 858.901C22.1849 860.938 20.3149 863.468 19.0544 866.312C17.7841 869.497 12.5444 868.128 13.8147 864.863C16.3641 858.487 21.324 853.381 27.6125 850.658C33.3603 848.094 40.4577 846.788 46.396 849.448C51.8579 851.9 56.3831 857.123 59.6857 861.981C62.0702 865.492 63.9565 869.319 65.2905 873.351C68.7711 868.114 73.1656 863.55 78.2627 859.878C92.2352 849.623 109.923 846.454 126.928 846.454C137.155 846.591 147.359 847.464 157.461 849.066C150.491 822.137 134.994 793.09 148.935 765.763C150.523 762.578 155.207 765.397 153.619 768.502C143.933 787.5 150.062 808.139 156.54 827.806C162.399 821.85 168.607 816.324 175.006 810.957C175.525 810.465 176.213 810.19 176.927 810.19C177.642 810.19 178.33 810.465 178.849 810.957C179.351 811.472 179.632 812.164 179.632 812.884C179.632 813.605 179.351 814.296 178.849 814.811C171.826 820.589 165.126 826.751 158.779 833.268L158.446 833.571C160.192 838.89 161.844 844.113 163.098 849.193C163.155 849.433 163.181 849.679 163.177 849.925C170.163 851.008 177.118 852.203 184.088 853.27C201.713 855.101 216.828 844.591 228.626 832.567C240.042 820.942 251.156 807.597 255.046 791.386C255.856 787.978 261.096 789.443 260.27 792.835C256.11 810.225 244.122 824.685 231.801 837.09C230.801 838.093 229.785 839.081 228.737 840.052C232.659 844.447 239.359 845.1 244.916 845.658C252.109 846.374 259.413 846.916 266.462 845.005C267.044 845.019 267.605 845.22 268.064 845.578C268.523 845.936 268.855 846.433 269.012 846.994C269.168 847.556 269.141 848.153 268.933 848.698C268.726 849.243 268.35 849.707 267.86 850.021Z" fill="#FFF2E4"/>
<path d="M443.439 821.843C448.95 832.409 466.956 866.936 461.302 889.514H337.115C313.044 871.417 302.18 846.947 298.095 837.795C292.346 824.862 283.272 804.428 286.74 779.689C287.549 772.906 289.674 766.348 292.995 760.384V760.384C298.11 751.232 305.015 744.273 310.605 724.983C318.745 696.955 315.705 671.898 314.01 658.901C310.241 629.983 302.925 628.14 300.391 597.379C298.031 568.239 303.368 554.352 306.06 548.393C309.703 540.338 315.942 526.578 331.05 519.904C341.613 515.233 357.971 513.406 369.658 522.192C380.744 530.486 382.739 544.707 384.418 556.369C387.236 576.008 381.06 581.22 386.682 591.675C393.935 605.149 411.038 609.153 413.936 609.915C429.06 613.506 434.302 606.738 448 611.044C450.344 611.79 464.09 616.16 469.585 626.933C479.625 646.778 457.027 678.524 443.455 697.575C428.078 719.168 418.83 724.141 416.201 740.857C414.316 752.964 417.183 762.99 420.746 775.05C427.27 797.135 435.679 806.907 443.439 821.843Z" fill="#0D203F"/>
<path d="M431.192 646.526C409.06 670.281 382.074 690.599 365.126 718.724C365.126 713.308 365.126 707.908 365.363 702.492C365.901 685.072 367.292 667.763 369.49 650.517C369.932 647.064 364.526 647.112 364.083 650.517C358.95 690.97 358.367 731.873 362.344 772.457C361.474 771.681 360.605 770.873 359.767 770.097C357.475 767.928 355.372 765.616 353.238 763.304C347.23 756.779 340.986 750.46 334.71 744.205C331.548 741.038 328.386 737.87 324.987 734.798C322.426 732.454 318.664 736.271 321.161 738.631C327.485 744.474 333.556 750.65 339.579 756.811C344.669 762.037 349.412 767.643 354.645 772.647C357.475 775.355 360.637 777.905 363.229 780.866C365.297 799.22 368.299 817.455 372.225 835.502C375.956 852.668 380.514 869.613 385.9 886.337C386.959 889.647 392.223 888.221 391.101 884.896C383.907 862.531 378.177 839.721 373.948 816.609C384.677 807.973 395.706 799.733 407.036 791.888C409.866 789.909 407.178 785.221 404.301 787.137C393.583 794.565 383.117 802.388 372.904 810.512C368.3 783.617 365.732 756.412 365.221 729.129C365.533 728.88 365.786 728.567 365.964 728.21C382.216 696.886 411.399 675.633 435.018 650.327C437.39 647.809 433.58 643.992 431.192 646.526Z" fill="#FFF2E4"/>
<path d="M490.721 68.4939H452.793C461.746 68.256 470.251 64.5435 476.498 58.1469C482.746 51.7503 486.241 43.175 486.241 34.247C486.241 25.319 482.746 16.7437 476.498 10.3471C470.251 3.95044 461.746 0.237911 452.793 0H254.396C245.444 0.237911 236.939 3.95044 230.692 10.3471C224.444 16.7437 220.948 25.319 220.948 34.247C220.948 43.175 224.444 51.7503 230.692 58.1469C236.939 64.5435 245.444 68.256 254.396 68.4939H221.448C212.496 68.7318 203.991 72.4444 197.743 78.841C191.496 85.2376 188 93.8129 188 102.741C188 111.669 191.496 120.244 197.743 126.641C203.991 133.037 212.496 136.75 221.448 136.988H490.721C495.309 137.11 499.875 136.314 504.15 134.648C508.424 132.982 512.321 130.479 515.609 127.286C518.898 124.094 521.511 120.278 523.296 116.062C525.081 111.846 526 107.317 526 102.741C526 98.1651 525.081 93.6356 523.296 89.4199C521.511 85.2042 518.898 81.3876 515.609 78.1954C512.321 75.0032 508.424 72.5001 504.15 70.8339C499.875 69.1676 495.309 68.372 490.721 68.4939Z" fill="#F2D035"/>
</svg>
