<svg width="385" height="448" viewBox="0 0 385 448" fill="none" xmlns="http://www.w3.org/2000/svg">
<path d="M367.19 346.323C362.445 357.279 355.343 371.138 345.33 390.72C339.921 401.312 334.606 411.445 330.952 426.476C329.266 433.68 328.119 440.999 327.52 448.374C326.977 454.314 326.834 460.285 327.093 466.244H128.898C128.794 466.12 128.698 465.987 128.614 465.848V465.848C125.272 461.178 122.203 456.318 119.424 451.292C118.475 449.547 117.541 447.756 116.64 445.948C114.007 440.676 111.75 435.224 109.886 429.632V429.632C107.297 422.125 105.701 414.31 105.14 406.387V406.387C104.555 398.589 105.446 390.75 107.766 383.284C110.487 374.785 114.267 370.155 118.174 361.497C120.521 356.243 122.426 350.801 123.868 345.229C127.032 333.273 132.489 311.93 124.454 289.874C122.872 285.434 122.461 285.894 112.939 269.705C96.0453 240.878 87.488 226.132 82.4739 208.531C79.9705 199.273 78.2404 189.821 77.3015 180.275C74.9763 161.977 73.9007 152.622 77.871 142.807C79.4527 138.7 83.8975 127.87 95.1279 123.192C95.7923 122.923 107.782 118.166 118.712 123.779C128.108 128.536 127.491 136.131 136.538 139.35C141.284 140.936 149.192 141.76 154.365 137.606C161.957 131.485 155.583 120.767 160.122 96.6807C161.704 88.0073 164.108 81.2366 168.173 69.5822C171.954 58.7048 173.852 53.2661 177.379 46.5113C182.909 35.3583 190.523 25.3731 199.809 17.0978C206.547 11.2151 214.424 4.31765 226.841 1.54279C232.614 0.242573 241.314 -1.62852 250.425 2.6844C263.237 8.85251 266.654 22.6 267.112 24.5979C268.292 30.3289 268.091 36.2593 266.527 41.8971C260.105 70.6604 270.165 36.8548 256.752 96.6807C251.5 120.116 249.697 126.506 248.701 139.35C247.933 147.801 248.124 156.312 249.27 164.72C250.852 175.487 252.086 184.398 258.476 192.96C264.329 200.888 271.541 204.409 279.766 208.531C287.517 212.416 294.429 214.255 307.953 217.76C324.625 222.088 324.625 220.931 334.986 224.102C347.64 227.971 356.798 230.889 365.466 238.515C371.369 243.799 376.077 250.287 379.275 257.543C392.91 287.337 376.855 324.156 367.19 346.323Z" fill="#E96229"/>
<path d="M348.8 282.525C348.211 291.829 344.232 303.919 334.636 307.48C329.257 309.489 323.257 308.35 317.91 306.815C311.64 305.027 305.465 302.859 299.339 300.628C293.212 298.396 287.132 296.039 281.133 293.507C275.133 290.975 269.309 288.206 262.704 288.649C251.564 289.392 242.191 297.732 234.329 304.948C236.894 309.177 239.174 313.57 241.157 318.098C246.392 330.203 248.716 343.179 250.132 356.234C251.606 369.827 252.08 383.51 251.548 397.171C250.668 420.56 246.927 443.755 240.409 466.244H234.409C242.165 439.959 246.057 412.696 245.963 385.303C246.042 371.63 244.977 357.974 242.78 344.477C240.551 331.25 235.849 318.557 228.919 307.052C222.33 296.102 214.835 285.737 208.867 274.423C208.596 273.9 208.342 273.362 208.087 272.84C199.508 269.209 191.475 264.417 184.216 258.598C171.198 248.297 160.552 235.416 150.478 222.345C144.733 214.892 139.115 207.328 133.45 199.795C127.369 192.065 121.711 184.015 116.501 175.679C114.592 172.514 119.605 169.587 121.498 172.768C127.197 181.906 133.386 190.733 140.038 199.21C158.085 223.168 176.418 250.844 204.013 264.77C200.52 257.241 197.486 249.51 194.926 241.619C179.965 195.546 181.194 145.785 198.411 100.498C199.748 97.0801 205.35 98.5676 203.997 102.081C194.219 127.442 189.599 154.48 190.406 181.629C191.057 205.774 195.902 229.624 204.729 252.126C209.244 263.517 214.812 274.466 221.359 284.835C224.542 289.915 227.916 294.915 231.115 299.995C239.072 292.81 247.984 285.389 258.71 283.427C270.454 281.274 280.846 287.478 291.413 291.624C297.248 293.902 303.137 296.044 309.078 298.048C314.393 299.836 319.884 302.004 325.485 302.685C328.192 303.181 330.988 302.773 333.437 301.526C335.886 300.278 337.852 298.26 339.028 295.785C341.142 291.945 342.432 287.709 342.816 283.347C343.548 274.818 341.065 265.529 333.983 260.149C331.055 257.918 333.983 252.917 336.896 255.164C345.569 261.605 349.468 271.986 348.8 282.525Z" fill="#FFF2E4"/>
<path d="M128.472 466.244H180.488C180.419 463.993 180.499 461.74 180.727 459.5C182.316 443.177 189.942 431.16 196.726 420.726C206.513 405.67 209.325 407.664 223.735 387.589C236 370.458 238.717 362.257 240.052 356.32C241.64 349.211 243.722 339.601 238.796 329.405C238.066 327.917 231.965 315.868 218.397 312.211C208.546 309.567 200.332 312.844 193.31 315.662C183.777 319.478 177.66 324.877 172.29 329.722C159.819 340.963 161.344 345.095 150.318 353.803C143.867 358.901 134.716 366.136 124.278 364.11C121.968 363.648 119.758 362.785 117.748 361.561C115.287 360.017 113.052 358.142 111.107 355.988C106.706 351.349 104.354 346.045 100.764 330.355C97.3321 315.441 95.6003 303.44 95.4256 302.205C94.4723 295.508 93.1854 285.201 90.0873 271.569C88.4985 264.508 86.9097 258.903 81.9369 255.943C80.4339 255.071 78.7698 254.512 77.0444 254.297C75.319 254.082 73.5678 254.216 71.8958 254.692C67.8445 256.101 65.8108 259.758 64.3651 262.513C56.0081 278.345 53.7044 287.513 53.7044 287.513C50.7493 299.165 48.3502 308.665 48.954 321.631C49.7325 336.688 53.8156 338.398 53.9745 355.386C54.1651 374.242 49.2082 377.915 47.6988 378.834C44.9344 380.559 41.4708 380.306 34.5279 379.768C22.7551 378.881 19.8794 375.746 14.0327 377.551C8.48792 379.277 5.4057 383.884 4.15057 385.673C-1.79144 394.191 0.0356502 404.355 1.24312 410.578C3.08609 420.077 6.80382 426.22 21.5953 448.243C27.442 456.951 31.398 462.825 33.7176 466.244H128.472V466.244Z" fill="#FF90B5"/>
<path d="M128.975 466.244H135.393C128.406 453.123 121.419 439.955 114.844 426.629C120.574 420.912 127.539 416.585 135.203 413.982C142.917 411.421 151.168 410.994 158.803 408.244C166.707 405.414 172.429 399.976 177.218 393.194C182.008 386.413 185.454 377.876 184.711 369.245C184.41 365.577 178.657 365.546 178.973 369.245C179.684 377.702 176.064 385.511 170.943 392.056C168.517 395.411 165.482 398.28 161.996 400.513C158.566 402.378 154.872 403.711 151.042 404.466C143.454 406.204 135.867 407.248 128.659 410.394C122.581 413.01 116.995 416.646 112.141 421.143C109.791 416.295 107.493 411.405 105.249 406.473C99.5309 394.033 94.4451 381.313 90.0109 368.359C86.6137 358.383 83.7382 348.236 81.396 337.96C80.5741 334.356 75.0732 335.874 75.8478 339.541C82.9926 371.047 95.6224 400.861 109.944 429.648C112.236 434.28 114.559 438.864 116.93 443.449C117.31 444.192 117.705 444.919 118.084 445.646L116.693 445.915C100.048 448.823 83.3245 443.385 68.9401 435.102C61.5756 430.815 54.5333 425.996 47.8694 420.685C41.5465 415.753 35.7612 410.251 31.9359 403.169C30.1655 399.913 25.2021 402.821 26.9567 406.078C31.1771 413.935 37.6264 420.005 44.5183 425.411C51.5943 431.03 59.0755 436.118 66.901 440.635C82.8187 449.646 101.186 454.973 119.444 451.305L120.139 451.163C120.361 451.108 120.578 451.034 120.787 450.942C123.401 455.927 126.035 460.885 128.691 465.817C128.75 465.954 128.818 466.086 128.896 466.213L128.975 466.244Z" fill="#FFF2E4"/>
</svg>
