<svg width="1446" height="744" viewBox="0 0 1446 744" fill="none" xmlns="http://www.w3.org/2000/svg">
<path d="M1214.74 1419H-7.99997V660.252C40.8559 644.004 92.0325 679.529 104.882 689.18C132.656 710.045 207.064 764.92 254.674 741.49C294.442 721.944 306.266 680.115 311.737 660.643C325.979 610.068 310.198 566.285 302.235 544.125C293.074 518.69 281.373 500.635 261.807 470.412C247.891 448.998 232.812 428.362 216.639 408.598C194.141 380.232 134.122 304.565 126.256 208.839C124.033 181.597 118.659 115.996 161.921 61.4136C171.179 49.7593 199.638 17.191 247.419 4.33954C261.685 0.503655 290.314 -4.9692 347.28 9.07943C382.872 17.8751 425.449 33.2919 494.678 75.6821C576.536 125.866 633.918 176.173 686.34 222.472C714.31 247.198 738.567 268.649 769.712 300.656C843.216 376.396 846.758 399.925 912.201 467.48C1010.62 569.094 1054.93 569.925 1068.66 569.363C1074.23 569.119 1116 566.798 1143.95 536.868C1159 520.767 1158.97 508.502 1176.41 443.854C1197.54 365.67 1206.63 350.009 1215.74 338.013C1226.17 324.257 1249.72 292.984 1283.68 291.909C1297.84 291.445 1316.46 295.94 1354.03 330.732C1392.41 366.281 1412.92 398.605 1434.08 430.196C1436.77 434.203 1440.82 440.238 1446 447.836V1419H1214.74Z" fill="#31B3A6"/>
<g clip-path="url(#clip0)">
<path d="M755.436 122.966C756.743 120.213 759.974 116.846 764 112.621C767.231 109.241 768.846 107.55 771.141 106.206C776.949 102.787 782.91 103.044 786.141 103.172C789.051 103.287 794.91 103.543 800.602 107.09C806.923 111.033 806.423 114.951 815.782 122.953C820.09 126.641 821.923 127.294 823.102 127.588C825.41 128.164 829.436 128.472 837.743 123.85C844.731 119.957 845.91 117.499 858.09 107.627C864.692 102.275 867.385 100.534 870.051 99.0744C874.705 96.5137 878.526 94.4139 883.974 93.9017C892.141 93.1335 898.436 96.4625 900.936 97.8196C908.833 102.122 912.577 108.434 913.436 109.945C916.167 114.772 916.795 118.984 917.359 122.787C918.154 128.126 919.154 134.784 916.115 142.402C912.923 150.392 907.154 154.719 905.231 156.128C902.474 158.151 897.141 162.043 890.051 162.184C887.051 162.248 882.231 161.672 877.551 161.108C874.333 160.724 872.731 160.455 870.59 161.108C867.41 162.081 865.654 164.309 863.628 166.639C860.474 170.25 856.833 173.413 853.449 176.806C851.038 179.225 843.82 186.459 833.987 189.468C832.282 189.993 829.538 190.685 814.526 190.185C800.436 189.712 793.385 189.481 791.141 188.585C783.026 185.333 783.205 179.866 768.295 154.348C758.141 136.973 752.269 129.598 755.436 122.966Z" fill="#2A2A2E"/>
<path d="M756.154 122.441C758.333 120.533 761.603 121.571 765.551 121.967C769.115 122.326 774.436 121.289 781.564 114.388C781.949 115.899 782.628 118.19 783.808 120.841C785.936 125.591 788.141 130.52 792.513 132.057C794.577 132.787 798.256 133.145 798.41 133.183C800.192 132.543 801.064 132.94 801.423 133.171C803.41 134.451 803.269 139.56 800.5 141.89C799.026 143.119 797.244 143.222 796.397 143.209C796.141 161.108 795.885 179.021 795.641 196.92C784.923 196.293 774.218 195.678 763.5 195.051C764.167 193.258 765.064 190.57 765.744 187.215C767.179 180.199 768.692 172.785 765 168.547C762.41 165.577 759.551 166.832 755.872 162.939C753.718 160.673 752.705 158.151 752.179 156.448C752.179 148.317 752.782 142.453 752.782 134.323C752.936 129.97 753.615 124.656 756.154 122.441Z" fill="#F69D9B"/>
<path d="M799.334 186.664L789.885 335.366H767.693C759.641 338.119 753.026 337.837 749.205 335.366C745.821 333.164 752.859 320.898 748.693 321.141L744.577 205.972L761.167 176.536C761.167 176.536 768.436 185.307 772.308 186.318C776.205 187.33 799.334 186.664 799.334 186.664Z" fill="#FCDAE0"/>
<path d="M766.538 546.819C765.192 547.306 763.885 546.486 756.513 540.558C734.897 523.158 729.731 516.961 716.115 506.142C713.231 503.837 707.026 499.023 699.013 491.815C690.026 483.723 687.974 481.072 686.833 477.666C685.205 472.852 686.513 447.437 687.026 439.191C687.769 426.861 690.013 417.592 694.487 399.538C695.295 396.299 697.128 389.001 700.782 376.172C703.744 365.814 707.987 351.435 713.615 334.176L723.32 330.347C727.628 327.799 738.564 321.756 748.692 321.154L749.205 335.379H767.692C770.192 345.494 768.795 360.27 767.167 377.58C765.256 397.874 760.192 416.35 755.897 432.021C754.013 438.884 752.244 444.761 750.82 449.268C750.295 450.971 750.769 452.827 752.077 454.056C753.346 455.247 754.628 456.464 755.897 457.667C765.885 499.241 774.705 543.81 766.538 546.819Z" fill="#B3CDD8"/>
<path d="M656.756 119.253C656.192 115.463 656.5 111.046 656 107.243C655.269 101.584 655.102 95.8605 655.513 90.1757C655.756 86.8851 656.346 83.2873 658.846 81.1363C659.449 80.6113 660.167 80.176 660.577 79.4846C661.474 77.961 660.282 75.8228 658.59 75.3106C656.885 74.7985 655.026 75.5539 653.679 76.6934C652.32 77.8457 651.346 79.3566 650.218 80.7266C649.372 73.8894 648.526 67.0651 647.679 60.2279C647.602 59.5749 647.474 58.8451 646.949 58.461C646.244 57.9488 645.179 58.3586 644.692 59.0756C644.205 59.7926 644.167 60.7144 644.141 61.5851C644.064 64.4275 644.128 67.2699 644.333 70.0995C643.974 66.7065 643.385 63.3392 642.359 60.087C642.167 59.4597 641.923 58.8067 641.436 58.3714C640.936 57.936 640.102 57.8208 639.641 58.2945C639.333 58.6146 639.269 59.0884 639.244 59.5109C638.923 63.3648 639.218 67.2699 640.141 71.0342C639.154 68.3966 637.987 65.8231 636.615 63.3648C636.5 63.1599 636.372 62.9423 636.141 62.8526C635.551 62.6222 635.154 63.48 635.115 64.1074C634.974 66.6041 635.372 69.1392 636.269 71.4695C635.667 70.4324 634.833 69.5362 633.846 68.8576C633.679 68.7295 633.474 68.6143 633.269 68.6271C632.718 68.6527 632.577 69.4081 632.615 69.9587C632.897 73.5437 633.679 77.0903 634.936 80.4705C639.449 92.6212 637.013 106.462 636.936 119.419C639.782 119.701 642.526 118.997 645.385 118.984C649.064 118.971 653.077 119.406 656.756 119.253Z" fill="#F69A9D"/>
<path d="M954.462 300.502C967.949 303.319 981.038 308.069 993.192 314.56C994.256 315.136 995.385 313.92 994.731 312.909C993.718 311.321 992.103 310.002 990.577 308.837C992.615 310.783 995.795 311.872 998.538 312.55C999.744 312.845 1000.69 311.219 999.756 310.399L992.756 305.457C995.897 306.865 999.192 307.941 1002.55 308.658C1003.76 308.914 1004.53 307.377 1003.55 306.622C1000.73 304.394 997.679 302.448 994.474 300.822C996.513 301.782 998.667 302.512 1000.87 302.999C1002.12 303.28 1002.86 301.667 1001.85 300.912C997.244 297.442 991.731 295.163 986.013 294.407C989.731 292.282 993.962 289.247 993.667 284.984C993.641 284.536 993.526 284.049 993.179 283.78C992.474 283.242 991.513 283.934 990.859 284.561C989.744 285.624 988.474 286.533 987.115 287.263C973.5 294.587 963.461 280.4 951.205 281.476C951.423 283.486 951.333 285.88 951.474 287.903C951.577 289.35 951.974 290.835 952.962 291.911C953.09 292.039 953.244 292.179 953.423 292.167C953.026 295.009 953.641 297.749 954.462 300.502Z" fill="#F5A1A5"/>
<path d="M763.757 597.073L759.09 628.148L799.551 620.056L797.731 586.779L763.757 597.073Z" fill="#F8B1B9"/>
<path d="M799.769 615.165L770.41 622.233L756.436 621.439C756.436 621.439 729.013 631.912 728.436 633.564C727.846 635.216 726.385 643 726.385 643L801.167 642.987L799.769 615.165Z" fill="#F0E5DE"/>
<path d="M800.756 636.073L728.077 636.906" stroke="#B1ADA4" stroke-width="3" stroke-miterlimit="10"/>
<path d="M739.244 628.302C739.769 629.16 740.68 629.825 741.641 630.197C743.103 630.76 744.705 630.786 746.256 630.888C747.821 630.991 749.436 631.208 750.756 632.053C752.154 632.962 753.013 634.486 753.551 636.061" stroke="#B1ADA4" stroke-width="3" stroke-miterlimit="10"/>
<path d="M779.615 636.317C780.462 633.756 782.628 631.592 784.821 629.838C787.141 627.956 789.654 626.227 792.513 625.37C794.192 624.857 795.962 624.64 797.705 624.448C798.539 624.358 799.385 624.256 800.218 624.166" stroke="#B1ADA4" stroke-width="3" stroke-miterlimit="10"/>
<path d="M756.013 624.243C754.615 624.525 753.167 623.782 752.218 622.719C751.269 621.657 750.731 620.299 750.205 618.968C750.09 618.686 750.013 618.315 750.243 618.136C750.359 618.046 750.5 618.033 750.641 618.033C751.41 617.982 752.205 617.944 752.923 618.225C753.449 618.43 753.897 618.801 754.346 619.16L756.602 621.016C756.961 621.311 757.551 621.042 757.5 620.581C757.41 619.57 757.59 618.545 758.064 617.649C758.769 616.305 760.077 615.293 761.551 614.96C762.179 614.819 762.949 614.845 763.333 615.357C763.525 615.626 763.577 615.972 763.615 616.305C763.82 618.072 764.038 619.877 763.641 621.605C763.243 623.334 762.128 625.011 760.436 625.575" stroke="#B1ADA4" stroke-width="3" stroke-miterlimit="10"/>
<path d="M815.385 530.008L802.859 556.217L793.782 566.165C793.782 566.165 784.974 592.989 785.859 594.423C786.744 595.857 791.667 601.683 791.667 601.683L837.039 545.859L815.385 530.008Z" fill="#F0E5DE"/>
<path d="M831.385 542.376L786.218 599.25" stroke="#B1ADA4" stroke-width="3" stroke-miterlimit="10"/>
<path d="M786.577 585.166C787.577 585.294 788.679 585.012 789.564 584.5C790.923 583.719 791.949 582.502 793.013 581.363C794.077 580.223 795.269 579.097 796.756 578.61C798.346 578.098 800.077 578.392 801.641 578.981" stroke="#B1ADA4" stroke-miterlimit="10"/>
<path d="M818.257 558.918C816.808 556.652 816.487 553.604 816.5 550.8C816.5 547.817 816.744 544.783 817.872 542.017C818.539 540.391 819.474 538.893 820.423 537.408C820.885 536.704 821.333 535.974 821.782 535.27" stroke="#B1ADA4" stroke-width="3" stroke-miterlimit="10"/>
<path d="M793.987 569.609C793.32 570.877 791.833 571.53 790.41 571.594C788.987 571.658 787.59 571.222 786.231 570.787C785.949 570.697 785.603 570.531 785.603 570.236C785.603 570.096 785.692 569.967 785.769 569.865C786.218 569.238 786.679 568.597 787.346 568.226C787.833 567.945 788.41 567.829 788.962 567.714L791.82 567.125C792.282 567.035 792.436 566.408 792.051 566.152C791.205 565.589 790.526 564.795 790.128 563.86C789.526 562.465 789.564 560.813 790.231 559.456C790.513 558.879 791.026 558.291 791.667 558.329C792 558.342 792.295 558.534 792.577 558.713C794.077 559.661 795.615 560.634 796.718 562.042C797.82 563.438 798.41 565.371 797.782 567.035" stroke="#B1ADA4" stroke-miterlimit="10"/>
<path d="M749.243 335.366L751.769 394.89L754.077 473.761L756.333 602.912H803.961L813.666 550.788C813.666 550.788 822.91 429.012 822.91 424.403C822.91 419.794 825.679 335.366 825.679 335.366H749.243Z" fill="#D2DEE9"/>
<path d="M757.333 129.329C757.551 130.392 757.731 131.339 758.103 132.056C758.462 132.773 758.91 133.132 759.449 133.273C760.013 133.413 760.692 133.362 761.218 133.004C761.808 132.632 762.295 131.736 762.923 130.853C763.192 131.89 763.269 133.029 762.539 134.182C761.744 135.334 760.205 135.821 758.859 135.449C758.192 135.283 757.513 134.835 757.103 134.297C756.68 133.746 756.436 133.106 756.385 132.504C756.282 131.262 756.654 130.187 757.333 129.329Z" fill="#2A2A2E"/>
<path d="M773.295 132.748C773.577 133.862 773.654 134.912 773.961 135.731C774.115 136.154 774.269 136.487 774.5 136.768C774.718 137.063 774.987 137.293 775.244 137.447C775.513 137.601 775.718 137.652 775.987 137.652C776.269 137.652 776.679 137.498 777.154 137.319C778.077 136.948 778.923 136.653 779.769 135.885C779.808 137.076 778.91 138.138 778.064 138.83C777.641 139.176 777.128 139.56 776.385 139.752C775.615 139.944 774.756 139.777 774.115 139.406C772.833 138.676 772.179 137.229 772.205 135.987C772.231 134.733 772.667 133.696 773.295 132.748Z" fill="#2A2A2E"/>
<path d="M773.769 147.689C773.41 148.88 772.628 149.879 771.667 150.698C770.692 151.492 769.449 152.068 768.102 152.184C766.769 152.312 765.372 152.017 764.295 151.313C763.718 151.031 763.295 150.532 762.833 150.122C762.436 149.648 762.09 149.136 761.808 148.599C762.423 148.765 762.936 149.021 763.461 149.213C764 149.367 764.487 149.61 765 149.687C765.987 149.981 766.949 150.02 767.885 149.943C769.769 149.789 771.641 148.855 773.769 147.689Z" fill="#2A2A2E"/>
<path d="M765.936 131.468C766.013 132.364 765.91 133.247 765.718 134.093C765.525 134.95 765.218 135.77 764.846 136.564C764.077 138.138 762.987 139.56 761.654 140.686L761.474 139.278C761.961 139.675 762.41 140.123 762.859 140.571C763.295 141.032 763.731 141.506 764.115 142.069C763.448 141.967 762.833 141.762 762.231 141.557C761.641 141.339 761.038 141.109 760.474 140.84L759.602 140.418L760.282 139.432L763.013 135.501L764.397 133.504C764.872 132.851 765.359 132.159 765.936 131.468Z" fill="#2A2A2E"/>
<path d="M795.82 185.013C799.282 185.461 804.192 186.293 809.936 187.906C820.987 191.018 828.795 195.294 836.718 199.839C851.192 208.136 861.923 214.973 871.102 220.812C900.628 239.582 899.102 238.519 904.038 241.784C909.051 245.1 922.115 253.781 938.795 265.65C947.231 271.655 954.449 276.956 960.154 281.194C957.859 290.105 955.564 299.029 953.282 307.941C935.231 310.233 919.577 310.348 907.308 309.746C882.692 308.555 864.423 304.189 859.167 302.883C845.615 299.503 834.461 295.444 826.231 292.039C826.949 306.622 827.679 321.205 828.397 335.789C812.949 335.674 797.513 335.546 782.064 335.43L795.82 185.013Z" fill="#F99C2D"/>
<path d="M660 108.46C663.436 120.022 667.372 129.228 670.538 135.821C674.795 144.669 677.449 150.098 682.756 156.026C689.577 163.631 697.064 167.946 702.141 170.34C711.038 172.325 721.359 174.066 732.91 174.975C745.885 175.999 757.538 175.756 767.474 174.975C764 228.443 760.513 281.911 757.038 335.38C742.564 334.842 728.09 334.291 713.615 333.753C714.333 317.314 715.064 300.874 715.782 284.421C709.5 282.411 700.744 279.197 690.821 274.127C679 268.096 670.885 263.948 663.679 255.702C657.833 249.006 655.179 241.746 650.115 227.521C647.603 220.492 643.308 207.599 639.179 188.995C637.269 180.327 633.59 162.351 631.462 138.92C630.59 129.33 630.192 121.148 630 114.926L660 108.46Z" fill="#F99C2D"/>
</g>
<defs>
<clipPath id="clip0">
<rect x="630" y="58" width="374" height="585" fill="white"/>
</clipPath>
</defs>
</svg>
