<svg width="309" height="510" viewBox="0 0 309 510" fill="none" xmlns="http://www.w3.org/2000/svg">
<path d="M79.1291 82.2213C72.166 102.231 49.1072 101.098 41.0329 120.335C35.4243 133.697 40.4086 148.858 46.324 160.567C49.34 164.463 51.3824 168.052 52.7052 171.334C54.6735 176.162 55.0862 180.344 54.7899 183.859C53.1179 203.488 27.3289 223.773 -5 237.685V0.699219C10.175 5.11411 25.9214 12.1547 29.9215 13.9333C50.0067 22.9007 62.3985 28.639 71.1924 42.519C73.5946 46.3092 85.2351 64.6781 79.1291 82.2213Z" fill="#33B3A6"/>
<path d="M282.309 367.019C261.197 436.503 206.434 489.63 138.39 504.653C89.9125 515.357 35.5619 506.538 -5 481.52V146.899C3.0002 146.454 9.47656 147.534 11.4025 147.862C29.9215 150.975 43.4668 161.636 52.7052 171.334C57.2238 176.067 60.716 180.577 63.2557 183.859C72.6316 195.971 70.0495 197.506 86.5367 228.325C98.9286 251.501 105.659 264.089 117.225 278.086C132.686 296.804 148.073 307.486 160.613 316.2C186.169 333.955 208.603 342.827 227.281 350.079C237.334 353.986 246.975 357.268 256.075 360.02C256.319 360.095 256.562 360.169 256.795 360.243C261.324 361.609 265.705 362.837 269.938 363.959C274.224 365.092 278.351 366.108 282.309 367.019Z" fill="#E96730"/>
<path d="M252.277 341.895C249.472 335.003 244.848 328.862 238.996 324.257C233.969 320.308 228.117 317.502 223.154 313.469C218.191 309.445 214.011 303.644 214.276 297.259C214.381 294.634 215.397 291.86 217.62 290.431C220.17 288.79 223.472 289.33 226.488 289.097C229.916 288.832 233.26 287.466 235.885 285.243C238.34 283.168 240.213 279.632 238.689 276.805C237.916 275.365 236.445 274.476 235.08 273.576C231.927 271.501 229.027 269.055 226.445 266.302C224.212 263.931 222.159 261.157 221.736 257.928C221.313 254.699 223.069 250.993 226.234 250.22C228.9 249.575 231.546 251.078 234.054 252.19C236.562 253.301 239.842 253.936 241.768 251.988C242.636 251.11 243.038 249.871 243.313 248.664C244.128 245.149 244.192 241.465 243.514 237.928C243.059 235.567 242.266 233.249 242.234 230.846C242.202 228.442 243.123 225.827 245.239 224.684C248.382 223.001 252.319 225.435 254.086 228.538C255.853 231.629 256.351 235.313 258.023 238.468C259.695 241.623 263.377 244.302 266.679 242.936C268.182 242.312 269.261 240.978 270.34 239.76C272.796 236.997 275.843 234.466 279.494 233.895C283.145 233.323 287.399 235.377 288.161 238.987C288.923 242.597 286.203 245.922 283.695 248.632C278.838 253.884 273.875 259.548 272.372 266.546C271.663 269.838 272.563 274.296 275.886 274.846C277.536 275.121 279.166 274.243 280.447 273.173C283.896 270.283 285.865 265.837 289.558 263.253C293.124 260.765 298.077 260.448 301.929 262.47C305.781 264.492 308.341 268.748 308.32 273.099C308.289 280.5 301.77 285.963 296.246 290.875C287.685 298.488 280.15 307.391 275.039 317.64C269.928 327.888 267.325 339.545 268.679 350.916C269.409 357.014 271.208 363.462 268.732 369.083C267.282 372.376 264.224 375.478 260.965 377.045C255.536 379.66 256.15 375.288 256.245 370.788C256.446 361.058 256.001 351.043 252.277 341.895Z" fill="#444FCB"/>
</svg>
