<svg width="143" height="544" viewBox="0 0 143 544" fill="none" xmlns="http://www.w3.org/2000/svg">
<path d="M239 0V544C164.169 518.728 111.998 485.683 79.6364 461.599C25.5646 421.356 5.72808 390.478 1.35257 358.161C0.108414 348.977 -4.49076 315.095 15.3318 295.26C35.6716 274.907 60.4569 290.605 114.585 275.69C129.71 271.525 185.32 256.205 188.675 226.767C190.31 212.453 179.225 197.93 169.104 190.424C145.633 173.007 123.308 190.312 100.605 173.65C86.7099 163.446 79.902 145.834 79.6364 131.716C79.245 110.595 93.406 92.2555 124.37 67.4164C148.428 48.1266 185.711 22.4069 239 0Z" fill="#454FCB"/>
</svg>
