<svg width="165" height="413" viewBox="0 0 165 413" fill="none" xmlns="http://www.w3.org/2000/svg">
<path d="M-15.9999 412.035L-15.9999 -0.000427246C40.6471 19.1414 80.1402 44.1696 104.638 62.4115C145.57 92.8923 160.587 116.28 163.899 140.757C164.841 147.713 168.322 173.377 153.317 188.4C137.919 203.815 119.157 191.926 78.1825 203.222C66.7324 206.377 24.6361 217.981 22.0963 240.278C20.8582 251.119 29.25 262.119 36.9116 267.805C54.6792 280.996 71.5791 267.889 88.7647 280.509C99.2835 288.238 104.437 301.578 104.638 312.271C104.934 328.269 94.2146 342.159 70.7749 360.973C52.5628 375.583 24.3398 395.064 -15.9999 412.035Z" fill="#33B3A6"/>
</svg>
