<svg width="16" height="16" viewBox="0 0 16 16" fill="none" xmlns="http://www.w3.org/2000/svg">
<path d="M15.2401 2.76028C15.1776 2.69793 15.0977 2.66659 15.0006 2.66659H11.7817L11.0525 0.927099C10.9484 0.670095 10.7609 0.451327 10.4902 0.27076C10.2193 0.0902289 9.94481 0 9.66712 0H6.33368C6.05599 0 5.78162 0.0902289 5.51079 0.27076C5.23992 0.451327 5.05242 0.670058 4.94821 0.927099L4.21905 2.66659H1.00029C0.902981 2.66659 0.823224 2.69793 0.760687 2.76028C0.698333 2.82278 0.666992 2.90269 0.666992 2.99988V3.66662C0.666992 3.76382 0.698187 3.84372 0.760687 3.90611C0.823224 3.96858 0.903127 3.99981 1.00029 3.99981H2.00021V13.9166C2.00021 14.4932 2.16341 14.9844 2.48978 15.3905C2.81621 15.797 3.20858 16 3.66695 16H12.3338C12.7923 16 13.1846 15.79 13.511 15.3699C13.8374 14.9496 14.0005 14.4514 14.0005 13.8751V3.99981H15.0006C15.0977 3.99981 15.1776 3.96858 15.24 3.90611C15.3024 3.84376 15.3338 3.76382 15.3338 3.66662V2.99988C15.3339 2.90269 15.3024 2.82278 15.2401 2.76028ZM6.17749 1.44768C6.22605 1.38521 6.28512 1.3469 6.35455 1.33311H9.65665C9.72608 1.34701 9.78526 1.38529 9.83375 1.44768L10.3339 2.66644H5.66705L6.17749 1.44768ZM12.6673 13.8752C12.6673 14.0279 12.643 14.1686 12.5943 14.297C12.5457 14.4253 12.4952 14.5191 12.4432 14.5781C12.391 14.6373 12.3548 14.6667 12.3339 14.6667H3.66699C3.64615 14.6667 3.60989 14.6373 3.55767 14.5781C3.50554 14.5191 3.45515 14.4253 3.40651 14.297C3.35795 14.1686 3.33365 14.0277 3.33365 13.8752V3.99981H12.6672V13.8752H12.6673Z" fill="#E96730"/>
<path d="M5.00029 12.6668H5.66692C5.76422 12.6668 5.84416 12.6356 5.90652 12.5731C5.96887 12.5104 6.00021 12.4308 6.00021 12.3334V6.33319C6.00021 6.23602 5.96887 6.15612 5.90652 6.09359C5.84398 6.03123 5.76426 6 5.66692 6H5.00029C4.90298 6 4.82319 6.0312 4.76069 6.09359C4.69826 6.15612 4.66699 6.23602 4.66699 6.33319V12.3334C4.66699 12.4308 4.69815 12.5105 4.76069 12.5731C4.82319 12.6355 4.90298 12.6668 5.00029 12.6668Z" fill="#E96730"/>
<path d="M7.66728 12.6668H8.33392C8.43119 12.6668 8.51109 12.6356 8.57341 12.5731C8.63609 12.5104 8.66714 12.4308 8.66714 12.3334V6.33319C8.66714 6.23602 8.63605 6.15612 8.57341 6.09359C8.51109 6.03123 8.43119 6 8.33392 6H7.66728C7.57008 6 7.49018 6.0312 7.42768 6.09359C7.36514 6.15612 7.33398 6.23602 7.33398 6.33319V12.3334C7.33398 12.4308 7.36514 12.5105 7.42768 12.5731C7.49014 12.6355 7.57008 12.6668 7.66728 12.6668Z" fill="#E96730"/>
<path d="M10.3334 12.6668H10.9999C11.0973 12.6668 11.1772 12.6356 11.2396 12.5731C11.302 12.5104 11.3331 12.4308 11.3331 12.3334V6.33319C11.3331 6.23602 11.302 6.15612 11.2396 6.09359C11.1772 6.03123 11.0973 6 10.9999 6H10.3334C10.236 6 10.1563 6.0312 10.0936 6.09359C10.0312 6.15612 10 6.23602 10 6.33319V12.3334C10 12.4308 10.0312 12.5105 10.0936 12.5731C10.1563 12.6355 10.236 12.6668 10.3334 12.6668Z" fill="#E96730"/>
</svg>
