<svg width="1231" height="225" viewBox="0 0 1231 225" fill="none" xmlns="http://www.w3.org/2000/svg">
<path d="M152.38 98.9062C151.734 103.692 150.274 109.271 147.385 115.317C130.908 149.799 40.7684 180.672 -5 156.766V47.7803C-0.417874 47.7909 8.60881 48.4579 32.038 48.6167C40.4509 48.6696 47.6786 48.6484 55.319 48.6167C57.2873 48.6061 59.1392 48.5955 60.8747 48.5849C65.552 48.5637 69.4569 48.5214 72.7374 48.479C89.4997 48.2779 90.2405 48.0026 95.5316 48.6167C107.479 50.0036 122.199 51.8881 135.744 62.3801C140.369 65.9692 148.21 72.0357 151.618 82.496C151.618 82.496 153.734 88.9754 152.38 98.9062Z" fill="#F2CF35"/>
<path d="M743.199 152.837C752.183 151.789 761.294 154.584 769.157 159.084C767.495 148.369 770.85 136.289 779.771 130.127C788.692 123.976 803.211 126.464 807.496 136.427C807.803 129.789 814.502 124.675 821.137 124.548C827.772 124.421 833.963 128.264 838.386 133.219C846.111 141.869 849.349 153.737 850.027 165.309C850.334 170.529 850.154 175.843 848.556 180.819C846.894 185.975 843.773 190.56 840.185 194.625C821.634 215.651 791.877 222.861 763.876 224.185C756.363 224.534 748.617 224.513 741.611 221.771C737.357 220.098 733.516 217.462 730.225 214.286C712.002 196.637 712.891 156.384 743.199 152.837Z" fill="#FE7294"/>
<path d="M1005.61 79.3197C1003.9 66.2868 1011.07 55.096 1017.25 45.4405C1031.36 23.3766 1051.55 13.7316 1058.52 10.5024C1080.33 0.412765 1099.84 0.751558 1112.49 0.973891C1120.32 1.11153 1130.31 1.28092 1142.65 4.67944C1151.88 7.22038 1184.1 16.0925 1200.85 47.0285C1204.63 54.0056 1217.23 77.287 1209.32 97.8475C1193.15 139.826 1100.49 146.972 1043.17 117.963C1032.41 112.521 1008.36 100.346 1005.61 79.3197Z" fill="#E9622A"/>
<path d="M968.57 119.552C968.961 94.9472 989.29 77.6793 996.084 71.9093C1002.76 66.2451 1015.38 57.3412 1033.12 53.9109C1041.74 52.2487 1053.07 50.0571 1064.87 54.9696C1074.06 58.8022 1074.12 63.0266 1089.74 76.6736C1104.54 89.6006 1112.13 96.0694 1121.48 95.7307C1131.48 95.3707 1140.92 88.1396 1145.82 80.9085C1151.63 72.3328 1149.25 66.4251 1155.35 60.7926C1162.21 54.4403 1172.52 55.2026 1176.51 55.499C1199.33 57.193 1223.45 80.3897 1229.42 107.377C1236.22 138.133 1217.36 164.389 1215.67 166.665C1169.15 229.416 1024.12 208.76 982.856 156.078C978.708 150.784 968.284 137.476 968.57 119.552Z" fill="#F2CF35"/>
</svg>
