<svg width="375" height="667" viewBox="0 0 375 667" fill="none" xmlns="http://www.w3.org/2000/svg">
<path d="M59.9131 190.219C56.8181 184.454 58.2247 177.968 59.4377 172.372C62.207 159.587 70.0172 151.505 72.7344 148.76C81.234 140.181 90.4861 136.866 96.4824 134.72C100.196 133.39 104.931 131.691 111.342 131.078C116.136 130.619 132.876 129.017 146.209 140.441C149.215 143.018 159.248 151.616 159.135 162.598C158.901 185.022 116.509 204.838 84.4072 201.529C78.3802 200.91 64.9075 199.521 59.9131 190.219Z" fill="#E9622A"/>
<path d="M41.281 200.963C40.0882 188.675 49.202 178.926 52.2479 175.668C55.2419 172.47 60.9992 167.323 69.6118 164.617C73.7924 163.305 79.2927 161.577 85.4246 163.363C90.2038 164.758 90.4682 166.861 98.9881 172.788C107.063 178.401 111.193 181.2 115.815 180.507C120.757 179.766 125.034 175.632 127.057 171.752C129.457 167.151 127.942 164.339 130.649 161.189C133.699 157.637 138.856 157.439 140.853 157.363C152.269 156.927 165.55 167.137 170.033 180.255C175.138 195.207 167.26 209.354 166.549 210.584C147.003 244.477 73.8728 242.318 50.4291 218.37C48.0723 215.964 42.1497 209.914 41.281 200.963Z" fill="#F2CF35"/>
<path d="M132.987 221.907C132.978 221.987 132.974 222.069 132.97 222.151C132.949 222.507 132.934 222.86 132.921 223.209C132.911 223.392 132.901 223.575 132.897 223.756C129.791 312.26 288.785 434.738 409.872 395.874C437.677 386.95 461.793 370.058 481.392 350.276L526.851 220.472C524.219 217.808 521.074 214.86 517.509 211.898C515.368 210.117 512.766 207.974 509.617 205.698C505.035 202.384 499.287 198.79 492.097 195.634C491.729 195.471 491.291 195.283 490.783 195.071C486.443 193.251 477.167 189.792 464.701 188.249C462.076 187.919 459.305 187.68 456.411 187.555C449.726 187.271 443.674 187.675 438.548 188.354C429.687 189.518 423.586 191.485 421.735 192.104C412.699 195.121 412.934 196.676 390.439 208.147C376.037 215.49 368.708 219.188 362.435 220.433C346.19 223.66 332.782 219.367 329.176 218.114C313.585 212.693 304.582 201.743 295.659 191.155C287.971 182.031 289.26 180.917 276.858 165.178C264.82 149.905 259.365 145.574 257.548 144.177C254.521 141.85 244.907 134.59 231.943 131.282C226.682 129.936 221.573 129.423 216.749 129.466C205.106 129.562 195.145 132.893 188.815 135.571C186.291 136.646 184.342 137.614 183.094 138.232C180.785 139.382 178.555 140.659 176.41 142.048C162.493 151.063 151.976 164.893 144.763 179.58C137.623 194.131 133.729 209.524 132.987 221.907Z" fill="#0D2040"/>
<path d="M388.691 215.004C385.95 215.028 383.141 215.241 380.267 215.667C365.551 217.861 355.266 224.883 349.323 229.038C330.761 242.008 332.554 251.294 312.469 275.718C311.177 277.293 309.792 278.932 308.304 280.636C307.906 281.096 307.498 281.557 307.081 282.027C295.268 295.359 288.534 300.058 280.527 313.568C280.213 314.098 279.894 314.648 279.575 315.207C279.491 315.356 279.408 315.505 279.324 315.648C272.669 327.316 267.801 335.962 269.26 342.445C269.721 344.48 270.846 346.491 272.556 348.447C289.978 368.335 368.076 383.024 423 370.163V223.779C414.488 219.352 402.523 214.855 388.691 215.004Z" fill="#444FCB"/>
<path d="M339.669 357.058C335.459 347.14 326.294 341.437 317.57 336.012C312.824 333.055 299.765 325.589 280.739 323.384C275.672 322.795 271.857 322.779 240.225 326.015C224.976 327.577 211.549 324.72 200.5 318.912C189.45 313.103 180.774 304.342 174.455 294.445C171.845 290.357 164.442 278.618 152.356 256.562C139.37 232.858 139.975 231.916 134.993 226.044C131.894 222.393 120.297 209.37 100.266 201.315C93.7838 198.71 84.4076 194.938 71.8535 195.001C50.1862 195.111 34.6014 206.576 27.6561 211.838C14.823 221.556 8.40388 232.127 -3.91352 252.878C-20.2666 280.428 -20.356 288.305 -38.1139 320.753C-55.2404 352.049 -58.5079 350.839 -59.6865 359.163C-64.806 395.294 -6.23389 439.05 42.9147 459.66C166.01 511.271 303.143 448.368 330.724 401.782C335.112 394.374 346.993 374.306 339.669 357.058Z" fill="#33B3A6"/>
<path d="M303.253 455.747C303.234 455.826 303.211 455.905 303.188 455.984C303.09 456.327 302.987 456.665 302.885 456.998C302.834 457.175 302.782 457.351 302.726 457.522C276.405 542.078 85.8643 605.12 -15.5717 528.418C-38.8638 510.805 -56.0417 486.891 -68 461.743V324.209C-64.6353 322.564 -60.6927 320.822 -56.3493 319.205C-53.7395 318.232 -50.5752 317.069 -46.8516 315.961C-41.4317 314.349 -34.8187 312.857 -26.9894 312.254C-26.5886 312.222 -26.1133 312.189 -25.5634 312.157C-20.8658 311.874 -10.9673 311.675 1.3079 314.34C3.89437 314.896 6.58801 315.586 9.36089 316.425C15.7641 318.366 21.3425 320.748 25.9562 323.083C33.9346 327.11 39.0423 330.984 40.5849 332.179C48.1159 338.013 47.3796 339.403 64.8184 357.665C75.9845 369.356 81.6793 375.269 87.1878 378.517C101.453 386.932 115.527 387.312 119.344 387.321C135.851 387.358 147.967 380 159.888 372.956C170.16 366.886 169.312 365.408 186.219 354.653C202.628 344.218 209.208 341.933 211.385 341.215C215.01 340.02 226.484 336.345 239.812 337.508C245.223 337.976 250.214 339.181 254.753 340.817C265.71 344.755 274.01 351.192 279.099 355.811C281.126 357.66 282.645 359.217 283.619 360.214C285.418 362.062 287.1 364.004 288.666 366.024C298.821 379.133 304.176 395.662 306.128 411.908C308.058 428 306.646 443.815 303.253 455.747Z" fill="#444FCB"/>
<path d="M390.5 507.5C389.191 509.383 383.369 519.283 382.043 520.768C381.556 521.312 379.804 523.252 377.352 525.909C376.089 527.279 383.599 529.843 382.043 531.5C369.62 544.751 394.04 550.694 384.5 558.5C361.582 577.254 289.093 587.389 275.43 589.277C265.05 590.713 245.881 593.171 222.976 587.067C214.852 584.901 210.089 582.678 203.099 578.682C203.095 578.678 203.086 578.678 203.082 578.673C195.346 574.253 184.885 567.659 164.126 556.569C151.584 549.869 142.04 544.79 134.483 541.179C126.478 537.352 120.696 535.177 115.936 534.47C110.584 533.674 105.292 533.462 100.136 533.688H100.115C90.7971 534.09 81.9184 535.906 73.9139 538.227C73.8073 538.258 73.7006 538.289 73.5983 538.32C64.0372 541.113 55.7342 544.618 49.4099 547.288C49.0346 547.447 48.6594 547.606 48.2926 547.765C24.9998 557.78 13.1871 568.64 -0.0585203 562.757C-0.766431 562.443 -1.49139 562.072 -2.22489 561.652H-2.22916C-3.97761 560.649 -5.75166 559.358 -7.29968 557.856C-9.95648 555.279 -11.948 552.074 -11.9992 548.614C-12.0205 547.062 -11.6793 543.787 -4.72391 537.268C-3.52131 536.141 -2.11828 534.916 -0.484973 533.586C2.49593 531.155 5.37022 528.812 8.50038 526.633C12.9099 523.553 17.8269 520.79 24.2492 518.558C48.7361 510.041 55.9858 522.784 71.159 513.254C83.6412 505.418 91.2577 488.941 92.0551 487.177C93.4112 484.171 93.1426 484.154 95.0403 479.221C97.0148 474.094 99.9274 466.523 104.345 458.381C106.618 454.196 109.288 449.86 112.44 445.63C113.54 444.14 114.708 442.664 115.936 441.21C123.506 432.264 131.148 426.938 136.709 423.367C137.349 422.956 137.958 422.571 138.538 422.205C157.012 410.549 174.083 407.619 180.757 406.735C182.062 406.563 183.346 406.417 184.599 406.302C186.199 406.151 187.755 406.045 189.261 405.97H189.265C196.357 405.63 202.323 406.076 206.528 406.598C209.679 406.991 211.841 407.429 212.741 407.619C223.854 409.953 223.816 412.216 236.196 415.575C241.185 416.927 247.194 418.558 253.655 419.416C256.636 419.813 259.715 420.043 262.832 420.008C262.836 420.008 262.836 420.008 262.841 420.008C267.434 419.955 272.112 419.323 276.709 417.785C283.481 415.517 285.839 412.693 291.609 407.093C294.146 404.627 297.345 401.625 301.87 397.895C308.467 392.459 325.815 378.355 346.647 370.934C350.157 369.683 353.948 368.335 357.875 367.102C360.114 366.403 362.396 365.74 364.699 365.157C368.908 364.092 373.181 363.287 377.352 363V521.184C378.341 520.379 379.403 519.575 380.55 518.779C380.55 518.779 386.969 509.246 390.5 507.5Z" fill="#0D2040"/>
<path d="M201.257 556.09C200.872 554.184 200.743 551.912 202.166 550.609C203.918 549.007 206.878 550.083 208.315 551.984C209.752 553.88 210.243 556.332 211.256 558.488C212.275 560.65 214.259 562.72 216.606 562.464C217.367 558.826 216.582 555.058 215.954 551.396C215.53 548.93 215.416 545.871 217.481 544.506C219.604 543.097 222.698 544.829 223.464 547.28C224.235 549.731 223.302 552.414 221.984 554.614C220.932 556.37 219.961 558.609 219.918 560.664C219.894 561.769 220.104 562.556 221.184 562.691C222.493 562.855 223.326 561.359 223.835 560.129C225.072 557.152 226.705 554.223 229.27 552.303C231.831 550.382 235.495 549.697 238.237 551.343C240.978 552.988 242.015 557.296 239.793 559.612C237.808 561.682 234.339 561.48 232.169 563.352C229.508 565.644 229.77 570.107 227.328 572.635C225.03 575.018 221.432 574.801 218.414 574.652C216.173 574.541 212.87 575.583 210.914 574.512C207.996 572.915 209.21 568.514 207.549 564.524C206.202 561.287 201.757 558.537 201.257 556.09Z" fill="#E9622A"/>
<path d="M321.087 479.446L320.562 481.542C319.401 486.193 316.887 489.579 313.941 493.324L310.276 497.995C310.308 499.849 310.453 501.71 310.605 503.558C310.642 504.012 310.698 504.46 310.738 504.909C313.595 498.126 318.023 491.757 323.762 486.244C323.803 486.202 323.849 486.163 323.887 486.121C324.316 485.711 325.019 486.024 324.811 486.534L323.938 488.682C321.997 493.446 318.96 497.931 315.017 501.838L310.84 505.981C311.113 508.797 311.429 511.611 311.828 514.412C311.834 514.455 311.841 514.499 311.851 514.542C314.13 508.138 317.754 502.197 322.515 497.108C322.553 497.07 322.587 497.032 322.624 496.99C322.99 496.603 323.631 496.943 323.467 497.435L322.774 499.529C321.246 504.171 318.718 508.493 315.367 512.2L312.054 515.865C312.522 518.978 313.05 522.079 313.671 525.156C313.785 525.713 313.915 526.265 314.033 526.821C316.487 518.867 320.532 511.545 325.934 505.331C325.975 505.284 326.016 505.234 326.058 505.188C326.475 504.71 327.238 505.164 327.063 505.776L326.327 508.384C324.693 514.166 321.881 519.505 318.077 524.047L314.392 528.447C314.541 529.121 314.673 529.801 314.834 530.475L315.464 533.12C315.688 533.938 315.966 534.793 316.267 535.64C316.964 537.598 317.727 539.541 318.515 541.483C319.626 532.902 322.55 524.411 327.112 516.546C327.149 516.484 327.181 516.422 327.218 516.364C327.572 515.754 328.496 515.94 328.429 516.61L328.151 519.44C327.53 525.722 325.541 531.959 322.311 537.743L319.241 543.248C319.586 544.08 319.938 544.907 320.29 545.73C321.011 547.396 321.739 549.058 322.498 550.693C323.016 551.783 323.527 552.877 324.078 553.914C325.294 542.337 329.267 530.751 335.71 520.045C335.754 519.97 335.798 519.896 335.842 519.822C336.296 519.071 337.425 519.277 337.329 520.089L336.913 523.533C335.998 531.168 333.394 538.788 329.274 545.89L324.34 554.402C324.53 554.744 324.723 555.076 324.928 555.397C325.951 557.046 326.994 558.678 328.059 560.302C332.146 549.328 338.774 538.939 347.516 529.861C347.581 529.794 347.645 529.727 347.709 529.659C348.359 528.985 349.486 529.451 349.191 530.27L347.946 533.731C345.181 541.403 340.663 548.683 334.693 555.083L328.798 561.407C331.484 565.458 334.285 569.431 337.212 573.3L333.852 575.723C330.931 571.457 328.156 567.096 325.521 562.655L317.931 562.14C309.199 561.544 300.933 559.32 293.672 555.606L290.397 553.931C289.621 553.534 290.128 552.424 291.06 552.473C291.152 552.476 291.244 552.483 291.34 552.486C303.074 553.092 314.243 555.792 324.197 560.383C323.541 559.249 322.881 558.115 322.244 556.972C321.732 556.069 321.304 555.166 320.908 554.261L314.04 552.134C306.198 549.704 299.126 545.867 293.277 540.874L290.64 538.622C290.017 538.093 290.71 537.173 291.553 537.418C291.634 537.442 291.719 537.465 291.8 537.493C302.234 540.541 311.745 545.347 319.794 551.61C319.131 549.978 318.5 548.343 317.884 546.699C317.319 545.177 316.761 543.65 316.223 542.118L309.288 538.753C302.907 535.657 297.175 531.137 292.458 525.483L290.333 522.931C289.829 522.332 290.41 521.414 291.094 521.728C291.159 521.761 291.229 521.789 291.298 521.821C300.537 526.091 308.841 532.489 315.674 540.527C315.194 539.119 314.727 537.707 314.294 536.278C314.023 535.39 313.775 534.497 313.563 533.542L313.053 530.835C312.811 529.539 312.609 528.24 312.399 526.938L307.494 522.947C302.897 519.208 299.122 514.498 296.425 509.13L295.208 506.709C294.922 506.137 295.584 505.55 296.084 505.939C296.134 505.976 296.184 506.013 296.234 506.054C302.786 511.185 308.187 517.704 312.111 525.149C311.699 522.424 311.364 519.687 311.071 516.948L311.049 516.973C311.056 516.953 311.063 516.937 311.07 516.916C310.982 516.115 310.883 515.314 310.808 514.511C310.57 511.973 310.396 509.427 310.262 506.883L310.245 506.56L310.223 506.162L310.198 505.689C310.159 504.98 310.117 504.276 310.091 503.57C310.023 501.65 309.961 499.708 310.032 497.776L308.407 492.758C307.022 488.481 306.768 484.973 307.244 480.5L307.462 478.483C307.512 478.01 308.174 477.93 308.331 478.384C308.345 478.428 308.359 478.475 308.378 478.518C310.59 484.954 311.107 490.875 310.276 497.563C310.278 497.591 310.275 497.615 310.276 497.643C311.942 490.53 315.557 484.768 320.167 479.112C320.2 479.071 320.23 479.033 320.26 478.995C320.583 478.623 321.212 478.952 321.087 479.446Z" fill="#E9622A"/>
<path d="M310.155 504.828C309.02 497.819 306.209 491.084 301.95 485.17C301.92 485.132 301.893 485.089 301.863 485.051C301.574 484.651 300.945 484.885 301.034 485.359L301.422 487.367C302.282 491.82 304.094 496.093 306.739 499.907L310.155 504.828Z" fill="#E9622A"/>
<path d="M295.925 493.075C295.891 493.037 295.857 493.002 295.823 492.964C295.484 492.599 295.488 493.617 295.828 494.302L297.262 497.198C300.444 503.622 303.737 508.793 306.928 512.373L311.046 516.993C306.092 506.665 300.907 498.47 295.925 493.075Z" fill="#E9622A"/>
<path d="M417 507.389V1153.02C228.773 1291.63 -73.3141 1273.1 -235.761 1142.43C-235.842 1142.36 -235.919 1142.3 -236 1142.24V471C-231.741 472.138 -228.351 473.481 -228.351 473.481C-221.186 476.325 -216.271 479.805 -214.488 481.129C-210.683 483.954 -207.705 486.917 -198.235 499.292C-189.391 510.855 -187.508 514.124 -185.72 516.208C-185.328 516.667 -184.941 517.069 -184.487 517.484C-184.171 517.776 -183.822 518.077 -183.416 518.412C-181.107 520.314 -176.833 523.823 -171.116 525.931C-171.059 525.95 -171.006 525.974 -170.949 525.993C-167.339 527.307 -163.166 528.053 -158.558 527.494C-155.145 527.082 -151.966 525.744 -149.136 524.019C-148.777 523.803 -148.428 523.584 -148.084 523.354C-142.869 519.908 -138.944 515.29 -137.046 513.154C-133.953 509.679 -133.518 508.202 -130.593 506.223C-125.334 502.662 -117.609 501.252 -110.993 503.355C-108.373 504.187 -105.759 505.626 -98.631 514.741C-98.3298 515.128 -98.0191 515.53 -97.6988 515.945C-95.6528 518.603 -93.2626 521.844 -90.4374 525.821C-83.4772 535.61 -83.5202 536.241 -80.8766 539.682C-80.303 540.428 -76.5456 545.222 -70.5032 550.523C-70.4028 550.609 -70.3072 550.695 -70.2068 550.781C-65.0153 555.293 -58.1889 560.126 -50.2822 563.104C-33.1445 569.561 -15.8252 565.475 -1.83782 560.398C-1.7709 560.374 -1.70397 560.351 -1.63705 560.327C2.36891 558.864 6.10239 557.325 9.47256 555.934C14.2577 553.96 16.6336 552.617 21.1893 550.193C25.5586 547.865 31.9308 544.553 44.3693 538.726C45.6361 538.134 46.836 537.574 47.9737 537.049C48.098 536.986 48.2271 536.929 48.3514 536.872C59.8243 531.58 64.6812 529.726 69.2273 528.211C70.5849 527.756 73.1568 526.896 76.503 525.921C76.6178 525.888 76.7373 525.854 76.8568 525.821C83.2816 523.956 92.4169 521.71 101.256 521.041C102.341 520.959 103.971 520.859 106.227 520.912H106.251C109.579 521.002 114.254 521.433 120.53 522.766C126.119 523.952 132.969 525.854 141.258 528.875C142.295 529.253 143.357 529.645 144.442 530.06C144.566 530.108 144.69 530.156 144.819 530.204C147.377 531.188 150.068 532.269 152.884 533.468C169.285 540.433 177.771 545.93 185.859 551.192C193.221 555.982 200.258 560.575 212.634 565.9C212.644 565.9 212.648 565.905 212.658 565.91C214.164 566.555 215.746 567.214 217.419 567.884C218.753 568.419 220.163 568.983 221.65 569.561C221.655 569.566 221.664 569.566 221.669 569.571C223.356 570.231 225.144 570.909 227.032 571.593C230.871 572.993 235.14 574.423 239.863 575.747C242.602 576.521 245.49 577.257 248.544 577.931C250.15 578.294 251.804 578.634 253.506 578.954C253.97 579.045 254.443 579.131 254.916 579.212C255.743 579.365 256.585 579.508 257.436 579.647C258.884 579.886 260.366 580.106 261.877 580.311C282.208 583.06 299.608 581.53 311.32 579.58C312.252 579.422 313.146 579.265 314.007 579.107C319.437 578.098 323.372 577.061 325.456 576.487C355.309 568.261 374.675 553.123 379.474 549.242C402.061 530.964 402.649 518.684 417 507.389Z" fill="white"/>
<path d="M266.12 531.064L265.789 532.133C265.058 534.506 263.665 536.183 262.039 538.037L260.015 540.346C259.978 541.305 260.005 542.27 260.032 543.229C260.038 543.463 260.055 543.697 260.062 543.931C261.728 540.506 264.196 537.339 267.315 534.653C267.339 534.633 267.362 534.613 267.385 534.592C267.619 534.392 267.973 534.572 267.853 534.83L267.342 535.916C266.207 538.325 264.51 540.556 262.366 542.464L260.092 544.489C260.155 545.952 260.239 547.412 260.366 548.873C260.369 548.896 260.372 548.919 260.372 548.939C261.728 545.695 263.769 542.725 266.37 540.229C266.39 540.209 266.41 540.192 266.43 540.172C266.631 539.982 266.951 540.176 266.854 540.426L266.44 541.489C265.519 543.844 264.096 546.006 262.259 547.827L260.446 549.628C260.599 551.248 260.787 552.865 261.02 554.476C261.064 554.766 261.114 555.057 261.161 555.348C262.65 551.308 264.948 547.636 267.91 544.576C267.933 544.552 267.957 544.529 267.977 544.506C268.204 544.272 268.588 544.526 268.481 544.84L268.027 546.166C267.021 549.106 265.418 551.786 263.325 554.028L261.297 556.2C261.354 556.554 261.404 556.908 261.468 557.262L261.718 558.645C261.812 559.073 261.932 559.524 262.062 559.968C262.369 560.998 262.707 562.027 263.061 563.049C263.876 558.649 265.626 554.342 268.204 550.406C268.224 550.376 268.244 550.346 268.264 550.316C268.464 550.012 268.935 550.132 268.882 550.476L268.658 551.933C268.16 555.161 266.958 558.328 265.128 561.228L263.388 563.988C263.545 564.426 263.702 564.863 263.859 565.301C264.183 566.18 264.513 567.058 264.861 567.927C265.098 568.505 265.332 569.083 265.585 569.634C266.537 563.687 268.915 557.81 272.545 552.461C272.572 552.424 272.595 552.387 272.619 552.351C272.872 551.976 273.453 552.113 273.38 552.531L273.069 554.299C272.381 558.218 270.822 562.08 268.498 565.635L265.709 569.895C265.796 570.075 265.889 570.256 265.986 570.426C266.467 571.305 266.961 572.18 267.466 573.049C269.883 567.493 273.6 562.311 278.373 557.867C278.409 557.833 278.443 557.8 278.476 557.77C278.83 557.439 279.401 557.713 279.224 558.127L278.483 559.882C276.84 563.771 274.302 567.403 271.036 570.543L267.813 573.644C269.089 575.812 270.424 577.944 271.827 580.025L270.024 581.181C268.634 578.896 267.322 576.564 266.086 574.195L262.179 573.714C257.684 573.163 253.476 571.779 249.826 569.658L248.18 568.702C247.792 568.475 248.083 567.917 248.564 567.967C248.61 567.971 248.657 567.977 248.707 567.984C254.752 568.625 260.449 570.333 265.462 572.986C265.155 572.381 264.847 571.776 264.55 571.168C264.31 570.687 264.116 570.209 263.936 569.731L260.449 568.438C256.465 566.965 252.918 564.783 250.036 562.04L248.737 560.804C248.43 560.513 248.814 560.059 249.242 560.209C249.282 560.222 249.325 560.239 249.369 560.252C254.675 562.12 259.454 564.87 263.438 568.331C263.141 567.469 262.86 566.607 262.587 565.742C262.336 564.94 262.092 564.135 261.855 563.326L258.369 561.395C255.159 559.618 252.321 557.118 250.043 554.068L249.015 552.691C248.771 552.367 249.098 551.91 249.442 552.09C249.475 552.107 249.509 552.127 249.546 552.143C254.201 554.609 258.312 558.148 261.615 562.491C261.404 561.753 261.204 561.008 261.02 560.256C260.907 559.791 260.8 559.324 260.72 558.822L260.533 557.409C260.446 556.734 260.376 556.056 260.306 555.378L257.881 553.179C255.61 551.118 253.793 548.579 252.548 545.729L251.987 544.442C251.853 544.138 252.214 543.854 252.461 544.068C252.484 544.088 252.511 544.111 252.534 544.131C255.777 546.968 258.385 550.483 260.202 554.442C260.065 553.022 259.968 551.599 259.895 550.176L259.881 550.189C259.885 550.179 259.888 550.169 259.895 550.159C259.871 549.741 259.845 549.327 259.828 548.909C259.778 547.59 259.758 546.273 259.761 544.953V544.786V544.579V544.332C259.761 543.964 259.758 543.6 259.765 543.233C259.781 542.237 259.808 541.235 259.895 540.236L259.197 537.596C258.599 535.348 258.566 533.527 258.94 531.231L259.107 530.196C259.147 529.952 259.491 529.928 259.558 530.169C259.564 530.192 259.571 530.216 259.578 530.239C260.543 533.627 260.64 536.701 260.025 540.132C260.025 540.145 260.025 540.159 260.022 540.172C261.08 536.544 263.111 533.667 265.652 530.874C265.669 530.854 265.689 530.834 265.706 530.817C265.883 530.623 266.197 530.81 266.12 531.064Z" fill="#444FCB"/>
<path d="M259.758 543.871C259.367 540.215 258.105 536.657 256.068 533.483C256.054 533.463 256.041 533.44 256.027 533.42C255.891 533.206 255.557 533.309 255.59 533.557L255.734 534.606C256.054 536.931 256.869 539.19 258.128 541.234L259.758 543.871Z" fill="#444FCB"/>
<path d="M252.735 537.402C252.718 537.382 252.701 537.362 252.685 537.342C252.521 537.145 252.494 537.669 252.648 538.033L253.309 539.57C254.772 542.978 256.331 545.741 257.878 547.683L259.875 550.185C257.607 544.706 255.159 540.329 252.735 537.402Z" fill="#444FCB"/>
<path d="M34.1867 507.416C33.3013 506.319 32.5203 504.81 29.6461 501.093C27.8481 498.767 27.2079 498.134 26.4678 496.576C25.6913 494.945 24.1793 491.77 25.5597 489.349C26.4995 487.7 28.4066 487.059 29.6461 486.639C32.2751 485.754 33.0515 486.657 34.6407 485.736C36.4342 484.697 37.6284 482.28 37.365 479.864C37.1789 478.179 36.0937 478.192 34.6407 475.347C34.1095 474.303 33.2922 472.709 33.0515 470.604C32.9562 469.778 32.5884 466.575 34.4137 463.829C35.8303 461.697 36.9609 462.257 39.8623 459.312C41.5514 457.6 42.3369 453.987 40.9974 450.053C39.6444 446.078 43.4266 443.029 45.538 441.471C47.2906 440.174 48.4984 435.77 49.8515 434.018C50.7323 432.875 51.5587 431.809 53.0298 431.308C53.4294 431.172 54.8551 430.689 56.2082 431.308C57.9245 432.094 58.4876 434.176 58.9325 435.825C59.5773 438.214 58.9961 438.738 59.8406 440.341C60.2266 441.073 60.8532 441.733 62.1109 443.051C64.1496 445.192 64.3675 444.98 64.8352 445.762C65.9749 447.663 65.6888 450.595 64.3812 452.537C63.1098 454.429 61.8702 453.901 60.2947 456.15C59.7725 456.896 58.6102 458.558 58.9325 460.667C58.9779 460.974 59.264 462.822 60.7487 463.829C62.1972 464.809 63.2597 463.951 64.8352 464.732C66.7831 465.699 67.387 468.111 67.5595 468.797C68.454 472.366 66.3563 475.546 65.7433 476.476C64.3403 478.608 63.5956 478.283 61.2028 481.445C59.1141 484.204 58.9643 485.406 58.9325 485.961C58.8508 487.438 59.3548 489.372 60.7487 490.478C61.8748 491.373 62.5559 490.907 64.3812 491.833C64.9987 492.145 66.7695 493.044 67.5595 494.543C68.7673 496.833 67.2689 499.729 65.7433 502.674C64.8988 504.309 63.523 506.965 61.2028 508.997C53.7427 515.529 39.0132 513.397 34.1867 507.416Z" fill="#33B3A6"/>
<path d="M52.4579 446.079C50.4147 455.015 48.6257 464.004 47.1001 473.044C45.5745 482.071 44.3077 491.138 43.3042 500.232C42.7367 505.375 42.2508 510.526 41.8467 515.686C41.7786 516.563 43.1408 516.559 43.2089 515.686C43.9217 506.574 44.8843 497.479 46.1193 488.421C47.3498 479.413 48.8346 470.441 50.5736 461.515C51.5589 456.473 52.6214 451.449 53.7701 446.438C53.9699 445.588 52.6532 445.221 52.4579 446.079Z" fill="#E5E6DE"/>
<path d="M220.52 530.224C223.878 530.224 223.888 525 220.52 525C217.163 525 217.157 530.224 220.52 530.224Z" fill="#444FCB"/>
<path d="M341.52 502.224C344.878 502.224 344.888 497 341.52 497C338.163 497 338.157 502.224 341.52 502.224Z" fill="#444FCB"/>
<path d="M283.52 489.224C286.878 489.224 286.888 484 283.52 484C280.163 484 280.157 489.224 283.52 489.224Z" fill="#444FCB"/>
<path d="M333.52 456.224C336.878 456.224 336.888 451 333.52 451C330.163 451 330.157 456.224 333.52 456.224Z" fill="#444FCB"/>
<path d="M112.52 502.224C115.878 502.224 115.888 497 112.52 497C109.163 497 109.157 502.224 112.52 502.224Z" fill="#444FCB"/>
<path d="M164.52 521.224C167.878 521.224 167.888 516 164.52 516C161.163 516 161.157 521.224 164.52 521.224Z" fill="#444FCB"/>
<path d="M-14 131V283.425C-9.83058 282.229 -8.05276 279.127 0.286074 272.139C20.0326 255.591 29.1334 256.999 39.4405 242.495C43.7369 236.449 46.065 230.7 45.7899 224.496C45.6946 222.4 45.3772 217.022 41.557 212.85C39.0278 210.087 35.8214 208.795 29.9164 207.557C21.3131 205.746 15.6622 205.863 11.4398 205.852C7.1646 205.852 4.3285 205.714 1.3443 203.322C-2.87803 199.944 -5.49185 193.624 -3.94684 188.499C-2.49706 183.682 1.92633 181.332 2.40253 181.088C8.19103 178.113 12.3817 181.798 17.3977 179.426C17.6834 179.31 17.9796 179.151 18.2759 178.971C22.1702 176.621 23.366 172.322 23.5671 171.56C24.0644 169.633 24.8158 164.678 18.2759 155.679C9.18577 143.154 -5.00506 135.203 -14 131Z" fill="#FF6E93"/>
<ellipse cx="6.5" cy="6" rx="6.5" ry="6" fill="#F2CF35"/>
</svg>
