<svg width="966" height="547" viewBox="0 0 966 547" fill="none" xmlns="http://www.w3.org/2000/svg">
<path d="M988 366.513C984.751 371.023 981.471 375.089 978.18 378.646C976.973 379.948 972.624 384.596 966.539 390.959C963.407 394.241 959.819 397.968 955.957 401.938C925.131 433.679 893.913 465.822 870.24 484.519C813.371 529.441 747.528 538.228 713.623 542.749C687.865 546.19 640.298 552.076 583.461 537.455C563.301 532.268 551.481 526.942 534.137 517.371C534.126 517.361 534.105 517.361 534.094 517.35C514.898 506.763 488.94 490.967 437.425 464.403C406.303 448.353 382.619 436.188 363.868 427.538C344.005 418.37 329.655 413.161 317.845 411.467C304.565 409.561 291.432 409.053 278.638 409.593H278.585C255.463 410.556 233.431 414.908 213.568 420.466C213.303 420.54 213.038 420.614 212.784 420.688C189.059 427.379 168.455 435.775 152.762 442.17C151.831 442.551 150.899 442.932 149.989 443.313C92.1889 467.304 62.876 493.317 30.0074 479.225C28.2508 478.474 26.4518 477.584 24.6316 476.578H24.621C20.2823 474.175 15.8801 471.084 12.0387 467.484C5.44594 461.312 0.504029 453.636 0.377041 445.346C0.32413 441.63 1.17071 433.785 18.4304 418.168C21.4146 415.469 24.8962 412.536 28.9492 409.349C36.3462 403.526 43.4787 397.915 51.2461 392.695C62.1881 385.316 74.3895 378.699 90.3264 373.353C151.09 352.951 169.08 383.474 206.731 360.648C237.706 341.877 256.606 302.407 258.585 298.183C261.95 290.984 261.283 290.941 265.992 279.126C270.892 266.845 278.12 248.709 289.083 229.207C294.723 219.181 301.348 208.795 309.168 198.662C311.898 195.095 314.798 191.558 317.845 188.075C336.629 166.647 355.592 153.889 369.392 145.334C370.979 144.35 372.492 143.429 373.931 142.55C419.774 114.631 462.135 107.612 478.696 105.494C481.934 105.082 485.119 104.732 488.231 104.457C492.199 104.097 496.062 103.843 499.797 103.663H499.808C517.406 102.848 532.211 103.917 542.645 105.166C550.465 106.109 555.83 107.157 558.063 107.612C585.641 113.202 585.545 118.623 616.266 126.669C628.647 129.909 643.557 133.815 659.589 135.869C666.986 136.822 674.627 137.373 682.362 137.288C682.373 137.288 682.373 137.288 682.384 137.288C693.781 137.161 705.39 135.647 716.797 131.963C733.602 126.531 739.454 119.766 753.772 106.352C760.068 100.444 768.005 93.2556 779.233 84.3199C795.604 71.2976 838.652 37.5136 890.347 19.7376C899.056 16.7414 908.463 13.5122 918.21 10.5584C923.765 8.8856 929.427 7.29751 935.141 5.89999C945.586 3.34846 956.19 1.42157 966.539 0.733398V379.641C968.994 377.714 971.629 375.788 974.476 373.882C974.476 373.882 979.238 370.695 988 366.513Z" fill="#0D2040"/>
</svg>
