<svg width="1440" height="334" viewBox="0 0 1440 334" fill="none" xmlns="http://www.w3.org/2000/svg">
<path d="M724.468 0C708.394 27.6857 657.048 42.9843 653.747 43.9372C628.307 51.253 619.809 45.6735 536.284 47.1134C487.034 47.9604 475.975 50.1413 464.324 57.7006C445.011 70.2254 444.302 84.3806 420.937 121.224C412.683 134.236 392.661 165.818 366.967 188.983C327.146 224.884 280.584 234.371 263.261 237.684C199.407 249.902 189.312 223.55 116.167 236.626C91.3834 241.051 58.5254 247.308 27.2759 271.564C8.91569 285.814 0.989569 298.614 -5 307.19V0H724.468Z" fill="#F2CF35"/>
<path d="M1118.5 0C1128.82 11.9742 1144.74 22.7732 1155.88 28.5856C1182.86 42.6879 1196.24 35.0756 1224.66 52.9364C1235.17 59.5322 1251.32 69.6854 1260.64 88.9331C1270.87 110.065 1261.3 118.249 1271.22 139.752C1283.56 166.474 1309.89 178.808 1312.49 179.984C1336 190.603 1349.36 182.323 1360.11 193.747C1363.74 197.611 1365.69 202.249 1366.62 207.151C1368.71 218.151 1365.7 230.443 1365.41 238.214C1364.78 254.465 1375.14 273.713 1392.21 292.558C1398.89 299.948 1406.6 307.274 1415.1 314.326C1422.98 320.89 1431.53 327.221 1440.54 333.15V0H1118.5Z" fill="#F2CF35"/>
<path d="M204.931 0C204.381 22.9109 194.614 46.637 182.835 62.9943C165.29 87.3662 142.051 97.0641 120.929 105.873C98.3254 115.306 75.1713 117.095 28.8633 120.695C10.2279 122.145 0.894329 122.082 -5 120.166V0H204.931Z" fill="#E5E6DE"/>
</svg>
