<svg width="332" height="343" viewBox="0 0 332 343" fill="none" xmlns="http://www.w3.org/2000/svg">
<path d="M258.622 0.150239C252.717 0.203175 246.664 0.658424 240.473 1.56893C208.769 6.25909 186.61 21.2719 173.805 30.1546C133.815 57.8827 137.677 77.7338 94.4062 129.95C91.623 133.317 88.6389 136.821 85.4324 140.463C84.5753 141.448 83.6969 142.433 82.7974 143.438C57.3471 171.939 42.8387 181.987 25.5896 210.869C24.9124 212.002 24.2246 213.177 23.5367 214.373C23.3568 214.691 23.1769 215.008 22.997 215.315C8.65803 240.259 -1.82899 258.744 1.31394 272.603C2.30868 276.955 4.73198 281.253 8.41461 285.435C45.9499 327.954 214.208 359.355 332.539 331.86V18.9109C314.2 9.44587 288.422 -0.16738 258.622 0.150239Z" fill="#444FCB"/>
</svg>
