<svg width="723" height="1932" viewBox="0 0 723 1932" fill="none" xmlns="http://www.w3.org/2000/svg">
<path d="M71.6917 73.7679C65.758 91.8746 46.1081 90.8495 39.2275 108.257C34.4481 120.347 38.6955 134.066 43.7364 144.662C46.3065 148.187 48.047 151.435 49.1742 154.405C50.8515 158.774 51.2032 162.558 50.9507 165.738C49.5259 183.5 27.5495 201.856 0 214.444V0C12.9316 3.99497 26.3501 10.3658 29.7588 11.9753C46.8746 20.0898 57.4345 25.2823 64.9283 37.842C66.9754 41.2717 76.895 57.8935 71.6917 73.7679Z" fill="#33B3A6"/>
<path d="M244.834 331.477C226.843 394.352 180.176 442.426 122.192 456.02C80.8809 465.706 34.5653 457.725 0 435.087V132.294C6.81748 131.892 12.3364 132.869 13.9776 133.166C29.7588 135.982 41.3016 145.63 49.1742 154.405C53.0248 158.688 56.0007 162.769 58.165 165.739C66.1548 176.698 63.9544 178.088 78.0042 205.976C88.5641 226.947 94.2994 238.338 104.156 251.003C117.331 267.941 130.443 277.607 141.129 285.492C162.907 301.558 182.025 309.586 197.941 316.148C206.508 319.684 214.723 322.653 222.479 325.144C222.686 325.211 222.894 325.278 223.092 325.345C226.952 326.581 230.685 327.693 234.292 328.708C237.944 329.733 241.461 330.653 244.834 331.477Z" fill="#E96730"/>
<path d="M219.241 308.743C216.852 302.506 212.911 296.95 207.924 292.782C203.641 289.209 198.654 286.67 194.424 283.02C190.195 279.38 186.633 274.13 186.858 268.353C186.949 265.977 187.814 263.467 189.708 262.174C191.881 260.689 194.695 261.177 197.265 260.967C200.187 260.727 203.036 259.491 205.273 257.479C207.365 255.602 208.961 252.402 207.663 249.844C207.004 248.541 205.751 247.736 204.588 246.922C201.9 245.044 199.429 242.831 197.229 240.34C195.326 238.194 193.577 235.684 193.216 232.762C192.855 229.84 194.352 226.487 197.049 225.788C199.321 225.204 201.576 226.564 203.713 227.57C205.85 228.576 208.646 229.151 210.287 227.388C211.026 226.593 211.369 225.472 211.603 224.38C212.298 221.199 212.352 217.865 211.775 214.665C211.387 212.529 210.711 210.431 210.684 208.256C210.657 206.081 211.441 203.715 213.245 202.68C215.923 201.157 219.278 203.361 220.784 206.168C222.29 208.965 222.713 212.299 224.138 215.154C225.563 218.009 228.701 220.433 231.515 219.197C232.795 218.631 233.715 217.424 234.635 216.323C236.727 213.822 239.324 211.533 242.435 211.015C245.546 210.498 249.172 212.356 249.821 215.623C250.47 218.89 248.153 221.898 246.015 224.351C241.876 229.103 237.647 234.228 236.366 240.561C235.762 243.54 236.529 247.573 239.36 248.071C240.767 248.321 242.156 247.525 243.247 246.558C246.187 243.942 247.864 239.919 251.011 237.581C254.05 235.33 258.271 235.042 261.553 236.872C264.836 238.702 267.018 242.553 267 246.491C266.973 253.187 261.418 258.131 256.711 262.576C249.415 269.464 242.994 277.521 238.639 286.795C234.283 296.068 232.065 306.616 233.219 316.906C233.841 322.424 235.374 328.258 233.264 333.345C232.029 336.325 229.423 339.132 226.645 340.549C222.019 342.916 222.542 338.959 222.623 334.888C222.795 326.083 222.416 317.02 219.241 308.743Z" fill="#444FCB"/>
<path d="M723 142.407V324.889C694.249 371.342 692.865 310.521 647.334 335.76C558.06 385.259 405.985 426.329 392.817 379.827C386.277 356.733 398.988 355.975 405.709 335.76C406.899 332.186 408.413 328.278 409.884 323.782C412.192 316.77 414.399 308.337 415.084 297.564C415.451 291.746 415.322 286.203 417.247 277.976C419.035 270.346 421.134 261.375 427.343 256.429C435.217 250.161 444.368 254.607 446.092 255.45C449.315 257.017 453.094 261.091 460.514 269.161C469.441 278.877 469.578 280.091 472.052 280.914C481.808 284.146 492.207 269.318 493.685 267.202C500.233 257.859 498.618 253.432 506.665 234.882C512.788 220.769 515.881 213.629 522.53 208.438C532.301 200.809 542.75 202.846 546.327 203.541C551.007 204.452 558.369 205.892 564.355 213.335C572.561 223.541 569.013 233.658 576.614 241.738C582.411 247.908 591.101 249.064 597.526 245.656C604.658 241.875 608.133 232.914 613.39 215.294C625.635 174.228 622.635 169.556 628.534 156.53C639.538 132.231 663.905 117.726 686.223 120.292C703.148 122.241 715.464 133.612 723 142.407Z" fill="#0D2040"/>
<path d="M722.539 192.065V408H2.24928L0 217.776C2.02586 214.818 3.43814 213.002 3.43814 213.002C7.69086 207.566 11.7902 202.324 17.7197 199.337C19.4493 198.469 28.0394 194.418 38.3485 200.313C40.9615 201.807 50.4667 207.819 57.3905 224.716C64.0076 240.87 60.6912 248.474 67.4405 267.663C70.1699 275.414 75.7872 291.392 85.4246 295.97C95.4746 300.743 104.742 290.68 109.756 285.233C121.298 272.7 124.329 258.195 130.517 249.206C130.628 249.049 130.745 248.883 130.856 248.727C132.575 246.336 134.548 244.354 137.007 242.959C137.431 242.715 137.864 242.49 138.319 242.285C139.641 241.68 146.761 238.654 154.187 244.237C161.122 249.45 163.47 258.508 171.643 279.376C181.275 303.984 186.093 316.282 191.743 323.3C203.813 338.303 217.153 337.434 220.835 336.966C232.794 335.433 239.919 325.643 250.455 314.516C271.301 292.505 289.418 282.246 299.647 276.448C329.263 259.669 353.552 259.045 367.352 258.879C387.875 258.635 410.202 258.322 436.644 275.472C454.771 287.234 477.579 308.971 489.539 320.372C490.739 321.514 491.845 322.578 492.866 323.564C504.333 334.672 505.439 336.692 511.754 340.87C539.418 359.152 562.729 349.694 567.294 347.703C573.239 345.116 577.169 342.217 584.22 336.966C610.921 317.063 629.545 292.827 633.941 287.185C649.307 267.439 675.246 237.932 722.539 192.065Z" fill="#F2CF35"/>
<path d="M722.539 249.731V1930C481.689 1926.15 240.85 1933.84 0 1930V274.966C2.02586 272.063 3.43814 270.281 3.43814 270.281C7.69086 264.945 11.7902 259.8 17.7197 256.869C19.4493 256.016 28.0394 252.04 38.3485 257.827C40.9615 259.292 50.4667 265.194 57.3905 281.777C64.0076 297.633 60.6912 305.096 67.4405 323.93C70.1699 331.537 75.7873 347.22 85.4246 351.713C95.4746 356.398 104.742 346.521 109.756 341.175C121.298 328.874 124.329 314.638 130.517 305.814C130.628 305.661 130.745 305.498 130.856 305.345C132.575 302.998 134.548 301.053 137.007 299.683C137.43 299.443 137.864 299.223 138.319 299.022C139.642 298.428 146.761 295.458 154.187 300.938C161.122 306.054 163.47 314.944 171.643 335.427C181.275 359.579 186.093 371.65 191.743 378.538C203.813 393.263 217.153 392.41 220.835 391.95C232.794 390.446 239.919 380.837 250.456 369.916C271.301 348.312 289.418 338.243 299.647 332.553C329.263 316.084 353.552 315.471 367.352 315.308C387.875 315.069 410.202 314.762 436.644 331.595C454.771 343.139 477.579 364.474 489.539 375.664C490.739 376.785 491.845 377.829 492.866 378.797C504.333 389.699 505.439 391.682 511.754 395.782C539.418 413.726 562.729 404.443 567.294 402.489C573.239 399.95 577.169 397.104 584.22 391.95C610.921 372.416 629.545 348.628 633.941 343.091C649.307 323.71 675.246 294.749 722.539 249.731Z" fill="#F2CF35"/>
</svg>
