<svg width="1421" height="289" viewBox="0 0 1421 289" fill="none" xmlns="http://www.w3.org/2000/svg">
<path d="M95.27 244.113C91.57 241.285 87.94 237.145 75.82 227.491C68.23 221.442 65.66 219.898 62.15 215.58C58.47 211.065 51.3101 202.277 54.43 194.139C56.55 188.599 62.6 185.556 66.53 183.576C74.86 179.382 78.08 181.684 82.87 177.981C88.28 173.806 90.77 165.767 88.32 158.584C86.61 153.57 82.94 154.23 76.19 146.414C73.72 143.55 69.93 139.169 67.76 132.915C66.91 130.461 63.6 120.932 68.02 111.554C71.45 104.274 75.64 105.327 83.57 94.7181C88.19 88.5528 88.53 77.1233 81.46 65.9347C74.32 54.6302 85.18 43.2097 91.32 37.2674C96.43 32.3245 97.69 18.2539 101.14 12.1599C103.39 8.18058 105.5 4.46889 110.16 2.1134C111.42 1.47099 115.94 -0.813146 120.93 0.302143C127.25 1.71187 130.5 7.72563 133.06 12.4723C136.79 19.3692 135.15 21.2874 139.04 25.6771C140.81 27.6757 143.37 29.3175 148.47 32.6187C156.76 37.9632 157.35 37.1959 159.44 39.3015C164.53 44.4229 165.44 53.4881 162.26 60.1442C159.16 66.6128 154.63 65.7205 150.74 73.4562C149.45 76.0258 146.58 81.7361 149.03 87.9549C149.39 88.8561 151.54 94.3166 157.22 96.5294C162.76 98.6797 165.81 95.4676 171.64 96.9398C178.86 98.7599 182.46 105.755 183.48 107.736C188.8 118.068 183.74 128.926 182.26 132.103C178.87 139.383 176.14 138.812 170.07 149.787C164.78 159.36 165.03 163.099 165.28 164.803C165.96 169.335 168.91 174.93 174.34 177.49C178.73 179.56 180.74 177.767 187.52 179.534C189.81 180.131 196.39 181.845 200.03 185.958C205.59 192.221 202.37 201.875 199.1 211.699C197.29 217.15 194.34 226.01 187.78 233.505C166.73 257.604 115.47 259.522 95.27 244.113Z" fill="#4D58A7"/>
<path d="M118.64 47.8138C117.43 75.928 117.12 104.078 117.72 132.21C118.32 160.342 119.83 188.456 122.25 216.517C123.6 232.229 125.24 247.932 127.16 263.6C127.37 265.295 130.37 265.313 130.16 263.6C126.74 235.629 124.21 207.568 122.59 179.471C120.97 151.375 120.26 123.234 120.46 95.0931C120.57 79.3274 120.97 63.5706 121.64 47.8228C121.71 46.0918 118.71 46.0918 118.64 47.8138Z" fill="#E5E6DE"/>
<path d="M312 291H0V282.585C4.84922 275.135 11.4082 265.993 19.4969 254.702C27.3656 243.729 33.7246 236.462 45.4927 233.558C59.1105 230.196 73.7282 234.207 76.4877 234.968C91.8153 239.176 91.6753 245.04 102.484 246.245C118.661 248.049 134.268 236.638 138.478 233.558C151.316 224.17 148.136 218.877 160.474 212.414C164.124 210.504 178.201 203.731 191.469 206.776C193.849 207.318 198.048 208.608 212.466 222.281C227.474 236.518 227.594 239.556 234.462 241.311C240.052 242.742 241.351 241.086 264.458 239.901C275.706 239.324 281.395 239.056 284.454 239.901C295.183 242.876 298.862 252.666 303.451 265.979C306.921 276.037 309.78 284.34 312 291Z" fill="#33B3A6"/>
<path d="M1448.81 291.354H1117C1122.5 281.814 1130.31 272 1135.97 264.885C1145.61 252.774 1153.29 243.393 1164.54 242.652C1176.2 241.879 1179.99 251.175 1193.64 250.593C1202.49 250.211 1212.78 245.807 1219.04 237.888C1229.58 224.548 1220.07 212.097 1230.68 194.48C1231.81 192.606 1237.55 183.385 1248.67 177.541C1265.05 168.923 1287.85 170.373 1301.58 181.775C1312.68 190.997 1307.75 198.345 1324.86 223.066C1332.87 234.638 1337.04 240.492 1344.97 244.24C1357.13 249.979 1371.95 248.38 1380.95 247.416C1390.51 246.389 1390.6 245.045 1395.76 245.299C1402.29 245.617 1412.7 248.263 1427.51 264.356C1431.27 268.432 1441.36 279.411 1448.81 291.354Z" fill="#33B3A6"/>
</svg>
