<svg width="309" height="664" viewBox="0 0 309 664" fill="none" xmlns="http://www.w3.org/2000/svg">
<path d="M79.1291 236.221C72.166 256.231 49.1072 255.098 41.0329 274.335C35.4243 287.697 40.4086 302.858 46.324 314.567C49.34 318.463 51.3824 322.052 52.7052 325.334C54.6735 330.162 55.0862 334.344 54.7899 337.859C53.1179 357.488 27.3289 377.773 -5 391.685V154.699C10.175 159.114 25.9214 166.155 29.9215 167.933C50.0067 176.901 62.3985 182.639 71.1924 196.519C73.5946 200.309 85.2351 218.678 79.1291 236.221Z" fill="#33B3A6"/>
<path d="M282.309 521.019C261.197 590.503 206.434 643.63 138.39 658.653C89.9125 669.357 35.5619 660.538 -5 635.52V300.899C3.0002 300.454 9.47656 301.534 11.4025 301.862C29.9215 304.975 43.4668 315.636 52.7052 325.334C57.2238 330.067 60.716 334.577 63.2557 337.859C72.6316 349.971 70.0495 351.506 86.5367 382.325C98.9286 405.501 105.659 418.089 117.225 432.086C132.686 450.804 148.073 461.486 160.613 470.2C186.169 487.955 208.603 496.827 227.281 504.079C237.334 507.986 246.975 511.268 256.075 514.02C256.319 514.095 256.562 514.169 256.795 514.243C261.324 515.609 265.705 516.837 269.938 517.959C274.224 519.092 278.351 520.108 282.309 521.019Z" fill="#E96730"/>
<path d="M252.277 495.895C249.472 489.003 244.848 482.862 238.996 478.257C233.969 474.308 228.117 471.502 223.154 467.469C218.191 463.445 214.011 457.644 214.276 451.259C214.381 448.634 215.397 445.86 217.62 444.431C220.17 442.79 223.472 443.33 226.488 443.097C229.916 442.832 233.26 441.466 235.885 439.243C238.34 437.168 240.213 433.632 238.689 430.805C237.916 429.365 236.445 428.476 235.08 427.576C231.927 425.501 229.027 423.055 226.445 420.302C224.212 417.931 222.159 415.157 221.736 411.928C221.313 408.699 223.069 404.993 226.234 404.22C228.9 403.575 231.546 405.078 234.054 406.19C236.562 407.301 239.842 407.936 241.768 405.988C242.636 405.11 243.038 403.871 243.313 402.664C244.128 399.149 244.192 395.465 243.514 391.928C243.059 389.567 242.266 387.249 242.234 384.846C242.202 382.442 243.123 379.827 245.239 378.684C248.382 377.001 252.319 379.435 254.086 382.538C255.853 385.629 256.351 389.313 258.023 392.468C259.695 395.623 263.377 398.302 266.679 396.936C268.182 396.312 269.261 394.978 270.34 393.76C272.796 390.997 275.843 388.466 279.494 387.895C283.145 387.323 287.399 389.377 288.161 392.987C288.923 396.597 286.203 399.922 283.695 402.632C278.838 407.884 273.875 413.548 272.372 420.546C271.663 423.838 272.563 428.296 275.886 428.846C277.536 429.121 279.166 428.243 280.447 427.173C283.896 424.283 285.865 419.837 289.558 417.253C293.124 414.765 298.077 414.448 301.929 416.47C305.781 418.492 308.341 422.748 308.32 427.099C308.289 434.5 301.77 439.963 296.246 444.875C287.685 452.488 280.15 461.391 275.039 471.64C269.928 481.888 267.325 493.545 268.679 504.916C269.409 511.014 271.208 517.462 268.732 523.083C267.282 526.376 264.224 529.478 260.965 531.045C255.536 533.66 256.15 529.288 256.245 524.788C256.446 515.058 256.001 505.043 252.277 495.895Z" fill="#444FCB"/>
<path d="M162.15 30.1865H65V69.9231H162.15V30.1865Z" fill="#5055A5"/>
<path d="M167.82 50.3663C181.726 50.3663 193 39.0914 193 25.1832C193 11.2749 181.726 0 167.82 0C153.913 0 142.639 11.2749 142.639 25.1832C142.639 39.0914 153.913 50.3663 167.82 50.3663Z" fill="#DD5C26"/>
</svg>
