<svg width="1440" height="312" viewBox="0 0 1440 312" fill="none" xmlns="http://www.w3.org/2000/svg">
<path d="M1440.54 24.3501V221.612C1398.35 271.828 1396.32 206.081 1329.5 233.364C1198.49 286.872 975.323 331.268 956 281C946.402 256.035 965.056 255.216 974.919 233.364C976.665 229.5 978.887 225.275 981.046 220.416C984.432 212.835 987.67 203.72 988.676 192.074C989.215 185.785 989.025 179.793 991.85 170.899C994.475 162.652 997.554 152.954 1006.67 147.607C1018.22 140.831 1031.65 145.638 1034.18 146.548C1038.91 148.242 1044.45 152.647 1055.34 161.371C1068.44 171.873 1068.65 173.186 1072.28 174.075C1086.59 177.569 1101.85 161.54 1104.02 159.253C1113.63 149.153 1111.26 144.367 1123.07 124.315C1132.05 109.059 1136.59 101.341 1146.35 95.7295C1160.69 87.4821 1176.02 89.6842 1181.27 90.4359C1188.14 91.4205 1198.95 92.9768 1207.73 101.023C1219.77 112.055 1214.56 122.992 1225.72 131.726C1234.23 138.396 1246.98 139.646 1256.41 135.961C1266.87 131.874 1271.97 122.187 1279.69 103.141C1297.66 58.7482 1293.25 53.6981 1301.91 39.617C1318.06 13.35 1353.82 -2.3298 1386.57 0.444069C1411.41 2.55094 1429.48 14.8427 1440.54 24.3501Z" fill="#0D2040"/>
<path d="M1440.54 77.7832V312H-0.5L-5 105.67C-0.946988 102.462 1.87848 100.493 1.87848 100.493C10.3866 94.5957 18.5879 88.9104 30.4506 85.6707C33.911 84.7284 51.0966 80.3347 71.7215 86.7294C76.9491 88.3493 95.9655 94.871 109.818 113.198C123.056 130.72 116.421 138.967 129.924 159.782C135.384 168.188 146.623 185.519 165.904 190.485C186.01 195.662 204.55 184.746 214.582 178.839C237.673 165.245 243.736 149.512 256.118 139.761C256.34 139.592 256.573 139.412 256.795 139.242C260.234 136.648 264.181 134.499 269.102 132.985C269.949 132.72 270.816 132.477 271.727 132.255C274.372 131.598 288.616 128.316 303.473 134.372C317.347 140.026 322.045 149.851 338.395 172.486C357.665 199.177 367.306 212.517 378.608 220.129C402.756 236.402 429.445 235.459 436.81 234.951C460.737 233.289 474.991 222.67 496.071 210.601C537.776 186.726 574.02 175.599 594.486 169.31C653.736 151.111 702.33 150.433 729.939 150.253C770.998 149.988 815.666 149.65 868.567 168.251C904.832 181.009 950.463 204.587 974.39 216.953C976.792 218.192 979.004 219.346 981.046 220.415C1003.99 232.463 1006.2 234.655 1018.84 239.186C1074.18 259.016 1120.82 248.757 1129.95 246.597C1141.84 243.792 1149.71 240.647 1163.81 234.951C1217.23 213.364 1254.49 187.076 1263.29 180.956C1294.03 159.538 1345.92 127.533 1440.54 77.7832Z" fill="#F2CF35"/>
<path d="M751.773 50.8434C739.026 36.0184 716.673 34.3352 701.846 47.0839C687.019 59.8326 685.334 82.1855 698.081 97.0105C710.828 111.835 733.182 113.519 748.008 100.77C762.835 88.0213 764.52 65.6684 751.773 50.8434Z" fill="#5055A5"/>
<path d="M751.773 50.844C739.024 36.0178 716.673 34.3348 701.846 47.0845L748.008 100.771C762.836 88.0208 764.521 65.6701 751.773 50.844Z" fill="#F0D035"/>
</svg>
