<svg width="71" height="71" viewBox="0 0 71 71" fill="none" xmlns="http://www.w3.org/2000/svg">
<path d="M24.3106 49.619C23.2646 49.2825 22.6846 48.1175 21.8293 47.7011C20.842 47.2209 19.5136 47.4254 18.765 46.846C17.9013 46.1789 17.7694 44.8115 17.1976 44.0303C16.557 43.1577 15.3956 42.6882 15.0847 41.6897C14.8091 40.8065 15.4191 39.6084 15.3723 38.6442C15.3282 37.7022 16.0706 30.8679 16.4674 29.8971C16.8728 28.9051 21.3549 23.0151 22.0826 22.2788C22.8263 21.5262 23.2178 20.2338 24.0774 19.6652C25.0423 19.0291 26.3071 19.2626 27.4277 18.9033C28.4511 18.5739 29.5225 17.5562 30.6796 17.4939C31.6924 17.4384 32.6038 18.3234 33.7276 18.4983C34.7022 18.6518 35.9992 18.0799 37.0618 18.4218C38.4391 18.8648 39.3721 20.314 40.6584 21.1757C41.8637 21.982 43.5507 22.2554 44.6489 23.3178C45.7174 24.3547 46.128 26.1131 47.0706 27.2908C48.0305 28.4954 49.5656 29.1811 50.3668 30.4279C50.9323 31.311 50.7751 32.7108 51.2471 33.5692C51.7692 34.5183 52.935 34.9653 53.3321 35.8395C53.8129 36.8953 53.4667 38.2903 53.7417 39.1519C54.2135 40.6394 55.0938 41.6984 54.8675 42.2521C54.6411 42.8058 53.2199 43.0818 51.8031 43.9005C50.9791 44.3766 50.2311 45.6183 49.1156 46.1153C48.1936 46.5252 47.0106 46.1607 45.9386 46.557C44.9706 46.9122 44.0771 48.0484 43.0224 48.3677C41.5177 48.8248 39.8724 48.4262 38.2743 48.7599C36.7151 49.0849 35.1232 50.1591 33.5651 50.3084C31.9731 50.4602 30.5136 49.6761 29.0186 49.5844C27.4307 49.4896 25.6774 50.0587 24.3106 49.619Z" fill="#E86229"/>
<path d="M24.132 46.2248C23.8021 43.4433 23.5781 40.5992 23.4583 37.7028C23.3866 35.9762 23.3628 34.2248 23.4181 32.4477C23.7393 32.5478 24.0614 32.6455 24.3815 32.7425C24.7351 32.8502 25.0886 32.9579 25.441 33.0625C27.1394 33.5682 28.8455 34.0549 30.5593 34.5226C30.5743 34.9613 30.6098 35.3906 30.6543 35.8093C30.7747 36.9005 30.9923 37.9157 31.2631 38.8701C31.8048 40.7845 32.5573 42.4663 33.3155 44.1339C32.7315 42.2943 32.1594 40.4372 31.8149 38.4279C31.6413 37.4267 31.5286 36.3862 31.5052 35.3126C31.5011 35.1372 31.5009 34.9577 31.5029 34.7788C32.1256 34.9458 32.7494 35.1105 33.374 35.2727C33.5558 35.3202 33.7376 35.3676 33.9224 35.4133C34.2608 35.5001 34.5981 35.5838 34.9365 35.6706C35.8368 35.8996 36.74 36.1215 37.6461 36.3363C38.352 36.5084 39.0576 36.6752 39.7596 36.8568C39.5756 38.7346 39.457 40.6147 39.5693 42.381C39.6449 43.5356 39.8214 44.634 40.1291 45.6083C40.4367 46.5827 40.8815 47.4294 41.4752 48.0505C40.9592 47.3203 40.6116 46.3975 40.4032 45.3772C40.1926 44.3563 40.1151 43.2413 40.139 42.0864C40.1692 40.4754 40.383 38.8027 40.6624 37.1027C41.0712 37.22 41.475 37.3438 41.877 37.4777C42.4828 37.6688 43.0722 37.9001 43.6528 38.1474C43.7366 38.1796 43.8207 38.2172 43.9036 38.2517C44.1034 38.3478 44.3053 38.4445 44.5031 38.5452C44.9483 38.7706 45.3876 39.0102 45.8025 39.2983C47.025 40.083 48.0935 41.164 48.9523 42.5155C48.1346 41.1156 47.0963 39.9719 45.9009 39.1208C45.5086 38.8239 45.0977 38.5666 44.6771 38.3276C45.1866 37.6816 45.7083 37.0582 46.2508 36.4764C47.1984 35.4642 48.2328 34.5815 49.3158 34.1189C48.7893 34.2264 48.2383 34.452 47.6887 34.7611C47.1412 35.0709 46.593 35.4634 46.0586 35.8979C45.3136 36.5061 44.5928 37.1944 43.8892 37.9042C43.2843 37.6063 42.6698 37.3321 42.0358 37.0999C41.609 36.934 41.1765 36.7822 40.741 36.6376C40.4343 36.5368 40.1245 36.4378 39.8128 36.3434C39.1674 36.1451 38.5141 35.9602 37.8657 35.769C37.0512 35.5326 36.2367 35.2962 35.4261 35.0504C35.6956 34.7321 35.9891 34.4242 36.2889 34.1129L38.4601 31.8526C39.1873 31.1021 39.9087 30.3256 40.6329 29.6117C41.3584 28.9061 42.1293 28.2634 42.9231 27.9761C42.141 28.1359 41.3167 28.6892 40.5442 29.3128C39.7659 29.9505 39.0198 30.6253 38.2586 31.2793L35.9878 33.2558C35.6089 33.5873 35.2167 33.928 34.8204 34.337C34.6937 34.4679 34.5661 34.6066 34.4408 34.7514C34.1856 34.6751 33.9293 34.5958 33.673 34.5165C32.9606 34.2967 32.246 34.0709 31.5364 33.844C31.2099 33.7395 30.8814 33.6345 30.5547 33.5246C29.099 33.0564 27.654 32.5675 26.2099 32.0709C27.5265 30.3918 28.869 28.7479 30.2376 27.1444C31.1374 26.0928 32.0525 25.0676 33.0171 24.176C33.9756 23.2879 34.9984 22.5381 36.0341 22.122C35.0092 22.413 33.9462 23.0642 32.9346 23.8737C31.9168 24.6867 30.9408 25.6469 29.988 26.6253C28.3895 28.2704 26.8114 29.9756 25.2608 31.7352C24.6639 31.5282 24.0698 31.3141 23.4778 31.1007C23.1468 30.9841 22.8147 30.8645 22.4866 30.7409C20.7229 30.0938 18.9711 29.4291 17.228 28.7431L16.592 30.2326C18.5502 30.9017 20.5169 31.5441 22.4964 32.161C22.5354 34.1825 22.6853 36.135 22.896 38.0373C23.2008 40.8456 23.6174 43.5771 24.132 46.2248Z" fill="white"/>
</svg>
