<svg width="93" height="84" viewBox="0 0 93 84" fill="none" xmlns="http://www.w3.org/2000/svg">
<path d="M46.5991 69.8048C44.6861 70.6276 42.4631 70.0294 40.731 70.5499C38.7323 71.1512 37.0533 72.8769 35.282 73.1009C33.24 73.3608 31.4249 72.0366 29.6697 71.8429C27.7064 71.6285 25.4684 72.4385 23.8325 71.7149C22.3848 71.0755 21.844 69.0932 20.631 68.1072C19.4484 67.1421 12.4042 58.9363 11.8251 57.4406C11.2334 55.9121 10.7216 44.4861 10.8997 42.868C11.0818 41.2143 10.1131 39.3779 10.6812 37.7911C11.3216 36.0123 13.429 34.8307 14.6233 33.1736C15.7128 31.659 16.0539 29.3483 17.654 27.9698C19.0535 26.7623 21.4233 26.6833 23.2569 25.5983C24.8493 24.6593 26.0464 22.5733 27.9899 21.7375C30.5087 20.6542 33.58 21.1586 36.4646 20.6295C39.166 20.1325 41.9316 18.5154 44.7824 18.4158C47.56 18.3223 50.2427 19.7519 53.0054 19.9528C55.825 20.1631 58.8605 19.1626 61.5007 19.5983C63.3679 19.909 64.8032 21.5955 66.5056 21.9856C68.3883 22.4168 70.606 21.5773 72.219 22.0694C74.1688 22.6623 75.3249 24.5578 76.7462 25.1747C79.1956 26.243 81.7272 26.3866 82.0575 27.2397C82.3878 28.0929 80.6594 30.0008 79.5821 32.4885C78.9554 33.9353 79.3482 36.121 78.3246 37.9206C77.4777 39.4071 75.3331 40.3549 74.2529 41.9968C73.2743 43.4763 73.3313 45.7133 72.1847 47.2525C70.5507 49.4501 67.6968 50.8851 65.7811 53.0556C63.9113 55.1726 62.8842 58.1341 60.8074 60.0607C58.6842 62.0283 55.6413 62.8372 53.3696 64.4326C50.9594 66.1297 49.0989 68.7297 46.5991 69.8048Z" fill="#E86229"/>
<path d="M42.8126 66.2438C39.0602 63.6195 35.3866 60.8087 31.8011 57.8243C29.6634 56.0457 27.5654 54.1864 25.551 52.2106C26.1311 51.9572 26.7098 51.7001 27.2848 51.4447C27.9205 51.1632 28.5562 50.8816 29.1868 50.5981C32.2268 49.233 35.2556 47.8388 38.2732 46.4155C38.8119 46.8711 39.3687 47.2934 39.9262 47.6942C41.3852 48.734 42.8946 49.5825 44.409 50.3059C47.4444 51.7583 50.5091 52.7233 53.5654 53.6664C50.5572 52.3422 47.5455 50.9856 44.6821 49.2091C43.2525 48.3263 41.8643 47.3325 40.5655 46.2027C40.3528 46.0184 40.1411 45.8253 39.9332 45.6304C41.0262 45.1101 42.1178 44.5861 43.208 44.0585C43.5255 43.9052 43.843 43.7519 44.1628 43.5933C44.7521 43.3062 45.3363 43.0172 45.9256 42.7301C47.4911 41.9645 49.0524 41.1878 50.6095 40.4003C51.8281 39.7921 53.0402 39.1782 54.2644 38.5846C56.2124 40.8136 58.2571 42.9714 60.5001 44.7472C61.9693 45.9056 63.5178 46.89 65.1086 47.5933C66.6994 48.2966 68.3374 48.7082 69.9236 48.7096C68.3205 48.5034 66.7329 47.9005 65.2307 47.0362C63.7247 46.1735 62.2993 45.06 60.9728 43.7894C59.1179 42.0208 57.4546 39.979 55.8536 37.8342C56.5801 37.5009 57.3071 37.1802 58.0434 36.8724C59.1404 36.397 60.2613 35.9834 61.3881 35.5969C61.5468 35.5373 61.712 35.4833 61.8721 35.4272C62.2728 35.306 62.6772 35.1832 63.0807 35.0692C63.987 34.8114 64.9016 34.5755 65.838 34.4192C68.5221 33.8897 71.3337 33.8524 74.1623 34.3421C71.3357 33.754 68.4939 33.6898 65.7706 34.1175C64.8561 34.2388 63.9617 34.4237 63.0747 34.6393C63.0468 33.3707 63.063 32.1129 63.1581 30.8763C63.3292 28.7208 63.7777 26.6074 64.7913 24.8915C64.1602 25.5993 63.633 26.4617 63.2063 27.4125C62.7833 28.3617 62.4571 29.4007 62.1998 30.4695C61.8444 31.9621 61.618 33.5138 61.4419 35.0693C60.2204 35.4285 59.0129 35.8242 57.8268 36.287C57.017 36.5881 56.2157 36.9111 55.4185 37.2451C54.8584 37.4814 54.2959 37.723 53.7362 37.9719C52.5735 38.484 51.4155 39.0195 50.257 39.5425C48.8063 40.2038 47.3556 40.865 45.8993 41.5117C45.912 40.866 45.9717 40.2043 46.0362 39.5321L46.4976 34.6569C46.6599 33.031 46.783 31.3838 46.984 29.8007C47.1967 28.2252 47.5487 26.6663 48.3527 25.4644C47.4154 26.5157 46.8812 28.0385 46.5042 29.5785C46.1356 31.1403 45.857 32.7059 45.532 34.266L44.593 38.9477C44.4383 39.7308 44.2755 40.5385 44.187 41.4246C44.1589 41.7081 44.1387 42.0008 44.129 42.2976C43.6719 42.5024 43.2096 42.7052 42.7473 42.908C41.463 43.4723 40.1683 44.0326 38.8799 44.586C38.2869 44.8407 37.6902 45.097 37.0907 45.346C34.4439 46.4786 31.7883 47.5768 29.1248 48.6657C29.0411 45.3773 29.0361 42.0975 29.1162 38.832C29.172 36.6879 29.2809 34.5549 29.6186 32.5102C29.9515 30.4761 30.5399 28.5188 31.54 26.9061C30.408 28.3719 29.6455 30.2683 29.1436 32.2775C28.6368 34.2973 28.3635 36.4288 28.1453 38.5536C27.7833 42.1225 27.5215 45.7331 27.3634 49.3714C26.2603 49.8197 25.1531 50.2571 24.0497 50.6929C23.4359 50.9395 22.817 51.1842 22.1991 51.4199C18.8983 52.7061 15.594 53.96 12.2771 55.1811L13.117 57.5002C16.7235 56.019 20.3109 54.4994 23.8867 52.9382C26.3248 55.0711 28.8413 57.0051 31.386 58.8167C35.1339 61.4981 38.9521 63.9712 42.8126 66.2438Z" fill="white"/>
</svg>
