<svg width="809" height="572" viewBox="0 0 809 572" fill="none" xmlns="http://www.w3.org/2000/svg">
<path d="M5.06851 326.49C13.5343 306.533 31.9687 295.056 49.5141 284.141C59.0593 278.191 85.3245 263.168 123.59 258.732C133.781 257.546 141.453 257.514 205.074 264.025C235.741 267.17 262.747 261.421 284.97 249.732C307.193 238.044 324.643 220.416 337.352 200.501C342.601 192.275 357.49 168.655 381.798 124.273C407.915 76.5774 406.698 74.6823 416.719 62.8669C422.952 55.5193 446.275 29.3158 486.562 13.1067C499.599 7.86599 518.457 0.274917 543.706 0.401965C587.284 0.624298 618.629 23.694 632.598 34.2812C658.408 53.8359 671.318 75.1058 696.091 116.862C728.981 172.297 729.161 188.146 764.876 253.438C799.321 316.411 805.893 313.976 808.263 330.725C818.56 403.428 700.758 491.472 601.909 532.942C354.337 636.793 78.5307 510.222 23.0584 416.482C14.2328 401.575 -9.66202 361.195 5.06851 326.49Z" fill="#33B3A6"/>
</svg>
