<svg width="1439" height="313" viewBox="0 0 1439 313" fill="none" xmlns="http://www.w3.org/2000/svg">
<path d="M113.58 179.522C111.516 176.949 109.696 173.413 102.997 164.7C98.8068 159.247 97.3147 157.765 95.5897 154.113C93.7802 150.291 90.2563 142.848 93.4733 137.173C95.6638 133.309 100.108 131.805 102.997 130.821C109.124 128.745 110.934 130.863 114.638 128.703C118.818 126.268 121.601 120.604 120.987 114.94C120.553 110.991 118.024 111.022 114.638 104.352C113.4 101.907 111.495 98.1694 110.934 93.2358C110.712 91.2983 109.855 83.7919 114.109 77.3549C117.41 72.3577 120.045 73.6705 126.807 66.7676C130.744 62.755 132.575 54.2852 129.453 45.0637C126.3 35.7469 135.115 28.6005 140.035 24.9478C144.12 21.9093 146.935 11.5867 150.088 7.47884C152.141 4.80026 154.067 2.30166 157.496 1.12648C158.427 0.808857 161.75 -0.323981 164.904 1.12648C168.904 2.96866 170.216 7.8494 171.253 11.7138C172.756 17.3144 171.401 18.5425 173.369 22.301C174.269 24.0162 175.729 25.5619 178.661 28.6534C183.412 33.6718 183.92 33.1742 185.01 35.0058C187.666 39.463 186.999 46.3341 183.952 50.8867C180.989 55.3227 178.1 54.084 174.428 59.3565C173.211 61.1034 170.502 64.9995 171.253 69.9438C171.359 70.6637 172.026 74.9939 175.486 77.3549C178.862 79.6523 181.338 77.6407 185.01 79.4723C189.55 81.738 190.957 87.3916 191.359 89.0009C193.444 97.3648 188.555 104.818 187.126 106.999C183.857 111.996 182.121 111.234 176.544 118.645C171.676 125.114 171.327 127.93 171.253 129.233C171.063 132.695 172.237 137.226 175.486 139.82C178.11 141.916 179.698 140.826 183.952 142.996C185.391 143.726 189.518 145.833 191.359 149.348C194.174 154.716 190.682 161.503 187.126 168.405C185.158 172.238 181.952 178.463 176.544 183.228C159.157 198.537 124.829 193.54 113.58 179.522Z" fill="#33B3A6"/>
<path d="M1072.66 53.8191L1070.97 59.3033C1067.22 71.4681 1060.07 80.0861 1051.72 89.5935L1041.33 101.451C1041.15 106.374 1041.26 111.329 1041.4 116.252C1041.43 117.459 1041.52 118.656 1041.56 119.852C1050.11 102.277 1062.77 86.0255 1078.78 72.2303C1078.9 72.1244 1079.02 72.0292 1079.13 71.9233C1080.32 70.8963 1082.14 71.828 1081.52 73.1515L1078.9 78.7203C1073.06 91.0757 1064.37 102.531 1053.35 112.324L1041.68 122.711C1041.99 130.217 1042.43 137.723 1043.08 145.208C1043.1 145.325 1043.11 145.441 1043.13 145.558C1050.09 128.904 1060.56 113.669 1073.91 100.858C1074.02 100.763 1074.11 100.668 1074.22 100.562C1075.24 99.5878 1076.9 100.583 1076.39 101.864L1074.25 107.317C1069.53 119.407 1062.21 130.503 1052.79 139.851L1043.48 149.094C1044.27 157.416 1045.22 165.716 1046.43 173.963C1046.65 175.456 1046.92 176.938 1047.15 178.431C1054.8 157.691 1066.58 138.856 1081.79 123.155C1081.91 123.039 1082.03 122.912 1082.14 122.795C1083.32 121.588 1085.28 122.901 1084.73 124.5L1082.4 131.307C1077.23 146.405 1069.01 160.158 1058.27 171.655L1047.87 182.793C1048.16 184.604 1048.42 186.425 1048.75 188.235L1050.04 195.339C1050.51 197.541 1051.13 199.849 1051.8 202.136C1053.37 207.43 1055.12 212.692 1056.93 217.954C1061.11 195.36 1070.08 173.265 1083.31 153.064C1083.41 152.905 1083.51 152.747 1083.61 152.598C1084.64 151.031 1087.06 151.656 1086.79 153.424L1085.65 160.888C1083.1 177.457 1076.93 193.709 1067.53 208.584L1058.6 222.739C1059.39 224.994 1060.21 227.239 1061.02 229.473C1062.69 233.993 1064.39 238.503 1066.16 242.95C1067.38 245.915 1068.58 248.89 1069.89 251.716C1074.78 221.193 1086.98 191.041 1105.6 163.577C1105.73 163.387 1105.86 163.196 1105.99 163.006C1107.3 161.079 1110.26 161.788 1109.89 163.927L1108.29 173C1104.77 193.116 1096.77 212.946 1084.82 231.188L1070.51 253.05C1070.97 253.982 1071.43 254.893 1071.93 255.771C1074.41 260.292 1076.94 264.771 1079.53 269.228C1091.94 240.716 1111.01 214.121 1135.5 191.305C1135.68 191.136 1135.86 190.967 1136.04 190.797C1137.86 189.103 1140.78 190.501 1139.88 192.629L1136.08 201.628C1127.65 221.574 1114.62 240.229 1097.87 256.343L1081.33 272.266C1087.87 283.394 1094.73 294.33 1101.93 305.013L1092.67 310.952C1085.54 299.222 1078.81 287.258 1072.46 275.104L1052.41 272.648C1029.34 269.81 1007.74 262.727 989.02 251.833L980.575 246.92C978.575 245.756 980.078 242.887 982.544 243.151C982.787 243.172 983.03 243.204 983.284 243.225C1014.31 246.518 1043.54 255.284 1069.28 268.889C1067.7 265.787 1066.11 262.685 1064.59 259.562C1063.36 257.095 1062.36 254.639 1061.43 252.182L1043.53 245.555C1023.08 237.985 1004.88 226.794 990.089 212.713L983.422 206.361C981.845 204.868 983.813 202.528 986.015 203.301C986.226 203.375 986.448 203.449 986.66 203.534C1013.89 213.115 1038.42 227.228 1058.86 244.994C1057.34 240.568 1055.9 236.143 1054.5 231.696C1053.22 227.577 1051.96 223.448 1050.76 219.309L1032.85 209.389C1016.38 200.262 1001.82 187.452 990.131 171.783L984.861 164.71C983.612 163.048 985.284 160.698 987.052 161.629C987.221 161.725 987.401 161.809 987.581 161.905C1011.46 174.556 1032.57 192.714 1049.53 215.01C1048.46 211.21 1047.42 207.398 1046.48 203.544C1045.89 201.152 1045.36 198.748 1044.94 196.186L1043.97 188.934C1043.52 185.461 1043.17 181.989 1042.8 178.505L1030.36 167.219C1018.71 156.643 1009.38 143.61 1003 128.989L1000.12 122.393C999.444 120.837 1001.28 119.375 1002.55 120.477C1002.68 120.582 1002.81 120.688 1002.94 120.805C1019.57 135.352 1032.96 153.414 1042.29 173.72C1041.59 166.436 1041.1 159.131 1040.71 151.826L1040.65 151.889C1040.67 151.836 1040.69 151.794 1040.71 151.741C1040.6 149.602 1040.45 147.464 1040.37 145.325C1040.1 138.56 1040.01 131.784 1040.02 125.019V124.161V123.102V121.842C1040.02 119.958 1040.01 118.084 1040.04 116.21C1040.13 111.107 1040.25 105.951 1040.71 100.837L1037.13 87.296C1034.07 75.7559 1033.9 66.4179 1035.8 54.6237L1036.67 49.3089C1036.87 48.0596 1038.64 47.9431 1038.99 49.1712C1039.02 49.2877 1039.05 49.4147 1039.1 49.5312C1044.04 66.9155 1044.56 82.6906 1041.39 100.308C1041.39 100.382 1041.38 100.445 1041.38 100.52C1046.82 81.8965 1057.23 67.1378 1070.27 52.8027C1070.37 52.6968 1070.45 52.6016 1070.54 52.5063C1071.45 51.564 1073.06 52.5274 1072.66 53.8191Z" fill="#E9622A"/>
<path d="M1040.03 119.555C1038.03 100.805 1031.54 82.5421 1021.09 66.2483C1021.02 66.1424 1020.96 66.0259 1020.88 65.92C1020.17 64.819 1018.47 65.3483 1018.64 66.6188L1019.38 71.9971C1021.02 83.929 1025.21 95.5221 1031.68 106.014L1040.03 119.555Z" fill="#E9622A"/>
<path d="M1003.98 86.3434C1003.9 86.2375 1003.81 86.1422 1003.73 86.0364C1002.88 85.02 1002.75 87.7197 1003.55 89.5831L1006.94 97.4706C1014.45 114.961 1022.44 129.148 1030.39 139.1L1040.64 151.942C1028.99 123.844 1016.42 101.367 1003.98 86.3434Z" fill="#E9622A"/>
<path d="M1205.34 129.974L1204.3 133.362C1201.98 140.879 1197.56 146.194 1192.41 152.069L1186 159.385C1185.88 162.424 1185.97 165.484 1186.05 168.522C1186.07 169.263 1186.13 170.004 1186.15 170.745C1191.43 159.893 1199.25 149.857 1209.13 141.345C1209.21 141.281 1209.28 141.218 1209.35 141.154C1210.09 140.519 1211.22 141.09 1210.84 141.906L1209.22 145.347C1205.62 152.98 1200.24 160.052 1193.45 166.098L1186.24 172.514C1186.44 177.151 1186.71 181.777 1187.11 186.404C1187.12 186.478 1187.13 186.552 1187.13 186.616C1191.43 176.336 1197.89 166.923 1206.14 159.015C1206.2 158.951 1206.26 158.898 1206.33 158.835C1206.96 158.231 1207.98 158.845 1207.67 159.639L1206.36 163.006C1203.44 170.47 1198.93 177.32 1193.11 183.09L1187.36 188.797C1187.85 193.932 1188.44 199.056 1189.18 204.159C1189.32 205.08 1189.48 206.001 1189.63 206.922C1194.35 194.122 1201.63 182.487 1211.02 172.789C1211.09 172.715 1211.16 172.641 1211.23 172.566C1211.95 171.825 1213.16 172.63 1212.82 173.625L1211.39 177.828C1208.2 187.145 1203.12 195.636 1196.49 202.74L1190.06 209.622C1190.24 210.744 1190.4 211.866 1190.6 212.989L1191.4 217.372C1191.69 218.727 1192.07 220.156 1192.49 221.564C1193.46 224.825 1194.53 228.086 1195.65 231.326C1198.23 217.382 1203.78 203.735 1211.95 191.264C1212.01 191.168 1212.07 191.073 1212.14 190.978C1212.77 190.014 1214.26 190.395 1214.09 191.486L1213.39 196.102C1211.81 206.329 1208 216.366 1202.2 225.556L1196.69 234.301C1197.18 235.688 1197.68 237.075 1198.18 238.462C1199.21 241.246 1200.25 244.031 1201.35 246.783C1202.1 248.615 1202.85 250.446 1203.65 252.193C1206.67 233.348 1214.2 214.725 1225.7 197.775C1225.79 197.658 1225.86 197.542 1225.94 197.425C1226.74 196.24 1228.58 196.674 1228.35 197.997L1227.36 203.598C1225.18 216.017 1220.24 228.255 1212.88 239.52L1204.04 253.019C1204.32 253.591 1204.61 254.163 1204.92 254.703C1206.44 257.487 1208.01 260.261 1209.61 263.014C1217.27 245.407 1229.05 228.986 1244.17 214.905C1244.29 214.799 1244.39 214.693 1244.5 214.598C1245.62 213.55 1247.43 214.418 1246.87 215.731L1244.52 221.289C1239.31 233.613 1231.27 245.121 1220.92 255.073L1210.71 264.898C1214.75 271.769 1218.98 278.524 1223.43 285.12L1217.71 288.783C1213.31 281.541 1209.15 274.151 1205.24 266.645L1192.86 265.12C1178.61 263.373 1165.28 258.99 1153.71 252.267L1148.49 249.239C1147.27 248.52 1148.19 246.751 1149.71 246.91C1149.86 246.921 1150.01 246.942 1150.17 246.963C1169.32 248.996 1187.37 254.406 1203.26 262.812C1202.28 260.896 1201.31 258.98 1200.37 257.053C1199.61 255.528 1198.99 254.014 1198.42 252.5L1187.37 248.403C1174.75 243.734 1163.51 236.821 1154.38 228.128L1150.26 224.211C1149.29 223.29 1150.51 221.85 1151.86 222.327C1151.99 222.369 1152.12 222.422 1152.26 222.464C1169.08 228.383 1184.22 237.096 1196.85 248.064C1195.9 245.333 1195.01 242.601 1194.15 239.859C1193.35 237.318 1192.58 234.767 1191.83 232.205L1180.78 226.085C1170.61 220.453 1161.62 212.533 1154.4 202.867L1151.14 198.505C1150.37 197.478 1151.41 196.028 1152.5 196.6C1152.6 196.652 1152.71 196.716 1152.82 196.769C1167.57 204.582 1180.6 215.794 1191.07 229.558C1190.4 227.218 1189.77 224.857 1189.18 222.475C1188.82 221.003 1188.49 219.521 1188.23 217.933L1187.64 213.454C1187.36 211.316 1187.14 209.167 1186.92 207.017L1179.24 200.051C1172.04 193.519 1166.28 185.472 1162.34 176.441L1160.56 172.365C1160.14 171.402 1161.28 170.502 1162.06 171.179C1162.14 171.243 1162.22 171.317 1162.29 171.381C1172.57 180.369 1180.83 191.507 1186.59 204.053C1186.16 199.553 1185.85 195.043 1185.62 190.533L1185.58 190.575C1185.59 190.544 1185.6 190.512 1185.62 190.48C1185.54 189.157 1185.46 187.844 1185.41 186.52C1185.25 182.338 1185.18 178.167 1185.19 173.985V173.456V172.799V172.016C1185.19 170.851 1185.18 169.697 1185.2 168.533C1185.26 165.378 1185.34 162.202 1185.62 159.036L1183.41 150.672C1181.51 143.547 1181.41 137.777 1182.59 130.503L1183.12 127.221C1183.25 126.448 1184.34 126.374 1184.55 127.136C1184.57 127.211 1184.59 127.285 1184.61 127.359C1187.67 138.094 1187.98 147.835 1186.03 158.708C1186.03 158.75 1186.03 158.792 1186.02 158.835C1189.37 147.337 1195.81 138.221 1203.86 129.37C1203.91 129.307 1203.98 129.243 1204.03 129.19C1204.59 128.576 1205.59 129.169 1205.34 129.974Z" fill="#444FCB"/>
<path d="M1185.18 170.555C1183.95 158.973 1179.95 147.697 1173.49 137.639C1173.45 137.576 1173.41 137.502 1173.36 137.438C1172.93 136.761 1171.87 137.089 1171.98 137.872L1172.43 141.197C1173.45 148.566 1176.03 155.723 1180.02 162.202L1185.18 170.555Z" fill="#444FCB"/>
<path d="M1162.93 150.058C1162.88 149.995 1162.82 149.931 1162.77 149.868C1162.25 149.243 1162.17 150.905 1162.65 152.059L1164.75 156.929C1169.38 167.728 1174.33 176.484 1179.23 182.635L1185.55 190.565C1178.37 173.202 1170.61 159.333 1162.93 150.058Z" fill="#444FCB"/>
<path d="M1281.57 196.529C1280.71 192.348 1280.43 187.361 1283.59 184.502C1287.49 180.987 1294.07 183.348 1297.27 187.52C1300.46 191.681 1301.55 197.059 1303.81 201.791C1306.07 206.534 1310.48 211.076 1315.7 210.515C1317.39 202.532 1315.65 194.264 1314.25 186.228C1313.31 180.818 1313.05 174.106 1317.65 171.109C1322.37 168.018 1329.24 171.819 1330.95 177.197C1332.66 182.575 1330.59 188.462 1327.66 193.29C1325.32 197.144 1323.16 202.056 1323.06 206.566C1323.01 208.991 1323.48 210.716 1325.88 211.013C1328.79 211.373 1330.64 208.091 1331.77 205.391C1334.53 198.859 1338.16 192.432 1343.86 188.218C1349.55 184.005 1357.7 182.501 1363.8 186.112C1369.89 189.722 1372.2 199.176 1367.26 204.258C1362.84 208.8 1355.13 208.355 1350.3 212.463C1344.39 217.492 1344.97 227.286 1339.54 232.833C1334.43 238.063 1326.43 237.587 1319.72 237.259C1314.74 237.015 1307.39 239.302 1303.04 236.952C1296.56 233.447 1299.25 223.792 1295.56 215.036C1292.57 207.932 1282.68 201.897 1281.57 196.529Z" fill="#E9622A"/>
<path d="M296.653 127.645C300.886 125.114 302.632 127.285 317.818 125.527C332.76 123.791 344.453 122.436 354.856 114.94C362.898 109.149 362.613 105.125 370.729 101.176C374.729 99.2282 383.661 94.6863 391.894 98.0001C400.465 101.452 404.286 111.764 407.238 119.704C410.434 128.301 409.058 130.45 412.529 134.526C417.27 140.095 425.503 142.742 432.635 141.937C439.271 141.196 439.355 138.094 448.509 135.585C458.234 132.917 466.044 134.251 467.557 134.526C476.16 136.093 482.139 140.169 484.489 141.937C492.933 148.29 492.171 153.075 501.42 162.053C506.711 167.199 510.479 170.851 516.235 172.64C531.368 177.341 547.802 165.293 552.215 162.053C564.427 153.096 564.067 146.818 574.438 142.996C582.555 140.01 591.38 140.677 597.719 142.996C615.794 149.603 624.704 173.678 625.233 186.404C627.148 232.247 527.506 302.853 430.519 290.159C364.38 281.499 301.585 234.375 289.775 183.228C286.674 169.824 282.462 136.125 296.653 127.645Z" fill="#E9622A"/>
<path d="M353.963 137.82C358.196 135.29 359.942 137.46 375.128 135.703C390.07 133.967 401.763 132.611 412.166 125.116C420.208 119.324 419.923 115.301 428.039 111.352C432.039 109.404 440.971 104.862 449.204 108.176C457.775 111.627 461.596 121.939 464.548 129.88C467.744 138.477 466.368 140.626 469.839 144.702C474.58 150.271 482.813 152.918 489.946 152.113C496.581 151.372 496.665 148.27 505.819 145.761C515.544 143.093 523.354 144.427 524.867 144.702C533.47 146.269 539.449 150.345 541.799 152.113C550.243 158.465 549.481 163.251 558.73 172.229C564.022 177.374 567.789 181.027 573.546 182.816C588.678 187.517 605.112 175.469 609.525 172.229C621.737 163.272 621.377 156.994 631.748 153.172C639.865 150.186 648.69 150.853 655.029 153.172C673.104 159.778 682.014 183.854 682.543 196.58C684.458 242.423 584.816 313.029 487.829 300.335C421.69 291.675 358.895 244.551 347.085 193.403C343.984 180 339.772 146.301 353.963 137.82Z" fill="#E9622A"/>
<path d="M156.163 35.9898C151.401 56.815 147.231 77.7672 143.676 98.8359C140.12 119.873 137.168 141.005 134.829 162.201C133.506 174.186 132.374 186.192 131.432 198.219C131.273 200.262 134.448 200.251 134.607 198.219C136.268 176.981 138.512 155.785 141.39 134.674C144.258 113.679 147.718 92.7694 151.771 71.9654C154.068 60.2135 156.544 48.504 159.221 36.8262C159.687 34.8464 156.618 33.9889 156.163 35.9898Z" fill="#E5E6DE"/>
<path d="M363.777 197.15C367.332 191.549 375.057 188.14 380.856 191.348C378.729 185.472 378.613 178.696 381.449 173.127C384.285 167.559 390.317 163.504 396.56 163.895C402.804 164.287 408.582 169.687 408.592 175.944C412.423 170.872 420.032 169.57 425.842 172.143C431.651 174.705 435.641 180.475 437.196 186.637C439.228 183.418 444.149 183.228 447.387 185.229C450.625 187.23 452.583 190.723 454.403 194.069C457.535 190.035 463.239 188.225 468.128 189.696C473.017 191.168 476.763 195.848 477.155 200.93C481.504 197.827 487.748 197.669 492.245 200.559C496.743 203.449 499.187 209.198 498.171 214.45C498.976 212.988 500.923 212.459 502.552 212.851C504.172 213.243 505.526 214.354 506.711 215.529C510.108 218.896 512.743 223.332 512.849 228.118C512.976 233.814 509.452 239.128 504.838 242.474C500.224 245.82 494.626 247.503 489.092 248.837C463.631 254.956 436.911 254.84 411.069 250.605C399.333 248.678 387.576 245.851 377.174 240.081C370.094 236.153 363.11 230.15 360.581 222.189C358.284 215.053 359.798 203.407 363.777 197.15Z" fill="#F2CF35"/>
<path d="M421.087 207.326C424.642 201.725 432.367 198.316 438.166 201.524C436.039 195.648 435.923 188.872 438.759 183.303C441.595 177.734 447.627 173.679 453.87 174.071C460.114 174.463 465.892 179.862 465.903 186.119C469.733 181.048 477.342 179.746 483.152 182.319C488.961 184.881 492.951 190.651 494.506 196.813C496.538 193.594 501.459 193.403 504.697 195.404C507.935 197.405 509.893 200.899 511.713 204.245C514.846 200.211 520.549 198.401 525.438 199.872C530.327 201.344 534.074 206.023 534.465 211.105C538.814 208.003 545.058 207.844 549.555 210.735C554.053 213.625 556.497 219.374 555.481 224.625C556.286 223.164 558.233 222.635 559.863 223.027C561.482 223.418 562.836 224.53 564.021 225.705C567.418 229.072 570.053 233.508 570.159 238.293C570.286 243.989 566.762 249.304 562.148 252.65C557.534 255.995 551.936 257.679 546.402 259.013C520.941 265.132 494.221 265.016 468.379 260.781C456.643 258.854 444.886 256.027 434.484 250.257C427.404 246.329 420.42 240.326 417.891 232.365C415.594 225.229 417.108 213.583 421.087 207.326Z" fill="#F2CF35"/>
<path d="M944.553 161.45C951.357 161.45 951.379 150.862 944.553 150.862C937.749 150.862 937.738 161.45 944.553 161.45Z" fill="#444FCB"/>
<path d="M1136.02 111.298C1142.82 111.298 1142.84 100.711 1136.02 100.711C1129.21 100.711 1129.2 111.298 1136.02 111.298Z" fill="#444FCB"/>
<path d="M1012.72 48.1127C1019.53 48.1127 1019.55 37.5254 1012.72 37.5254C1005.91 37.5254 1005.9 48.1127 1012.72 48.1127Z" fill="#444FCB"/>
<path d="M1262.33 199.553C1269.13 199.553 1269.15 188.966 1262.33 188.966C1255.52 188.966 1255.5 199.553 1262.33 199.553Z" fill="#444FCB"/>
<path d="M1345.53 142.392C1352.33 142.392 1352.35 131.805 1345.53 131.805C1338.72 131.805 1338.71 142.392 1345.53 142.392Z" fill="#444FCB"/>
<path d="M1230.25 78.2015C1237.06 78.2015 1237.08 67.6143 1230.25 67.6143C1223.44 67.6143 1223.43 78.2015 1230.25 78.2015Z" fill="#444FCB"/>
<path d="M852.328 117.322C859.133 117.322 859.154 106.734 852.328 106.734C845.524 106.734 845.513 117.322 852.328 117.322Z" fill="#444FCB"/>
<path d="M81.5 94.5C59.1 52.9 17.8333 32.8333 0 28V313H1439C1441.17 247.333 1444.2 109.2 1439 108C1432.5 106.5 1411 146 1394 162.5C1380.65 175.46 1309.5 258 1182 270.5C1054.5 283 957.5 219.5 934 207.5C910.5 195.5 790.5 65.5 589.5 188C388.5 310.5 332 166 318 149.5C304 133 266 54.5 216.5 119C167 183.5 109.5 146.5 81.5 94.5Z" fill="white"/>
</svg>
