<svg width="847" height="575" viewBox="0 0 847 575" fill="none" xmlns="http://www.w3.org/2000/svg">
<path d="M838.016 328.998C837.974 329.178 837.921 329.358 837.868 329.538C837.646 330.321 837.413 331.094 837.18 331.857C837.064 332.259 836.947 332.661 836.82 333.053C777.051 526.25 344.384 670.289 114.051 495.038C61.1604 454.796 22.1541 400.155 -5 342.698V28.4569C2.6404 24.6984 11.593 20.7176 21.4557 17.0226C27.3818 14.7993 34.5671 12.1419 43.0224 9.61155C55.3296 5.92718 70.3458 2.51808 88.124 1.14173C89.0341 1.06762 90.1135 0.993518 91.3622 0.919407C102.029 0.273583 124.506 -0.181679 152.38 5.90601C158.253 7.17648 164.369 8.75398 170.666 10.6703C185.206 15.1063 197.873 20.5482 208.349 25.8842C226.466 35.0845 238.064 43.9355 241.567 46.667C258.668 59.9964 256.996 63.1726 296.595 104.897C321.95 131.609 334.882 145.118 347.39 152.54C379.782 171.766 411.741 172.634 420.408 172.656C457.89 172.74 485.404 155.928 512.473 139.835C535.797 125.966 533.871 122.588 572.263 98.0153C609.523 74.1728 624.466 68.9532 629.407 67.3122C637.64 64.5807 663.694 56.185 693.959 58.8424C706.245 59.9117 717.579 62.6644 727.886 66.4017C752.765 75.4009 771.612 90.1066 783.168 100.662C787.771 104.886 791.221 108.444 793.433 110.72C797.517 114.944 801.338 119.38 804.893 123.997C827.952 153.948 840.111 191.713 844.545 228.832C848.926 265.601 845.72 301.736 838.016 328.998Z" fill="#444FCB"/>
</svg>
