<svg width="1440" height="1751" viewBox="0 0 1440 1751" fill="none" xmlns="http://www.w3.org/2000/svg">
<path d="M114.58 179.522C112.516 176.949 110.696 173.413 103.997 164.7C99.8068 159.247 98.3147 157.765 96.5897 154.113C94.7802 150.291 91.2563 142.848 94.4733 137.173C96.6638 133.309 101.108 131.805 103.997 130.821C110.124 128.745 111.934 130.863 115.638 128.703C119.818 126.268 122.601 120.604 121.987 114.94C121.553 110.991 119.024 111.022 115.638 104.352C114.4 101.907 112.495 98.1694 111.934 93.2358C111.712 91.2983 110.855 83.7919 115.109 77.3549C118.41 72.3577 121.045 73.6705 127.807 66.7676C131.744 62.755 133.575 54.2852 130.453 45.0637C127.3 35.7469 136.115 28.6005 141.035 24.9478C145.12 21.9093 147.935 11.5867 151.088 7.47884C153.141 4.80026 155.067 2.30166 158.496 1.12648C159.427 0.808857 162.75 -0.323981 165.904 1.12648C169.904 2.96866 171.216 7.8494 172.253 11.7138C173.756 17.3144 172.401 18.5425 174.369 22.301C175.269 24.0162 176.729 25.5619 179.661 28.6534C184.412 33.6718 184.92 33.1742 186.01 35.0058C188.666 39.463 187.999 46.3341 184.952 50.8867C181.989 55.3227 179.1 54.084 175.428 59.3565C174.211 61.1034 171.502 64.9995 172.253 69.9438C172.359 70.6637 173.026 74.9939 176.486 77.3549C179.862 79.6523 182.338 77.6407 186.01 79.4723C190.55 81.738 191.957 87.3916 192.359 89.0009C194.444 97.3648 189.555 104.818 188.126 106.999C184.857 111.996 183.121 111.234 177.544 118.645C172.676 125.114 172.327 127.93 172.253 129.233C172.063 132.695 173.237 137.226 176.486 139.82C179.11 141.916 180.698 140.826 184.952 142.996C186.391 143.726 190.518 145.833 192.359 149.348C195.174 154.716 191.682 161.503 188.126 168.405C186.158 172.238 182.952 178.463 177.544 183.228C160.157 198.537 125.829 193.54 114.58 179.522Z" fill="#33B3A6"/>
<path d="M1073.66 53.8191L1071.97 59.3033C1068.22 71.4681 1061.07 80.0861 1052.72 89.5935L1042.33 101.451C1042.15 106.374 1042.26 111.329 1042.4 116.252C1042.43 117.459 1042.52 118.656 1042.56 119.852C1051.11 102.277 1063.77 86.0255 1079.78 72.2303C1079.9 72.1244 1080.02 72.0292 1080.13 71.9233C1081.32 70.8963 1083.14 71.828 1082.52 73.1515L1079.9 78.7203C1074.06 91.0757 1065.37 102.531 1054.35 112.324L1042.68 122.711C1042.99 130.217 1043.43 137.723 1044.08 145.208C1044.1 145.325 1044.11 145.441 1044.13 145.558C1051.09 128.904 1061.56 113.669 1074.91 100.858C1075.02 100.763 1075.11 100.668 1075.22 100.562C1076.24 99.5878 1077.9 100.583 1077.39 101.864L1075.25 107.317C1070.53 119.407 1063.21 130.503 1053.79 139.851L1044.48 149.094C1045.27 157.416 1046.22 165.716 1047.43 173.963C1047.65 175.456 1047.92 176.938 1048.15 178.431C1055.8 157.691 1067.58 138.856 1082.79 123.155C1082.91 123.039 1083.03 122.912 1083.14 122.795C1084.32 121.588 1086.28 122.901 1085.73 124.5L1083.4 131.307C1078.23 146.405 1070.01 160.158 1059.27 171.655L1048.87 182.793C1049.16 184.604 1049.42 186.425 1049.75 188.235L1051.04 195.339C1051.51 197.541 1052.13 199.849 1052.8 202.136C1054.37 207.43 1056.12 212.692 1057.93 217.954C1062.11 195.36 1071.08 173.265 1084.31 153.064C1084.41 152.905 1084.51 152.747 1084.61 152.598C1085.64 151.031 1088.06 151.656 1087.79 153.424L1086.65 160.888C1084.1 177.457 1077.93 193.709 1068.53 208.584L1059.6 222.739C1060.39 224.994 1061.21 227.239 1062.02 229.473C1063.69 233.993 1065.39 238.503 1067.16 242.95C1068.38 245.915 1069.58 248.89 1070.89 251.716C1075.78 221.193 1087.98 191.041 1106.6 163.577C1106.73 163.387 1106.86 163.196 1106.99 163.006C1108.3 161.079 1111.26 161.788 1110.89 163.927L1109.29 173C1105.77 193.116 1097.77 212.946 1085.82 231.188L1071.51 253.05C1071.97 253.982 1072.43 254.893 1072.93 255.771C1075.41 260.292 1077.94 264.771 1080.53 269.228C1092.94 240.716 1112.01 214.121 1136.5 191.305C1136.68 191.136 1136.86 190.967 1137.04 190.797C1138.86 189.103 1141.78 190.501 1140.88 192.629L1137.08 201.628C1128.65 221.574 1115.62 240.229 1098.87 256.343L1082.33 272.266C1088.87 283.394 1095.73 294.33 1102.93 305.013L1093.67 310.952C1086.54 299.222 1079.81 287.258 1073.46 275.104L1053.41 272.648C1030.34 269.81 1008.74 262.727 990.02 251.833L981.575 246.92C979.575 245.756 981.078 242.887 983.544 243.151C983.787 243.172 984.03 243.204 984.284 243.225C1015.31 246.518 1044.54 255.284 1070.28 268.889C1068.7 265.787 1067.11 262.685 1065.59 259.562C1064.36 257.095 1063.36 254.639 1062.43 252.182L1044.53 245.555C1024.08 237.985 1005.88 226.794 991.089 212.713L984.422 206.361C982.845 204.868 984.813 202.528 987.015 203.301C987.226 203.375 987.448 203.449 987.66 203.534C1014.89 213.115 1039.42 227.228 1059.86 244.994C1058.34 240.568 1056.9 236.143 1055.5 231.696C1054.22 227.577 1052.96 223.448 1051.76 219.309L1033.85 209.389C1017.38 200.262 1002.82 187.452 991.131 171.783L985.861 164.71C984.612 163.048 986.284 160.698 988.052 161.629C988.221 161.725 988.401 161.809 988.581 161.905C1012.46 174.556 1033.57 192.714 1050.53 215.01C1049.46 211.21 1048.42 207.398 1047.48 203.544C1046.89 201.152 1046.36 198.748 1045.94 196.186L1044.97 188.934C1044.52 185.461 1044.17 181.989 1043.8 178.505L1031.36 167.219C1019.71 156.643 1010.38 143.61 1004 128.989L1001.12 122.393C1000.44 120.837 1002.28 119.375 1003.55 120.477C1003.68 120.582 1003.81 120.688 1003.94 120.805C1020.57 135.352 1033.96 153.414 1043.29 173.72C1042.59 166.436 1042.1 159.131 1041.71 151.826L1041.65 151.889C1041.67 151.836 1041.69 151.794 1041.71 151.741C1041.6 149.602 1041.45 147.464 1041.37 145.325C1041.1 138.56 1041.01 131.784 1041.02 125.019V124.161V123.102V121.842C1041.02 119.958 1041.01 118.084 1041.04 116.21C1041.13 111.107 1041.25 105.951 1041.71 100.837L1038.13 87.296C1035.07 75.7559 1034.9 66.4179 1036.8 54.6237L1037.67 49.3089C1037.87 48.0596 1039.64 47.9431 1039.99 49.1712C1040.02 49.2877 1040.05 49.4147 1040.1 49.5312C1045.04 66.9155 1045.56 82.6906 1042.39 100.308C1042.39 100.382 1042.38 100.445 1042.38 100.52C1047.82 81.8965 1058.23 67.1378 1071.27 52.8027C1071.37 52.6968 1071.45 52.6016 1071.54 52.5063C1072.45 51.564 1074.06 52.5274 1073.66 53.8191Z" fill="#E9622A"/>
<path d="M1041.03 119.555C1039.03 100.805 1032.54 82.5421 1022.09 66.2483C1022.02 66.1424 1021.96 66.0259 1021.88 65.92C1021.17 64.819 1019.47 65.3483 1019.64 66.6188L1020.38 71.9971C1022.02 83.929 1026.21 95.5221 1032.68 106.014L1041.03 119.555Z" fill="#E9622A"/>
<path d="M1004.98 86.3434C1004.9 86.2375 1004.81 86.1422 1004.73 86.0364C1003.88 85.02 1003.75 87.7197 1004.55 89.5831L1007.94 97.4706C1015.45 114.961 1023.44 129.148 1031.39 139.1L1041.64 151.942C1029.99 123.844 1017.42 101.367 1004.98 86.3434Z" fill="#E9622A"/>
<path d="M1206.34 129.974L1205.3 133.362C1202.98 140.879 1198.56 146.194 1193.41 152.069L1187 159.385C1186.88 162.424 1186.97 165.484 1187.05 168.522C1187.07 169.263 1187.13 170.004 1187.15 170.745C1192.43 159.893 1200.25 149.857 1210.13 141.345C1210.21 141.281 1210.28 141.218 1210.35 141.154C1211.09 140.519 1212.22 141.09 1211.84 141.906L1210.22 145.347C1206.62 152.98 1201.24 160.052 1194.45 166.098L1187.24 172.514C1187.44 177.151 1187.71 181.777 1188.11 186.404C1188.12 186.478 1188.13 186.552 1188.13 186.616C1192.43 176.336 1198.89 166.923 1207.14 159.015C1207.2 158.951 1207.26 158.898 1207.33 158.835C1207.96 158.231 1208.98 158.845 1208.67 159.639L1207.36 163.006C1204.44 170.47 1199.93 177.32 1194.11 183.09L1188.36 188.797C1188.85 193.932 1189.44 199.056 1190.18 204.159C1190.32 205.08 1190.48 206.001 1190.63 206.922C1195.35 194.122 1202.63 182.487 1212.02 172.789C1212.09 172.715 1212.16 172.641 1212.23 172.566C1212.95 171.825 1214.16 172.63 1213.82 173.625L1212.39 177.828C1209.2 187.145 1204.12 195.636 1197.49 202.74L1191.06 209.622C1191.24 210.744 1191.4 211.866 1191.6 212.989L1192.4 217.372C1192.69 218.727 1193.07 220.156 1193.49 221.564C1194.46 224.825 1195.53 228.086 1196.65 231.326C1199.23 217.382 1204.78 203.735 1212.95 191.264C1213.01 191.168 1213.07 191.073 1213.14 190.978C1213.77 190.014 1215.26 190.395 1215.09 191.486L1214.39 196.102C1212.81 206.329 1209 216.366 1203.2 225.556L1197.69 234.301C1198.18 235.688 1198.68 237.075 1199.18 238.462C1200.21 241.246 1201.25 244.031 1202.35 246.783C1203.1 248.615 1203.85 250.446 1204.65 252.193C1207.67 233.348 1215.2 214.725 1226.7 197.775C1226.79 197.658 1226.86 197.542 1226.94 197.425C1227.74 196.24 1229.58 196.674 1229.35 197.997L1228.36 203.598C1226.18 216.017 1221.24 228.255 1213.88 239.52L1205.04 253.019C1205.32 253.591 1205.61 254.163 1205.92 254.703C1207.44 257.487 1209.01 260.261 1210.61 263.014C1218.27 245.407 1230.05 228.986 1245.17 214.905C1245.29 214.799 1245.39 214.693 1245.5 214.598C1246.62 213.55 1248.43 214.418 1247.87 215.731L1245.52 221.289C1240.31 233.613 1232.27 245.121 1221.92 255.073L1211.71 264.898C1215.75 271.769 1219.98 278.524 1224.43 285.12L1218.71 288.783C1214.31 281.541 1210.15 274.151 1206.24 266.645L1193.86 265.12C1179.61 263.373 1166.28 258.99 1154.71 252.267L1149.49 249.239C1148.27 248.52 1149.19 246.751 1150.71 246.91C1150.86 246.921 1151.01 246.942 1151.17 246.963C1170.32 248.996 1188.37 254.406 1204.26 262.812C1203.28 260.896 1202.31 258.98 1201.37 257.053C1200.61 255.528 1199.99 254.014 1199.42 252.5L1188.37 248.403C1175.75 243.734 1164.51 236.821 1155.38 228.128L1151.26 224.211C1150.29 223.29 1151.51 221.85 1152.86 222.327C1152.99 222.369 1153.12 222.422 1153.26 222.464C1170.08 228.383 1185.22 237.096 1197.85 248.064C1196.9 245.333 1196.01 242.601 1195.15 239.859C1194.35 237.318 1193.58 234.767 1192.83 232.205L1181.78 226.085C1171.61 220.453 1162.62 212.533 1155.4 202.867L1152.14 198.505C1151.37 197.478 1152.41 196.028 1153.5 196.6C1153.6 196.652 1153.71 196.716 1153.82 196.769C1168.57 204.582 1181.6 215.794 1192.07 229.558C1191.4 227.218 1190.77 224.857 1190.18 222.475C1189.82 221.003 1189.49 219.521 1189.23 217.933L1188.64 213.454C1188.36 211.316 1188.14 209.167 1187.92 207.017L1180.24 200.051C1173.04 193.519 1167.28 185.472 1163.34 176.441L1161.56 172.365C1161.14 171.402 1162.28 170.502 1163.06 171.179C1163.14 171.243 1163.22 171.317 1163.29 171.381C1173.57 180.369 1181.83 191.507 1187.59 204.053C1187.16 199.553 1186.85 195.043 1186.62 190.533L1186.58 190.575C1186.59 190.544 1186.6 190.512 1186.62 190.48C1186.54 189.157 1186.46 187.844 1186.41 186.52C1186.25 182.338 1186.18 178.167 1186.19 173.985V173.456V172.799V172.016C1186.19 170.851 1186.18 169.697 1186.2 168.533C1186.26 165.378 1186.34 162.202 1186.62 159.036L1184.41 150.672C1182.51 143.547 1182.41 137.777 1183.59 130.503L1184.12 127.221C1184.25 126.448 1185.34 126.374 1185.55 127.136C1185.57 127.211 1185.59 127.285 1185.61 127.359C1188.67 138.094 1188.98 147.835 1187.03 158.708C1187.03 158.75 1187.03 158.792 1187.02 158.835C1190.37 147.337 1196.81 138.221 1204.86 129.37C1204.91 129.307 1204.98 129.243 1205.03 129.19C1205.59 128.576 1206.59 129.169 1206.34 129.974Z" fill="#444FCB"/>
<path d="M1186.18 170.555C1184.95 158.973 1180.95 147.697 1174.49 137.639C1174.45 137.576 1174.41 137.502 1174.36 137.438C1173.93 136.761 1172.87 137.089 1172.98 137.872L1173.43 141.197C1174.45 148.566 1177.03 155.723 1181.02 162.202L1186.18 170.555Z" fill="#444FCB"/>
<path d="M1163.93 150.058C1163.88 149.995 1163.82 149.931 1163.77 149.868C1163.25 149.243 1163.17 150.905 1163.65 152.059L1165.75 156.929C1170.38 167.728 1175.33 176.484 1180.23 182.635L1186.55 190.565C1179.37 173.202 1171.61 159.333 1163.93 150.058Z" fill="#444FCB"/>
<path d="M1282.57 196.529C1281.71 192.348 1281.43 187.361 1284.59 184.502C1288.49 180.987 1295.07 183.348 1298.27 187.52C1301.46 191.681 1302.55 197.059 1304.81 201.791C1307.07 206.534 1311.48 211.076 1316.7 210.515C1318.39 202.532 1316.65 194.264 1315.25 186.228C1314.31 180.818 1314.05 174.106 1318.65 171.109C1323.37 168.018 1330.24 171.819 1331.95 177.197C1333.66 182.575 1331.59 188.462 1328.66 193.29C1326.32 197.144 1324.16 202.056 1324.06 206.566C1324.01 208.991 1324.48 210.716 1326.88 211.013C1329.79 211.373 1331.64 208.091 1332.77 205.391C1335.53 198.859 1339.16 192.432 1344.86 188.218C1350.55 184.005 1358.7 182.501 1364.8 186.112C1370.89 189.722 1373.2 199.176 1368.26 204.258C1363.84 208.8 1356.13 208.355 1351.3 212.463C1345.39 217.492 1345.97 227.286 1340.54 232.833C1335.43 238.063 1327.43 237.587 1320.72 237.259C1315.74 237.015 1308.39 239.302 1304.04 236.952C1297.56 233.447 1300.25 223.792 1296.56 215.036C1293.57 207.932 1283.68 201.897 1282.57 196.529Z" fill="#E9622A"/>
<path d="M297.653 127.645C301.886 125.114 303.632 127.285 318.818 125.527C333.76 123.791 345.453 122.436 355.856 114.94C363.898 109.149 363.613 105.125 371.729 101.176C375.729 99.2282 384.661 94.6863 392.894 98.0001C401.465 101.452 405.286 111.764 408.238 119.704C411.434 128.301 410.058 130.45 413.529 134.526C418.27 140.095 426.503 142.742 433.635 141.937C440.271 141.196 440.355 138.094 449.509 135.585C459.234 132.917 467.044 134.251 468.557 134.526C477.16 136.093 483.139 140.169 485.489 141.937C493.933 148.29 493.171 153.075 502.42 162.053C507.711 167.199 511.479 170.851 517.235 172.64C532.368 177.341 548.802 165.293 553.215 162.053C565.427 153.096 565.067 146.818 575.438 142.996C583.555 140.01 592.38 140.677 598.719 142.996C616.794 149.603 625.704 173.678 626.233 186.404C628.148 232.247 528.506 302.853 431.519 290.159C365.38 281.499 302.585 234.375 290.775 183.228C287.674 169.824 283.462 136.125 297.653 127.645Z" fill="#E9622A"/>
<path d="M354.963 137.82C359.196 135.29 360.942 137.46 376.128 135.703C391.07 133.967 402.763 132.611 413.166 125.116C421.208 119.324 420.923 115.301 429.039 111.352C433.039 109.404 441.971 104.862 450.204 108.176C458.775 111.627 462.596 121.939 465.548 129.88C468.744 138.477 467.368 140.626 470.839 144.702C475.58 150.271 483.813 152.918 490.946 152.113C497.581 151.372 497.665 148.27 506.819 145.761C516.544 143.093 524.354 144.427 525.867 144.702C534.47 146.269 540.449 150.345 542.799 152.113C551.243 158.465 550.481 163.251 559.73 172.229C565.022 177.374 568.789 181.027 574.546 182.816C589.678 187.517 606.112 175.469 610.525 172.229C622.737 163.272 622.377 156.994 632.748 153.172C640.865 150.186 649.69 150.853 656.029 153.172C674.104 159.778 683.014 183.854 683.543 196.58C685.458 242.423 585.816 313.029 488.829 300.335C422.69 291.675 359.895 244.551 348.085 193.403C344.984 180 340.772 146.301 354.963 137.82Z" fill="#E9622A"/>
<path d="M157.163 35.9898C152.401 56.815 148.231 77.7672 144.676 98.8359C141.12 119.873 138.168 141.005 135.829 162.201C134.506 174.186 133.374 186.192 132.432 198.219C132.273 200.262 135.448 200.251 135.607 198.219C137.268 176.981 139.512 155.785 142.39 134.674C145.258 113.679 148.718 92.7694 152.771 71.9654C155.068 60.2135 157.544 48.504 160.221 36.8262C160.687 34.8464 157.618 33.9889 157.163 35.9898Z" fill="#E5E6DE"/>
<path d="M364.777 197.15C368.332 191.549 376.057 188.14 381.856 191.348C379.729 185.472 379.613 178.696 382.449 173.127C385.285 167.559 391.317 163.504 397.56 163.895C403.804 164.287 409.582 169.687 409.592 175.944C413.423 170.872 421.032 169.57 426.842 172.143C432.651 174.705 436.641 180.475 438.196 186.637C440.228 183.418 445.149 183.228 448.387 185.229C451.625 187.23 453.583 190.723 455.403 194.069C458.535 190.035 464.239 188.225 469.128 189.696C474.017 191.168 477.763 195.848 478.155 200.93C482.504 197.827 488.748 197.669 493.245 200.559C497.743 203.449 500.187 209.198 499.171 214.45C499.976 212.988 501.923 212.459 503.552 212.851C505.172 213.243 506.526 214.354 507.711 215.529C511.108 218.896 513.743 223.332 513.849 228.118C513.976 233.814 510.452 239.128 505.838 242.474C501.224 245.82 495.626 247.503 490.092 248.837C464.631 254.956 437.911 254.84 412.069 250.605C400.333 248.678 388.576 245.851 378.174 240.081C371.094 236.153 364.11 230.15 361.581 222.189C359.284 215.053 360.798 203.407 364.777 197.15Z" fill="#F2CF35"/>
<path d="M422.087 207.326C425.642 201.725 433.367 198.316 439.166 201.524C437.039 195.648 436.923 188.872 439.759 183.303C442.595 177.734 448.627 173.679 454.87 174.071C461.114 174.463 466.892 179.862 466.903 186.119C470.733 181.048 478.342 179.746 484.152 182.319C489.961 184.881 493.951 190.651 495.506 196.813C497.538 193.594 502.459 193.403 505.697 195.404C508.935 197.405 510.893 200.899 512.713 204.245C515.846 200.211 521.549 198.401 526.438 199.872C531.327 201.344 535.074 206.023 535.465 211.105C539.814 208.003 546.058 207.844 550.555 210.735C555.053 213.625 557.497 219.374 556.481 224.625C557.286 223.164 559.233 222.635 560.863 223.027C562.482 223.418 563.836 224.53 565.021 225.705C568.418 229.072 571.053 233.508 571.159 238.293C571.286 243.989 567.762 249.304 563.148 252.65C558.534 255.995 552.936 257.679 547.402 259.013C521.941 265.132 495.221 265.016 469.379 260.781C457.643 258.854 445.886 256.027 435.484 250.257C428.404 246.329 421.42 240.326 418.891 232.365C416.594 225.229 418.108 213.583 422.087 207.326Z" fill="#F2CF35"/>
<path d="M1440.54 107.465V1537.52C1023.86 1844.53 355.136 1803.48 -4.47089 1514.05C-4.65078 1513.91 -4.8201 1513.76 -5 1513.63V26.8643C4.42881 29.384 11.9316 32.3591 11.9316 32.3591C27.7945 38.6585 38.6731 46.366 42.6202 49.2987C51.0437 55.5558 57.6365 62.1199 78.6 89.5304C98.1772 115.141 102.347 122.383 106.304 126.999C107.172 128.015 108.029 128.904 109.035 129.826C109.733 130.471 110.506 131.138 111.405 131.879C116.516 136.093 125.977 143.864 138.633 148.533C138.76 148.576 138.877 148.629 139.004 148.671C146.993 151.582 156.232 153.234 166.433 151.995C173.989 151.085 181.026 148.12 187.291 144.298C188.084 143.822 188.857 143.335 189.619 142.827C201.164 135.193 209.852 124.966 214.053 120.233C220.9 112.537 221.863 109.265 228.339 104.882C239.98 96.9944 257.081 93.8711 271.727 98.5295C277.526 100.372 283.314 103.559 299.092 123.748C299.759 124.606 300.447 125.495 301.156 126.416C305.685 132.303 310.976 139.481 317.23 148.29C332.638 169.972 332.543 171.37 338.395 178.993C339.665 180.644 347.982 191.264 361.358 203.005C361.581 203.195 361.792 203.386 362.015 203.576C373.507 213.571 388.618 224.275 406.121 230.871C444.059 245.174 482.399 236.122 513.362 224.878C513.51 224.825 513.659 224.772 513.807 224.719C522.675 221.48 530.939 218.07 538.4 214.99C548.993 210.617 554.252 207.642 564.337 202.274C574.009 197.118 588.115 189.781 615.651 176.875C618.455 175.563 621.111 174.324 623.63 173.159C623.905 173.022 624.19 172.895 624.466 172.768C649.863 161.047 660.615 156.94 670.678 153.583C673.684 152.578 679.377 150.672 686.785 148.512C687.039 148.438 687.303 148.364 687.568 148.29C701.79 144.161 722.013 139.185 741.58 137.702C743.982 137.522 747.59 137.3 752.585 137.417H752.638C760.003 137.618 770.353 138.571 784.247 141.524C796.618 144.15 811.782 148.364 830.132 155.055C832.428 155.891 834.778 156.76 837.18 157.681C837.455 157.787 837.73 157.892 838.016 157.998C843.677 160.179 849.635 162.572 855.868 165.229C892.176 180.655 910.96 192.83 928.865 204.487C945.161 215.095 960.739 225.27 988.136 237.064C988.157 237.064 988.168 237.075 988.189 237.085C991.522 238.515 995.025 239.976 998.729 241.458C1001.68 242.644 1004.8 243.893 1008.09 245.174C1008.1 245.185 1008.13 245.185 1008.14 245.195C1011.87 246.656 1015.83 248.16 1020.01 249.674C1028.51 252.776 1037.96 255.941 1048.41 258.874C1054.48 260.589 1060.87 262.219 1067.63 263.712C1071.19 264.517 1074.85 265.269 1078.61 265.978C1079.64 266.179 1080.69 266.37 1081.74 266.55C1083.57 266.888 1085.43 267.206 1087.31 267.513C1090.52 268.042 1093.8 268.529 1097.14 268.985C1142.15 275.072 1180.67 271.684 1206.6 267.365C1208.66 267.015 1210.64 266.666 1212.54 266.317C1224.57 264.083 1233.27 261.785 1237.89 260.515C1303.97 242.294 1346.84 208.764 1357.47 200.167C1407.47 159.682 1408.77 132.483 1440.54 107.465Z" fill="white"/>
<path d="M945.553 161.45C952.357 161.45 952.379 150.862 945.553 150.862C938.749 150.862 938.738 161.45 945.553 161.45Z" fill="#444FCB"/>
<path d="M1137.02 111.298C1143.82 111.298 1143.84 100.711 1137.02 100.711C1130.21 100.711 1130.2 111.298 1137.02 111.298Z" fill="#444FCB"/>
<path d="M1013.72 48.1127C1020.53 48.1127 1020.55 37.5254 1013.72 37.5254C1006.91 37.5254 1006.9 48.1127 1013.72 48.1127Z" fill="#444FCB"/>
<path d="M1263.33 199.553C1270.13 199.553 1270.15 188.966 1263.33 188.966C1256.52 188.966 1256.5 199.553 1263.33 199.553Z" fill="#444FCB"/>
<path d="M1346.53 142.392C1353.33 142.392 1353.35 131.805 1346.53 131.805C1339.72 131.805 1339.71 142.392 1346.53 142.392Z" fill="#444FCB"/>
<path d="M1231.25 78.2015C1238.06 78.2015 1238.08 67.6143 1231.25 67.6143C1224.44 67.6143 1224.43 78.2015 1231.25 78.2015Z" fill="#444FCB"/>
<path d="M853.328 117.322C860.133 117.322 860.154 106.734 853.328 106.734C846.524 106.734 846.513 117.322 853.328 117.322Z" fill="#444FCB"/>
</svg>
