<svg width="375" height="177" viewBox="0 0 375 177" fill="none" xmlns="http://www.w3.org/2000/svg">
<path d="M161 -3C155.425 3.46963 173.015 9.35957 167 12.5C152.42 20.1194 118.998 15.9513 103.64 25.6014C97.9629 29.1651 89.2377 34.6509 84.2004 45.0503C78.6714 56.468 83.8459 60.8898 78.4828 72.5077C71.816 86.9456 57.5904 93.6098 56.1839 94.2447C43.4849 99.9822 36.2635 95.5089 30.4544 101.681C28.4932 103.769 27.4411 106.274 26.938 108.923C25.8116 114.866 27.4354 121.508 27.5955 125.706C27.9329 134.487 22.3353 144.886 13.1127 155.068C9.50487 159.061 5.33668 163.02 0.745392 166.829C-3.51427 170.376 -8.13416 173.797 -12.9999 177L-52 108.923L-18 -3H161Z" fill="#F2CF35"/>
<path d="M114 0C120.258 10.5447 140.248 16.3715 141.534 16.7344C151.438 19.5208 154.746 17.3958 187.265 17.9442C206.439 18.2668 210.744 19.0974 215.281 21.9766C222.799 26.7469 223.075 32.1382 232.172 46.1709C235.386 51.1268 243.181 63.1554 253.184 71.9783C268.687 85.6521 286.815 89.2652 293.559 90.5273C318.419 95.1807 322.35 85.1441 350.827 90.1241C360.476 91.8096 373.268 94.1928 385.434 103.431C392.582 108.859 395.668 113.734 398 117V0H114Z" fill="#F2CF35"/>
<path d="M299 0C299.21 8.84788 302.932 18.0106 307.42 24.3276C314.106 33.7397 322.962 37.4849 331.011 40.8867C339.625 44.5297 348.449 45.2207 366.095 46.6109C373.197 47.171 376.754 47.1465 379 46.4064V0H299Z" fill="#E5E6DE"/>
</svg>
