<svg width="52" height="52" viewBox="0 0 52 52" fill="none" xmlns="http://www.w3.org/2000/svg">
<g clip-path="url(#clip0)">
<path d="M5.90906 11.8182H46.0909C49.3502 11.8182 52 9.16722 52 5.90917C52 2.65112 49.3502 0 46.0909 0H5.90906C2.6499 0 0 2.651 0 5.90906C0 9.16711 2.6499 11.8182 5.90906 11.8182ZM5.90906 2.3636H46.0909C48.046 2.3636 49.6364 3.95396 49.6364 5.90906C49.6364 7.86416 48.046 9.45451 46.0909 9.45451H5.90906C3.95396 9.45451 2.3636 7.86416 2.3636 5.90906C2.3636 3.95396 3.95396 2.3636 5.90906 2.3636Z" fill="white"/>
<path d="M46.0909 20.0908H5.90906C2.6499 20.0908 0 22.7418 0 26C0 29.2582 2.6499 31.909 5.90906 31.909H46.0909C49.3502 31.909 52 29.258 52 26C52 22.7419 49.3502 20.0908 46.0909 20.0908ZM46.0909 29.5454H5.90906C3.95396 29.5454 2.3636 27.9551 2.3636 26C2.3636 24.0449 3.95396 22.4545 5.90906 22.4545H46.0909C48.046 22.4545 49.6364 24.0449 49.6364 26C49.6364 27.9551 48.046 29.5454 46.0909 29.5454Z" fill="white"/>
<path d="M46.0909 40.1826H5.90906C2.6499 40.1826 0 42.8336 0 46.0917C0 49.3497 2.6499 52.0007 5.90906 52.0007H46.0909C49.3502 52.0007 52 49.3497 52 46.0917C52 42.8336 49.3502 40.1826 46.0909 40.1826ZM46.0909 49.6371H5.90906C3.95396 49.6371 2.3636 48.0468 2.3636 46.0917C2.3636 44.1366 3.95396 42.5462 5.90906 42.5462H46.0909C48.046 42.5462 49.6364 44.1366 49.6364 46.0917C49.6364 48.0468 48.046 49.6371 46.0909 49.6371Z" fill="white"/>
</g>
<defs>
<clipPath id="clip0">
<rect width="52" height="52" fill="white"/>
</clipPath>
</defs>
</svg>
