<svg id="Layer_1" data-name="Layer 1" xmlns="http://www.w3.org/2000/svg" xmlns:xlink="http://www.w3.org/1999/xlink" viewBox="0 0 1549 1455.55"><defs><style>.cls-1,.cls-10,.cls-7{fill:none;}.cls-2{clip-path:url(#clip-path);}.cls-3{fill:#0d2040;}.cls-4{fill:#e5e6de;}.cls-5{fill:#f2cf35;}.cls-6{fill:#e9622a;}.cls-7{stroke:#fcf4e7;stroke-width:4px;}.cls-10,.cls-7{stroke-miterlimit:10;}.cls-8{fill:#33b3a6;}.cls-9{fill:#b6845f;}.cls-10{stroke:#0d2040;stroke-width:5px;}.cls-11{fill:#444fcb;}.cls-12{fill:#f4bf7f;}.cls-13{fill:#945e44;}</style><clipPath id="clip-path"><rect class="cls-1" width="1549" height="2192"/></clipPath></defs><title>Artboard 1</title><g class="cls-2"><path class="cls-3" d="M1528.66-482H-26.2V2328.76H1528.66Z"/><path class="cls-4" d="M1524-367.32H0v951.4H1524Z"/><path class="cls-5" d="M1463,189.53s79.36-87.22,30.95-175.71c-38.41-70.18-21-129.64-12.21-151.24a61.93,61.93,0,0,0,4.54-22.3c.54-33.52-2.9-116.79-50.78-108.9-59.8,9.84-44,89.13-44,89.13s.9,42.82-35.56,29.07c-15-5.64-22.76,2.5-26.73,14-6.33,18.34-.7,39.75,12.49,50.56,14,11.46,32.95,33.57,39.59,72.1C1392.32,50,1345,149.6,1345,149.6s-11.5,42.76,0,50.83,121.18-10.28,121.18-10.28Z"/><path class="cls-6" d="M1572.67,453.52s-104.09,12.92-120.41-93.09c-12.95-84.08-58.48-109.21-76.75-116a37.92,37.92,0,0,1-15.71-11.25c-19.27-22.71-63.81-83.56-26.2-122.32,47-48.42,80.64,21.11,80.64,21.11s23.5,30.49,41-12.72c7.18-17.74,17.17-19.3,26.42-15,14.71,6.87,22.87,26.89,19.83,46.55-3.22,20.84-3.92,53.68,13.21,86.51,28.29,54.22,117.18,79.53,117.18,79.53s32.06,19,28.67,35.15-89.7,104.83-89.7,104.83Z"/><path class="cls-7" d="M1607.55,401.69s-55-25.74-102.42-65.18c-31.72-26.39-60.05-58.93-66.21-94C1423.55,155.07,1359,140.63,1359,140.63"/><path class="cls-7" d="M334.47,884.68s19.58,57.84-14.55,123.7"/><path class="cls-3" d="M1429.32,881.64H68.67V1238H1429.32Z"/><path class="cls-8" d="M63.61,182.64S148.15,148.43,130.83,68C117.1,4.24,145.36-32.11,157.64-44.4a38.69,38.69,0,0,0,9-14.33c8.54-23.77,25.93-84.51-14.26-95.84-50.19-14.15-56.69,48.12-56.69,48.12s-9.63,30.93-35.46,8.18c-10.6-9.34-18.8-6.29-24.77.55C26-86.85,25.32-69.56,33.25-57.17A96.44,96.44,0,0,1,47.47,8.41c-6.63,49.4-68.55,103.86-68.55,103.86s-19.54,26.48-12.32,36.31S66,184.19,66,184.19Z"/><path class="cls-5" d="M203.29,407.69s-89.58-4.72-93.35-87.42c-3-65.59-39.23-91-54.1-98.72a34.69,34.69,0,0,1-12.27-10.73C29.38,190.9-2.62,138.52,33,114.36,77.43,84.18,99.4,141.63,99.4,141.63s17,26.42,36-3.93c7.79-12.46,16.4-12.25,23.84-7.69,11.83,7.26,16.85,23.59,12.39,38.09a98.7,98.7,0,0,0,3,67.46c18.86,45.08,91.88,76.68,91.88,76.68s25.39,18.87,21,30.67-86.09,67-86.09,67Z"/><path class="cls-7" d="M249.52,388.75S205.28,361.55,168.8,325c-24.42-24.45-45.35-53.08-47.25-80.55C116.83,176,63.42,156,63.42,156"/><path class="cls-7" d="M148.21,172.42s-25.73,47.77-10.74,80.33,7.28,53.75,7.28,53.75"/><path class="cls-7" d="M135.94-112.52S125-56.41,104.1-6.35c-14,33.51-32.42,64.31-55,73.82-56.35,23.67-58.72,88-58.72,88"/><path class="cls-3" d="M1520-113H-35V3058H1520Z"/><path class="cls-4" d="M743.32,1130.9H683.14a73.57,73.57,0,0,1-73.35-73.35v-26.22A73.57,73.57,0,0,1,683.14,958h60.18a73.57,73.57,0,0,1,73.35,73.35v26.22A73.57,73.57,0,0,1,743.32,1130.9Z"/><path class="cls-4" d="M943,1138.18h-66.9a59.91,59.91,0,0,1-59.73-59.73v-62.09a59.91,59.91,0,0,1,59.73-59.73H943a59.92,59.92,0,0,1,59.74,59.73v62.09A59.91,59.91,0,0,1,943,1138.18Z"/><path class="cls-4" d="M526.41,1114.61H486.7a73.57,73.57,0,0,1-73.35-73.35v-8.35a73.57,73.57,0,0,1,73.35-73.35h39.7a73.57,73.57,0,0,1,73.35,73.35v8.35A73.56,73.56,0,0,1,526.41,1114.61Z"/><path class="cls-4" d="M350.89,1129.71H284A59.91,59.91,0,0,1,224.24,1070V1021A59.91,59.91,0,0,1,284,961.31h66.9A59.91,59.91,0,0,1,410.62,1021V1070A59.91,59.91,0,0,1,350.89,1129.71Z"/><path class="cls-4" d="M1213,1138.18h-66.91a59.91,59.91,0,0,1-59.73-59.73v-62.09a59.91,59.91,0,0,1,59.73-59.73H1213a59.91,59.91,0,0,1,59.73,59.73v62.09A59.91,59.91,0,0,1,1213,1138.18Z"/><path class="cls-9" d="M1004.52,910.56l10.68,18.05s4.35,7.43-3.81,23.82,56.15,11.82,56.15,11.82-6.94-15.45-7.59-27.84,6.42-16.13,6.42-16.13l-31.28-27.35Z"/><path class="cls-6" d="M1115,989.64l.59-9.81s-3.38-49.85-60.47-33.68c-37.3,10.58-45.74-4.62-65.52-2.69-3.12.3-31.71,7.43-37.62,35.11s.38,73.61.38,73.61l156.93-2.13Z"/><path class="cls-5" d="M1042.2,931h-5.95a36.15,36.15,0,0,1-36-36V871.13c0-13.5,16.4-26,22.88-26.91a23.13,23.13,0,0,1,7,.09l9.83,1.45,7.88-1.19c5.29-.92,11.17-1,15.59,2,7.25,4.93,14.86,13.38,14.86,23.79V895A36.14,36.14,0,0,1,1042.2,931Z"/><path class="cls-3" d="M1070.9,1247.26H963.24a73.57,73.57,0,0,1-73.35-73.35v-89.26a73.57,73.57,0,0,1,73.35-73.35H1070.9a73.57,73.57,0,0,1,73.35,73.35v89.26A73.57,73.57,0,0,1,1070.9,1247.26Z"/><path class="cls-3" d="M1355.65,1172.47H1248a73.57,73.57,0,0,1-73.35-73.35v-16.36a73.57,73.57,0,0,1,73.35-73.35h107.66a73.57,73.57,0,0,1,73.35,73.35v16.36A73.57,73.57,0,0,1,1355.65,1172.47Z"/><path class="cls-3" d="M812.1,1223.75H704.44a73.57,73.57,0,0,1-73.35-73.35v-64.88a73.57,73.57,0,0,1,73.35-73.35H812.1a73.57,73.57,0,0,1,73.35,73.35v64.88A73.56,73.56,0,0,1,812.1,1223.75Z"/><path class="cls-3" d="M554,1177.58H446.36A73.57,73.57,0,0,1,373,1104.23v-16.36a73.57,73.57,0,0,1,73.35-73.35H554a73.57,73.57,0,0,1,73.35,73.35v16.36A73.56,73.56,0,0,1,554,1177.58Z"/><path class="cls-10" d="M1078.43,1174.84H970.77a73.57,73.57,0,0,1-73.35-73.35v-16.36a73.57,73.57,0,0,1,73.35-73.35h107.66a73.58,73.58,0,0,1,73.36,73.35v16.36A73.57,73.57,0,0,1,1078.43,1174.84Z"/><path class="cls-10" d="M1337.79,1176.72H1230.11a73.57,73.57,0,0,1-73.35-73.35V1087a73.57,73.57,0,0,1,73.35-73.35h107.66a73.57,73.57,0,0,1,73.35,73.35v16.36A73.56,73.56,0,0,1,1337.79,1176.72Z"/><path class="cls-10" d="M556.84,1178.08H449.18a73.58,73.58,0,0,1-73.35-73.35v-16.36A73.57,73.57,0,0,1,449.18,1015H556.84a73.57,73.57,0,0,1,73.35,73.35v16.36A73.58,73.58,0,0,1,556.84,1178.08Z"/><path class="cls-3" d="M944.27,1320.67H836.6a73.57,73.57,0,0,1-73.35-73.35V1231a73.57,73.57,0,0,1,73.35-73.35H944.27a73.57,73.57,0,0,1,73.35,73.35v16.36A73.57,73.57,0,0,1,944.27,1320.67Z"/><path class="cls-3" d="M296.11,1170.16H188.44a73.58,73.58,0,0,1-73.35-73.35v-16.36a73.57,73.57,0,0,1,73.35-73.35H296.11a73.57,73.57,0,0,1,73.35,73.35v16.36A73.57,73.57,0,0,1,296.11,1170.16Z"/><path class="cls-11" d="M1306.58,1498.37H416.08A73.57,73.57,0,0,1,342.73,1425v-52.87a73.57,73.57,0,0,1,73.35-73.35h890.5a73.57,73.57,0,0,1,73.35,73.35V1425A73.56,73.56,0,0,1,1306.58,1498.37Z"/><path class="cls-5" d="M1034.61,1051.32c-1-21.53-6.72-29.93-7.95-31.51a3.63,3.63,0,0,1-.44-.73l-13.06-27.41c0-.1-.1-.22-.14-.32-1-2.69-13.49-37.23,6.17-50,10.57-6.86,14.35-10.22,15.57-11.85a4.26,4.26,0,0,1,3.22-1.75l.78,0a4.29,4.29,0,0,1,4.51,4.18,4.28,4.28,0,0,0,.53,2L1045,936a4.07,4.07,0,0,0,1.15,1.33c4.5,3.4,28.91,22.85,25.64,42.88C1068.17,1002.25,1035.13,1062.15,1034.61,1051.32Z"/><path class="cls-3" d="M1043.69,933.66h-13.17a1.42,1.42,0,0,1,0-2.83h13.17a1.42,1.42,0,0,1,1.42,1.42A1.44,1.44,0,0,1,1043.69,933.66Z"/><path class="cls-3" d="M763.6,1304.77H396.34A73.57,73.57,0,0,1,323,1231.42v-16.36a73.57,73.57,0,0,1,73.35-73.35H763.6a73.57,73.57,0,0,1,73.35,73.35v16.36A73.56,73.56,0,0,1,763.6,1304.77Z"/><path class="cls-12" d="M627.32,948.79s3.14,2,5,12.39c1.11,6.14,1.68,9.91,2,12a9.29,9.29,0,0,0,1.4,3.79l7.62,11.84s0,3.29-4.86,2.5-.48,6.36-.48,6.36.75,1.71-1.72,3.23c-2.73,1.69-2,.71-.3,2.61.87,1,.2,2.91.14,2.91-1.24.25-2.18,1.29-1.55,2.42a21.18,21.18,0,0,1,1.18,5,10.67,10.67,0,0,1-11.23,10.38c-14.74-.32-21.9.76-24.69,8a15,15,0,0,0-.94,5.17A54.15,54.15,0,0,0,599,1043c.32,2.82-43.3,3-43.3,3l2.86-15.57a28.58,28.58,0,0,0,0-7.2c-.64-4.72-2.33-15-2.41-15.58L548,963.52l34-36.21Z"/><path class="cls-8" d="M677.79,1092.31l.75-12.25S674.31,1017.75,603,1038c-46.61,13.21-57.16-5.78-81.88-3.35-3.9.39-39.63,9.28-47,43.88s-32.52,97.72-32.52,97.72l229.11-8.38Z"/><path class="cls-6" d="M560.1,1008.85a2.43,2.43,0,0,0,2.31-3.34l-3.79-9.46-4.91-12.88a2.5,2.5,0,0,0-.94-1.11c-.56-.42-1.26-1.71-.77-5.67a9.7,9.7,0,0,1,6-7.63,2.25,2.25,0,0,1,1.47-.13,21.45,21.45,0,0,1,8.83,4.91,2.42,2.42,0,0,0,2.26.53l1-.26a2.37,2.37,0,0,0,1.62-1.42l1.42-3.35a2.48,2.48,0,0,0,.13-1.52L571,952a2.47,2.47,0,0,1,0-1.26l.61-2.05a2.47,2.47,0,0,1,.59-1l1.68-1.73a2.32,2.32,0,0,1,.48-.38l5-3a2.31,2.31,0,0,1,.42-.2l3.86-1.43a2.26,2.26,0,0,1,.82-.14l7.46-.07h.19l9.71.68.4.06,12.6,3.08a2,2,0,0,1,.55.22l7.33,3.84a2.93,2.93,0,0,1,.64.48l3.74,4a3.64,3.64,0,0,1,.29.36l2.76,4.32,1.56,3.45c.06.1,1.05,3.35,1.14,3.45s3.8.09,4.64-1.39l.69-1a2.28,2.28,0,0,1,.69-.65c.88-.54,3.24-2.46,5.26-8.5,2.43-7.27,4.19-18.67,4.34-19.68,0-.06,0-.1,0-.16l.58-2.6a23.72,23.72,0,0,0,.55-6.23l-.41-8.92a19.32,19.32,0,0,0-2.17-8.05l-2.34-4.51a19.05,19.05,0,0,0-4.89-6l-2.31-1.88a17.5,17.5,0,0,0-2.88-1.92,52,52,0,0,0-11.14-4.06c-8.95-2.27-16.82-1.79-23,6.68-4.08,5.55-6.75,9.57-8.11,11.68a7.7,7.7,0,0,1-5.93,3.6h-.1c-4.13.25-7.76,1.62-10,1.79a21.69,21.69,0,0,0-4.6.85c-2.46.75-6.13,1.89-8.38,2.7a54.11,54.11,0,0,0-7.29,3.77,25.06,25.06,0,0,0-8.38,8l-1.68,2.57a21.81,21.81,0,0,0-2.79,6.27l-2.83,10.62-1.94,9a19,19,0,0,0-.42,3.83l0,6.13a8.38,8.38,0,0,0,.32,2.31l4,14.48a5.92,5.92,0,0,0,.22.66L546.77,996a10.79,10.79,0,0,0,1.73,3.11l7,8.76a2.45,2.45,0,0,0,1.85.91Z"/><path class="cls-10" d="M1291.91,1314.56H1127.27a73.57,73.57,0,0,1-73.35-73.35v-52.87a73.57,73.57,0,0,1,73.35-73.35h164.64a73.57,73.57,0,0,1,73.35,73.35v52.87A73.57,73.57,0,0,1,1291.91,1314.56Z"/><path class="cls-11" d="M668.63,1311.93H504a73.57,73.57,0,0,1-73.35-73.35v-52.87A73.57,73.57,0,0,1,504,1112.36H668.64A73.57,73.57,0,0,1,742,1185.71v52.87A73.59,73.59,0,0,1,668.63,1311.93Z"/><path class="cls-11" d="M987,1311.39H822.37A73.57,73.57,0,0,1,749,1238v-52.87a73.58,73.58,0,0,1,73.35-73.35H987a73.57,73.57,0,0,1,73.35,73.35V1238A73.57,73.57,0,0,1,987,1311.39Z"/><path class="cls-11" d="M350,1311.54H185.35A73.57,73.57,0,0,1,112,1238.19v-52.87A73.57,73.57,0,0,1,185.35,1112H350a73.57,73.57,0,0,1,73.35,73.35v52.87A73.56,73.56,0,0,1,350,1311.54Z"/><path class="cls-11" d="M1311,1315.87H1146.35a73.57,73.57,0,0,1-73.35-73.35v-52.87a73.58,73.58,0,0,1,73.35-73.35H1311a73.58,73.58,0,0,1,73.35,73.35v52.87A73.59,73.59,0,0,1,1311,1315.87Z"/><path class="cls-13" d="M1100.84,1044.68s-4.18,2.71-6.69,16.5c-1.49,8.2-2.24,13.23-2.61,16a12.31,12.31,0,0,1-1.86,5L1079.52,1098s0,4.4,6.47,3.34.65,8.47.65,8.47-1,2.29,2.3,4.32c3.65,2.26,2.6,1,.41,3.49-1.14,1.31-.26,3.89-.2,3.9,1.66.33,2.91,1.72,2,3.21a28.12,28.12,0,0,0-1.59,6.66,14.22,14.22,0,0,0,15,13.83c11-.24,18.91.12,24.31,2.19a15.35,15.35,0,0,1,9.83,14,88.27,88.27,0,0,1-.07,8.92c-.42,3.76,52.65,1.68,52.65,1.68l-.2-108.24Z"/><path class="cls-4" d="M1033.56,1236l-1-16.34s5.64-83.08,100.78-56.11c62.17,17.62,139.23-4.6,135.72-8.48s49.27,14.25,59.13,60.38,20.39,132.44,20.39,132.44l-305.5-11.19Z"/><path class="cls-8" d="M1133,1004.34c-17.12,2.57-27.16,16.72-27.16,16.72s-18.46,21.52.22,36.15c13.19,10.34,21.83,11,25.77,10.45a15.65,15.65,0,0,1,13.31,4.62c.06.06.11.12.17.17,4.94,5.24,4.35,25.7,4.11,31.22a14.68,14.68,0,0,1-.26,2.2c-.52,2.73-1.36,11.52,8.45,13.8a23.24,23.24,0,0,1,13.07,8.6,15.86,15.86,0,0,1,3.23,9l1.52,33s1.69,23.2,24,24,67.87-18.8,77.42-34.49,11.88-29.05,11.88-29.05,6.58-39.7-37.55-47.43S1272.36,983.45,1133,1004.34Z"/><path class="cls-3" d="M901.19,1487.56h-220a73.57,73.57,0,0,1-73.35-73.35v-88.39a73.57,73.57,0,0,1,73.35-73.35h220a73.57,73.57,0,0,1,73.35,73.35v88.39A73.56,73.56,0,0,1,901.19,1487.56Z"/><path class="cls-3" d="M1277.95,1489h-220a73.57,73.57,0,0,1-73.35-73.35v-88.4a73.57,73.57,0,0,1,73.35-73.35h220a73.57,73.57,0,0,1,73.35,73.35v88.4A73.57,73.57,0,0,1,1277.95,1489Z"/><path class="cls-3" d="M523.34,1486.94h-220A73.57,73.57,0,0,1,230,1413.59V1325.2a73.57,73.57,0,0,1,73.35-73.35h220a73.57,73.57,0,0,1,73.35,73.35v88.39A73.57,73.57,0,0,1,523.34,1486.94Z"/><path class="cls-4" d="M1524,1126V65H0V1126Z"/><path class="cls-5" d="M1463,817.88s79.36-68.11,30.95-137.22c-38.41-54.81-21-101.24-12.21-118.11a39.41,39.41,0,0,0,4.54-17.41c.54-26.18-2.9-91.21-50.78-85-59.8,7.69-44,69.6-44,69.6s.9,33.44-35.56,22.71c-15-4.41-22.76,2-26.73,11-6.33,14.32-.7,31,12.49,39.48,14,8.95,32.95,26.21,39.59,56.31,11,49.74-36.34,127.55-36.34,127.55s-11.5,33.39,0,39.69,121.18-8,121.18-8Z"/><path class="cls-6" d="M1572.67,1024s-104.09,10.09-120.41-72.7c-12.95-65.67-58.48-85.29-76.75-90.59A39.16,39.16,0,0,1,1359.8,852c-19.27-17.74-63.81-65.26-26.2-95.53,47-37.82,80.64,16.49,80.64,16.49s23.5,23.81,41-9.93c7.18-13.85,17.17-15.07,26.42-11.71,14.71,5.36,22.87,21,19.83,36.35-3.22,16.27-3.92,41.92,13.21,67.56,28.29,42.34,117.18,62.11,117.18,62.11s32.06,14.83,28.67,27.45-89.7,81.87-89.7,81.87Z"/><path class="cls-7" d="M1607.55,983.56s-55-20.11-102.42-50.9c-31.72-20.61-60.05-46-66.21-73.4C1423.55,791,1359,779.69,1359,779.69"/><path class="cls-7" d="M1359.09,583.22s64,61.86,112.47,46.79,77.39,5.84,77.39,5.84"/><path class="cls-8" d="M63.61,812.49s84.54-26.72,67.22-89.51c-13.73-49.81,14.53-78.19,26.81-87.79a30.37,30.37,0,0,0,9-11.19c8.54-18.56,25.93-66-14.26-74.85-50.19-11.05-56.69,37.58-56.69,37.58s-9.63,24.15-35.46,6.39c-10.6-7.29-18.8-4.91-24.77.43-9.49,8.49-10.16,22-2.23,31.67,8.4,10.26,18.24,27.85,14.21,51.21C40.83,715-21.08,757.53-21.08,757.53s-19.54,20.68-12.32,28.36S66,813.7,66,813.7Z"/><path class="cls-5" d="M203.29,988.25s-89.58-3.68-93.35-68.27c-3-51.22-39.23-71.07-54.1-77.09a33.61,33.61,0,0,1-12.27-8.38C29.38,818.94-2.62,778,33,759.17,77.43,735.6,99.4,780.46,99.4,780.46s17,20.63,36-3.07c7.79-9.73,16.4-9.57,23.84-6,11.83,5.67,16.85,18.43,12.39,29.74-4.71,12-8.43,31.39,3,52.69C193.48,889,266.5,913.7,266.5,913.7s25.39,14.74,21,24S201.4,990,201.4,990Z"/><path class="cls-7" d="M249.52,973.45s-44.24-21.24-80.71-49.77c-24.42-19.09-45.35-41.46-47.25-62.91-4.73-53.49-58.14-69.08-58.14-69.08"/><path class="cls-7" d="M148.21,804.52s-25.73,37.3-10.74,62.73,7.28,42,7.28,42"/><path class="cls-7" d="M135.94,582s-11,43.82-31.84,82.91c-14,26.17-32.42,50.23-55,57.65C-7.26,741-9.63,791.24-9.63,791.24"/><path class="cls-3" d="M1549,863H-35V3058.07H1549Z"/><path class="cls-4" d="M743.32,1130.9H683.14a73.57,73.57,0,0,1-73.35-73.35v-26.22A73.57,73.57,0,0,1,683.14,958h60.18a73.57,73.57,0,0,1,73.35,73.35v26.22A73.57,73.57,0,0,1,743.32,1130.9Z"/><path class="cls-4" d="M943,1138.18h-66.9a59.91,59.91,0,0,1-59.73-59.73v-62.09a59.91,59.91,0,0,1,59.73-59.73H943a59.92,59.92,0,0,1,59.74,59.73v62.09A59.91,59.91,0,0,1,943,1138.18Z"/><path class="cls-4" d="M526.41,1114.61H486.7a73.57,73.57,0,0,1-73.35-73.35v-8.35a73.57,73.57,0,0,1,73.35-73.35h39.7a73.57,73.57,0,0,1,73.35,73.35v8.35A73.56,73.56,0,0,1,526.41,1114.61Z"/><path class="cls-4" d="M350.89,1129.71H284A59.91,59.91,0,0,1,224.24,1070V1021A59.91,59.91,0,0,1,284,961.31h66.9A59.91,59.91,0,0,1,410.62,1021V1070A59.91,59.91,0,0,1,350.89,1129.71Z"/><path class="cls-4" d="M1213,1138.18h-66.91a59.91,59.91,0,0,1-59.73-59.73v-62.09a59.91,59.91,0,0,1,59.73-59.73H1213a59.91,59.91,0,0,1,59.73,59.73v62.09A59.91,59.91,0,0,1,1213,1138.18Z"/><path class="cls-9" d="M1004.52,910.56l10.68,18.05s4.35,7.43-3.81,23.82,56.15,11.82,56.15,11.82-6.94-15.45-7.59-27.84,6.42-16.13,6.42-16.13l-31.28-27.35Z"/><path class="cls-6" d="M1115,989.64l.59-9.81s-3.38-49.85-60.47-33.68c-37.3,10.58-45.74-4.62-65.52-2.69-3.12.3-31.71,7.43-37.62,35.11s.38,73.61.38,73.61l156.93-2.13Z"/><path class="cls-5" d="M1042.2,931h-5.95a36.15,36.15,0,0,1-36-36V871.13c0-13.5,16.4-26,22.88-26.91a23.13,23.13,0,0,1,7,.09l9.83,1.45,7.88-1.19c5.29-.92,11.17-1,15.59,2,7.25,4.93,14.86,13.38,14.86,23.79V895A36.14,36.14,0,0,1,1042.2,931Z"/><path class="cls-3" d="M1070.9,1247.26H963.24a73.57,73.57,0,0,1-73.35-73.35v-89.26a73.57,73.57,0,0,1,73.35-73.35H1070.9a73.57,73.57,0,0,1,73.35,73.35v89.26A73.57,73.57,0,0,1,1070.9,1247.26Z"/><path class="cls-3" d="M1355.65,1172.47H1248a73.57,73.57,0,0,1-73.35-73.35v-16.36a73.57,73.57,0,0,1,73.35-73.35h107.66a73.57,73.57,0,0,1,73.35,73.35v16.36A73.57,73.57,0,0,1,1355.65,1172.47Z"/><path class="cls-3" d="M812.1,1223.75H704.44a73.57,73.57,0,0,1-73.35-73.35v-64.88a73.57,73.57,0,0,1,73.35-73.35H812.1a73.57,73.57,0,0,1,73.35,73.35v64.88A73.56,73.56,0,0,1,812.1,1223.75Z"/><path class="cls-3" d="M554,1177.58H446.36A73.57,73.57,0,0,1,373,1104.23v-16.36a73.57,73.57,0,0,1,73.35-73.35H554a73.57,73.57,0,0,1,73.35,73.35v16.36A73.56,73.56,0,0,1,554,1177.58Z"/><path class="cls-10" d="M1078.43,1174.84H970.77a73.57,73.57,0,0,1-73.35-73.35v-16.36a73.57,73.57,0,0,1,73.35-73.35h107.66a73.58,73.58,0,0,1,73.36,73.35v16.36A73.57,73.57,0,0,1,1078.43,1174.84Z"/><path class="cls-10" d="M1337.79,1176.72H1230.11a73.57,73.57,0,0,1-73.35-73.35V1087a73.57,73.57,0,0,1,73.35-73.35h107.66a73.57,73.57,0,0,1,73.35,73.35v16.36A73.56,73.56,0,0,1,1337.79,1176.72Z"/><path class="cls-10" d="M556.84,1178.08H449.18a73.58,73.58,0,0,1-73.35-73.35v-16.36A73.57,73.57,0,0,1,449.18,1015H556.84a73.57,73.57,0,0,1,73.35,73.35v16.36A73.58,73.58,0,0,1,556.84,1178.08Z"/><path class="cls-3" d="M944.27,1320.67H836.6a73.57,73.57,0,0,1-73.35-73.35V1231a73.57,73.57,0,0,1,73.35-73.35H944.27a73.57,73.57,0,0,1,73.35,73.35v16.36A73.57,73.57,0,0,1,944.27,1320.67Z"/><path class="cls-3" d="M296.11,1170.16H188.44a73.58,73.58,0,0,1-73.35-73.35v-16.36a73.57,73.57,0,0,1,73.35-73.35H296.11a73.57,73.57,0,0,1,73.35,73.35v16.36A73.57,73.57,0,0,1,296.11,1170.16Z"/><path class="cls-11" d="M1306.58,1498.37H416.08A73.57,73.57,0,0,1,342.73,1425v-52.87a73.57,73.57,0,0,1,73.35-73.35h890.5a73.57,73.57,0,0,1,73.35,73.35V1425A73.56,73.56,0,0,1,1306.58,1498.37Z"/><path class="cls-5" d="M1034.61,1051.32c-1-21.53-6.72-29.93-7.95-31.51a3.63,3.63,0,0,1-.44-.73l-13.06-27.41c0-.1-.1-.22-.14-.32-1-2.69-13.49-37.23,6.17-50,10.57-6.86,14.35-10.22,15.57-11.85a4.26,4.26,0,0,1,3.22-1.75l.78,0a4.29,4.29,0,0,1,4.51,4.18,4.28,4.28,0,0,0,.53,2L1045,936a4.07,4.07,0,0,0,1.15,1.33c4.5,3.4,28.91,22.85,25.64,42.88C1068.17,1002.25,1035.13,1062.15,1034.61,1051.32Z"/><path class="cls-3" d="M1043.69,933.66h-13.17a1.42,1.42,0,0,1,0-2.83h13.17a1.42,1.42,0,0,1,1.42,1.42A1.44,1.44,0,0,1,1043.69,933.66Z"/><path class="cls-3" d="M763.6,1304.77H396.34A73.57,73.57,0,0,1,323,1231.42v-16.36a73.57,73.57,0,0,1,73.35-73.35H763.6a73.57,73.57,0,0,1,73.35,73.35v16.36A73.56,73.56,0,0,1,763.6,1304.77Z"/><path class="cls-12" d="M627.32,948.79s3.14,2,5,12.39c1.11,6.14,1.68,9.91,2,12a9.29,9.29,0,0,0,1.4,3.79l7.62,11.84s0,3.29-4.86,2.5-.48,6.36-.48,6.36.75,1.71-1.72,3.23c-2.73,1.69-2,.71-.3,2.61.87,1,.2,2.91.14,2.91-1.24.25-2.18,1.29-1.55,2.42a21.18,21.18,0,0,1,1.18,5,10.67,10.67,0,0,1-11.23,10.38c-14.74-.32-21.9.76-24.69,8a15,15,0,0,0-.94,5.17A54.15,54.15,0,0,0,599,1043c.32,2.82-43.3,3-43.3,3l2.86-15.57a28.58,28.58,0,0,0,0-7.2c-.64-4.72-2.33-15-2.41-15.58L548,963.52l34-36.21Z"/><path class="cls-8" d="M677.79,1092.31l.75-12.25S674.31,1017.75,603,1038c-46.61,13.21-57.16-5.78-81.88-3.35-3.9.39-39.63,9.28-47,43.88s-32.52,97.72-32.52,97.72l229.11-8.38Z"/><path class="cls-6" d="M560.1,1008.85a2.43,2.43,0,0,0,2.31-3.34l-3.79-9.46-4.91-12.88a2.5,2.5,0,0,0-.94-1.11c-.56-.42-1.26-1.71-.77-5.67a9.7,9.7,0,0,1,6-7.63,2.25,2.25,0,0,1,1.47-.13,21.45,21.45,0,0,1,8.83,4.91,2.42,2.42,0,0,0,2.26.53l1-.26a2.37,2.37,0,0,0,1.62-1.42l1.42-3.35a2.48,2.48,0,0,0,.13-1.52L571,952a2.47,2.47,0,0,1,0-1.26l.61-2.05a2.47,2.47,0,0,1,.59-1l1.68-1.73a2.32,2.32,0,0,1,.48-.38l5-3a2.31,2.31,0,0,1,.42-.2l3.86-1.43a2.26,2.26,0,0,1,.82-.14l7.46-.07h.19l9.71.68.4.06,12.6,3.08a2,2,0,0,1,.55.22l7.33,3.84a2.93,2.93,0,0,1,.64.48l3.74,4a3.64,3.64,0,0,1,.29.36l2.76,4.32,1.56,3.45c.06.1,1.05,3.35,1.14,3.45s3.8.09,4.64-1.39l.69-1a2.28,2.28,0,0,1,.69-.65c.88-.54,3.24-2.46,5.26-8.5,2.43-7.27,4.19-18.67,4.34-19.68,0-.06,0-.1,0-.16l.58-2.6a23.72,23.72,0,0,0,.55-6.23l-.41-8.92a19.32,19.32,0,0,0-2.17-8.05l-2.34-4.51a19.05,19.05,0,0,0-4.89-6l-2.31-1.88a17.5,17.5,0,0,0-2.88-1.92,52,52,0,0,0-11.14-4.06c-8.95-2.27-16.82-1.79-23,6.68-4.08,5.55-6.75,9.57-8.11,11.68a7.7,7.7,0,0,1-5.93,3.6h-.1c-4.13.25-7.76,1.62-10,1.79a21.69,21.69,0,0,0-4.6.85c-2.46.75-6.13,1.89-8.38,2.7a54.11,54.11,0,0,0-7.29,3.77,25.06,25.06,0,0,0-8.38,8l-1.68,2.57a21.81,21.81,0,0,0-2.79,6.27l-2.83,10.62-1.94,9a19,19,0,0,0-.42,3.83l0,6.13a8.38,8.38,0,0,0,.32,2.31l4,14.48a5.92,5.92,0,0,0,.22.66L546.77,996a10.79,10.79,0,0,0,1.73,3.11l7,8.76a2.45,2.45,0,0,0,1.85.91Z"/><path class="cls-10" d="M1291.91,1314.56H1127.27a73.57,73.57,0,0,1-73.35-73.35v-52.87a73.57,73.57,0,0,1,73.35-73.35h164.64a73.57,73.57,0,0,1,73.35,73.35v52.87A73.57,73.57,0,0,1,1291.91,1314.56Z"/><path class="cls-11" d="M668.63,1311.93H504a73.57,73.57,0,0,1-73.35-73.35v-52.87A73.57,73.57,0,0,1,504,1112.36H668.64A73.57,73.57,0,0,1,742,1185.71v52.87A73.59,73.59,0,0,1,668.63,1311.93Z"/><path class="cls-11" d="M987,1311.39H822.37A73.57,73.57,0,0,1,749,1238v-52.87a73.58,73.58,0,0,1,73.35-73.35H987a73.57,73.57,0,0,1,73.35,73.35V1238A73.57,73.57,0,0,1,987,1311.39Z"/><path class="cls-11" d="M350,1311.54H185.35A73.57,73.57,0,0,1,112,1238.19v-52.87A73.57,73.57,0,0,1,185.35,1112H350a73.57,73.57,0,0,1,73.35,73.35v52.87A73.56,73.56,0,0,1,350,1311.54Z"/><path class="cls-11" d="M1311,1315.87H1146.35a73.57,73.57,0,0,1-73.35-73.35v-52.87a73.58,73.58,0,0,1,73.35-73.35H1311a73.58,73.58,0,0,1,73.35,73.35v52.87A73.59,73.59,0,0,1,1311,1315.87Z"/><path class="cls-13" d="M1100.84,1044.68s-4.18,2.71-6.69,16.5c-1.49,8.2-2.24,13.23-2.61,16a12.31,12.31,0,0,1-1.86,5L1079.52,1098s0,4.4,6.47,3.34.65,8.47.65,8.47-1,2.29,2.3,4.32c3.65,2.26,2.6,1,.41,3.49-1.14,1.31-.26,3.89-.2,3.9,1.66.33,2.91,1.72,2,3.21a28.12,28.12,0,0,0-1.59,6.66,14.22,14.22,0,0,0,15,13.83c11-.24,18.91.12,24.31,2.19a15.35,15.35,0,0,1,9.83,14,88.27,88.27,0,0,1-.07,8.92c-.42,3.76,52.65,1.68,52.65,1.68l-.2-108.24Z"/><path class="cls-4" d="M1033.56,1236l-1-16.34s5.64-83.08,100.78-56.11c62.17,17.62,139.23-4.6,135.72-8.48s49.27,14.25,59.13,60.38,20.39,132.44,20.39,132.44l-305.5-11.19Z"/><path class="cls-8" d="M1133,1004.34c-17.12,2.57-27.16,16.72-27.16,16.72s-18.46,21.52.22,36.15c13.19,10.34,21.83,11,25.77,10.45a15.65,15.65,0,0,1,13.31,4.62c.06.06.11.12.17.17,4.94,5.24,4.35,25.7,4.11,31.22a14.68,14.68,0,0,1-.26,2.2c-.52,2.73-1.36,11.52,8.45,13.8a23.24,23.24,0,0,1,13.07,8.6,15.86,15.86,0,0,1,3.23,9l1.52,33s1.69,23.2,24,24,67.87-18.8,77.42-34.49,11.88-29.05,11.88-29.05,6.58-39.7-37.55-47.43S1272.36,983.45,1133,1004.34Z"/><path class="cls-3" d="M901.19,1487.56h-220a73.57,73.57,0,0,1-73.35-73.35v-88.39a73.57,73.57,0,0,1,73.35-73.35h220a73.57,73.57,0,0,1,73.35,73.35v88.39A73.56,73.56,0,0,1,901.19,1487.56Z"/><path class="cls-3" d="M1277.95,1489h-220a73.57,73.57,0,0,1-73.35-73.35v-88.4a73.57,73.57,0,0,1,73.35-73.35h220a73.57,73.57,0,0,1,73.35,73.35v88.4A73.57,73.57,0,0,1,1277.95,1489Z"/><path class="cls-3" d="M523.34,1486.94h-220A73.57,73.57,0,0,1,230,1413.59V1325.2a73.57,73.57,0,0,1,73.35-73.35h220a73.57,73.57,0,0,1,73.35,73.35v88.39A73.57,73.57,0,0,1,523.34,1486.94Z"/><path class="cls-11" d="M201,63s-.18,2.41-.56,6.88c-3.29,37.72-22,221.75-80.83,326.94C53.81,514.4,52.08,497.09,52.08,497.09s93.51,411.64,98.72,574.21-8.66,181.6-8.66,181.6l-161,12.1L-128,519.56-154-46Z"/><path class="cls-11" d="M1300,63s.18,2.41.56,6.88c3.29,37.72,22,221.75,80.83,326.94,65.8,117.61,67.53,100.31,67.53,100.31s-93.5,411.64-98.71,574.21,8.66,181.6,8.66,181.6l161,12.1L1629,519.56,1655-46Z"/></g></svg>