<svg width="1547" height="2189" viewBox="0 0 1547 2189" fill="none" xmlns="http://www.w3.org/2000/svg">
<g clip-path="url(#clip0)">
<path d="M1552.25 -1.3252H-7.38379V2190.74H1552.25V-1.3252Z" fill="#F2CF35"/>
<path d="M-0.0522461 1025.94C78.8838 1023.68 266.084 1014.66 266.084 1014.66Z" fill="#E5E6DE"/>
<path d="M247.304 -39.5166C283.906 -37.5408 321.057 -35.071 355.559 -22.2542C390.061 -9.43735 422.162 15.3124 436.138 50.5392C441.038 62.836 443.788 76.4068 451.739 86.8579C461.514 99.6747 477.39 105.498 492.666 109.346C579.92 131.314 676.025 109.606 758.154 147.25C805.206 168.828 843.858 209.541 863.959 258.754" stroke="#444FCB" stroke-width="8" stroke-miterlimit="10"/>
<path d="M326.807 -112.647C363.408 -110.672 400.56 -108.202 435.062 -95.385C469.564 -82.5682 501.665 -57.8185 515.641 -22.5917C520.541 -10.2948 523.291 3.27595 531.242 13.727C541.017 26.5438 556.893 32.3673 572.169 36.2149C659.423 58.1829 755.528 36.4749 837.657 74.1195C884.709 95.6975 923.361 136.41 943.462 185.623" stroke="#444FCB" stroke-width="8" stroke-miterlimit="10"/>
<path d="M1515.06 1435.88C1497.27 1317.33 1518.26 1195.86 1522.59 1075.38C1526.92 954.943 1509.25 821.446 1434.63 743.932C1409.76 718.094 1379.73 699.904 1357.41 670.69C1334.58 640.821 1321.48 601.41 1313.59 561.447C1294.68 465.743 1303.99 361.908 1339.36 273.645C1347.98 252.114 1358.03 231.616 1368.5 211.359C1364.41 212.668 1360.26 213.873 1356.05 214.838C1286.23 230.41 1217.04 188.242 1157.78 142.595C1098.52 96.9477 1038.43 44.5825 967.699 36.1766C868.093 24.3255 776.758 103.769 714.415 194.822C690.817 229.273 669.414 266.307 640.747 295.074C554.748 381.338 423.807 373.346 317.323 327.251C290.435 315.606 264.081 301.861 236.185 294.178C197.41 283.498 156.352 285.703 118.258 299.139C105.215 324.564 90.4516 348.851 75.1549 372.14C55.9748 401.32 35.1345 431.085 28.4644 467.741C22.328 501.468 29.0277 536.642 37.1207 569.749C52.951 634.62 74.0877 697.458 100.145 757.058C141.53 851.729 196.758 962.109 157.152 1057.99C130.769 1121.82 70.2932 1152.59 36.0239 1210.4C-0.913518 1272.68 -2.09931 1356.16 1.19126 1433.29C5.5194 1534.27 20.0453 1646.64 85.1749 1707.76C131.895 1751.62 196.372 1759.82 240.928 1806.98C297.342 1866.68 309.052 1974.93 368.075 2030.6C469.015 2125.85 643.149 2013.27 729.741 2128.09C768.931 2180.05 758.2 2241.78 770.71 2303C772.281 2239.78 782.271 2172.78 822.499 2128.95C880.603 2065.63 972.65 2081.31 1038.64 2031.11C1098.02 1985.92 1127.51 1893.93 1189.12 1853.56C1290.15 1787.34 1439.47 1882.43 1517.55 1779.07C1550.57 1735.36 1556.44 1669.35 1549.3 1610.16C1542.1 1551.04 1523.89 1494.72 1515.06 1435.88Z" fill="white"/>
<path d="M-4.97702 488.595C-4.97702 488.595 -7.07712 498.968 28.8747 386.84C44.7254 337.419 59.0261 452.978 109.004 457.424C158.981 461.869 134.23 423.003 163.831 366.77C175.057 345.426 240.185 404.571 286.412 413.41C332.64 422.249 353.516 380.107 351.616 363.468C348.165 333.285 304.213 290.363 325.739 270.657C342.315 255.474 409.144 308.379 440.845 292.287C472.522 276.194 474.122 229.763 420.519 210.888C366.916 192.014 400.468 149.326 425.569 152.134C452.746 155.149 534.125 115.815 481.572 73.5949C452.571 50.3011 424.619 84.5659 386.242 77.6246C347.865 70.6832 352.016 58.9843 353.591 45.6995C355.166 32.4147 380.617 1.52953 323.589 -35.8291C266.561 -73.1876 250.636 -6.24376 254.511 10.2907C257.736 24.0695 266.736 84.8519 249.911 96.4468C233.085 108.016 212.109 105.13 202.508 70.2412C192.908 35.3524 141.73 4.51926 113.654 35.8464C85.5775 67.1735 165.806 147.844 149.156 162.741C132.505 177.637 112.354 175.662 80.0022 138.459C47.6506 101.256 13.3489 133.337 44.4254 161.389C75.502 189.44 71.9768 272.451 52.0758 265.613C32.1748 258.776 9.5987 215.516 9.5987 215.516L-4.97702 488.595Z" fill="#E9622A"/>
<path d="M102.953 320.131C102.953 320.131 209.608 302.66 334.115 133.468C334.115 133.468 155.606 298.241 102.953 320.131Z" fill="#E9622A"/>
<path d="M839.529 1854C839.529 1854 797.763 1939.71 873.212 1997.46C873.212 1997.46 922.562 1958.69 839.529 1854Z" fill="#33B3A6"/>
<path d="M869.207 1971.08C869.207 1971.08 848.876 1912.37 846.081 1890.26C846.081 1890.26 865.059 1943.35 869.207 1971.08Z" fill="#33B3A6"/>
<path d="M1033.96 2089.94C1033.96 2089.94 941.718 2114.7 899.846 2026C899.846 2026.02 947.522 1983.81 1033.96 2089.94Z" fill="#33B3A6"/>
<path d="M924.93 2035.52C924.93 2035.52 978.535 2068.35 999.667 2075.77C999.667 2075.77 951.332 2045.49 924.93 2035.52Z" fill="#33B3A6"/>
<path d="M1092.97 1860.46C1092.97 1860.46 880.334 1867.83 884.429 2011.93C884.446 2011.93 1053.2 2054.21 1092.97 1860.46Z" fill="#33B3A6"/>
<path d="M914.677 1985.21C914.677 1985.21 1006.5 1918.17 1043.68 1901.42C1043.68 1901.42 960.982 1963.09 914.677 1985.21Z" fill="#33B3A6"/>
<path d="M719.539 2170.77C719.539 2170.77 719.239 2177.9 714.078 2098.63C711.798 2063.68 684.239 2137.43 651.531 2132.6C618.823 2127.77 640.848 2106.06 630.882 2064.5C627.102 2048.72 575.964 2077.49 544.974 2076.14C513.985 2074.78 507.33 2043.83 511.187 2033.21C518.205 2013.89 553.18 1992.51 542.539 1976.21C534.349 1963.66 483.131 1988.06 465.412 1972.57C447.693 1957.08 454.061 1926.3 491.389 1922.21C528.701 1918.12 514.042 1884.86 497.515 1882.8C479.627 1880.58 433.791 1842.09 474.175 1822.49C496.453 1811.69 508.89 1838.53 534.567 1839.93C560.245 1841.32 559.457 1832.99 560.547 1824C561.655 1815.01 550.289 1790.78 592.735 1775.07C635.18 1759.37 634.707 1805.85 629.583 1816.1C625.321 1824.65 609.877 1863.21 618.804 1873.45C627.732 1883.68 641.63 1885.03 653.309 1863.58C665.007 1842.13 702.685 1829.82 715.688 1854.77C728.691 1879.71 664.453 1920.29 672.751 1932.68C681.033 1945.04 694.257 1946.89 720.895 1927.44C747.55 1908 764.385 1934.43 740.01 1948.03C715.633 1961.64 704.678 2016.75 718.513 2015.34C732.33 2013.92 753.685 1989 753.685 1989L719.539 2170.77Z" fill="#444FCB"/>
<path d="M734.268 2041.29C734.268 2041.29 668.776 2013.26 616.016 1882.74C616.016 1882.74 704.049 2018.73 734.268 2041.29Z" fill="#444FCB"/>
<path d="M874.003 1932H713.401C705.06 1932 698.213 1938.83 698.213 1947.19V1998.04C698.213 2006.38 705.041 2013.23 713.401 2013.23H874.003C882.345 2013.23 889.192 2006.4 889.192 1998.04V1947.19C889.192 1938.83 882.364 1932 874.003 1932ZM876.576 2002.11C876.576 2007.48 872.169 2011.89 866.797 2011.89H720.626C715.255 2011.89 710.848 2007.48 710.848 2002.11V1955.49C710.848 1950.12 715.255 1945.71 720.626 1945.71H866.797C872.169 1945.71 876.576 1950.12 876.576 1955.49V2002.11Z" fill="#0D2040"/>
<path d="M947.221 2190.93H633.11C583.005 2190.93 541.999 2149.93 541.999 2099.83V2064.03C541.999 2013.93 583.005 1972.93 633.11 1972.93H947.202C997.306 1972.93 1038.31 2013.93 1038.31 2064.03V2099.83C1038.33 2149.93 997.325 2190.93 947.221 2190.93Z" fill="#0D2040"/>
<path d="M655.788 2136.27C688.067 2136.27 714.234 2110.11 714.234 2077.83C714.234 2045.56 688.067 2019.39 655.788 2019.39C623.51 2019.39 597.343 2045.56 597.343 2077.83C597.343 2110.11 623.51 2136.27 655.788 2136.27Z" fill="#F2CF35"/>
<path d="M932.165 2135.14C964.444 2135.14 990.611 2108.98 990.611 2076.7C990.611 2044.43 964.444 2018.26 932.165 2018.26C899.887 2018.26 873.72 2044.43 873.72 2076.7C873.72 2108.98 899.887 2135.14 932.165 2135.14Z" fill="#F2CF35"/>
<path d="M836.837 2019.53H750.114V2042.22H836.837V2019.53Z" fill="#E9622A"/>
<path d="M836.288 2072.84H749.565V2126.22H836.288V2072.84Z" fill="#33B3A6"/>
<path d="M931.408 2126.27C958.892 2126.27 981.172 2103.99 981.172 2076.51C981.172 2049.03 958.892 2026.75 931.408 2026.75C903.925 2026.75 881.645 2049.03 881.645 2076.51C881.645 2103.99 903.925 2126.27 931.408 2126.27Z" fill="#0D2040"/>
<path d="M655.599 2127.48C683.083 2127.48 705.363 2105.2 705.363 2077.72C705.363 2050.24 683.083 2027.96 655.599 2027.96C628.115 2027.96 605.835 2050.24 605.835 2077.72C605.835 2105.2 628.115 2127.48 655.599 2127.48Z" fill="#0D2040"/>
<path d="M1112 1160.15C1129.22 1134.05 1147.01 1107.75 1170.98 1087.67C1194.96 1067.62 1226.34 1054.29 1257.31 1058.62C1268.13 1060.14 1278.92 1063.74 1289.74 1062.25C1303.03 1060.39 1314.02 1051.14 1323.34 1041.47C1376.58 986.42 1402.74 906.688 1464.88 861.916C1500.46 836.255 1545.98 824.758 1589.48 830.411" stroke="#33B3A6" stroke-width="10" stroke-miterlimit="10"/>
<path d="M1153.34 1221.61C1170.56 1195.5 1188.35 1169.2 1212.33 1149.13C1236.3 1129.08 1267.68 1115.74 1298.66 1120.07C1309.47 1121.59 1320.27 1125.19 1331.08 1123.7C1344.37 1121.84 1355.36 1112.59 1364.68 1102.92C1417.92 1047.87 1444.08 968.14 1506.22 923.368C1541.8 897.707 1587.32 886.211 1630.82 891.863" stroke="#33B3A6" stroke-width="8" stroke-miterlimit="10"/>
<path d="M1330.69 616.485C1309.04 597.137 1293.16 578.956 1293.16 578.956C1293.16 578.956 1262.56 571.266 1280.51 561.08C1298.46 550.894 1297.34 569.236 1297.34 569.236C1297.34 569.236 1348.91 603.353 1355.39 610.521C1361.88 617.689 1352.12 631.055 1352.12 631.055L1330.69 616.485Z" fill="#CD773A"/>
<path d="M1195.02 799.3C1165.39 794.468 1140.15 793.282 1140.15 793.282C1140.15 793.282 1115.43 774.903 1117.08 794.342C1118.73 813.763 1134.11 802.139 1134.11 802.139C1134.11 802.139 1194.25 820.661 1204.35 821.308C1214.42 821.955 1220.35 806.792 1220.35 806.792L1195.02 799.3Z" fill="#CD773A"/>
<path d="M1236.27 682.939C1233.47 683.855 1229.46 681.34 1226.86 679.31C1225.01 677.873 1223.62 675.897 1222.87 673.561C1221.86 670.363 1220.98 665.782 1223.21 663.393C1224.4 662.117 1218.7 661.902 1222.28 651.859C1225.85 641.816 1231.71 644.26 1231.71 644.26C1231.71 644.26 1233.9 648.715 1238.14 640.631C1242.4 632.546 1244.25 631.307 1249.77 632.78C1255.28 634.253 1262.58 630.696 1266.58 634.397C1270.59 638.08 1271.38 643.361 1274.97 642.283C1278.57 641.206 1283.96 639.373 1284.28 645.068C1284.6 650.763 1283.01 653.907 1286.1 657.985C1289.19 662.063 1278.51 678.035 1278.51 678.035L1236.27 682.939Z" fill="#0D2040"/>
<path d="M1253.72 706.779L1254.71 696.557C1254.71 696.557 1238.03 693.377 1239.13 681.969C1240.23 670.561 1237.69 665.154 1237.69 665.154C1237.69 665.154 1236.51 650.35 1251.89 648.644C1267.28 646.937 1269.3 653.099 1269.3 653.099C1269.3 653.099 1276.39 656.153 1278.75 663.537C1281.08 670.902 1276.82 683.604 1276.82 683.604L1280.6 698.659L1253.72 706.779Z" fill="#CD773A"/>
<path d="M1241.52 650.027C1246.21 653.261 1250.56 660.213 1255.26 658.686C1259.97 657.159 1261.05 655.075 1265.86 657.123C1270.68 659.171 1273.57 665.208 1277.02 663.357C1280.47 661.507 1276.5 652.991 1276.5 652.991L1253.4 644.422L1241.52 650.027Z" fill="#0D2040"/>
<path d="M1159.82 1041.96L1153.73 1055.67C1153.73 1055.67 1147.48 1080.08 1162.61 1062.87C1177.74 1045.66 1177.75 1045.66 1177.75 1045.66L1159.82 1041.96Z" fill="#CD773A"/>
<path d="M1315.65 1080.35L1315.87 1095.24C1315.87 1095.24 1320.48 1120.13 1327.04 1098.78C1333.6 1077.44 1333.62 1077.44 1333.62 1077.44L1315.65 1080.35Z" fill="#CD773A"/>
<path d="M1286.85 910.613C1286.85 910.613 1299.21 1067.81 1306.54 1079.83C1313.87 1091.85 1337.48 1083.98 1337.48 1083.98C1337.48 1083.98 1357.87 870.964 1347.58 849.136C1337.26 827.308 1251.85 839.974 1251.85 839.974L1250.61 852.963C1250.61 852.963 1161.3 1015.32 1157.38 1035.78C1153.46 1056.24 1180.43 1054.07 1180.43 1054.07C1180.43 1054.07 1266.58 944.999 1286.85 910.613Z" fill="#444FCB"/>
<path d="M1189.77 797.253C1189.77 797.253 1190.83 765.795 1211.93 736.26C1233.02 706.725 1259.36 704.48 1259.36 704.48L1285.02 695.623C1285.02 695.623 1294.81 702.521 1309.38 659.243C1323.97 615.982 1328.91 618.839 1328.91 618.839C1328.91 618.839 1343.39 610.7 1348.48 618.928C1353.56 627.157 1355.56 626.743 1355.56 626.743C1355.56 626.743 1355.34 663.051 1348.23 676.058C1341.11 689.065 1338.51 716.211 1338.51 716.211C1338.51 716.211 1338.68 777.401 1342.8 794.037C1349.73 822.009 1352.02 854.473 1352.02 854.473C1352.02 854.473 1308.05 870.516 1295.2 861.533C1282.36 852.568 1246.21 855.047 1246.21 855.047C1246.21 855.047 1233.58 809.775 1235.23 799.211C1236.9 788.647 1212.56 817.877 1212.56 817.877C1212.56 817.877 1185.8 804.619 1189.77 797.253Z" fill="#E9622A"/>
<path d="M1313.66 1097.09C1313.66 1097.09 1315.09 1101.84 1309.7 1105.9C1304.31 1109.96 1301.69 1111.29 1301.69 1111.29C1301.69 1111.29 1291.9 1116.21 1300.7 1117.7C1309.51 1119.19 1314.72 1118.85 1323.3 1116.8C1331.91 1114.75 1332.16 1105.54 1332.16 1105.54L1329.52 1096.41L1313.66 1097.09Z" fill="#0D2040"/>
<path d="M1152.69 1052.79C1152.69 1052.79 1150.95 1057.39 1143.94 1057.91C1136.93 1058.43 1133.91 1058.15 1133.91 1058.15C1133.91 1058.15 1122.7 1057.07 1129.12 1062.85C1135.53 1068.62 1140.08 1071.05 1148.52 1073.85C1156.97 1076.65 1162.88 1069.27 1162.88 1069.27L1166.33 1060.46L1152.69 1052.79Z" fill="#0D2040"/>
<path d="M211.698 949.608L183.518 926.648L191.532 916.343L220.551 937.439" fill="#E38955"/>
<path d="M146.932 931.513C146.429 930.879 146 930.133 146 929.351C146.019 928.549 146.466 927.841 146.895 927.152C153.586 916.753 161.022 906.783 169.129 897.39C169.484 896.98 169.875 896.551 170.397 896.384C171.217 896.141 172.056 896.607 172.764 897.073C180.107 901.751 187.73 906.745 191.867 914.256C192.389 915.206 192.855 916.231 192.818 917.312C192.762 918.84 191.718 920.145 190.693 921.337C189.09 923.201 186.108 928.065 183.667 928.456C181.095 928.866 178.728 926.649 175.522 927.767C173.919 928.326 172.521 929.295 171.068 930.171C168.235 931.867 165.178 933.19 162.01 934.103C156.829 935.594 150.287 935.631 146.932 931.513Z" fill="#33B3A6"/>
<path d="M326.171 1054.96L341.528 1054.46L339.516 1090.05H326.171V1054.96Z" fill="#E38955"/>
<path d="M305.538 601.116C290.479 608.272 277.619 612.428 267.722 625.492C257.807 638.556 247.016 647.259 247.016 647.259C247.016 647.259 220.904 674.244 214.605 697.744C208.305 721.244 238.927 728.214 238.927 728.214L258.739 736.041L275.848 732.556C275.848 732.556 335.284 677.71 337.987 677.71C340.689 677.71 359.606 660.304 359.606 660.304C359.606 660.304 369.522 635.052 356.009 615.037C342.497 595.022 320.989 593.792 305.538 601.116Z" fill="#0D2040"/>
<path d="M315.584 685.462L326.786 684.213C327.568 684.12 328.146 683.319 328.034 682.424L326.338 668.056C326.227 667.162 325.5 666.491 324.698 666.584L313.497 667.833C312.714 667.926 312.136 668.727 312.248 669.622L313.944 683.99C314.075 684.884 314.802 685.555 315.584 685.462Z" fill="#E38955"/>
<path d="M301.308 635.48C305.856 633.653 311.689 634.343 315.1 630.914C315.771 630.224 316.311 629.423 316.945 628.715C319.443 625.975 323.375 625.025 326.954 623.888C327.196 623.814 327.494 623.702 327.83 623.59C330.756 622.472 334.036 623.832 335.396 626.665C337.782 631.641 339.087 637.641 338.863 644.071C338.285 660.657 327.96 673.665 315.808 673.124C303.638 672.584 294.244 658.7 294.822 642.114C294.841 641.313 294.953 640.549 295.064 639.785C295.139 639.17 295.512 638.648 296.034 638.331C297.767 637.343 299.426 636.225 301.308 635.48Z" fill="#E38955"/>
<path d="M201.447 621.242C182.753 607.749 175.559 596.866 175.559 596.866C175.559 596.866 175.112 589.244 172.633 593.381C170.154 597.518 168.589 597.947 168.589 597.947C168.589 597.947 157.331 593.586 154.853 596.214C152.374 598.823 154.853 608.401 154.853 608.401C154.853 608.401 164.078 613.191 169.707 613.415C175.336 613.638 191.998 633.653 191.998 633.653L202.36 621.242H201.447V621.242Z" fill="#E38955"/>
<path d="M393.471 610.471C404.095 590.4 405.604 577.559 405.604 577.559C405.604 577.559 402.529 570.534 406.648 573.18C410.748 575.845 412.37 575.547 412.37 575.547C412.37 575.547 420.496 566.844 423.907 568.13C427.317 569.416 429.461 579.069 429.461 579.069C429.461 579.069 423.366 587.306 418.408 589.896C413.451 592.487 407.636 617.552 407.636 617.552L392.688 610.825L393.471 610.471Z" fill="#E38955"/>
<path d="M372.877 871.935C370.51 929.725 368.087 987.776 356.438 1044.5C355.432 1049.42 354.202 1054.61 350.623 1058.24C346.299 1062.62 339.59 1063.74 333.365 1064.26C330.383 1064.5 326.86 1064.44 325.09 1062.12C324.158 1060.89 323.953 1059.3 323.822 1057.81C321.045 1029.2 327.624 1000.26 324.269 971.731C322.89 960.009 319.852 948.529 318.343 936.844C316.553 922.942 316.982 908.871 317.392 894.876C312.714 906.374 308.036 917.854 303.339 929.352C300.264 936.919 297.17 944.485 293.405 951.753C288.429 961.388 282.26 970.463 275.103 978.719C273.295 980.806 271.338 982.912 268.766 984.049C266.269 985.167 263.417 985.279 260.659 985.372C252.887 985.614 244.91 985.838 237.585 983.341C232.721 981.664 228.36 978.85 224.241 975.812C218.314 971.414 207.169 963.959 203.478 957.679C199.788 951.399 203.739 946.125 206.069 939.267C207.523 934.962 210.934 930.88 215.574 930.172C219.265 929.613 222.918 931.235 226.011 933.247C233.056 937.813 242.003 948.808 249.849 945.715C253.297 944.354 254.415 937.31 255.832 933.974C259.317 925.774 261.703 916.903 262.467 908.051C263.734 893.236 267.443 879.333 272.755 865.375C282.651 839.452 285.037 810.864 298.4 786.433C299.649 784.159 301.084 781.83 303.358 780.469C305.445 779.221 307.98 778.96 310.422 778.736C324.419 777.487 339.012 777.022 352.021 782.202C357.221 784.271 369.522 786.507 372.821 790.812C376.772 795.974 374.368 809.094 374.386 815.151C374.424 834.104 373.641 853.019 372.877 871.935Z" fill="#E9622A"/>
<path d="M415.39 607.824L394.684 595.207C394.684 595.207 389.726 590.847 385.234 594.779C380.724 598.692 382.532 607.395 374.424 620.459C366.317 633.523 363.167 642.655 363.167 642.655C363.167 642.655 346.058 674 334.353 678.343C322.649 682.703 307.795 681.828 307.795 681.828C307.795 681.828 289.79 675.734 286.175 672.249C282.559 668.764 258.703 666.583 245.656 651.786C232.591 636.989 208.288 618.707 208.288 618.707C208.288 618.707 203.777 616.527 199.733 619.583C195.689 622.621 190.731 631.771 190.731 631.771C190.731 631.771 184.431 642.655 188.029 646.997C191.626 651.358 210.096 684.418 229.908 700.091C249.719 715.764 275.384 730.561 280.788 740.568C286.193 750.576 279.894 781.922 279.894 781.922C279.894 781.922 292.046 798.899 305.558 798.899C319.07 798.899 351.929 805.422 373.548 795.861C395.168 786.282 387.061 779.76 387.061 779.76C387.061 779.76 373.548 756.688 371.759 738.406C369.951 720.125 392.466 695.32 392.466 695.32C392.466 695.32 414.495 636.971 415.39 607.824Z" fill="#33B3A6"/>
<path d="M345.201 1095.53C346.636 1096.42 348.276 1096.93 349.86 1097.52C352.954 1098.7 355.899 1100.24 358.564 1102.16C362.944 1105.27 366.913 1110.29 365.516 1115.38C365.311 1116.14 364.938 1116.92 364.286 1117.39C363.615 1117.85 362.757 1117.95 361.937 1118.02C349.319 1119.12 336.609 1119.36 323.954 1118.75C323.394 1118.73 322.817 1118.67 322.351 1118.36C321.661 1117.87 321.549 1116.94 321.493 1116.12C320.953 1107.64 320.487 1098.73 324.196 1091.04C324.662 1090.07 325.24 1089.08 326.153 1088.45C327.457 1087.57 329.172 1087.59 330.756 1087.66C333.254 1087.78 339.069 1087.16 340.858 1088.82C342.759 1090.57 342.349 1093.74 345.201 1095.53Z" fill="#33B3A6"/>
<path d="M1605.3 633.169C1605.3 633.169 1605.18 643.479 1594.39 529.261C1589.64 478.907 1552.94 586.522 1505.54 580.936C1458.13 575.349 1489 543.075 1472.85 483.503C1466.73 460.903 1394.14 504.579 1349.34 503.919C1304.55 503.259 1293.63 458.871 1298.78 443.356C1308.1 415.195 1357.7 382.845 1341.65 359.762C1329.28 341.987 1256.38 379.366 1230.15 357.756C1203.92 336.147 1211.84 291.429 1265.52 283.964C1319.23 276.498 1296.63 229.089 1272.71 226.829C1246.81 224.366 1179.01 170.736 1236.5 140.747C1268.19 124.216 1287.28 162.433 1324.41 163.372C1361.53 164.312 1360.03 152.301 1361.25 139.299C1362.47 126.273 1345.05 91.7636 1405.66 67.3101C1466.28 42.8565 1467.55 109.945 1460.59 125.003C1454.8 137.522 1434.13 193.844 1447.44 208.216C1460.74 222.614 1480.85 223.985 1496.85 192.523C1512.82 161.061 1566.71 141.712 1586.51 177.186C1606.32 212.66 1515.31 273.934 1527.8 291.455C1540.3 308.976 1559.44 311.058 1597.08 281.882C1634.71 252.705 1660.15 290.134 1625.54 310.804C1590.93 331.474 1577.45 411.488 1597.33 408.872C1617.21 406.257 1647 369.386 1647 369.386L1605.3 633.169Z" fill="#33B3A6"/>
<path d="M1542.52 431.486C1542.52 431.486 1470.79 403.224 1409.59 263.668C1409.61 263.668 1509.12 408.02 1542.52 431.486Z" fill="#33B3A6"/>
<path d="M1283.13 145.285C1277.23 143.414 1242.49 132.833 1224.34 150.589C1222.81 152.097 1221.35 153.839 1220 155.892C1212.75 166.811 1213.99 178.562 1214.23 180.46C1214.46 182.358 1216.1 194.655 1225.8 203.104C1241.61 216.857 1264.2 207.68 1266.75 214.673C1269.95 223.356 1235.24 237.707 1237.34 257.075C1237.84 261.599 1240.25 265.706 1243.11 270.568C1246.16 275.715 1250.5 283.099 1259.03 287.908C1267.32 292.614 1279.57 294.902 1289.86 290.326C1303.12 284.425 1307.18 269.71 1310.58 271.062C1313.29 272.128 1309.44 280.993 1313 293.238C1313.99 296.644 1316.88 306.107 1325.53 312.502C1336.53 320.639 1349.61 318.508 1353.98 317.806C1358.19 317.13 1370.98 315.05 1379.04 304.313C1387.75 292.692 1385.52 278.107 1384.35 270.594C1381.82 254.293 1373.82 244.388 1376.16 242.647C1378.55 240.879 1385.8 251.98 1401.69 257.101C1406.47 258.635 1414.38 261.183 1423.37 258.557C1434.6 255.255 1440.43 246 1443.13 241.685C1445.99 237.135 1452.18 227.308 1449.87 215.193C1447.27 201.466 1435.51 193.979 1432.52 192.055C1417.26 182.332 1402.55 186.752 1401.19 181.448C1399.97 176.665 1412.06 173.311 1422.88 158.31C1427.48 151.915 1433.33 143.804 1432.99 133.742C1432.45 117.832 1416.61 102.415 1399.27 100.024C1383.72 97.8658 1371.63 106.783 1370.36 107.745C1359 116.376 1356.71 128.777 1353.48 127.971C1349.09 126.879 1356.37 104.391 1344.33 91.8343C1340.22 87.5447 1335.21 85.8029 1330.34 84.113C1325.4 82.3972 1315.47 78.9395 1304.32 82.6571C1291.66 86.8688 1285.7 97.5798 1284.09 100.492C1275.02 116.792 1282.09 142.322 1283.13 145.285Z" fill="#444FCB"/>
<path d="M1333.31 217.533C1348.03 217.533 1359.96 207.942 1359.96 196.11C1359.96 184.279 1348.03 174.688 1333.31 174.688C1318.59 174.688 1306.66 184.279 1306.66 196.11C1306.66 207.942 1318.59 217.533 1333.31 217.533Z" fill="#E5E6DE"/>
<path d="M68.5564 755.996C65.4353 755.006 47.066 749.41 37.4689 758.8C36.6576 759.598 35.8877 760.519 35.1727 761.605C31.3366 767.379 31.9966 773.593 32.1203 774.597C32.2441 775.601 33.1103 782.104 38.2388 786.572C46.5985 793.845 58.5468 788.991 59.8942 792.69C61.5854 797.282 43.2299 804.871 44.3436 815.113C44.6048 817.505 45.8835 819.677 47.396 822.248C49.0047 824.97 51.3008 828.875 55.8106 831.418C60.1967 833.907 66.6727 835.117 72.1175 832.697C79.1297 829.576 81.2746 821.795 83.0758 822.51C84.5058 823.073 82.4708 827.761 84.3545 834.237C84.877 836.038 86.4032 841.042 90.9817 844.424C96.7978 848.727 103.714 847.6 106.024 847.229C108.251 846.871 115.016 845.772 119.278 840.094C123.884 833.948 122.702 826.235 122.083 822.262C120.749 813.642 116.514 808.404 117.752 807.483C119.017 806.548 122.853 812.418 131.254 815.127C133.784 815.938 137.964 817.285 142.721 815.897C148.661 814.151 151.741 809.256 153.171 806.974C154.683 804.568 157.955 799.371 156.732 792.965C155.357 785.706 149.142 781.746 147.561 780.729C139.49 775.587 131.708 777.924 130.993 775.119C130.346 772.59 136.74 770.816 142.46 762.884C144.893 759.502 147.987 755.212 147.808 749.892C147.52 741.478 139.146 733.325 129.975 732.06C121.753 730.919 115.36 735.635 114.686 736.143C108.677 740.708 107.467 747.266 105.762 746.839C103.439 746.262 107.289 734.37 100.923 727.729C98.7502 725.461 96.0965 724.54 93.5254 723.646C90.913 722.739 85.6607 720.91 79.7622 722.876C73.0662 725.104 69.9176 730.768 69.0651 732.308C64.2666 740.928 68.0064 754.428 68.5564 755.996Z" fill="#33B3A6"/>
<path d="M95.0927 794.187C102.876 794.187 109.186 789.115 109.186 782.859C109.186 776.602 102.876 771.53 95.0927 771.53C87.3092 771.53 80.9995 776.602 80.9995 782.859C80.9995 789.115 87.3092 794.187 95.0927 794.187Z" fill="#444FCB"/>
<path d="M242 469.152H254V468H242V469.152ZM254 469.152H266V468H254V469.152Z" fill="black"/>
</g>
<defs>
<clipPath id="clip0">
<rect width="1547" height="2189" fill="white"/>
</clipPath>
</defs>
</svg>
