<svg width="1728" height="1103" viewBox="0 0 1728 1103" fill="none" xmlns="http://www.w3.org/2000/svg">
<path d="M1690.37 -39.3438H0.551758V2226.65H1690.37V-39.3438Z" fill="#31B3A6"/>
<path d="M1639.79 348.365C1613.93 316.457 1559.67 270.262 1504.32 220.396C1460.95 259.539 1419.61 300.879 1380.47 344.252C1332.7 397.149 1337.93 398 1259.15 490.852C1213.99 544.032 1170.29 593.33 1107.95 663.598C1088.98 684.959 1073.13 702.721 1062 715.165L1477.59 1094.28L1661.7 899.646C1670.95 878.392 1817.92 568.459 1639.79 348.365Z" fill="#EE2434"/>
<path d="M1511.25 335.177C1517.7 335.177 1522.92 329.955 1522.92 323.513C1522.92 317.071 1517.7 311.849 1511.25 311.849C1504.81 311.849 1499.59 317.071 1499.59 323.513C1499.59 329.955 1504.81 335.177 1511.25 335.177Z" fill="#1C1E4C"/>
<path d="M1559.67 356.289C1572.56 356.289 1583.01 345.836 1583.01 332.943C1583.01 320.049 1572.56 309.597 1559.67 309.597C1546.77 309.597 1536.32 320.049 1536.32 332.943C1536.32 345.836 1546.77 356.289 1559.67 356.289Z" fill="#1C1E4C"/>
<path d="M1325.29 -334.181C1358.47 -322.582 1389.11 -304.688 1415.52 -281.48C1449.34 -251.345 1473.75 -213.09 1488.6 -170.529C1499.01 -140.606 1506.95 -109.744 1509.36 -78.049C1512.07 -41.8041 1508.33 -5.36491 1498.3 29.5694C1487.4 67.3804 1468.78 103.525 1441.77 132.384C1416.63 159.204 1386.34 181.061 1357.04 202.989C1338.28 217.029 1319.37 230.873 1300.31 244.523C1287.16 253.935 1273.97 263.419 1262.16 274.516C1237.81 297.568 1218.5 325.417 1205.44 356.307C1191.26 390.395 1183.58 429.323 1188.87 466.106C1194.68 506.575 1216.54 543.234 1247.91 569.133C1252.49 572.903 1257.21 576.448 1262.09 579.769C1264.93 581.701 1267.59 577.092 1264.77 575.178C1234.32 554.473 1210.46 524.355 1199.45 488.991C1187.61 450.985 1192.36 410.993 1204.54 373.768C1215.56 340.087 1235.72 308.64 1260.53 283.362C1271.88 271.875 1284.73 262.09 1297.76 252.712C1316.21 239.4 1334.67 226.122 1352.91 212.508C1383.24 189.854 1414.65 167.483 1441.25 140.379C1467.86 113.275 1486.65 80.3917 1498.88 44.8853C1510.34 11.1857 1515.91 -24.2357 1515.35 -59.826C1514.87 -93.3825 1508.26 -125.84 1498.19 -157.748C1485.59 -197.987 1466.64 -235.391 1437.92 -266.678C1411.7 -294.991 1379.75 -317.398 1344.2 -332.408C1338.29 -334.914 1332.38 -337.224 1326.48 -339.34C1323.25 -340.474 1321.85 -335.333 1325.08 -334.199L1325.29 -334.181Z" fill="#C5E8F0"/>
<path d="M1393.92 -338.152C1424.76 -308.243 1452.9 -275.684 1478.04 -240.85C1490.64 -223.128 1500.83 -203.801 1508.31 -183.381C1515.24 -164.466 1519.55 -144.861 1523.29 -125.113C1530.26 -89.7942 1532.53 -53.7099 1530.04 -17.7962C1528.66 0.178583 1526.85 18.1888 1522.76 35.7914C1517.31 59.1341 1508.09 81.4315 1495.46 101.805C1465.52 150.199 1419.88 184.341 1375.1 218.145C1350.19 236.936 1323.83 254.201 1300.03 274.41C1275.19 295.469 1250.94 320.003 1234.88 348.649C1216.63 381 1207.32 417.286 1212.05 454.495C1216.18 486.902 1231.09 516.978 1254.38 539.884C1258.65 544.093 1263.16 548.053 1267.89 551.743C1270.55 553.835 1274.34 550.094 1271.65 547.985C1247.1 528.751 1228.18 502.055 1220.54 471.618C1210.94 433.258 1217.48 394.259 1235.11 359.356C1250.02 329.841 1273.31 305.325 1297.78 283.45C1319.92 263.65 1344.98 247.288 1368.68 229.544C1413.46 196.2 1459.42 162.732 1491.92 116.714C1504.74 98.6749 1514.89 78.8761 1522.05 57.932C1528.75 38.1313 1532.15 17.5684 1534.14 -3.18947C1537.35 -35.238 1536.92 -67.5476 1532.85 -99.4983C1527.19 -142.379 1517.23 -185.26 1495.71 -223.088C1485.91 -240.336 1473.6 -255.829 1461.21 -271.252C1446.77 -289.244 1431.79 -306.705 1415.87 -323.474C1409.96 -329.738 1403.9 -335.883 1397.7 -341.91C1395.25 -344.303 1391.48 -340.545 1393.92 -338.152V-338.152Z" fill="#C5E8F0"/>
<path d="M1427.13 -336.61C1453.48 -309.774 1476.85 -280.171 1496.84 -248.313C1519.52 -211.743 1534.07 -172.089 1542.93 -130.148C1547.15 -110.17 1551.12 -90.0855 1554.45 -69.8772C1557.33 -53.97 1558.68 -37.8248 1558.5 -21.6607C1557.5 15.9197 1546.44 52.8975 1528.86 85.9577C1516.12 109.965 1500.39 132.26 1482.04 152.308C1469.79 165.219 1456.89 177.501 1443.4 189.109C1431.54 199.639 1419.68 210.186 1407.41 220.255C1383.68 239.754 1359.73 258.863 1336.51 278.93C1318.78 294.281 1300.63 309.721 1285.44 327.731C1274.4 340.849 1263.57 354.321 1255.3 369.353C1246.29 385.765 1240.05 403.554 1236.83 422.001C1230.84 457.313 1243.84 491.667 1268.94 516.608C1272.24 519.873 1275.71 522.962 1279.34 525.862C1281.98 527.989 1285.78 524.249 1283.1 522.104C1258.41 502.339 1240.89 473.391 1240.56 441.164C1240.36 422.64 1245.73 403.849 1252.77 386.849C1260.27 368.715 1271.63 352.832 1284.04 337.764C1298.34 320.375 1314.55 305.201 1331.47 290.363C1355.99 268.861 1381.21 248.263 1406.58 227.788C1417.22 219.262 1427.36 210.328 1437.57 201.376C1451.62 188.967 1465.72 176.665 1478.83 163.317C1497.84 143.786 1514.35 121.976 1527.99 98.3841C1546.75 66.7217 1558.6 31.4466 1562.75 -5.12179C1566.37 -40.1319 1559.28 -74.4329 1552.63 -108.698C1548.89 -127.932 1545.08 -147.183 1539.58 -166.009C1533.4 -187.158 1525.15 -207.648 1514.96 -227.183C1497.37 -261.059 1474.19 -292.311 1448.91 -320.922C1443.06 -327.552 1437.05 -334.051 1430.88 -340.421C1428.49 -342.867 1424.73 -339.109 1427.13 -336.663V-336.61Z" fill="#C5E8F0"/>
<path d="M1462.93 -340.084C1480.92 -310.924 1500.16 -282.579 1519.12 -254.127C1536.36 -228.357 1550.2 -200.467 1560.29 -171.149C1573.53 -132.629 1577.13 -92.4074 1580.97 -52.1148C1582.57 -35.4695 1584.09 -18.6823 1583.21 -1.9661C1582.14 15.0015 1578.5 31.7084 1572.41 47.5798C1564.89 67.1929 1555.79 86.1635 1545.2 104.305C1538.1 116.842 1530.26 128.947 1521.73 140.556C1509.85 156.599 1495.66 170.585 1480.96 184.093C1438.42 223.41 1392.67 259.112 1348.67 296.781C1334.19 308.913 1320.64 322.102 1308.11 336.24C1294.75 351.609 1281.52 368.591 1273.58 387.47C1259.63 420.424 1265.16 459.334 1283.88 489.274C1287.45 494.963 1291.49 500.352 1295.93 505.388C1298.18 507.976 1301.94 504.2 1299.69 501.63C1277.18 475.979 1265.87 439.587 1273.26 405.906C1277.83 385.006 1290.17 366.907 1303.25 350.404C1315.48 335.135 1329.04 320.975 1343.76 308.09C1387.24 269.429 1433.56 234.117 1476.71 195.119C1493.08 180.317 1509.39 165.178 1522.9 147.647C1542.06 122.829 1557.29 95.034 1570.23 66.4942C1577.85 49.6716 1584.07 32.1045 1586.86 13.7929C1588.86 -1.05901 1589.25 -16.0847 1588.01 -31.0201C1586.63 -51.8134 1584.34 -72.589 1582.02 -93.2937C1580.09 -112.911 1576.68 -132.354 1571.81 -151.455C1562.97 -183.983 1549.58 -215.095 1532.01 -243.864C1526.11 -253.56 1519.6 -262.867 1513.2 -272.226C1502 -288.677 1491.08 -305.304 1480.43 -322.109C1476.09 -328.975 1471.79 -335.853 1467.52 -342.743C1465.75 -345.65 1461.12 -342.991 1462.93 -340.066V-340.084Z" fill="#C5E8F0"/>
<path d="M1223.98 641.37C1228.8 612.299 1245.75 578.937 1268.44 543.874C1279.55 526.661 1293.65 505.177 1318.3 483.16C1334.88 468.358 1366.17 441.113 1413.71 429.98C1463.78 418.316 1504.84 430.884 1537.31 440.811C1551.09 445.03 1598.33 459.495 1631.63 487.432C1740.4 578.742 1715.5 826.88 1615.36 897.254C1580.37 921.859 1534.05 935.207 1534.05 935.207C1514.8 940.72 1484.83 949.069 1445.15 946.038C1412.4 943.491 1380.59 933.875 1351.91 917.853C1317.24 898.353 1296.96 875.043 1283.61 859.355C1263.41 835.827 1247.28 809.079 1235.91 780.223C1226.34 754.867 1220.85 728.151 1219.66 701.074C1219.66 701.074 1217.94 677.869 1223.98 641.37Z" fill="#1C1E4C"/>
<path d="M1254.38 656.241C1258.96 630.449 1263.34 604.444 1275.76 581.009C1288.99 556.05 1310.88 536.409 1332.27 518.505C1349.57 504.005 1371.27 494.734 1392.54 487.537C1407.42 482.313 1422.74 478.457 1438.31 476.014C1453.27 473.906 1468.43 473.691 1483.44 475.376C1496.48 476.905 1509.39 479.406 1522.05 482.857C1530.52 484.795 1538.82 487.421 1546.87 490.71C1568.5 500.72 1589.25 512.526 1608.91 526.003C1618.62 532.251 1627.83 539.251 1636.46 546.938C1643.47 553.422 1649.81 560.596 1655.39 568.352C1666.63 584.251 1675.15 601.912 1680.59 620.61C1686.29 640.022 1689.44 660.091 1689.95 680.314C1690.58 700.906 1688.89 721.503 1684.92 741.719C1681.11 761.452 1675.03 780.678 1666.8 799.011C1659.21 816.153 1649.18 832.107 1637.02 846.377C1631.28 853.012 1624.94 859.112 1618.09 864.6C1609.11 871.495 1599.44 877.436 1589.23 882.326C1572.17 890.852 1554.32 897.72 1535.95 902.836C1515.14 908.914 1493.61 912.228 1471.94 912.692C1443.78 912.924 1415.85 907.711 1389.67 897.341C1367.49 888.587 1347.02 875.985 1329.22 860.115C1310.51 843.462 1294.27 824.231 1280.97 803C1275.94 794.96 1271.44 786.599 1267.5 777.97C1267.02 776.906 1266.3 775.222 1265.99 774.531C1265.53 773.432 1264.61 771.145 1264.06 769.709C1261.21 762.37 1258.78 754.87 1256.79 747.249C1252.2 729.967 1250.04 712.126 1250.4 694.247C1250.77 681.496 1252.1 668.791 1254.38 656.241C1254.97 652.908 1249.85 651.455 1249.24 654.841C1245.65 673.521 1244.39 692.575 1245.5 711.566C1247.23 735.453 1253.14 758.851 1262.95 780.7C1273.5 803.429 1287.55 824.364 1304.58 842.743C1321.07 860.789 1339.17 876.849 1360.48 889.027C1380.65 900.507 1402.52 908.71 1425.26 913.33C1454.39 919.247 1484.39 919.326 1513.54 913.561C1528.48 910.608 1543.18 906.531 1557.5 901.365C1580.26 893.228 1603.29 883.142 1622.27 867.932C1636.48 856.234 1648.61 842.223 1658.15 826.488C1668.66 809.384 1676.94 791.013 1682.81 771.819C1689.02 751.813 1692.98 731.175 1694.6 710.289C1696.31 689.352 1695.52 668.285 1692.22 647.537C1689.12 627.391 1683.05 607.816 1674.21 589.447C1665.67 571.682 1653.85 555.695 1639.36 542.33C1630.3 534.372 1620.65 527.108 1610.5 520.597C1599.23 513.098 1587.6 506.079 1575.76 499.484C1566.68 494.432 1557.47 489.504 1547.93 485.303C1539.26 481.865 1530.34 479.12 1521.23 477.096C1493.05 469.845 1464.16 466.46 1435.21 471.051C1419.47 473.653 1404 477.67 1388.98 483.052C1376.55 487.308 1364.46 492.499 1352.82 498.58C1343.8 503.3 1335.31 508.975 1327.5 515.509C1315.62 525.319 1304.37 535.87 1293.82 547.098C1284.69 556.731 1276.88 567.546 1270.62 579.254C1264.12 592.148 1259.2 605.785 1256 619.866C1253.21 631.406 1251.33 643.123 1249.24 654.823C1248.66 658.173 1253.78 659.609 1254.38 656.241Z" fill="#C5E8F0"/>
<path d="M1620.64 597.85C1604.69 572.835 1583.23 551.801 1557.9 536.355C1532.58 520.91 1504.05 511.463 1474.51 508.738C1458.05 507.298 1441.47 507.995 1425.19 510.812C1402.33 514.882 1380.32 522.806 1360.1 534.246C1342.18 543.841 1326.25 556.771 1313.18 572.341C1297.68 591.571 1287.12 614.302 1282.43 638.55C1278.77 655.762 1277.13 673.341 1277.53 690.932C1278.96 736.017 1295 779.418 1323.23 814.593C1337.02 831.756 1353.41 846.656 1371.8 858.75C1381.08 864.898 1390.89 870.201 1401.12 874.598C1416.91 881.503 1433.55 886.273 1450.6 888.779C1474.68 892.193 1499.21 890.434 1522.56 883.621C1541.26 877.987 1558.9 869.309 1574.77 857.935C1587.55 848.821 1599.25 838.276 1609.64 826.505C1616.08 819.322 1621.96 811.66 1627.24 803.585C1636.67 788.616 1643.61 772.211 1647.78 755.014C1653.39 732.144 1654.69 708.427 1651.59 685.082C1648.82 663.495 1642.84 642.442 1633.87 622.614C1630.04 614.084 1625.61 605.832 1620.63 597.92C1618.85 595.049 1614.19 597.708 1616.04 600.615C1638.55 636.344 1649.58 678.117 1647.62 720.305C1645.85 752.514 1635.41 784.493 1615.98 810.392C1598.12 834.371 1575.01 853.949 1548.43 867.631C1529.33 877.286 1508.53 883.098 1487.2 884.737C1465.13 886.277 1442.97 883.588 1421.91 876.814C1395.93 868.498 1371.97 854.84 1351.58 836.716C1319.62 808.464 1297.31 770.919 1287.76 729.346C1282.77 707.354 1281.5 684.68 1284 662.268C1286.08 643.939 1289.87 625.415 1297.28 608.468C1307.03 586.287 1322.32 566.989 1341.69 552.434C1357.23 540.892 1374.37 531.661 1392.56 525.029C1430.46 511.075 1471.86 509.708 1510.6 521.129C1542.65 530.75 1571.6 548.646 1594.53 573.015C1602.54 581.495 1609.73 590.713 1616 600.544C1617.88 603.416 1622.49 600.757 1620.64 597.85Z" fill="#C5E8F0"/>
<path d="M1399.03 571.384C1377.3 584.413 1359.68 603.912 1347.29 625.875C1330.56 655.473 1325.67 690.312 1333.6 723.372C1340.08 749.527 1353.36 773.501 1372.1 792.86C1388.06 809.293 1408.96 820.975 1430.71 827.924C1445.03 832.689 1459.94 835.463 1475.02 836.166C1493.68 836.794 1512.21 832.755 1528.91 824.414C1552.31 812.679 1569.47 793.073 1583.38 771.376C1590.11 761.238 1595.74 750.411 1600.17 739.078C1606.63 721.859 1609.27 703.441 1607.92 685.1C1606.06 660.46 1596.59 636.582 1583.63 615.665C1566.36 587.333 1539.21 566.409 1507.41 556.937C1480.39 549.188 1451.64 549.968 1425.09 559.17C1415.99 562.329 1407.23 566.403 1398.96 571.331C1398.35 571.688 1397.91 572.272 1397.73 572.956C1397.55 573.639 1397.65 574.365 1398.01 574.973C1398.37 575.582 1398.95 576.024 1399.64 576.202C1400.32 576.38 1401.04 576.279 1401.65 575.922C1425.89 561.419 1454.1 554.983 1482.22 557.539C1499.11 559.155 1515.5 564.134 1530.44 572.184C1545.37 580.233 1558.55 591.19 1569.18 604.408C1575.91 612.872 1581.69 622.037 1586.45 631.743C1591.43 641.339 1595.46 651.403 1598.47 661.79C1603.29 679.097 1604.23 697.257 1601.22 714.969C1598.59 729.611 1593.49 743.698 1586.13 756.627C1575.5 775.719 1562.29 794.172 1545.02 807.857C1532.07 818.156 1516.9 825.299 1500.71 828.721C1484.28 831.887 1467.37 831.561 1451.07 827.764C1426.47 822.446 1402.42 812.625 1383.2 795.98C1366.27 780.951 1353.16 762.117 1344.93 741.028C1332.33 710.113 1332.09 675.54 1344.26 644.453C1354.36 619.293 1371.34 597.489 1393.27 581.541C1396.03 579.544 1398.88 577.665 1401.8 575.904C1402.33 575.51 1402.7 574.928 1402.83 574.274C1402.96 573.62 1402.84 572.942 1402.49 572.373C1402.14 571.805 1401.59 571.388 1400.95 571.204C1400.31 571.021 1399.63 571.085 1399.03 571.384V571.384Z" fill="#C5E8F0"/>
<path d="M1382.46 630.503C1370.92 646.366 1364.24 665.232 1363.2 684.817C1361.88 709.085 1368.66 734.842 1383.45 754.323C1391.73 765.24 1402.3 774.212 1414.42 780.612C1423.02 784.931 1431.99 788.49 1441.22 791.248C1462.99 798.232 1486.08 800.111 1507.96 792.435C1526.99 785.686 1543.65 773.547 1555.91 757.496C1570.21 739.163 1577.46 716.305 1576.35 693.078C1575.02 671.238 1565.71 650.924 1551.87 634.172C1538.99 618.363 1522.32 606.064 1503.42 598.417C1483.76 590.6 1462.01 587.781 1441.22 592.302C1424.27 596.186 1408.59 604.324 1395.66 615.949C1390.79 620.363 1386.36 625.25 1382.46 630.538C1380.4 633.268 1385.03 635.856 1387.05 633.215C1399.45 616.902 1416.71 604.952 1436.34 599.091C1454.64 593.56 1473.87 594.713 1492.04 600.119C1511.07 605.835 1528.26 616.461 1541.89 630.928C1554.14 643.349 1563.16 658.592 1568.14 675.316C1571.23 686.906 1571.96 699 1570.28 710.878C1568.59 722.755 1564.54 734.172 1558.35 744.45C1548.69 760.741 1534.59 773.938 1517.69 782.491C1498.9 791.85 1477.47 794.466 1456.98 789.901C1448.08 787.882 1439.33 785.228 1430.81 781.959C1420.36 778.27 1410.61 772.84 1401.97 765.899C1383.09 750.317 1372.05 727.272 1369.2 703.182C1366.51 681.568 1371.01 659.671 1382.01 640.873C1383.59 638.198 1385.3 635.607 1387.14 633.108C1389.1 630.361 1384.48 627.702 1382.46 630.503Z" fill="#C5E8F0"/>
<path d="M1413.1 669.502C1409.75 674.979 1404.35 683.842 1403.66 696.588C1402.66 714.793 1412.02 727.84 1414.98 731.864C1422.69 742.16 1433.5 749.7 1445.83 753.366C1460.23 757.491 1475.63 756.373 1489.29 750.211C1495.25 747.605 1514 739.433 1522.07 718.711C1531.3 694.939 1519.21 673.277 1515.76 667.676C1508.01 655.013 1495.94 645.586 1481.78 641.139C1468.72 637.215 1454.71 637.885 1442.09 643.036C1425.18 650.197 1416.99 663.209 1413.1 669.502Z" fill="#F3F8F7"/>
<path d="M1615.82 434.765C1583.79 400.73 1560.02 386.495 1560.02 386.495C1541.79 375.578 1522.72 366.141 1502.98 358.274C1497.22 359.697 1492 362.743 1487.93 367.049C1481.67 373.838 1477.19 385.254 1481.03 394.011C1482.8 398 1485.57 399.826 1502.3 407.803C1522.01 417.18 1531.99 421.895 1537.4 422.853C1554.01 425.795 1556.23 419.928 1568.74 424.111C1577.39 427.001 1580.17 431.078 1595.7 443.611C1605.95 451.836 1614.62 457.987 1620.15 461.798C1622.34 458.22 1623.43 454.078 1623.29 449.886C1622.93 442.6 1618.27 437.371 1615.82 434.765Z" fill="#0989CA"/>
<path d="M1155.9 1133.77C1166.91 1081.4 1168.75 1027.5 1161.32 974.498C1153.71 917.139 1128.94 864.604 1087.3 824.166C1018.47 757.29 921.355 726.916 826.584 734.008C775.202 737.568 724.644 748.809 676.593 767.354C651.747 777.131 627.683 788.629 603.749 800.388C577.009 813.193 551.204 827.864 526.524 844.293C491.301 868.176 460.12 896.881 427.165 923.631C396.974 948.139 366.557 972.308 335.914 996.138C305.201 1019.97 273.055 1041.82 238.197 1059.18C186.972 1084.97 131.013 1100 73.7622 1103.35C62.1168 1103.97 50.454 1104.11 38.7739 1103.76C33.742 1103.61 33.742 1111.43 38.7739 1111.59C93.731 1113.16 148.463 1103.94 199.871 1084.45C241.401 1068.36 280.623 1046.86 316.516 1020.49C344.231 1000.39 371.058 978.905 397.782 957.473C414.677 943.916 431.675 930.41 448.283 916.514C462.023 905.016 475.346 893.049 489.268 881.785C509.174 865.552 530.129 850.65 551.997 837.176C576.749 822.535 602.247 809.194 628.387 797.207C652.229 785.519 676.755 775.28 701.831 766.546C729.048 757.443 757.033 750.82 785.443 746.757C836.257 739.3 887.384 738.127 937.598 750.694C979.993 761.247 1019.83 780.241 1054.71 806.541C1097.55 838.896 1130.32 882.75 1145.34 934.686C1152.43 959.272 1155.27 984.64 1156.89 1010.11C1158.67 1035.21 1158.36 1060.42 1155.95 1085.46C1154.31 1101.01 1151.8 1116.45 1148.44 1131.71C1147.37 1136.62 1154.91 1138.7 1156 1133.77H1155.9Z" fill="#CDEBF2"/>
<path d="M196.951 1130.93C228.184 1118.83 258.335 1104.1 287.081 1086.9C321.339 1066.04 353.877 1042.18 386.441 1018.77C424.227 991.568 461.136 963.254 497.167 933.827C519.719 915.342 540.994 895.266 563.807 877.12C599.186 848.961 640.458 827.582 682.903 812.46C720.159 799.111 758.667 791.446 797.618 785.084C824.446 780.678 851.587 777.471 878.832 779.557C898.553 781.218 917.993 785.308 936.711 791.733C976.989 805.125 1013.09 828.764 1041.47 860.329C1073.59 896.413 1093.09 942.561 1101.43 989.856C1108.78 1031.57 1106.18 1074.12 1096.92 1115.19C1094.5 1125.93 1091.53 1136.54 1088.08 1146.99C1086.49 1151.79 1094.05 1153.85 1095.62 1149.08C1108.54 1110.46 1114.54 1069.86 1113.35 1029.15C1111.85 981.795 1098.89 935.513 1075.57 894.275C1050.19 850.901 1012.16 816.329 966.563 795.2C930.153 777.975 890.147 769.723 849.892 771.136C823.169 772.231 796.706 777.054 770.426 781.565C754.026 784.432 737.706 787.796 721.593 791.993C670.792 805.056 622.59 826.685 579.059 855.949C558.436 869.95 540.186 886.662 521.336 902.879C487.078 932.471 451.516 960.759 415.172 987.77C377.837 1015.49 340.033 1042.81 301.134 1068.28C276.592 1084.3 250.862 1098.42 224.17 1110.52C214.471 1114.95 204.668 1119.13 194.761 1123.06C190.12 1124.88 192.154 1132.47 196.821 1130.59L196.951 1130.93Z" fill="#CDEBF2"/>
<path d="M1053.77 1134.61C1065.8 1070.88 1057.87 1005 1031.07 945.949C1015.42 911.899 992.427 880.768 959.655 861.605C929.464 843.876 894.293 836.837 859.617 835.403C829.504 834.177 799.339 837.202 769.487 841.191C729.288 846.788 690.118 858.205 653.207 875.085C585.29 905.746 523.083 948.087 465.699 995.278C443.955 1013.19 423.385 1032.4 401.719 1050.39C368.239 1077.98 331.562 1101.44 292.478 1120.27C285.361 1123.74 278.139 1127.05 270.891 1130.2C266.276 1132.21 270.265 1138.96 274.828 1136.95C312.285 1120.71 347.858 1100.43 380.914 1076.47C406.777 1057.59 430.085 1035.74 454.384 1014.96C508.144 968.945 565.997 928.22 628.882 895.604C661.215 878.438 695.505 865.245 731.005 856.313C763.298 848.806 796.241 844.44 829.374 843.276C862.485 841.895 896.274 844.293 927.743 855.4C944.67 861.234 960.44 869.997 974.333 881.29C988.94 893.677 1001.35 908.442 1011.04 924.961C1043.87 979.087 1056.17 1045.13 1049.81 1107.7C1048.98 1116.04 1047.75 1124.36 1046.21 1132.63C1045.33 1137.55 1052.86 1139.67 1053.77 1134.71V1134.61Z" fill="#CDEBF2"/>
<path d="M370.355 1139.54C397.733 1118.31 423.849 1095.5 448.57 1071.23C466.507 1053.52 483.741 1035.25 504.155 1020.33C520.345 1008.47 537.892 998.276 554.995 987.847C577.025 974.368 599.317 961.149 621.452 948.009C641.553 936.094 661.55 923.397 683.32 914.741C698.772 908.753 714.78 904.316 731.11 901.496C749.699 898.133 768.496 895.369 787.294 893.361C804.138 891.281 821.159 891.036 838.056 892.631C850.96 894.194 863.655 897.167 875.912 901.496C904.317 911.631 930.33 927.508 952.328 948.139C976.627 970.483 995.66 997.677 1005.59 1029.33C1010.96 1046.98 1013.87 1065.29 1014.25 1083.74C1014.78 1100.55 1014.21 1117.38 1012.53 1134.11C1011.75 1141.7 1010.65 1149.24 1009.3 1156.74C1008.41 1161.67 1015.94 1163.78 1016.83 1158.83C1019.88 1141.76 1021.62 1124.49 1022.04 1107.15C1022.75 1090.49 1022.04 1073.79 1019.91 1057.25C1014.58 1019.76 997.988 984.772 972.325 956.926C950.898 933.415 924.964 914.45 896.066 901.157C871.989 890.127 845.869 884.265 819.388 883.949C800.669 884.156 781.992 885.777 763.517 888.799C745.631 891.406 727.668 893.857 710.122 898.159C693.084 902.392 676.587 908.559 660.95 916.54C651.512 921.337 642.413 926.786 633.288 932.183C612.431 944.35 591.634 956.726 570.899 969.31C550.354 981.694 529.757 994.053 509.76 1007.27C491.166 1019.97 473.913 1034.54 458.269 1050.73C433.781 1075.62 407.995 1099.2 381.018 1121.36C375.699 1125.69 370.329 1129.97 364.906 1134.19C360.943 1137.27 366.522 1142.77 370.433 1139.72L370.355 1139.54Z" fill="#CDEBF2"/>
<g clip-path="url(#clip0)">
<path d="M539.847 1000.9C549.648 1007.33 563.803 1003.06 571.47 991.368C574.587 986.613 576.072 981.381 576.175 976.396C576.469 974.209 576.168 971.358 575.121 968.34L551.7 900.827L627.678 857.253L640.045 892.902C644.408 905.478 635.789 911.707 632.606 913.53L631.777 914L631.413 914.176L631.474 914.176C627.698 916.305 624.228 919.402 621.558 923.465C613.892 935.153 615.616 949.839 625.417 956.267C635.218 962.695 649.376 958.431 657.043 946.743C660.92 940.823 662.378 934.143 661.616 928.153C661.552 926.656 661.324 925.065 660.738 923.376L630.319 835.689L629.63 834.197L629.489 833.295L626.355 824.26C624.625 819.273 619.6 817.859 615.142 821.115L539.164 864.689C534.704 867.937 532.49 874.626 534.22 879.613L537.354 888.647L537.542 888.957L537.739 889.759L554.331 937.586C558.7 950.18 550.051 956.409 546.873 958.22L546.387 958.51L545.69 958.864L545.805 958.874C542.072 961.009 538.631 964.075 535.989 968.099C528.322 979.787 530.055 994.47 539.847 1000.9Z" fill="#010002"/>
</g>
<g clip-path="url(#clip1)">
<path d="M1320.81 262.334C1326.4 265.996 1334.46 263.561 1338.83 256.903C1340.61 254.194 1341.45 251.214 1341.51 248.374C1341.68 247.128 1341.51 245.504 1340.91 243.785L1327.57 205.324L1370.85 180.501L1377.89 200.81C1380.38 207.974 1375.47 211.522 1373.66 212.561L1373.18 212.828L1372.98 212.929L1373.01 212.929C1370.86 214.142 1368.88 215.906 1367.36 218.221C1363 224.879 1363.98 233.245 1369.56 236.907C1375.14 240.569 1383.21 238.14 1387.58 231.482C1389.79 228.109 1390.62 224.304 1390.18 220.891C1390.15 220.039 1390.02 219.132 1389.68 218.17L1372.35 168.217L1371.96 167.367L1371.88 166.853L1370.1 161.706C1369.11 158.866 1366.25 158.06 1363.71 159.915L1320.43 184.738C1317.88 186.588 1316.62 190.398 1317.61 193.239L1319.39 198.386L1319.5 198.562L1319.61 199.019L1329.07 226.265C1331.55 233.44 1326.63 236.988 1324.82 238.02L1324.54 238.185L1324.14 238.386L1324.21 238.392C1322.08 239.609 1320.12 241.355 1318.62 243.648C1314.25 250.306 1315.24 258.67 1320.81 262.334Z" fill="#010002"/>
</g>
<path d="M312.496 916.36C309.828 917.664 308.718 920.881 310.018 923.543L351.991 1009.47C346.745 1009 341.023 1009.93 335.561 1012.6C322.242 1019.11 315.623 1033.05 320.819 1043.69C326.015 1054.33 341.085 1057.68 354.405 1051.18C367.724 1044.67 374.343 1030.72 369.147 1020.09L319.684 918.822C318.384 916.16 315.163 915.057 312.496 916.36Z" fill="black"/>
<path d="M1243.68 296.719C1241.73 297.668 1240.92 300.011 1241.87 301.95L1272.44 364.527C1268.62 364.184 1264.45 364.863 1260.47 366.805C1250.77 371.543 1245.95 381.701 1249.74 389.448C1253.52 397.194 1264.5 399.636 1274.2 394.898C1283.9 390.161 1288.72 380.003 1284.93 372.256L1248.91 298.512C1247.96 296.573 1245.62 295.77 1243.68 296.719Z" fill="black"/>
<path d="M37.329 913L27.0014 -14.3318L379.497 -18.2575C393.299 -3.72279 412.361 6.242 425.58 22.577C452.594 56.0222 452.675 117.492 436.263 162.113C419.851 206.734 390.94 238.991 363.935 271.741C337.264 304.132 311.398 338.717 292.092 380.191C288.068 388.85 284.196 398.413 284.418 408.783C284.508 416.863 287.22 424.399 289.082 432.069C296.527 462.659 291.58 496.922 281.01 525.386C270.439 553.851 254.577 577.667 238.978 601.126C214.418 638.105 189.965 675.173 165.62 712.328L157.936 724.065C154.525 729.277 151.138 734.525 147.774 739.807C142.1 748.627 136.498 757.552 130.879 766.531C125.062 775.796 119.281 785.114 113.536 794.484C88.6219 834.76 63.6928 875.302 37.329 913Z" fill="#F5A1A5"/>
<path d="M36.276 818.558L27.0002 -14.3316L265.928 -16.9925C265.606 -6.90338 264.495 3.14508 262.604 13.0607C253.791 59.0001 229.917 95.4275 211.05 134.818C197.704 162.87 188.112 205.887 207.294 226.596C219.069 239.342 236.221 235.687 249.276 226.129C276.158 206.292 292.15 167.04 312.093 134.848C325.037 113.781 342.587 94.9009 361.146 88.389C381.651 81.1983 401.523 104.883 399.563 134.566C398.036 156.944 389.851 179.592 378.199 195.405C358.375 222.267 331.345 235.267 306.377 251.619C270.742 274.892 237.354 307.074 213.635 351.066C203.612 369.685 195.102 393.313 199.934 415.798C203.25 431.266 215.942 441.764 226.459 440.368C237.597 438.965 246.711 453.534 244.788 469.043C243.17 482.756 238.312 495.888 230.615 507.352C216.47 527.42 196.922 537.654 179.478 551.773C154.835 571.763 134.346 599.449 116.74 630.994C111.308 640.752 106.127 650.862 101.199 661.236C96.9641 670.117 92.9204 679.149 89.0679 688.333C85.1553 697.434 81.3863 706.677 77.742 715.953C74.4246 724.278 71.2083 732.638 68.093 741.032C58.4145 766.663 48.0767 793.704 36.276 818.558Z" fill="#005065"/>
<g clip-path="url(#clip2)">
<path d="M230.026 842.116L178.763 916.207L159.784 917.226C154.747 916.283 149.633 915.035 144.367 913.787C137.244 912.055 130.146 909.992 123.455 907.726C123.938 908.77 124.447 909.865 124.956 910.935C125.872 912.794 127.016 915.443 128.492 918.958L79.5188 908.566L84.1999 860.276L145.741 785.064L187.82 728.471L199.649 760.435L230.026 842.116Z" fill="#F68D68"/>
<path d="M162.761 756.231L197.971 765.018L204.458 810.227L128.619 900.797L81.6052 887.349L162.761 756.231Z" fill="#F27E34"/>
<path d="M199.217 901.127C190.949 905.38 189.88 916.765 197.207 922.496C201.151 925.552 205.196 928.71 208.579 931.308C218.526 938.975 225.955 944.603 228.881 946.819C283.018 987.927 287.013 994.218 299.224 993.963C316.117 993.607 329.6 981.127 339.802 971.627C342.066 969.538 352.828 959.35 360.765 942.464C368.423 926.24 370.102 910.984 369.975 899.751C369.924 894.861 367.074 890.43 362.673 888.367C334.409 875.046 306.144 861.751 277.879 848.43C272.919 846.087 267.042 847.208 263.251 851.206C254.067 860.859 243.153 871.022 230.229 881.057C225.472 884.75 220.74 888.188 216.135 891.372C212.115 894.123 207.943 896.644 203.567 898.886L199.217 901.127Z" fill="#853C1C"/>
<path d="M165.229 1017.22C158.131 1024.68 134.827 1011.79 133.58 1011.54C118.647 991.57 95.4194 958.256 78.2725 921.707C71.3526 906.96 65.3995 891.653 61.4053 876.549C59.1157 867.89 57.6401 859.918 57.1313 850.774C54.8925 811.551 72.1413 780.198 83.7676 763.031C88.6777 762.267 92.0613 763.133 94.0711 763.923C94.1474 763.948 94.1728 763.948 94.2492 763.999C118.011 773.474 97.938 827.673 115.696 887.017C116.001 888.112 116.357 889.233 116.713 890.328C118.57 896.11 120.784 901.942 123.506 907.75V907.775C123.989 908.819 124.498 909.914 125.007 910.984C125.923 912.843 127.068 915.492 128.543 919.007C132.588 928.584 140.729 939.001 150.804 964.521C157.062 980.44 171.792 1010.32 165.229 1017.22Z" fill="#F4753E"/>
<path d="M292.584 1027.1V1067.24C280.398 1081.94 267.78 1090.11 259.511 1094.49C249.03 1100.12 239.032 1105.27 228.143 1101.96C226.591 1101.5 215.601 1097.98 212.853 1088.74C211.556 1084.38 212.497 1080.36 213.616 1077C213.769 1076.51 213.896 1076 214.074 1075.52C215.753 1070.42 218.476 1066.3 223.564 1060.59C230.814 1052.57 236.666 1048.29 240.126 1045.29C246.308 1039.96 254.067 1030.97 259.842 1014.95C270.756 1019.03 281.645 1023.08 292.584 1027.1Z" fill="#C7D4CA"/>
<path d="M169.452 1046.99C130.477 1045.21 91.5524 1043.4 52.5773 1041.62L51.6869 1030.54L51 1021.7C51.4834 1020.43 52.4756 1018.49 54.3327 1016.89C55.7828 1015.67 58.1997 1014.21 66.3153 1013.55C71.1744 1013.12 72.1157 1013.53 75.4484 1013.3C79.29 1013.04 85.7773 1012.63 90.7637 1009.22C97.6581 1004.51 95.4702 998.346 103.382 991.978C106.257 989.661 108.75 987.547 112.032 987.445C125.388 986.986 133.3 1016.23 144.672 1014.75C149.277 1014.11 150.397 1009.04 158.716 1007.29C162.761 1006.45 166.271 1006.83 168.612 1007.29C168.816 1016.91 169.045 1026.57 169.197 1036.19C169.299 1039.78 169.375 1043.38 169.452 1046.99Z" fill="#C7D4CA"/>
<path d="M169.452 1046.99C130.477 1045.21 91.5525 1043.4 52.5774 1041.62L51.687 1030.54L169.223 1036.19C169.299 1039.78 169.375 1043.38 169.452 1046.99Z" fill="#E38325"/>
<path d="M272.715 446.215C271.799 454.034 270.985 465.19 271.647 478.511C273.733 520.892 288.387 535.537 280.78 546.362C268.263 564.19 206.875 555.225 195.808 528.049C193.137 521.478 194.689 517.021 203.339 468.832C205.45 457.091 207.129 447.489 208.172 441.376L272.715 446.215Z" fill="#E56D42"/>
<path d="M292.584 1053.82V1067.27C280.398 1081.96 267.78 1090.14 259.511 1094.52C249.03 1100.15 239.032 1105.29 228.143 1101.98C226.591 1101.52 215.601 1098.01 212.853 1088.76C211.556 1084.41 212.497 1080.38 213.616 1077.02C214.939 1079.44 216.72 1082.29 219.239 1085.5C223.182 1090.42 225.523 1093.42 229.084 1094.93C236.437 1097.98 245.646 1093.3 257.959 1084.43C267.169 1077.76 279.355 1067.93 292.584 1053.82Z" fill="#E38325"/>
<path d="M205.476 471.049C203.796 468.12 203.288 465.089 203.262 462.465C203.237 458.034 201.354 453.882 198.098 450.902C195.605 448.635 192.959 445.528 190.949 441.428C190.058 439.619 185.301 429.89 188.786 419.88C190.135 416.034 191.559 415.423 193.62 411.806C199.548 401.415 195.274 393.366 196.851 383.28C199.421 366.827 215.703 356.665 220.511 353.659C224.531 351.163 239.261 342.657 258.697 345.586C264.752 346.528 280.729 348.947 289.379 361.224C293.983 367.77 297.672 379.486 297.367 391.074C297.087 401.491 293.042 412.188 293.144 412.367C294.187 414.048 299.199 410.533 302.277 412.367C306.169 414.684 306.678 425.331 301.743 432.284C296.985 438.957 292.05 435.391 283.985 443.592C282.484 445.121 279.253 449.17 272.766 457.321C270.705 459.918 270.934 459.638 269.993 460.81C264.574 467.508 261.394 471.405 257.629 474.258C252.922 477.824 248.394 478.97 243.636 480.192C238.879 481.389 228.423 484.038 217.28 479.657C213.184 478.053 208.401 476.168 205.476 471.049Z" fill="#F4753E"/>
<path d="M250.938 859.919C250.861 860.275 250.76 860.632 250.658 860.963C250.454 861.88 250.175 862.797 249.895 863.714C249.869 863.866 249.793 864.019 249.742 864.172C247.91 869.775 245.29 875.149 241.83 880.116C241.347 880.855 240.812 881.593 240.278 882.306C240.176 882.485 240.024 882.612 239.922 882.765C236.589 887.12 232.671 891.628 228.219 896.06C226.896 897.384 225.548 898.709 224.225 899.957C223.462 900.721 222.648 901.459 221.859 902.198C221.045 902.937 220.231 903.675 219.442 904.388C215.117 908.158 210.411 911.52 204.483 914.271C204.051 914.449 203.644 914.653 203.211 914.805C203.008 914.907 202.83 915.009 202.626 915.06C201.71 915.493 200.769 915.824 199.853 916.155C199.548 916.308 199.268 916.41 198.937 916.461C189.422 919.696 179.882 920.001 170.113 918.881C168.536 918.702 166.958 918.448 165.381 918.218C163.524 917.938 161.667 917.582 159.784 917.225C154.747 916.283 149.633 915.035 144.367 913.787C137.244 912.055 130.146 909.992 123.455 907.725V907.699C100.94 900.11 83.1823 890.558 84.2762 886.967C84.3017 886.789 84.4289 886.662 84.5561 886.509C86.6677 884.599 98.7519 889.438 115.645 886.967C117.4 886.713 119.257 886.381 121.114 885.948C126.38 884.726 131.265 882.892 135.794 880.676C135.895 880.651 135.972 880.574 136.073 880.523C136.989 880.065 137.854 879.607 138.745 879.123C139.05 878.97 139.33 878.817 139.635 878.639C140.627 878.078 141.594 877.518 142.561 876.881C146.504 874.462 150.142 871.685 153.526 868.756C154.365 868.018 155.179 867.279 155.993 866.515C156.426 866.159 156.833 865.777 157.215 865.395C157.978 864.656 158.766 863.917 159.504 863.153C164.185 858.416 168.23 853.475 171.741 848.916C172.453 847.973 173.115 847.056 173.776 846.165C174.718 844.866 175.608 843.593 176.473 842.395C177.058 841.504 177.669 840.664 178.228 839.874C178.585 839.39 178.89 838.932 179.221 838.473C180.849 836.155 182.426 833.863 183.927 831.622C184.563 830.679 185.199 829.712 185.759 828.82C186.573 827.623 187.311 826.426 187.998 825.229C188.481 824.389 189.015 823.497 189.448 822.631C191.101 819.702 192.552 816.722 193.798 813.513C194.231 812.418 194.612 811.297 194.968 810.176C195.452 808.725 195.884 807.222 196.291 805.719C196.495 804.701 196.749 803.682 196.953 802.612C197.131 801.772 197.258 800.931 197.411 800.04C198.352 793.978 198.428 788.324 198.123 783.255C198.021 781.294 197.843 779.409 197.64 777.652C197.563 777.066 197.487 776.429 197.436 775.869C197.258 774.468 197.055 773.169 196.876 771.921C195.833 764.968 194.867 760.46 196.902 759.568C197.64 759.263 198.53 759.492 199.7 760.485C202.855 762.905 208.299 770.24 219.62 784.325C220.18 785.038 220.74 785.726 221.299 786.388C223.309 788.884 225.141 791.1 226.769 793.137C240.762 810.304 243.255 812.596 246.893 820.211C246.969 820.39 247.045 820.517 247.147 820.695C248.724 824.108 249.971 827.623 250.836 831.189C251.141 832.36 251.396 833.481 251.599 834.627C251.752 835.289 251.854 835.952 251.955 836.588C252.057 837.251 252.159 837.938 252.235 838.601C253.1 845.732 252.668 852.94 250.938 859.919Z" fill="#904720"/>
<path d="M295.281 725.948C290.701 732.723 282.484 741.357 281.161 759.364C280.144 773.118 299.148 791.812 294.594 804.904C286.885 827.139 275.234 842.013 279.38 865.165C281.059 874.538 283.909 877.441 287.674 887.323C295.713 908.488 292.126 921.147 291.821 957.263C291.414 1005.02 295.917 1019.87 287.318 1024.4C283.425 1026.46 275.793 1026.95 259.842 1014.95C260.656 1002.19 260.58 982.605 254.678 959.912C249.259 938.976 244.196 935.894 238.345 913.48C233.613 895.27 232.824 880.446 231.476 851.564C229.924 818.785 229.161 802.408 231.476 793.086C241.576 752.436 303.905 713.188 295.281 725.948Z" fill="#F4753E"/>
<path d="M95.2666 723.147C76.9494 744.338 78.2977 752.564 79.9259 756.13C82.4954 761.784 90.2294 765.707 96.5641 764.612C103.738 763.389 106.333 756.283 111.243 750.578C124.142 735.576 151.872 731.527 169.63 738.174C188.252 745.127 206.417 767.668 212.37 775.079C215.524 779.002 220.613 785.751 228.347 786.515C234.605 787.127 236.36 783.204 246.613 781.294C248.928 780.861 257.196 779.486 267.169 781.956C271.799 783.102 279.126 784.885 285.105 790.769C292.991 798.512 293.195 807.986 294.899 807.757C297.265 807.426 296.629 789.215 296.197 772.813C295.586 748.566 294.976 745.458 295.535 733.615C296.044 723.045 296.731 721.95 296.095 717.06C296.095 717.06 294.111 701.6 280.856 686.904C261.877 665.866 213.667 656.57 170.927 668.617C133.224 679.238 112.846 702.822 95.2666 723.147Z" fill="#273D51"/>
<path d="M116.968 745.967C89.5426 762.013 68.147 792.118 63.2624 826.604C61.1 841.86 58.3269 861.548 71.149 876.422C84.658 892.086 106.104 891.526 108.267 891.449C125.287 890.736 136.557 880.752 148.539 870.106C154.34 864.961 168.917 851.054 180.137 826.629C187.769 809.997 202.016 783.535 192.832 761.529C191.534 758.422 190.084 756.18 189.677 755.518C177.415 736.696 152.228 735.703 149.964 735.652C135.616 735.244 125.185 741.153 116.968 745.967Z" fill="#FDCDA9"/>
<path d="M103.586 562.944C95.928 570.941 92.4172 578.633 85.7009 593.38C79.4171 607.134 78.8574 612.762 78.7302 615.513C78.5521 618.824 78.6284 625.293 83.3858 637.646C92.29 660.823 101.983 663.956 107.249 684.255C109.106 691.438 109.462 697.118 108.419 702.899C107.173 709.7 108.954 707.433 105.697 717.264C105.697 717.264 96.4877 733.03 100.456 739.117C100.813 739.652 101.627 740.874 102.873 741.002C104.527 741.154 104.68 740.721 105.316 738.888C105.901 737.207 106.639 735.449 106.893 732.673C106.944 732.062 107.376 730.559 108.241 727.579C108.928 725.185 109.132 724.599 109.59 723.81C109.717 723.58 111.345 720.855 112.261 721.135C113.177 721.39 113.05 724.421 112.795 729.184C112.159 741.766 111.752 747.547 114.398 749.33C114.678 749.509 117.018 750.018 118.239 748.948C119.537 747.828 119.715 745.102 119.766 744.236C119.893 741.486 119.054 741.435 118.952 737.258C118.875 734.481 119.232 733.488 118.952 730.279C118.748 727.987 118.672 727.325 118.672 727.325C118.367 724.523 118.214 724.115 118.392 723.3C118.774 721.721 120.224 719.938 121.343 720.066C123.506 720.346 125.134 727.859 124.574 731.349C123.887 735.806 124.981 740.365 125.566 744.975C125.643 745.51 125.592 746.86 126.431 747.471C127.5 748.235 129.611 747.675 130.298 746.478C130.807 745.586 130.298 744.516 130.298 744.109C130.426 738.429 130.247 735.78 130.527 731.425C130.654 729.489 131.24 724.192 132.308 721.95C133.707 718.996 136.506 720.117 137.015 720.601C138.897 722.307 139.381 722.307 143.146 734.685C143.273 735.118 144.392 739.703 145.766 740.951C146.682 741.791 149.379 742.097 150.269 740.238C151.389 737.92 148.692 736.417 148.158 730.992C147.878 728.165 148.514 727.681 147.903 724.879C147.496 722.995 147.115 722.715 146.275 719.76C145.944 718.588 145.461 716.806 145.156 714.513C145.054 713.851 144.927 712.73 144.901 708.401C144.85 702.033 145.105 701.524 145.461 701.116C147.038 699.257 154.212 703.587 155.179 705.981C155.663 707.178 159.199 711.024 160.038 707.407C160.751 704.453 159.377 693.832 158.792 693.374C140.347 678.168 132.384 665.663 129.866 643.835C129.561 641.085 129.764 639.786 129.103 635.481C127.144 622.594 123.048 619.716 123.607 613.093C124.116 607.286 127.805 603.441 133.275 597.735C143.833 586.707 150.753 588.286 153.831 581.868C158.944 571.196 148.31 549.063 133.046 546.465C121.318 544.402 111.421 554.768 103.586 562.944Z" fill="#F4753E"/>
<path d="M334.918 534.34C333.696 544.834 323.113 586.961 320.162 596.537C312.886 619.969 306.678 630.31 301.845 632.653C297.774 634.614 295.23 632.271 292.533 634.207C286.631 638.435 292.712 653.564 296.68 677.683C298.461 688.788 302.659 714.385 296.146 717.008C293.831 717.951 291.058 715.633 288.565 713.85C279.101 707.05 276.099 709.698 240.278 701.294C219.239 696.327 215.321 694.264 199.93 691.997C191.941 690.826 187.947 690.163 183.419 690.036C179.348 689.883 176.041 690.061 172.835 690.138C168.307 690.316 163.957 690.316 157.902 689.221C157.825 689.221 157.749 689.195 157.724 689.195C154.009 688.533 152.076 688.279 150.346 687.362C139.915 682.013 133.835 668.438 134.471 657.282C135.031 647.12 140.907 644.012 145.258 633.111C145.741 631.914 146.199 630.615 146.631 629.24C149.201 620.861 150.397 609.017 145.97 592.538C145.792 591.953 145.614 591.316 145.436 590.679C144.418 590.934 143.401 591.163 142.383 591.418C138.414 572.494 133.326 573.487 126.101 568.037C121.14 564.293 106.664 565.388 103.561 562.917C103.408 562.815 103.103 562.612 103.001 562.179C102.339 559.886 107.86 554.869 107.86 554.869C128.67 516.41 144.24 495.092 144.24 495.092C154.747 480.702 159.148 477.034 164.44 474.436C164.898 474.181 165.381 473.978 165.89 473.774C173.192 470.463 182.503 468.807 190.288 469.979C195.172 470.717 199.421 472.551 202.168 475.786C208.35 483.07 202.932 492.749 211.403 500.16C214.838 503.191 219.519 504.872 222.266 505.815C227.787 507.827 232.519 508.285 235.19 508.412C240.38 508.667 244.298 507.928 247.071 507.394C252.719 506.273 256.408 504.643 262.081 502.223C270.451 498.556 271.469 496.951 271.876 496.009C273.733 492.01 270.298 489.259 271.876 486.687C275.539 480.778 297.749 488.368 301.896 489.794C304.949 490.838 308.637 492.29 312.759 494.481C315.405 495.881 318.915 497.715 322.553 500.67C325.225 502.86 330.923 507.47 333.951 514.678C335.147 517.658 336.317 522.421 334.918 534.34Z" fill="#D51F26"/>
<path d="M172.861 690.138C177.923 706.591 183.749 718.078 182.63 721.822C181.46 725.617 181.917 739.803 178.661 739.727C175.913 739.651 164.541 711.456 157.749 689.17C156.706 685.732 155.739 682.421 154.95 679.39C149.964 660.364 147.674 642.943 146.657 629.215C145.843 618.619 145.766 610.291 145.817 605.095C145.817 601.86 145.843 597.607 145.995 592.538C146.428 578.072 147.827 556.906 152.788 533.474C157.978 509.049 161.005 510.475 163.015 492.57C163.905 484.98 164.033 478.46 165.89 473.774C173.191 470.463 182.503 468.807 190.287 469.979C187.718 477.823 184.182 489.081 180.238 502.809C174.616 522.37 171.767 532.354 170.011 543.204C168.434 553.188 168.052 563.681 167.34 584.643C166.907 596.614 166.5 609.679 166.78 627.203C167.06 642.79 165.864 660.313 168.79 674.372C169.909 680.026 171.334 685.324 172.861 690.138Z" fill="#A6CE39"/>
<path d="M255.492 595.442C259.995 596.869 265.795 599.059 272.155 602.447C279.787 606.522 283.68 608.636 286.682 613.22C287.394 614.315 292.686 622.593 289.913 630.438C287.852 636.296 283.604 635.43 274.318 643.351C270.578 646.534 265.006 653.564 253.889 667.572C251.65 670.399 250.047 672.437 248.165 674.857C240.583 684.611 235.088 691.641 229.669 699.333C223.36 708.273 220.231 712.755 218.374 716.55C212.039 729.642 210.64 742.733 210.309 749.381C209.622 763.236 212.446 771.845 208.147 774.137C206.137 775.232 203.033 774.646 201.685 773.067C199.395 770.342 203.415 766.012 202.753 757.454C202.651 756.206 202.219 751.545 202.219 751.52C196.291 765.732 193.595 768.203 193.595 768.203C191.992 771.31 188.074 771.87 187.438 770.673C186.013 767.948 186.649 767.107 187.667 762.294C188.023 760.613 188.252 759.008 188.735 755.824C189.371 751.647 189.677 749.533 189.27 749.355C187.692 748.667 180.722 765.91 174.743 764.968C174.082 764.866 171.792 763.414 172.835 760.281C174.769 754.398 181.205 745.051 181.205 745.051C180.544 744.363 171.181 752.742 162.684 756.181C159.784 757.352 158.614 754.882 160.598 751.545C162.328 748.667 166.907 745.178 168.815 742.376C171.41 738.581 172.708 736.671 173.649 734.303C176.931 726.025 177.109 718.435 174.362 718.053C171.894 717.722 166.17 723.784 162.837 723.452C160.929 723.274 158.105 721.364 158.385 718.944C158.944 714.182 170.24 713.137 180.111 704.681C182.782 702.389 181.459 702.873 188.71 694.977C196.139 686.904 197.869 686.038 201.074 682.064C206.926 674.806 209.088 667.852 210.207 664.847C213.794 655.525 224.683 636.576 255.492 595.442Z" fill="#F4753E"/>
</g>
<g clip-path="url(#clip3)">
<path d="M523.84 624C522.01 626.84 519.25 628.01 517.32 628.81C516.06 629.33 511.9 630.88 506.07 630.03C501.6 629.38 496.8 626.24 487.21 619.96C483.25 617.37 480.79 615.57 478.38 613.6C475.43 611.19 473.32 609.16 471.83 607.71C469.38 605.34 467.29 603.03 463.2 598.52C459.75 594.71 458.03 592.81 457.57 592.18C455.67 589.55 453.29 585.34 452 579C454.54 579.09 458.02 579.28 462.14 579.7C465.5 580.04 474.13 580.91 482.5 583.1C487.46 584.4 499.64 587.72 511.75 597.16C516.94 601.2 524.59 607.32 525.44 615.7C525.59 617.16 525.95 620.73 523.84 624Z" fill="#FEBD43"/>
<path d="M456.95 581.47C457.98 582.67 459.06 583.81 460.18 584.92C461.31 586.02 462.49 587.05 463.7 588.05C466.12 590.06 468.67 591.89 471.26 593.68L486.93 604.26L494.73 609.6C497.33 611.39 499.9 613.2 502.54 614.9C507.82 618.29 513.55 620.96 519.24 623.68C516.31 622.51 513.4 621.29 510.53 619.98C507.66 618.66 504.84 617.21 502.13 615.56C499.42 613.92 496.82 612.12 494.2 610.38L486.37 605.08C481.17 601.51 475.95 597.98 470.81 594.31C468.25 592.46 465.74 590.53 463.38 588.42C461.04 586.29 458.83 584 456.95 581.47Z" fill="#12192E"/>
<path d="M494.63 621.04C495.28 620.46 495.97 619.97 496.66 619.49C497.36 619.01 498.07 618.56 498.79 618.13C499.51 617.7 500.25 617.29 501 616.9C501.75 616.52 502.52 616.15 503.33 615.85C502.74 616.49 502.09 617.04 501.41 617.56C500.73 618.07 500.03 618.55 499.3 618.98C498.57 619.41 497.82 619.81 497.04 620.16C496.27 620.51 495.48 620.83 494.63 621.04Z" fill="#12192E"/>
<path d="M502.13 615.45C502.17 614.55 502.3 613.69 502.44 612.83C502.59 611.97 502.76 611.12 502.96 610.27C503.16 609.42 503.38 608.58 503.63 607.75C503.88 606.91 504.15 606.08 504.52 605.26C504.57 606.16 504.5 607.04 504.4 607.91C504.29 608.78 504.14 609.65 503.94 610.5C503.74 611.35 503.5 612.2 503.21 613.03C502.89 613.85 502.56 614.67 502.13 615.45Z" fill="#12192E"/>
<path d="M487.87 604.91C487.91 604.01 488.04 603.15 488.18 602.29C488.33 601.43 488.5 600.58 488.7 599.73C488.9 598.88 489.12 598.04 489.37 597.21C489.62 596.37 489.89 595.54 490.26 594.72C490.31 595.62 490.24 596.5 490.14 597.37C490.03 598.24 489.88 599.11 489.68 599.96C489.48 600.81 489.24 601.66 488.95 602.49C488.64 603.31 488.31 604.13 487.87 604.91Z" fill="#12192E"/>
<path d="M477.43 598.76C477.47 597.86 477.6 597 477.74 596.14C477.89 595.28 478.06 594.43 478.26 593.58C478.46 592.73 478.68 591.89 478.93 591.06C479.19 590.22 479.45 589.39 479.82 588.57C479.87 589.47 479.8 590.35 479.7 591.22C479.59 592.09 479.44 592.96 479.24 593.81C479.04 594.66 478.8 595.51 478.51 596.34C478.2 597.16 477.87 597.97 477.43 598.76Z" fill="#12192E"/>
<path d="M480.92 610.52C481.68 610.09 482.46 609.76 483.24 609.44C484.02 609.13 484.81 608.84 485.61 608.57C486.41 608.3 487.21 608.06 488.03 607.84C488.85 607.63 489.67 607.43 490.54 607.32C489.83 607.82 489.07 608.22 488.3 608.58C487.53 608.94 486.74 609.25 485.93 609.51C485.12 609.78 484.3 610 483.47 610.18C482.63 610.36 481.79 610.49 480.92 610.52Z" fill="#12192E"/>
<path d="M470.35 602.99C471.11 602.56 471.89 602.23 472.67 601.91C473.45 601.6 474.24 601.31 475.04 601.04C475.84 600.77 476.64 600.53 477.46 600.31C478.28 600.1 479.1 599.9 479.97 599.79C479.26 600.29 478.5 600.69 477.73 601.05C476.96 601.41 476.17 601.72 475.36 601.98C474.55 602.25 473.73 602.47 472.9 602.65C472.06 602.82 471.22 602.96 470.35 602.99Z" fill="#12192E"/>
</g>
<g clip-path="url(#clip4)">
<path d="M832.84 177C831.01 179.84 828.25 181.01 826.32 181.81C825.06 182.33 820.9 183.88 815.07 183.03C810.6 182.38 805.8 179.24 796.21 172.96C792.25 170.37 789.79 168.57 787.38 166.6C784.43 164.19 782.32 162.16 780.83 160.71C778.38 158.34 776.29 156.03 772.2 151.52C768.75 147.71 767.03 145.81 766.57 145.18C764.67 142.55 762.29 138.34 761 132C763.54 132.09 767.02 132.28 771.14 132.7C774.5 133.04 783.13 133.91 791.5 136.1C796.46 137.4 808.64 140.72 820.75 150.16C825.94 154.2 833.59 160.32 834.44 168.7C834.59 170.16 834.95 173.73 832.84 177Z" fill="#FEBD43"/>
<path d="M765.95 134.47C766.98 135.67 768.06 136.81 769.18 137.92C770.31 139.02 771.49 140.05 772.7 141.05C775.12 143.06 777.67 144.89 780.26 146.68L795.93 157.26L803.73 162.6C806.33 164.39 808.9 166.2 811.54 167.9C816.82 171.29 822.55 173.96 828.24 176.68C825.31 175.51 822.4 174.29 819.53 172.98C816.66 171.66 813.84 170.21 811.13 168.56C808.42 166.92 805.82 165.12 803.2 163.38L795.37 158.08C790.17 154.51 784.95 150.98 779.81 147.31C777.25 145.46 774.74 143.53 772.38 141.42C770.04 139.29 767.83 137 765.95 134.47Z" fill="#12192E"/>
<path d="M803.63 174.04C804.28 173.46 804.97 172.97 805.66 172.49C806.36 172.01 807.07 171.56 807.79 171.13C808.51 170.7 809.25 170.29 810 169.9C810.75 169.52 811.52 169.15 812.33 168.85C811.74 169.49 811.09 170.04 810.41 170.56C809.73 171.07 809.03 171.55 808.3 171.98C807.57 172.41 806.82 172.81 806.04 173.16C805.27 173.51 804.48 173.83 803.63 174.04Z" fill="#12192E"/>
<path d="M811.13 168.45C811.17 167.55 811.3 166.69 811.44 165.83C811.59 164.97 811.76 164.12 811.96 163.27C812.16 162.42 812.38 161.58 812.63 160.75C812.88 159.91 813.15 159.08 813.52 158.26C813.57 159.16 813.5 160.04 813.4 160.91C813.29 161.78 813.14 162.65 812.94 163.5C812.74 164.35 812.5 165.2 812.21 166.03C811.89 166.85 811.56 167.67 811.13 168.45Z" fill="#12192E"/>
<path d="M796.87 157.91C796.91 157.01 797.04 156.15 797.18 155.29C797.33 154.43 797.5 153.58 797.7 152.73C797.9 151.88 798.12 151.04 798.37 150.21C798.62 149.37 798.89 148.54 799.26 147.72C799.31 148.62 799.24 149.5 799.14 150.37C799.03 151.24 798.88 152.11 798.68 152.96C798.48 153.81 798.24 154.66 797.95 155.49C797.64 156.31 797.31 157.13 796.87 157.91Z" fill="#12192E"/>
<path d="M786.43 151.76C786.47 150.86 786.6 150 786.74 149.14C786.89 148.28 787.06 147.43 787.26 146.58C787.46 145.73 787.68 144.89 787.93 144.06C788.19 143.22 788.45 142.39 788.82 141.57C788.87 142.47 788.8 143.35 788.7 144.22C788.59 145.09 788.44 145.96 788.24 146.81C788.04 147.66 787.8 148.51 787.51 149.34C787.2 150.16 786.87 150.97 786.43 151.76Z" fill="#12192E"/>
<path d="M789.92 163.52C790.68 163.09 791.46 162.76 792.24 162.44C793.02 162.13 793.81 161.84 794.61 161.57C795.41 161.3 796.21 161.06 797.03 160.84C797.85 160.63 798.67 160.43 799.54 160.32C798.83 160.82 798.07 161.22 797.3 161.58C796.53 161.94 795.74 162.25 794.93 162.51C794.12 162.78 793.3 163 792.47 163.18C791.63 163.36 790.79 163.49 789.92 163.52Z" fill="#12192E"/>
<path d="M779.35 155.99C780.11 155.56 780.89 155.23 781.67 154.91C782.45 154.6 783.24 154.31 784.04 154.04C784.84 153.77 785.64 153.53 786.46 153.31C787.28 153.1 788.1 152.9 788.97 152.79C788.26 153.29 787.5 153.69 786.73 154.05C785.96 154.41 785.17 154.72 784.36 154.98C783.55 155.25 782.73 155.47 781.9 155.65C781.06 155.82 780.22 155.96 779.35 155.99Z" fill="#12192E"/>
</g>
<g clip-path="url(#clip5)">
<path d="M951.439 608.23C949.583 605.407 949.631 602.409 949.681 600.321C949.716 598.958 949.983 594.527 953.121 589.54C955.525 585.716 960.34 582.599 969.965 576.373C973.936 573.801 976.578 572.28 979.356 570.874C982.754 569.153 985.464 568.046 987.393 567.27C990.552 565.99 993.511 565.014 999.291 563.101C1004.17 561.489 1006.6 560.685 1007.37 560.52C1010.54 559.848 1015.35 559.376 1021.67 560.764C1020.56 563.05 1018.98 566.155 1016.93 569.752C1015.26 572.686 1010.97 580.225 1005.58 586.991C1002.38 591 994.411 600.793 980.876 608.043C975.08 611.153 966.387 615.67 958.38 613.054C956.984 612.6 953.574 611.483 951.439 608.23Z" fill="#FEBD43"/>
<path d="M1017.41 564.29C1015.9 564.746 1014.42 565.272 1012.95 565.846C1011.49 566.434 1010.07 567.096 1008.66 567.798C1005.84 569.196 1003.14 570.787 1000.45 572.43L984.434 582.474L976.393 587.444C973.703 589.097 971.008 590.714 968.384 592.439C963.147 595.894 958.385 600.052 953.594 604.154C955.85 601.948 958.144 599.782 960.504 597.688C962.873 595.598 965.341 593.607 967.947 591.797C970.544 589.983 973.242 588.335 975.894 586.644L983.911 581.63C989.28 578.321 994.622 574.978 1000.06 571.764C1002.79 570.172 1005.57 568.659 1008.45 567.355C1011.35 566.078 1014.34 564.985 1017.41 564.29Z" fill="#12192E"/>
<path d="M965.973 582.72C966.24 583.549 966.409 584.378 966.568 585.204C966.723 586.038 966.847 586.869 966.949 587.702C967.051 588.534 967.126 589.377 967.179 590.221C967.223 591.06 967.249 591.914 967.196 592.776C966.849 591.978 966.61 591.161 966.409 590.328C966.218 589.5 966.063 588.666 965.965 587.824C965.868 586.982 965.806 586.135 965.802 585.28C965.793 584.434 965.821 583.582 965.973 582.72Z" fill="#12192E"/>
<path d="M968.047 591.841C968.854 592.242 969.588 592.709 970.318 593.185C971.043 593.67 971.752 594.17 972.448 594.697C973.144 595.224 973.823 595.765 974.481 596.33C975.147 596.899 975.797 597.482 976.397 598.152C975.554 597.833 974.778 597.413 974.023 596.969C973.272 596.517 972.537 596.027 971.841 595.5C971.144 594.973 970.464 594.409 969.823 593.808C969.203 593.183 968.587 592.55 968.047 591.841Z" fill="#12192E"/>
<path d="M983.459 583.07C984.265 583.471 984.999 583.938 985.729 584.415C986.454 584.9 987.163 585.4 987.859 585.927C988.555 586.454 989.234 586.995 989.892 587.56C990.559 588.128 991.208 588.711 991.808 589.382C990.965 589.063 990.189 588.643 989.434 588.199C988.683 587.746 987.948 587.257 987.252 586.73C986.556 586.202 985.876 585.639 985.234 585.038C984.61 584.422 983.994 583.788 983.459 583.07Z" fill="#12192E"/>
<path d="M993.309 576.015C994.116 576.416 994.85 576.883 995.579 577.359C996.305 577.844 997.013 578.344 997.709 578.871C998.406 579.398 999.085 579.939 999.742 580.504C1000.41 581.082 1001.06 581.656 1001.66 582.326C1000.82 582.007 1000.04 581.587 999.284 581.143C998.533 580.69 997.799 580.201 997.102 579.674C996.406 579.147 995.726 578.583 995.085 577.982C994.46 577.366 993.853 576.737 993.309 576.015Z" fill="#12192E"/>
<path d="M981.143 574.444C981.229 575.313 981.215 576.159 981.192 577.002C981.159 577.841 981.104 578.681 981.027 579.521C980.95 580.362 980.846 581.191 980.715 582.03C980.575 582.865 980.426 583.695 980.174 584.535C980.004 583.684 979.946 582.827 979.929 581.977C979.912 581.127 979.948 580.279 980.038 579.433C980.119 578.583 980.25 577.745 980.422 576.913C980.597 576.072 980.819 575.251 981.143 574.444Z" fill="#12192E"/>
<path d="M992.308 567.828C992.394 568.697 992.38 569.544 992.357 570.387C992.324 571.226 992.269 572.065 992.192 572.906C992.115 573.747 992.011 574.576 991.88 575.415C991.74 576.249 991.591 577.08 991.339 577.92C991.169 577.068 991.111 576.212 991.094 575.362C991.077 574.512 991.113 573.664 991.203 572.818C991.284 571.968 991.415 571.129 991.587 570.298C991.771 569.461 991.984 568.636 992.308 567.828Z" fill="#12192E"/>
</g>
<g clip-path="url(#clip6)">
<path d="M742.439 1058.23C740.583 1055.41 740.631 1052.41 740.681 1050.32C740.716 1048.96 740.983 1044.53 744.121 1039.54C746.525 1035.72 751.34 1032.6 760.965 1026.37C764.936 1023.8 767.578 1022.28 770.356 1020.87C773.754 1019.15 776.464 1018.05 778.393 1017.27C781.552 1015.99 784.511 1015.01 790.291 1013.1C795.171 1011.49 797.605 1010.69 798.367 1010.52C801.541 1009.85 806.354 1009.38 812.674 1010.76C811.563 1013.05 809.98 1016.15 807.928 1019.75C806.257 1022.69 801.967 1030.22 796.575 1036.99C793.378 1041 785.411 1050.79 771.876 1058.04C766.08 1061.15 757.387 1065.67 749.38 1063.05C747.984 1062.6 744.574 1061.48 742.439 1058.23Z" fill="#FEBD43"/>
<path d="M808.411 1014.29C806.897 1014.75 805.417 1015.27 803.949 1015.85C802.485 1016.43 801.066 1017.1 799.662 1017.8C796.844 1019.2 794.138 1020.79 791.453 1022.43L775.434 1032.47L767.393 1037.44C764.703 1039.1 762.008 1040.71 759.384 1042.44C754.147 1045.89 749.385 1050.05 744.594 1054.15C746.85 1051.95 749.144 1049.78 751.504 1047.69C753.873 1045.6 756.341 1043.61 758.947 1041.8C761.544 1039.98 764.242 1038.33 766.894 1036.64L774.911 1031.63C780.28 1028.32 785.622 1024.98 791.059 1021.76C793.787 1020.17 796.568 1018.66 799.453 1017.36C802.348 1016.08 805.337 1014.98 808.411 1014.29Z" fill="#12192E"/>
<path d="M756.973 1032.72C757.24 1033.55 757.409 1034.38 757.568 1035.2C757.723 1036.04 757.847 1036.87 757.949 1037.7C758.051 1038.53 758.126 1039.38 758.179 1040.22C758.223 1041.06 758.249 1041.91 758.196 1042.78C757.849 1041.98 757.61 1041.16 757.409 1040.33C757.218 1039.5 757.063 1038.67 756.965 1037.82C756.868 1036.98 756.806 1036.13 756.802 1035.28C756.793 1034.43 756.821 1033.58 756.973 1032.72Z" fill="#12192E"/>
<path d="M759.047 1041.84C759.854 1042.24 760.588 1042.71 761.318 1043.19C762.043 1043.67 762.752 1044.17 763.448 1044.7C764.144 1045.22 764.823 1045.77 765.481 1046.33C766.147 1046.9 766.797 1047.48 767.397 1048.15C766.554 1047.83 765.778 1047.41 765.023 1046.97C764.272 1046.52 763.537 1046.03 762.841 1045.5C762.144 1044.97 761.464 1044.41 760.823 1043.81C760.203 1043.18 759.587 1042.55 759.047 1041.84Z" fill="#12192E"/>
<path d="M774.459 1033.07C775.265 1033.47 775.999 1033.94 776.729 1034.41C777.454 1034.9 778.163 1035.4 778.859 1035.93C779.555 1036.45 780.234 1036.99 780.892 1037.56C781.559 1038.13 782.208 1038.71 782.808 1039.38C781.965 1039.06 781.189 1038.64 780.434 1038.2C779.683 1037.75 778.948 1037.26 778.252 1036.73C777.556 1036.2 776.876 1035.64 776.234 1035.04C775.61 1034.42 774.994 1033.79 774.459 1033.07Z" fill="#12192E"/>
<path d="M784.309 1026.01C785.116 1026.42 785.85 1026.88 786.579 1027.36C787.305 1027.84 788.013 1028.34 788.709 1028.87C789.406 1029.4 790.085 1029.94 790.742 1030.5C791.405 1031.08 792.059 1031.66 792.659 1032.33C791.816 1032.01 791.039 1031.59 790.284 1031.14C789.533 1030.69 788.799 1030.2 788.102 1029.67C787.406 1029.15 786.726 1028.58 786.085 1027.98C785.46 1027.37 784.853 1026.74 784.309 1026.01Z" fill="#12192E"/>
<path d="M772.143 1024.44C772.229 1025.31 772.215 1026.16 772.192 1027C772.159 1027.84 772.104 1028.68 772.027 1029.52C771.95 1030.36 771.846 1031.19 771.715 1032.03C771.575 1032.86 771.426 1033.7 771.174 1034.54C771.004 1033.68 770.946 1032.83 770.929 1031.98C770.912 1031.13 770.948 1030.28 771.038 1029.43C771.119 1028.58 771.25 1027.74 771.422 1026.91C771.597 1026.07 771.819 1025.25 772.143 1024.44Z" fill="#12192E"/>
<path d="M783.308 1017.83C783.394 1018.7 783.38 1019.54 783.357 1020.39C783.324 1021.23 783.269 1022.07 783.192 1022.91C783.115 1023.75 783.011 1024.58 782.88 1025.41C782.74 1026.25 782.591 1027.08 782.339 1027.92C782.169 1027.07 782.111 1026.21 782.094 1025.36C782.077 1024.51 782.113 1023.66 782.203 1022.82C782.284 1021.97 782.415 1021.13 782.587 1020.3C782.771 1019.46 782.984 1018.64 783.308 1017.83Z" fill="#12192E"/>
</g>
<g clip-path="url(#clip7)">
<path d="M1303.44 81.2298C1301.58 78.4066 1301.63 75.4092 1301.68 73.3206C1301.72 71.9579 1301.98 67.5266 1305.12 62.5401C1307.52 58.7161 1312.34 55.5986 1321.96 49.3728C1325.94 46.8007 1328.58 45.2802 1331.36 43.8743C1334.75 42.1528 1337.46 41.0455 1339.39 40.2702C1342.55 38.9897 1345.51 38.0141 1351.29 36.1005C1356.17 34.4887 1358.6 33.6854 1359.37 33.5199C1362.54 32.8475 1367.35 32.376 1373.67 33.7637C1372.56 36.0497 1370.98 39.1547 1368.93 42.7518C1367.26 45.6864 1362.97 53.225 1357.58 59.9913C1354.38 64.0002 1346.41 73.7927 1332.88 81.0431C1327.08 84.1528 1318.39 88.6695 1310.38 86.0535C1308.98 85.5995 1305.57 84.4831 1303.44 81.2298Z" fill="#FEBD43"/>
<path d="M1369.41 37.29C1367.9 37.7459 1366.42 38.2718 1364.95 38.8465C1363.49 39.4343 1362.07 40.0961 1360.66 40.7976C1357.84 42.1965 1355.14 43.7871 1352.45 45.4305L1336.43 55.4744L1328.39 60.4441C1325.7 62.0967 1323.01 63.7137 1320.38 65.4392C1315.15 68.8943 1310.39 73.0525 1305.59 77.1538C1307.85 74.9485 1310.14 72.7817 1312.5 70.6879C1314.87 68.5982 1317.34 66.6069 1319.95 64.7971C1322.54 62.9832 1325.24 61.3347 1327.89 59.6437L1335.91 54.6303C1341.28 51.3212 1346.62 47.9776 1352.06 44.7639C1354.79 43.1722 1357.57 41.6587 1360.45 40.3552C1363.35 39.0781 1366.34 37.9846 1369.41 37.29Z" fill="#12192E"/>
<path d="M1317.97 55.7198C1318.24 56.549 1318.41 57.3783 1318.57 58.2035C1318.72 59.0379 1318.85 59.8694 1318.95 60.7018C1319.05 61.5342 1319.13 62.3769 1319.18 63.2206C1319.22 64.0602 1319.25 64.9141 1319.2 65.7762C1318.85 64.9776 1318.61 64.1605 1318.41 63.3282C1318.22 62.4999 1318.06 61.6655 1317.97 60.8239C1317.87 59.9824 1317.81 59.1346 1317.8 58.2797C1317.79 57.4339 1317.82 56.582 1317.97 55.7198Z" fill="#12192E"/>
<path d="M1320.05 64.8407C1320.85 65.2417 1321.59 65.7088 1322.32 66.185C1323.04 66.6704 1323.75 67.17 1324.45 67.6971C1325.14 68.2241 1325.82 68.7654 1326.48 69.3301C1327.15 69.8988 1327.8 70.4818 1328.4 71.1521C1327.55 70.8334 1326.78 70.4131 1326.02 69.9694C1325.27 69.5165 1324.54 69.0271 1323.84 68.5C1323.14 67.973 1322.46 67.4094 1321.82 66.8081C1321.2 66.1835 1320.59 65.5497 1320.05 64.8407Z" fill="#12192E"/>
<path d="M1335.46 56.0702C1336.27 56.4712 1337 56.9383 1337.73 57.4145C1338.45 57.8999 1339.16 58.3995 1339.86 58.9266C1340.56 59.4536 1341.23 59.9949 1341.89 60.5596C1342.56 61.1283 1343.21 61.7113 1343.81 62.3816C1342.96 62.0629 1342.19 61.6426 1341.43 61.1989C1340.68 60.746 1339.95 60.2566 1339.25 59.7295C1338.56 59.2025 1337.88 58.6389 1337.23 58.0376C1336.61 57.4221 1335.99 56.7884 1335.46 56.0702Z" fill="#12192E"/>
<path d="M1345.31 49.0145C1346.12 49.4155 1346.85 49.8826 1347.58 50.3589C1348.3 50.8443 1349.01 51.3439 1349.71 51.8709C1350.41 52.398 1351.08 52.9393 1351.74 53.5039C1352.41 54.0818 1353.06 54.6556 1353.66 55.3259C1352.82 55.0072 1352.04 54.5869 1351.28 54.1432C1350.53 53.6903 1349.8 53.2009 1349.1 52.6739C1348.41 52.1468 1347.73 51.5832 1347.08 50.9819C1346.46 50.3665 1345.85 49.7367 1345.31 49.0145Z" fill="#12192E"/>
<path d="M1344.31 40.8283C1344.39 41.6973 1344.38 42.5441 1344.36 43.3869C1344.32 44.2256 1344.27 45.0654 1344.19 45.9062C1344.12 46.747 1344.01 47.5757 1343.88 48.4145C1343.74 49.2493 1343.59 50.0801 1343.34 50.9201C1343.17 50.0685 1343.11 49.2116 1343.09 48.3618C1343.08 47.5119 1343.11 46.6641 1343.2 45.8182C1343.28 44.9682 1343.42 44.1294 1343.59 43.2976C1343.77 42.4607 1343.98 41.6359 1344.31 40.8283Z" fill="#12192E"/>
</g>
<g clip-path="url(#clip8)">
<path d="M1268.44 1049.23C1266.58 1046.41 1266.63 1043.41 1266.68 1041.32C1266.72 1039.96 1266.98 1035.53 1270.12 1030.54C1272.52 1026.72 1277.34 1023.6 1286.96 1017.37C1290.94 1014.8 1293.58 1013.28 1296.36 1011.87C1299.75 1010.15 1302.46 1009.05 1304.39 1008.27C1307.55 1006.99 1310.51 1006.01 1316.29 1004.1C1321.17 1002.49 1323.6 1001.69 1324.37 1001.52C1327.54 1000.85 1332.35 1000.38 1338.67 1001.76C1337.56 1004.05 1335.98 1007.15 1333.93 1010.75C1332.26 1013.69 1327.97 1021.22 1322.58 1027.99C1319.38 1032 1311.41 1041.79 1297.88 1049.04C1292.08 1052.15 1283.39 1056.67 1275.38 1054.05C1273.98 1053.6 1270.57 1052.48 1268.44 1049.23Z" fill="#FEBD43"/>
<path d="M1334.41 1005.29C1332.9 1005.75 1331.42 1006.27 1329.95 1006.85C1328.49 1007.43 1327.07 1008.1 1325.66 1008.8C1322.84 1010.2 1320.14 1011.79 1317.45 1013.43L1301.43 1023.47L1293.39 1028.44C1290.7 1030.1 1288.01 1031.71 1285.38 1033.44C1280.15 1036.89 1275.39 1041.05 1270.59 1045.15C1272.85 1042.95 1275.14 1040.78 1277.5 1038.69C1279.87 1036.6 1282.34 1034.61 1284.95 1032.8C1287.54 1030.98 1290.24 1029.33 1292.89 1027.64L1300.91 1022.63C1306.28 1019.32 1311.62 1015.98 1317.06 1012.76C1319.79 1011.17 1322.57 1009.66 1325.45 1008.36C1328.35 1007.08 1331.34 1005.98 1334.41 1005.29Z" fill="#12192E"/>
<path d="M1282.97 1023.72C1283.24 1024.55 1283.41 1025.38 1283.57 1026.2C1283.72 1027.04 1283.85 1027.87 1283.95 1028.7C1284.05 1029.53 1284.13 1030.38 1284.18 1031.22C1284.22 1032.06 1284.25 1032.91 1284.2 1033.78C1283.85 1032.98 1283.61 1032.16 1283.41 1031.33C1283.22 1030.5 1283.06 1029.67 1282.97 1028.82C1282.87 1027.98 1282.81 1027.13 1282.8 1026.28C1282.79 1025.43 1282.82 1024.58 1282.97 1023.72Z" fill="#12192E"/>
<path d="M1285.05 1032.84C1285.85 1033.24 1286.59 1033.71 1287.32 1034.19C1288.04 1034.67 1288.75 1035.17 1289.45 1035.7C1290.14 1036.22 1290.82 1036.77 1291.48 1037.33C1292.15 1037.9 1292.8 1038.48 1293.4 1039.15C1292.55 1038.83 1291.78 1038.41 1291.02 1037.97C1290.27 1037.52 1289.54 1037.03 1288.84 1036.5C1288.14 1035.97 1287.46 1035.41 1286.82 1034.81C1286.2 1034.18 1285.59 1033.55 1285.05 1032.84Z" fill="#12192E"/>
<path d="M1300.46 1024.07C1301.27 1024.47 1302 1024.94 1302.73 1025.41C1303.45 1025.9 1304.16 1026.4 1304.86 1026.93C1305.56 1027.45 1306.23 1027.99 1306.89 1028.56C1307.56 1029.13 1308.21 1029.71 1308.81 1030.38C1307.96 1030.06 1307.19 1029.64 1306.43 1029.2C1305.68 1028.75 1304.95 1028.26 1304.25 1027.73C1303.56 1027.2 1302.88 1026.64 1302.23 1026.04C1301.61 1025.42 1300.99 1024.79 1300.46 1024.07Z" fill="#12192E"/>
<path d="M1310.31 1017.01C1311.12 1017.42 1311.85 1017.88 1312.58 1018.36C1313.3 1018.84 1314.01 1019.34 1314.71 1019.87C1315.41 1020.4 1316.08 1020.94 1316.74 1021.5C1317.41 1022.08 1318.06 1022.66 1318.66 1023.33C1317.82 1023.01 1317.04 1022.59 1316.28 1022.14C1315.53 1021.69 1314.8 1021.2 1314.1 1020.67C1313.41 1020.15 1312.73 1019.58 1312.08 1018.98C1311.46 1018.37 1310.85 1017.74 1310.31 1017.01Z" fill="#12192E"/>
<path d="M1298.14 1015.44C1298.23 1016.31 1298.21 1017.16 1298.19 1018C1298.16 1018.84 1298.1 1019.68 1298.03 1020.52C1297.95 1021.36 1297.85 1022.19 1297.71 1023.03C1297.57 1023.86 1297.43 1024.7 1297.17 1025.54C1297 1024.68 1296.95 1023.83 1296.93 1022.98C1296.91 1022.13 1296.95 1021.28 1297.04 1020.43C1297.12 1019.58 1297.25 1018.74 1297.42 1017.91C1297.6 1017.07 1297.82 1016.25 1298.14 1015.44Z" fill="#12192E"/>
<path d="M1309.31 1008.83C1309.39 1009.7 1309.38 1010.54 1309.36 1011.39C1309.32 1012.23 1309.27 1013.07 1309.19 1013.91C1309.12 1014.75 1309.01 1015.58 1308.88 1016.41C1308.74 1017.25 1308.59 1018.08 1308.34 1018.92C1308.17 1018.07 1308.11 1017.21 1308.09 1016.36C1308.08 1015.51 1308.11 1014.66 1308.2 1013.82C1308.28 1012.97 1308.42 1012.13 1308.59 1011.3C1308.77 1010.46 1308.98 1009.64 1309.31 1008.83Z" fill="#12192E"/>
</g>
<g clip-path="url(#clip9)">
<path d="M441.439 19.2298C439.583 16.4066 439.631 13.4092 439.681 11.3206C439.715 9.95791 439.983 5.52658 443.12 0.540066C445.525 -3.28391 450.339 -6.40138 459.965 -12.6272C463.936 -15.1993 466.578 -16.7198 469.355 -18.1257C472.753 -19.8472 475.464 -20.9545 477.393 -21.7298C480.552 -23.0103 483.511 -23.9859 489.29 -25.8995C494.171 -27.5113 496.605 -28.3146 497.367 -28.4801C500.541 -29.1525 505.354 -29.624 511.674 -28.2363C510.563 -25.9503 508.98 -22.8453 506.928 -19.2482C505.256 -16.3136 500.966 -8.77504 495.575 -2.00866C492.378 2.00015 484.41 11.7927 470.875 19.0431C465.08 22.1528 456.386 26.6695 448.38 24.0535C446.984 23.5995 443.574 22.4831 441.439 19.2298Z" fill="#FEBD43"/>
<path d="M507.411 -24.71C505.897 -24.2541 504.417 -23.7282 502.948 -23.1535C501.485 -22.5657 500.066 -21.9039 498.661 -21.2024C495.844 -19.8035 493.138 -18.2129 490.452 -16.5695L474.433 -6.5256L466.392 -1.55587C463.703 0.09665 461.007 1.71365 458.384 3.43919C453.146 6.89433 448.385 11.0525 443.594 15.1538C445.85 12.9485 448.144 10.7817 450.504 8.68792C452.873 6.59821 455.341 4.60686 457.947 2.79706C460.543 0.983223 463.242 -0.665256 465.894 -2.35631L473.91 -7.36967C479.28 -10.6788 484.622 -14.0224 490.058 -17.2361C492.787 -18.8278 495.568 -20.3413 498.453 -21.6448C501.348 -22.9219 504.336 -24.0154 507.411 -24.71Z" fill="#12192E"/>
<path d="M455.973 -6.28022C456.24 -5.45104 456.408 -4.62172 456.568 -3.79646C456.723 -2.96205 456.847 -2.13065 456.949 -1.2982C457.05 -0.465752 457.126 0.376884 457.179 1.22057C457.222 2.0602 457.249 2.91407 457.195 3.77618C456.849 2.97756 456.609 2.16053 456.409 1.32821C456.218 0.499942 456.063 -0.334465 455.965 -1.17606C455.868 -2.01765 455.805 -2.86538 455.801 -3.7203C455.793 -4.56607 455.82 -5.41798 455.973 -6.28022Z" fill="#12192E"/>
<path d="M458.047 2.84072C458.854 3.24172 459.587 3.70881 460.317 4.18504C461.043 4.67042 461.751 5.17004 462.447 5.69709C463.143 6.22414 463.822 6.76543 464.48 7.33009C465.147 7.89881 465.797 8.48176 466.397 9.1521C465.553 8.8334 464.777 8.41307 464.022 7.96936C463.271 7.51651 462.536 7.02707 461.84 6.50003C461.144 5.97298 460.464 5.40936 459.822 4.80812C459.202 4.18349 458.586 3.54973 458.047 2.84072Z" fill="#12192E"/>
<path d="M473.458 -5.92979C474.265 -5.52879 474.999 -5.0617 475.728 -4.58546C476.454 -4.10008 477.162 -3.60046 477.859 -3.07341C478.555 -2.54637 479.234 -2.00508 479.892 -1.44041C480.558 -0.871698 481.208 -0.288744 481.808 0.381596C480.965 0.0628913 480.188 -0.357437 479.433 -0.801148C478.682 -1.254 477.948 -1.74343 477.252 -2.27048C476.555 -2.79753 475.875 -3.36115 475.234 -3.96239C474.61 -4.57787 473.993 -5.21164 473.458 -5.92979Z" fill="#12192E"/>
</g>
<path d="M946.928 803.543C919.568 777.514 916.789 769.942 916.527 768.951L916.935 766.91L914.66 766.769C907.835 766.33 904.713 770.283 903.937 772.736L884.322 883.979C879.454 881.888 873.716 880.929 867.988 881.257C860.446 881.687 853.518 884.264 848.472 888.519C843.287 892.891 840.694 898.458 841.162 904.151C841.072 912.957 850.509 921.278 863.104 923.499C865.905 923.993 868.743 924.16 871.552 923.987C884.214 923.256 894.896 916.328 897.693 907.068L897.839 907.093L917.181 799.215C923.308 800.901 942.207 808.62 956.591 841.118L959.231 847.09L960.367 840.761C960.515 839.963 963.718 821.038 946.928 803.543Z" fill="#010002"/>
<defs>
<clipPath id="clip0">
<rect x="484" y="866.145" width="153" height="153" transform="rotate(-19.1318 484 866.145)" fill="white"/>
</clipPath>
<clipPath id="clip1">
<rect x="1289" y="185.566" width="87.1599" height="87.1599" transform="rotate(-19.1318 1289 185.566)" fill="white"/>
</clipPath>
<clipPath id="clip2">
<rect x="51" y="345" width="319" height="758" fill="white"/>
</clipPath>
<clipPath id="clip3">
<rect x="452" y="579" width="73.56" height="51.28" fill="white"/>
</clipPath>
<clipPath id="clip4">
<rect x="761" y="132" width="73.56" height="51.28" fill="white"/>
</clipPath>
<clipPath id="clip5">
<rect x="1021.67" y="560.764" width="73.56" height="51.28" transform="rotate(113.886 1021.67 560.764)" fill="white"/>
</clipPath>
<clipPath id="clip6">
<rect x="812.674" y="1010.76" width="73.56" height="51.28" transform="rotate(113.886 812.674 1010.76)" fill="white"/>
</clipPath>
<clipPath id="clip7">
<rect x="1373.67" y="33.7637" width="73.56" height="51.28" transform="rotate(113.886 1373.67 33.7637)" fill="white"/>
</clipPath>
<clipPath id="clip8">
<rect x="1338.67" y="1001.76" width="73.56" height="51.28" transform="rotate(113.886 1338.67 1001.76)" fill="white"/>
</clipPath>
<clipPath id="clip9">
<rect x="511.674" y="-28.2363" width="73.56" height="51.28" transform="rotate(113.886 511.674 -28.2363)" fill="white"/>
</clipPath>
</defs>
</svg>
