<svg width="215" height="24" viewBox="0 0 215 24" fill="none" xmlns="http://www.w3.org/2000/svg">
<path d="M3.61225 1.72H5.24425L5.22025 4.12L7.30825 2.896L8.12425 4.384L5.96425 5.56L8.12425 6.736L7.30825 8.248L5.19625 7L5.24425 9.4H3.61225L3.66025 6.976L1.54825 8.2L0.75625 6.736L2.86825 5.56L0.75625 4.384L1.54825 2.872L3.63625 4.12L3.61225 1.72ZM19.4869 10.216C18.6229 9.272 17.5029 8.8 16.1269 8.8C15.0869 8.8 14.2389 9.152 13.5829 9.856C12.9429 10.56 12.6229 11.472 12.6229 12.592C12.6229 13.744 12.9429 14.672 13.5829 15.376C14.2389 16.08 15.0869 16.432 16.1269 16.432C17.6629 16.432 18.8149 15.928 19.5829 14.92L21.5269 16.528C20.9509 17.36 20.1909 18 19.2469 18.448C18.3029 18.896 17.2069 19.12 15.9589 19.12C14.6949 19.12 13.5669 18.848 12.5749 18.304C11.5989 17.76 10.8389 17 10.2949 16.024C9.75094 15.032 9.47894 13.896 9.47894 12.616C9.47894 11.32 9.75094 10.176 10.2949 9.184C10.8549 8.192 11.6229 7.424 12.5989 6.88C13.5909 6.336 14.7269 6.064 16.0069 6.064C17.1749 6.064 18.2149 6.272 19.1269 6.688C20.0549 7.088 20.8069 7.664 21.3829 8.416L19.4869 10.216ZM29.1085 6.064C31.1565 6.064 32.6925 6.648 33.7165 7.816C34.7565 8.984 35.2765 10.624 35.2765 12.736C35.2765 13.152 35.2685 13.464 35.2525 13.672H25.7725C25.9805 14.584 26.4045 15.304 27.0445 15.832C27.7005 16.344 28.5005 16.6 29.4445 16.6C30.1005 16.6 30.7245 16.48 31.3165 16.24C31.9245 15.984 32.4525 15.624 32.9005 15.16L34.5805 16.912C33.9405 17.616 33.1565 18.16 32.2285 18.544C31.3165 18.928 30.3005 19.12 29.1805 19.12C27.8685 19.12 26.7085 18.848 25.7005 18.304C24.7085 17.76 23.9405 17 23.3965 16.024C22.8525 15.032 22.5805 13.896 22.5805 12.616C22.5805 11.336 22.8525 10.2 23.3965 9.208C23.9565 8.216 24.7325 7.448 25.7245 6.904C26.7165 6.344 27.8445 6.064 29.1085 6.064ZM32.4205 11.584C32.3885 10.64 32.0765 9.888 31.4845 9.328C30.8925 8.768 30.1085 8.488 29.1325 8.488C28.2205 8.488 27.4525 8.768 26.8285 9.328C26.2205 9.872 25.8445 10.624 25.7005 11.584H32.4205ZM41.0796 8.632C41.5116 7.8 42.0956 7.168 42.8316 6.736C43.5836 6.288 44.4556 6.056 45.4476 6.04V9.064C44.1196 8.984 43.0556 9.296 42.2556 10C41.4716 10.688 41.0796 11.624 41.0796 12.808V19H37.9596V6.16H41.0796V8.632ZM47.6393 6.16H50.7593V19H47.6393V6.16ZM49.1753 0.639999C49.6873 0.639999 50.1113 0.815999 50.4473 1.168C50.7833 1.52 50.9513 1.968 50.9513 2.512C50.9513 3.04 50.7833 3.48 50.4473 3.832C50.1113 4.184 49.6873 4.36 49.1753 4.36C48.6633 4.36 48.2393 4.184 47.9033 3.832C47.5673 3.48 47.3993 3.04 47.3993 2.512C47.3993 1.968 47.5673 1.52 47.9033 1.168C48.2393 0.815999 48.6633 0.639999 49.1753 0.639999ZM62.1357 18.208C61.1117 18.832 60.0397 19.144 58.9197 19.144C57.8157 19.144 56.9117 18.824 56.2077 18.184C55.5037 17.528 55.1517 16.568 55.1517 15.304V8.968H53.3517L53.3277 6.688H55.1517V3.16H58.2477V6.688H61.9197V8.968H58.2477V14.752C58.2477 15.344 58.3597 15.768 58.5837 16.024C58.8077 16.264 59.1437 16.384 59.5917 16.384C60.0717 16.384 60.6797 16.208 61.4157 15.856L62.1357 18.208ZM72.1686 19V17.44C71.7206 18 71.1446 18.424 70.4406 18.712C69.7366 19 68.9286 19.144 68.0166 19.144C67.1206 19.144 66.3286 18.976 65.6406 18.64C64.9686 18.288 64.4486 17.808 64.0806 17.2C63.7126 16.592 63.5286 15.912 63.5286 15.16C63.5286 13.96 63.9526 13.024 64.8006 12.352C65.6486 11.664 66.8486 11.312 68.4006 11.296H72.1446V10.96C72.1446 10.208 71.8966 9.624 71.4006 9.208C70.9046 8.792 70.1846 8.584 69.2406 8.584C68.0246 8.584 66.7526 8.984 65.4246 9.784L64.2966 7.624C65.3046 7.064 66.2166 6.664 67.0326 6.424C67.8646 6.168 68.8326 6.04 69.9366 6.04C71.6006 6.04 72.8886 6.44 73.8006 7.24C74.7286 8.04 75.2006 9.16 75.2166 10.6L75.2406 19H72.1686ZM68.7606 16.744C69.6566 16.744 70.4246 16.536 71.0646 16.12C71.7046 15.688 72.0646 15.16 72.1446 14.536V13.384H68.9046C68.0726 13.384 67.4566 13.512 67.0566 13.768C66.6726 14.008 66.4806 14.408 66.4806 14.968C66.4806 15.512 66.6806 15.944 67.0806 16.264C67.4966 16.584 68.0566 16.744 68.7606 16.744ZM86.4689 6.04C87.9409 6.04 89.1009 6.488 89.9489 7.384C90.7969 8.264 91.2209 9.464 91.2209 10.984V19H88.0769V11.896C88.0769 11 87.8209 10.296 87.3089 9.784C86.7969 9.256 86.1009 8.992 85.2209 8.992C84.1809 9.008 83.3569 9.36 82.7489 10.048C82.1569 10.736 81.8609 11.616 81.8609 12.688V19H78.7409V6.16H81.8609V8.56C82.7409 6.912 84.2769 6.072 86.4689 6.04ZM99.8931 20.608C99.4931 21.664 98.9171 22.456 98.1651 22.984C97.4291 23.528 96.5491 23.8 95.5251 23.8C94.9011 23.8 94.3331 23.704 93.8211 23.512C93.3251 23.336 92.8291 23.048 92.3331 22.648L93.6771 20.272C93.9811 20.496 94.2611 20.656 94.5171 20.752C94.7731 20.864 95.0451 20.92 95.3331 20.92C96.1811 20.92 96.8051 20.488 97.2051 19.624L97.5891 18.784L92.2851 6.16H95.5251L99.1731 15.496L102.509 6.16H105.653L99.8931 20.608ZM114.684 19V17.44C114.236 18 113.66 18.424 112.956 18.712C112.252 19 111.444 19.144 110.532 19.144C109.636 19.144 108.844 18.976 108.156 18.64C107.484 18.288 106.964 17.808 106.596 17.2C106.228 16.592 106.044 15.912 106.044 15.16C106.044 13.96 106.468 13.024 107.316 12.352C108.164 11.664 109.364 11.312 110.916 11.296H114.66V10.96C114.66 10.208 114.412 9.624 113.916 9.208C113.42 8.792 112.7 8.584 111.756 8.584C110.54 8.584 109.268 8.984 107.94 9.784L106.812 7.624C107.82 7.064 108.732 6.664 109.548 6.424C110.38 6.168 111.348 6.04 112.452 6.04C114.116 6.04 115.404 6.44 116.316 7.24C117.244 8.04 117.716 9.16 117.732 10.6L117.756 19H114.684ZM111.276 16.744C112.172 16.744 112.94 16.536 113.58 16.12C114.22 15.688 114.58 15.16 114.66 14.536V13.384H111.42C110.588 13.384 109.972 13.512 109.572 13.768C109.188 14.008 108.996 14.408 108.996 14.968C108.996 15.512 109.196 15.944 109.596 16.264C110.012 16.584 110.572 16.744 111.276 16.744ZM143.963 6.04C145.419 6.04 146.563 6.488 147.395 7.384C148.227 8.264 148.643 9.464 148.643 10.984V19H145.499V11.896C145.499 10.984 145.243 10.272 144.731 9.76C144.235 9.232 143.555 8.968 142.691 8.968C141.699 9 140.907 9.36 140.315 10.048C139.739 10.736 139.451 11.608 139.451 12.664V19H136.307V11.896C136.307 10.984 136.059 10.272 135.563 9.76C135.067 9.232 134.387 8.968 133.523 8.968C132.515 9 131.715 9.36 131.123 10.048C130.547 10.736 130.259 11.608 130.259 12.664V19H127.139V6.16H130.259V8.536C131.107 6.904 132.611 6.072 134.771 6.04C135.891 6.04 136.827 6.312 137.579 6.856C138.347 7.384 138.883 8.136 139.187 9.112C140.003 7.096 141.595 6.072 143.963 6.04ZM159.708 19V17.44C159.26 18 158.684 18.424 157.98 18.712C157.276 19 156.468 19.144 155.556 19.144C154.66 19.144 153.868 18.976 153.18 18.64C152.508 18.288 151.988 17.808 151.62 17.2C151.252 16.592 151.068 15.912 151.068 15.16C151.068 13.96 151.492 13.024 152.34 12.352C153.188 11.664 154.388 11.312 155.94 11.296H159.684V10.96C159.684 10.208 159.436 9.624 158.94 9.208C158.444 8.792 157.724 8.584 156.78 8.584C155.564 8.584 154.292 8.984 152.964 9.784L151.836 7.624C152.844 7.064 153.756 6.664 154.572 6.424C155.404 6.168 156.372 6.04 157.476 6.04C159.14 6.04 160.428 6.44 161.34 7.24C162.268 8.04 162.74 9.16 162.756 10.6L162.78 19H159.708ZM156.3 16.744C157.196 16.744 157.964 16.536 158.604 16.12C159.244 15.688 159.604 15.16 159.684 14.536V13.384H156.444C155.612 13.384 154.996 13.512 154.596 13.768C154.212 14.008 154.02 14.408 154.02 14.968C154.02 15.512 154.22 15.944 154.62 16.264C155.036 16.584 155.596 16.744 156.3 16.744ZM173.888 9.64C173.264 9.272 172.616 8.984 171.944 8.776C171.288 8.568 170.68 8.464 170.12 8.464C169.592 8.464 169.168 8.56 168.848 8.752C168.544 8.928 168.392 9.208 168.392 9.592C168.392 9.992 168.584 10.304 168.968 10.528C169.368 10.736 169.992 10.96 170.84 11.2C171.736 11.472 172.472 11.744 173.048 12.016C173.624 12.272 174.12 12.664 174.536 13.192C174.968 13.704 175.184 14.384 175.184 15.232C175.184 16.48 174.704 17.44 173.744 18.112C172.784 18.784 171.576 19.12 170.12 19.12C169.128 19.12 168.16 18.968 167.216 18.664C166.272 18.344 165.472 17.896 164.816 17.32L165.896 15.136C166.472 15.632 167.16 16.024 167.96 16.312C168.76 16.584 169.52 16.72 170.24 16.72C170.816 16.72 171.272 16.624 171.608 16.432C171.96 16.224 172.136 15.92 172.136 15.52C172.136 15.072 171.936 14.736 171.536 14.512C171.136 14.288 170.488 14.04 169.592 13.768C168.728 13.512 168.024 13.264 167.48 13.024C166.936 12.768 166.464 12.392 166.064 11.896C165.664 11.384 165.464 10.72 165.464 9.904C165.464 8.64 165.92 7.68 166.832 7.024C167.76 6.352 168.92 6.016 170.312 6.016C171.16 6.016 171.992 6.136 172.808 6.376C173.64 6.616 174.376 6.952 175.016 7.384L173.888 9.64ZM186.546 19L183.066 13.384L181.098 15.448V19H177.978V1.192H181.098V11.512L186.378 6.184H189.978L185.226 11.128L190.266 19H186.546ZM197.373 6.064C198.701 6.064 199.869 6.336 200.877 6.88C201.901 7.424 202.693 8.192 203.253 9.184C203.829 10.16 204.117 11.288 204.117 12.568C204.117 13.864 203.829 15.008 203.253 16C202.693 16.992 201.901 17.76 200.877 18.304C199.869 18.848 198.701 19.12 197.373 19.12C196.029 19.12 194.845 18.848 193.821 18.304C192.797 17.76 191.997 16.992 191.421 16C190.861 15.008 190.581 13.864 190.581 12.568C190.581 11.288 190.861 10.16 191.421 9.184C191.997 8.192 192.797 7.424 193.821 6.88C194.845 6.336 196.029 6.064 197.373 6.064ZM197.373 8.728C196.285 8.728 195.405 9.088 194.733 9.808C194.061 10.528 193.725 11.464 193.725 12.616C193.725 13.768 194.061 14.704 194.733 15.424C195.405 16.144 196.285 16.504 197.373 16.504C198.429 16.504 199.293 16.144 199.965 15.424C200.637 14.704 200.973 13.768 200.973 12.616C200.973 11.464 200.637 10.528 199.965 9.808C199.293 9.088 198.429 8.728 197.373 8.728ZM214.339 18.208C213.315 18.832 212.243 19.144 211.123 19.144C210.019 19.144 209.115 18.824 208.411 18.184C207.707 17.528 207.355 16.568 207.355 15.304V8.968H205.555L205.531 6.688H207.355V3.16H210.451V6.688H214.123V8.968H210.451V14.752C210.451 15.344 210.563 15.768 210.787 16.024C211.011 16.264 211.347 16.384 211.795 16.384C212.275 16.384 212.883 16.208 213.619 15.856L214.339 18.208Z" fill="#F0F0F0"/>
</svg>
