<svg width="274" height="63" viewBox="0 0 274 63" fill="none" xmlns="http://www.w3.org/2000/svg">
<path d="M18.4526 36.0012L14.5948 36.2201L8.91545 29.3307L6.44417 32.3795L6.68749 36.6686L3.47665 36.8508L2.52512 20.0777L5.73596 19.8956L6.21037 28.2582L13.3078 19.4661L17.0937 19.2513L11.0504 26.7095L18.4526 36.0012ZM25.3537 22.6529C27.3984 22.5369 28.965 23.033 30.0535 24.1411C31.158 25.2483 31.7701 26.8562 31.8897 28.9648C31.9132 29.3802 31.9229 29.6921 31.9187 29.9007L22.4539 30.4376C22.7133 31.3364 23.1774 32.0312 23.8462 32.5221C24.5302 32.9962 25.3434 33.2064 26.2859 33.153C26.9408 33.1158 27.557 32.9607 28.1345 32.6875C28.727 32.3975 29.2338 32.0082 29.6548 31.5195L31.4313 33.1736C30.8322 33.9127 30.0803 34.5002 29.1755 34.9362C28.2867 35.3712 27.2832 35.6204 26.165 35.6839C24.8551 35.7582 23.6816 35.5523 22.6444 35.0663C21.6232 34.5793 20.8134 33.8641 20.215 32.9204C19.6157 31.9608 19.2798 30.8421 19.2073 29.5641C19.1348 28.2862 19.342 27.1366 19.8289 26.1154C20.3318 25.0933 21.0631 24.2825 22.0227 23.6832C22.9814 23.0679 24.0917 22.7245 25.3537 22.6529ZM28.973 27.9765C28.8876 27.0358 28.5335 26.3027 27.9107 25.7771C27.288 25.2515 26.4894 25.0164 25.5149 25.0717C24.6044 25.1233 23.8535 25.4464 23.2622 26.0408C22.686 26.6184 22.3532 27.3905 22.2638 28.3571L28.973 27.9765ZM41.9048 21.6899C43.3745 21.6066 44.558 21.9881 45.4554 22.8347C46.3519 23.6652 46.8431 24.8393 46.9292 26.3568L47.3832 34.36L44.2443 34.538L43.8419 27.4455C43.7912 26.5509 43.4957 25.8625 42.9555 25.3803C42.4145 24.8822 41.7046 24.658 40.826 24.7079C39.7886 24.7828 38.9859 25.1809 38.4178 25.9022C37.8657 26.6226 37.6201 27.518 37.6808 28.5882L38.0383 34.8901L34.9233 35.0668L34.196 22.2474L37.311 22.0707L37.447 24.4669C38.2322 22.7717 39.7182 21.846 41.9048 21.6899ZM58.4538 33.7319L58.3655 32.1745C57.9499 32.7589 57.3988 33.2149 56.7123 33.5423C56.0257 33.8697 55.2272 34.0592 54.3166 34.1109C53.4221 34.1616 52.6218 34.0388 51.9159 33.7423C51.2251 33.4289 50.6787 32.9791 50.2769 32.3929C49.875 31.8067 49.6528 31.1383 49.6102 30.3875C49.5422 29.1894 49.9125 28.2309 50.7211 27.5119C51.5288 26.777 52.7069 26.3576 54.2555 26.2537L57.9935 26.0417L57.9745 25.7062C57.9319 24.9554 57.6512 24.3864 57.1324 23.9992C56.6137 23.6119 55.8831 23.445 54.9406 23.4985C53.7265 23.5674 52.4792 24.0388 51.1987 24.9127L49.9501 22.8201C50.9248 22.2039 51.8127 21.7529 52.6138 21.467C53.4299 21.1643 54.3891 20.9817 55.4914 20.9192C57.1527 20.8249 58.4613 21.1513 59.4171 21.8984C60.389 22.6445 60.9236 23.736 61.0212 25.1728L61.5209 33.558L58.4538 33.7319ZM54.9235 31.6726C55.8181 31.6218 56.5731 31.3707 57.1885 30.9191C57.803 30.4515 58.1325 29.904 58.177 29.2765L58.1118 28.1263L54.877 28.3098C54.0463 28.357 53.4386 28.5196 53.0537 28.7979C52.6839 29.0592 52.5149 29.4695 52.5466 30.0286C52.5774 30.5717 52.8015 30.9917 53.219 31.2885C53.6525 31.5844 54.2206 31.7125 54.9235 31.6726ZM64.1267 15.5735L67.2417 15.3968L68.2503 33.1762L65.1353 33.3529L64.1267 15.5735ZM71.5188 20.1301L74.6338 19.9534L75.3611 32.7728L72.2461 32.9495L71.5188 20.1301ZM72.7397 14.532C73.2509 14.503 73.6842 14.6547 74.0396 14.9871C74.395 15.3195 74.5881 15.7573 74.6189 16.3004C74.6488 16.8275 74.506 17.2764 74.1905 17.6468C73.875 18.0173 73.4616 18.217 72.9504 18.246C72.4393 18.275 72.006 18.1233 71.6506 17.7909C71.2952 17.4585 71.1025 17.0287 71.0726 16.5016C71.0418 15.9585 71.1842 15.5017 71.4997 15.1312C71.8152 14.7607 72.2286 14.561 72.7397 14.532ZM86.2008 19.177C87.6704 19.0937 88.854 19.4752 89.7513 20.3218C90.6478 21.1523 91.1391 22.3264 91.2252 23.844L91.6792 31.8471L88.5403 32.0252L88.1379 24.9326C88.0872 24.038 87.7917 23.3496 87.2515 22.8674C86.7104 22.3693 86.0006 22.1451 85.122 22.195C84.0846 22.2699 83.2818 22.668 82.7138 23.3893C82.1617 24.1097 81.916 25.0051 81.9767 26.0754L82.3342 32.3772L79.2192 32.5539L78.492 19.7345L81.607 19.5578L81.7429 21.954C82.5282 20.2588 84.0141 19.3331 86.2008 19.177ZM95.74 28.4196C96.1873 28.3942 96.5713 28.5247 96.892 28.811C97.2287 29.0964 97.4116 29.4946 97.4406 30.0058C97.4541 30.2454 97.4264 30.4633 97.3574 30.6596C97.3044 30.8549 97.2137 31.0924 97.0854 31.3721L95.7403 34.3571L94.1828 34.4455L95.0274 31.5369C94.53 31.2446 94.2641 30.795 94.2297 30.188C94.2016 29.6928 94.3307 29.2848 94.617 28.9641C94.9024 28.6274 95.2767 28.4459 95.74 28.4196ZM105.612 18.196L108.727 18.0193L109.455 30.8387L106.34 31.0154L105.612 18.196ZM106.833 12.5979C107.345 12.5689 107.778 12.7206 108.133 13.053C108.489 13.3854 108.682 13.8232 108.713 14.3663C108.742 14.8934 108.6 15.3422 108.284 15.7127C107.969 16.0832 107.555 16.2829 107.044 16.3119C106.533 16.3409 106.1 16.1892 105.744 15.8568C105.389 15.5244 105.196 15.0946 105.166 14.5675C105.135 14.0243 105.278 13.5675 105.593 13.1971C105.909 12.8266 106.322 12.6269 106.833 12.5979ZM120.294 17.2429C121.764 17.1595 122.948 17.5411 123.845 18.3877C124.741 19.2182 125.233 20.3923 125.319 21.9098L125.773 29.913L122.634 30.091L122.232 22.9984C122.181 22.1039 121.885 21.4155 121.345 20.9333C120.804 20.4352 120.094 20.211 119.216 20.2609C118.178 20.3357 117.375 20.7338 116.807 21.4552C116.255 22.1756 116.01 23.071 116.07 24.1412L116.428 30.4431L113.313 30.6198L112.586 17.8004L115.701 17.6237L115.837 20.0199C116.622 18.3247 118.108 17.399 120.294 17.2429ZM128.544 16.8951L131.659 16.7184L132.387 29.5378L129.272 29.7145L128.544 16.8951ZM129.765 11.297C130.276 11.268 130.71 11.4197 131.065 11.7521C131.42 12.0845 131.614 12.5222 131.644 13.0654C131.674 13.5925 131.532 14.0413 131.216 14.4118C130.9 14.7823 130.487 14.982 129.976 15.011C129.465 15.04 129.031 14.8883 128.676 14.5559C128.321 14.2235 128.128 13.7937 128.098 13.2665C128.067 12.7234 128.21 12.2666 128.525 11.8962C128.841 11.5257 129.254 11.326 129.765 11.297ZM154.65 28.2748L152.963 24.8128L144.768 25.2776L143.484 28.9082L140.153 29.0972L146.558 11.9068L149.889 11.7179L158.1 28.079L154.65 28.2748ZM145.762 22.4568L151.657 22.1224L148.334 15.2436L145.762 22.4568ZM167.591 27.5406L167.502 25.9832C167.087 26.5676 166.536 27.0236 165.849 27.351C165.163 27.6784 164.364 27.8679 163.454 27.9196C162.559 27.9703 161.759 27.8475 161.053 27.551C160.362 27.2376 159.816 26.7878 159.414 26.2016C159.012 25.6154 158.79 24.947 158.747 24.1962C158.679 22.9981 159.05 22.0396 159.858 21.3206C160.666 20.5857 161.844 20.1663 163.393 20.0624L167.131 19.8504L167.112 19.5149C167.069 18.7641 166.788 18.1951 166.269 17.8079C165.751 17.4206 165.02 17.2537 164.078 17.3072C162.864 17.3761 161.616 17.8475 160.336 18.7214L159.087 16.6288C160.062 16.0126 160.95 15.5616 161.751 15.2757C162.567 14.973 163.526 14.7904 164.628 14.7279C166.29 14.6336 167.598 14.96 168.554 15.7071C169.526 16.4532 170.061 17.5447 170.158 18.9815L170.658 27.3667L167.591 27.5406ZM164.061 25.4813C164.955 25.4305 165.71 25.1794 166.326 24.7278C166.94 24.2602 167.27 23.7127 167.314 23.0852L167.249 21.935L164.014 22.1185C163.183 22.1657 162.576 22.3283 162.191 22.6066C161.821 22.8679 161.652 23.2782 161.684 23.8373C161.714 24.3804 161.939 24.8004 162.356 25.0972C162.79 25.3931 163.358 25.5212 164.061 25.4813ZM181.134 13.7915C182.604 13.7081 183.787 14.0897 184.685 14.9362C185.581 15.7668 186.072 16.9409 186.159 18.4584L186.613 26.4616L183.474 26.6396L183.071 19.547C183.02 18.6525 182.725 17.9641 182.185 17.4819C181.644 16.9838 180.934 16.7596 180.055 16.8095C179.018 16.8843 178.215 17.2824 177.647 18.0038C177.095 18.7242 176.849 19.6195 176.91 20.6898L177.268 26.9917L174.153 27.1684L173.425 14.349L176.54 14.1723L176.676 16.5684C177.461 14.8733 178.947 13.9476 181.134 13.7915ZM201.101 12.779L201.759 24.3763C201.828 25.5904 201.608 26.6605 201.1 27.5868C200.608 28.5282 199.865 29.2675 198.87 29.8047C197.892 30.357 196.732 30.6712 195.39 30.7473C193.441 30.8579 191.604 30.3932 189.878 29.3533L190.996 27.0302C192.261 27.8559 193.62 28.2275 195.074 28.145C196.224 28.0798 197.118 27.7326 197.755 27.1035C198.409 26.4735 198.706 25.6473 198.648 24.6249L198.563 23.1154C198.168 23.7948 197.638 24.3297 196.971 24.7201C196.303 25.0945 195.514 25.3075 194.603 25.3592C193.485 25.4226 192.48 25.2232 191.589 24.761C190.696 24.2828 189.984 23.594 189.452 22.6947C188.919 21.7794 188.619 20.7147 188.55 19.5007C188.482 18.3026 188.662 17.2347 189.089 16.297C189.516 15.3433 190.146 14.5864 190.98 14.0262C191.813 13.4661 192.789 13.1544 193.907 13.0909C194.802 13.0402 195.603 13.171 196.309 13.4835C197.032 13.7951 197.627 14.2581 198.095 14.8726L197.986 12.9557L201.101 12.779ZM195.136 22.8771C196.142 22.82 196.938 22.4383 197.523 21.732C198.123 21.0089 198.392 20.1042 198.33 19.0179C198.268 17.9317 197.899 17.0712 197.222 16.4365C196.56 15.785 195.726 15.4878 194.72 15.5449C193.713 15.6019 192.91 15.9921 192.31 16.7152C191.726 17.4374 191.456 18.3342 191.501 19.4053C191.579 20.4907 191.948 21.3591 192.61 22.0107C193.287 22.6454 194.129 22.9342 195.136 22.8771ZM204.064 8.81281L207.059 8.6429L207.295 12.8122L207.164 19.8149L205.223 19.925L204.3 12.9821L204.064 8.81281ZM206.308 22.099C206.787 22.0719 207.188 22.2094 207.509 22.5117C207.847 22.813 208.03 23.2113 208.058 23.7065C208.087 24.2177 207.951 24.6501 207.651 25.0037C207.365 25.3404 206.983 25.5223 206.504 25.5495C206.04 25.5758 205.639 25.4302 205.301 25.1129C204.978 24.7947 204.803 24.3879 204.775 23.8927C204.747 23.3975 204.876 22.9816 205.161 22.6449C205.462 22.3073 205.845 22.1253 206.308 22.099Z" fill="#0D2040"/>
<g clip-path="url(#clip0)">
<path d="M218.046 15.4155C222.253 14.3851 226.623 14.1961 230.903 14.8594C235.184 15.5227 239.291 17.0252 242.989 19.2806C246.627 21.4862 249.801 24.3768 252.336 27.7921C254.917 31.2633 256.785 35.2111 257.832 39.4078L256.324 42.9283L253.359 40.4889C251.552 33.2717 246.965 27.0616 240.598 23.2127C237.418 21.2667 233.884 19.9708 230.2 19.3998C226.516 18.8289 222.755 18.9943 219.135 19.8865C218.542 20.0309 217.916 19.9339 217.395 19.6168C216.873 19.2997 216.499 18.7885 216.355 18.1956C216.211 17.6027 216.308 16.9767 216.625 16.4554C216.942 15.934 217.453 15.56 218.046 15.4155ZM264.78 32.9217C264.219 32.6815 263.586 32.674 263.019 32.9009C262.453 33.1277 261.999 33.5703 261.759 34.1313L256.929 45.4121L247.452 37.6168C247.219 37.4249 246.95 37.2808 246.661 37.1928C246.372 37.1047 246.068 37.0745 245.768 37.1038C245.467 37.1331 245.175 37.2213 244.908 37.3634C244.641 37.5056 244.405 37.6988 244.214 37.9322C244.022 38.1656 243.877 38.4344 243.789 38.7235C243.701 39.0125 243.671 39.3161 243.7 39.6168C243.73 39.9176 243.818 40.2096 243.96 40.4762C244.102 40.7428 244.296 40.9789 244.529 41.1708L256.376 50.915C256.651 51.1419 256.976 51.3014 257.325 51.381C257.673 51.4606 258.035 51.458 258.382 51.3735C258.729 51.2889 259.051 51.1247 259.324 50.8939C259.597 50.6631 259.812 50.3719 259.952 50.0436L265.99 35.9425C266.109 35.6647 266.172 35.3662 266.175 35.0641C266.179 34.7619 266.123 34.4621 266.01 34.1816C265.898 33.9011 265.732 33.6454 265.521 33.4293C265.309 33.2131 265.058 33.0406 264.78 32.9217Z" fill="#0D2040"/>
</g>
<defs>
<clipPath id="clip0">
<rect x="224.715" y="62.4141" width="50" height="50" transform="rotate(-103.692 224.715 62.4141)" fill="white"/>
</clipPath>
</defs>
</svg>
