<svg width="1440" height="1395" viewBox="0 0 1440 1395" fill="none" xmlns="http://www.w3.org/2000/svg">
<path d="M1440.54 0.783203V1394.63C958.686 1390.37 476.853 1386.13 -5 1381.88V28.6701C-0.946988 25.4621 1.87848 23.4929 1.87848 23.4929C10.3866 17.5957 18.5879 11.9104 30.4506 8.67067C33.911 7.7284 51.0966 3.33468 71.7215 9.7294C76.9492 11.3493 95.9655 17.871 109.818 36.1976C123.056 53.7195 116.421 61.967 129.924 82.7816C135.384 91.1879 146.623 108.519 165.904 113.485C186.01 118.662 204.55 107.746 214.582 101.839C237.673 88.2446 243.736 72.5119 256.118 62.761C256.34 62.5916 256.573 62.4117 256.795 62.2423C260.234 59.6484 264.181 57.4991 269.102 55.9851C269.949 55.7205 270.816 55.477 271.727 55.2547C274.372 54.5983 288.616 51.3162 303.473 57.3721C317.347 63.0257 322.045 72.8507 338.395 95.4863C357.665 122.177 367.306 135.517 378.608 143.129C402.756 159.402 429.445 158.459 436.81 157.951C460.737 156.289 474.991 145.67 496.071 133.601C537.776 109.726 574.02 98.599 594.486 92.3102C653.736 74.1106 702.33 73.433 729.939 73.2531C770.998 72.9884 815.666 72.6496 868.567 91.2514C904.832 104.009 950.463 127.587 974.39 139.953C976.792 141.192 979.004 142.346 981.046 143.415C1003.99 155.463 1006.2 157.655 1018.84 162.186C1074.18 182.016 1120.82 171.757 1129.95 169.597C1141.84 166.792 1149.71 163.647 1163.81 157.951C1217.23 136.364 1254.49 110.076 1263.29 103.956C1294.03 82.5381 1345.92 50.5328 1440.54 0.783203Z" fill="#F2CF35"/>
</svg>
