<svg width="1440" height="1693" viewBox="0 0 1440 1693" fill="none" xmlns="http://www.w3.org/2000/svg">
<path d="M1440.54 298.783V1692.63C958.686 1688.37 476.853 1684.13 -5 1679.88V326.67C-0.946988 323.462 1.87848 321.493 1.87848 321.493C10.3866 315.596 18.5879 309.91 30.4506 306.671C33.911 305.728 51.0966 301.335 71.7215 307.729C76.9492 309.349 95.9655 315.871 109.818 334.198C123.056 351.72 116.421 359.967 129.924 380.782C135.384 389.188 146.623 406.519 165.904 411.485C186.01 416.662 204.55 405.746 214.582 399.839C237.673 386.245 243.736 370.512 256.118 360.761C256.34 360.592 256.573 360.412 256.795 360.242C260.234 357.648 264.181 355.499 269.102 353.985C269.949 353.72 270.816 353.477 271.727 353.255C274.372 352.598 288.616 349.316 303.473 355.372C317.347 361.026 322.045 370.851 338.395 393.486C357.665 420.177 367.306 433.517 378.608 441.129C402.756 457.402 429.445 456.459 436.81 455.951C460.737 454.289 474.991 443.67 496.071 431.601C537.776 407.726 574.02 396.599 594.486 390.31C653.736 372.111 702.33 371.433 729.939 371.253C770.998 370.988 815.666 370.65 868.567 389.251C904.832 402.009 950.463 425.587 974.39 437.953C976.792 439.192 979.004 440.346 981.046 441.415C1003.99 453.463 1006.2 455.655 1018.84 460.186C1074.18 480.016 1120.82 469.757 1129.95 467.597C1141.84 464.792 1149.71 461.647 1163.81 455.951C1217.23 434.364 1254.49 408.076 1263.29 401.956C1294.03 380.538 1345.92 348.533 1440.54 298.783Z" fill="#F2CF35"/>
<path d="M79.1291 82.2213C72.166 102.231 49.1072 101.098 41.0329 120.335C35.4243 133.697 40.4086 148.858 46.324 160.567C49.34 164.463 51.3824 168.052 52.7052 171.334C54.6735 176.162 55.0862 180.344 54.7899 183.859C53.1179 203.488 27.3289 223.773 -5 237.685V0.699219C10.175 5.11411 25.9214 12.1547 29.9215 13.9333C50.0067 22.9007 62.3985 28.639 71.1924 42.519C73.5946 46.3092 85.2351 64.6781 79.1291 82.2213Z" fill="#33B3A6"/>
<path d="M282.309 367.019C261.197 436.503 206.434 489.63 138.39 504.653C89.9125 515.357 35.5619 506.538 -5 481.52V146.899C3.0002 146.454 9.47656 147.534 11.4025 147.862C29.9215 150.975 43.4668 161.636 52.7052 171.334C57.2238 176.067 60.716 180.577 63.2557 183.859C72.6316 195.971 70.0495 197.506 86.5367 228.325C98.9286 251.501 105.659 264.089 117.225 278.086C132.686 296.804 148.073 307.486 160.613 316.2C186.169 333.955 208.603 342.827 227.281 350.079C237.334 353.986 246.975 357.268 256.075 360.02C256.319 360.095 256.562 360.169 256.795 360.243C261.324 361.609 265.705 362.837 269.938 363.959C274.224 365.092 278.351 366.108 282.309 367.019Z" fill="#E96730"/>
<path d="M252.277 341.895C249.472 335.003 244.848 328.862 238.996 324.257C233.969 320.308 228.117 317.502 223.154 313.469C218.191 309.445 214.011 303.644 214.276 297.259C214.381 294.634 215.397 291.86 217.62 290.431C220.17 288.79 223.472 289.33 226.488 289.097C229.916 288.832 233.26 287.466 235.885 285.243C238.34 283.168 240.213 279.632 238.689 276.805C237.916 275.365 236.445 274.476 235.08 273.576C231.927 271.501 229.027 269.055 226.445 266.302C224.212 263.931 222.159 261.157 221.736 257.928C221.313 254.699 223.069 250.993 226.234 250.22C228.9 249.575 231.546 251.078 234.054 252.19C236.562 253.301 239.842 253.936 241.768 251.988C242.636 251.11 243.038 249.871 243.313 248.664C244.128 245.149 244.192 241.465 243.514 237.928C243.059 235.567 242.266 233.249 242.234 230.846C242.202 228.442 243.123 225.827 245.239 224.684C248.382 223.001 252.319 225.435 254.086 228.538C255.853 231.629 256.351 235.313 258.023 238.468C259.695 241.623 263.377 244.302 266.679 242.936C268.182 242.312 269.261 240.978 270.34 239.76C272.796 236.997 275.843 234.466 279.494 233.895C283.145 233.323 287.399 235.377 288.161 238.987C288.923 242.597 286.203 245.922 283.695 248.632C278.838 253.884 273.875 259.548 272.372 266.546C271.663 269.838 272.563 274.296 275.886 274.846C277.536 275.121 279.166 274.243 280.447 273.173C283.896 270.283 285.865 265.837 289.558 263.253C293.124 260.765 298.077 260.448 301.929 262.47C305.781 264.492 308.341 268.748 308.32 273.099C308.289 280.5 301.77 285.963 296.246 290.875C287.685 298.488 280.15 307.391 275.039 317.64C269.928 327.888 267.325 339.545 268.679 350.916C269.409 357.014 271.208 363.462 268.732 369.083C267.282 372.376 264.224 375.478 260.965 377.045C255.536 379.66 256.15 375.288 256.245 370.788C256.446 361.058 256.001 351.043 252.277 341.895Z" fill="#444FCB"/>
<path d="M1440.54 245.35V442.612C1398.35 492.828 1396.32 427.081 1329.5 454.364C1198.49 507.872 975.323 552.268 956 502C946.402 477.035 965.056 476.216 974.919 454.364C976.665 450.5 978.887 446.275 981.046 441.416C984.432 433.835 987.67 424.72 988.676 413.074C989.215 406.785 989.025 400.793 991.85 391.899C994.475 383.652 997.554 373.954 1006.67 368.607C1018.22 361.831 1031.65 366.638 1034.18 367.548C1038.91 369.242 1044.45 373.647 1055.34 382.371C1068.44 392.873 1068.65 394.186 1072.28 395.075C1086.59 398.569 1101.85 382.54 1104.02 380.253C1113.63 370.153 1111.26 365.367 1123.07 345.315C1132.05 330.059 1136.59 322.341 1146.35 316.73C1160.69 308.482 1176.02 310.684 1181.27 311.436C1188.14 312.421 1198.95 313.977 1207.73 322.023C1219.77 333.055 1214.56 343.992 1225.72 352.726C1234.23 359.396 1246.98 360.646 1256.41 356.961C1266.87 352.874 1271.97 343.187 1279.69 324.141C1297.66 279.748 1293.25 274.698 1301.91 260.617C1318.06 234.35 1353.82 218.67 1386.57 221.444C1411.41 223.551 1429.48 235.843 1440.54 245.35Z" fill="#0D2040"/>
<path d="M1440.54 298.783V533H-0.5L-5 326.67C-0.946988 323.462 1.87848 321.493 1.87848 321.493C10.3866 315.596 18.5879 309.91 30.4506 306.671C33.911 305.728 51.0966 301.335 71.7215 307.729C76.9491 309.349 95.9655 315.871 109.818 334.198C123.056 351.72 116.421 359.967 129.924 380.782C135.384 389.188 146.623 406.519 165.904 411.485C186.01 416.662 204.55 405.746 214.582 399.839C237.673 386.245 243.736 370.512 256.118 360.761C256.34 360.592 256.573 360.412 256.795 360.242C260.234 357.648 264.181 355.499 269.102 353.985C269.949 353.72 270.816 353.477 271.727 353.255C274.372 352.598 288.616 349.316 303.473 355.372C317.347 361.026 322.045 370.851 338.395 393.486C357.665 420.177 367.306 433.517 378.608 441.129C402.756 457.402 429.445 456.459 436.81 455.951C460.737 454.289 474.991 443.67 496.071 431.601C537.776 407.726 574.02 396.599 594.486 390.31C653.736 372.111 702.33 371.433 729.939 371.253C770.998 370.988 815.666 370.65 868.567 389.251C904.832 402.009 950.463 425.587 974.39 437.953C976.792 439.192 979.004 440.346 981.046 441.415C1003.99 453.463 1006.2 455.655 1018.84 460.186C1074.18 480.016 1120.82 469.757 1129.95 467.597C1141.84 464.792 1149.71 461.647 1163.81 455.951C1217.23 434.364 1254.49 408.076 1263.29 401.956C1294.03 380.538 1345.92 348.533 1440.54 298.783Z" fill="#F2CF35"/>
</svg>
