<svg width="848" height="1781" viewBox="0 0 848 1781" fill="none" xmlns="http://www.w3.org/2000/svg">
<path d="M848 0V1781C565.329 1775.56 282.671 1770.14 0 1764.71V35.6327C2.37763 31.5337 4.03514 29.0175 4.03514 29.0175C9.0263 21.4824 13.8374 14.2178 20.7965 10.0783C22.8265 8.87429 32.9081 3.26018 45.0073 11.4311C48.074 13.5009 59.2296 21.8341 67.3558 45.251C75.1219 67.6399 71.2295 78.1782 79.1508 104.774C82.3541 115.515 88.9469 137.661 100.258 144.005C112.053 150.621 122.929 136.673 128.814 129.125C142.36 111.755 145.917 91.652 153.18 79.1927C153.31 78.9763 153.447 78.7463 153.577 78.5299C155.595 75.2155 157.911 72.4693 160.797 70.5348C161.294 70.1966 161.803 69.8855 162.337 69.6014C163.889 68.7627 172.245 64.569 180.96 72.307C189.099 79.531 191.855 92.0849 201.447 121.008C212.751 155.112 218.407 172.157 225.037 181.884C239.203 202.676 254.859 201.472 259.18 200.823C273.216 198.699 281.578 185.13 293.944 169.709C318.41 139.203 339.672 124.985 351.678 116.949C386.436 93.6948 414.943 92.829 431.139 92.599C455.226 92.2608 481.429 91.8279 512.463 115.597C533.737 131.898 560.506 162.025 574.542 177.825C575.951 179.408 577.248 180.883 578.447 182.249C591.905 197.644 593.203 200.444 600.615 206.234C633.082 231.572 660.441 218.463 665.798 215.704C672.776 212.119 677.388 208.101 685.663 200.823C717.001 173.239 738.859 139.649 744.018 131.83C762.052 104.463 792.495 63.568 848 0Z" fill="#F2CF35"/>
</svg>
