<svg width="487" height="304" viewBox="0 0 487 304" fill="none" xmlns="http://www.w3.org/2000/svg">
<path d="M487.539 24.3501V221.612C445.347 271.828 443.316 206.081 376.5 233.364C245.491 286.872 22.3232 331.268 3.00001 281C-6.59811 256.035 12.0561 255.216 21.9188 233.364C23.6648 229.5 25.8871 225.275 28.0459 220.416C31.4322 212.835 34.6704 203.72 35.6757 192.074C36.2154 185.785 36.0249 179.793 38.8504 170.899C41.4748 162.652 44.5542 152.954 53.6656 147.607C65.2214 140.831 78.6503 145.638 81.1795 146.548C85.9098 148.242 91.4549 152.647 102.344 161.371C115.445 171.873 115.646 173.186 119.276 174.075C133.594 177.569 148.853 161.54 151.023 159.253C160.631 149.153 158.261 144.367 170.071 124.315C179.055 109.059 183.595 101.341 193.352 95.7295C207.691 87.482 223.024 89.6842 228.273 90.4359C235.141 91.4205 245.946 92.9769 254.729 101.023C266.771 112.055 261.565 122.992 272.719 131.726C281.227 138.396 293.978 139.646 303.407 135.961C313.873 131.874 318.974 122.187 326.688 103.141C344.657 58.7482 340.255 53.6981 348.911 39.617C365.06 13.35 400.817 -2.3298 433.569 0.444069C458.406 2.55094 476.48 14.8427 487.539 24.3501Z" fill="#0D2040"/>
</svg>
