<svg width="215" height="100" viewBox="0 0 215 100" fill="none" xmlns="http://www.w3.org/2000/svg">
<path d="M4.58214 7.37099L6.87511 7.59611L5.13507 25.3189L2.84209 25.0938L4.58214 7.37099ZM15.3776 13.4228C17.1292 13.5948 18.4245 14.156 19.2637 15.1066C20.1187 16.0587 20.4626 17.3866 20.2953 19.0904L19.5449 26.7337L17.3714 26.5203L17.5355 24.8483C17.0955 25.4 16.5016 25.7998 15.7538 26.048C15.0234 26.2817 14.1726 26.3509 13.2013 26.2555C11.7841 26.1164 10.6792 25.6623 9.88653 24.8931C9.10981 24.1256 8.77617 23.1845 8.88561 22.0698C8.99505 20.9552 9.48865 20.1033 10.3664 19.5143C11.2457 18.9093 12.5691 18.6936 14.3366 18.8671L17.9672 19.2236L18.0117 18.7698C18.1087 17.7825 17.8963 16.998 17.3747 16.4162C16.853 15.8345 16.0349 15.4889 14.9202 15.3795C14.1718 15.306 13.4268 15.3614 12.6853 15.5459C11.9453 15.7144 11.3081 15.9814 10.7738 16.3469L9.98728 14.5334C10.6917 14.072 11.5111 13.7505 12.4453 13.569C13.3811 13.3715 14.3585 13.3227 15.3776 13.4228ZM13.757 24.5256C14.6328 24.6115 15.4079 24.4947 16.0823 24.1751C16.7584 23.8395 17.2749 23.3276 17.6318 22.6392L17.8054 20.8716L14.2704 20.5246C12.3277 20.3338 11.2923 20.8913 11.1641 22.1971C11.1015 22.834 11.2991 23.3598 11.7568 23.7745C12.2145 24.1892 12.8812 24.4396 13.757 24.5256ZM31.8024 15.0354C33.4106 15.1933 34.6384 15.7881 35.4856 16.8198C36.3504 17.8372 36.6944 19.2455 36.5177 21.0449L35.8025 28.3299L33.5095 28.1047L34.199 21.0825C34.3193 19.8564 34.1154 18.9039 33.5872 18.2251C33.059 17.5462 32.2456 17.1528 31.1469 17.045C29.9048 16.923 28.8896 17.1931 28.1011 17.8552C27.3142 18.5014 26.8543 19.5013 26.7214 20.8548L26.0812 27.3754L23.7883 27.1503L25.5283 9.4275L27.8213 9.65263L27.1482 16.5077C27.6853 15.9495 28.3525 15.5407 29.1496 15.2814C29.9627 15.0236 30.847 14.9416 31.8024 15.0354ZM50.077 29.876C49.0419 29.7744 48.06 29.5414 47.1312 29.1769C46.2039 28.7964 45.4907 28.3647 44.9915 27.8816L46.1251 26.1601C46.6434 26.6129 47.2889 26.9978 48.0616 27.3149C48.8343 27.6319 49.6267 27.8303 50.4388 27.91C52.4452 28.107 53.5046 27.6322 53.6172 26.4857C53.6547 26.1036 53.5491 25.7877 53.3002 25.5382C53.0514 25.2887 52.7247 25.0959 52.3201 24.9597C51.9329 24.8091 51.3714 24.6334 50.6355 24.4326C49.6321 24.1733 48.8141 23.9081 48.1815 23.637C47.5649 23.3674 47.0499 22.9632 46.6366 22.4242C46.2233 21.8853 46.0604 21.1699 46.148 20.2782C46.2605 19.1317 46.8281 18.263 47.8508 17.6721C48.875 17.0653 50.1912 16.8408 51.7995 16.9987C52.6434 17.0816 53.4772 17.2679 54.3008 17.5578C55.1244 17.8477 55.7897 18.1943 56.2967 18.5978L55.1392 20.3169C54.1699 19.5465 52.9845 19.0925 51.5833 18.955C50.612 18.8596 49.8559 18.9461 49.3151 19.2146C48.7742 19.483 48.478 19.88 48.4264 20.4054C48.3858 20.8195 48.4971 21.16 48.7602 21.4269C49.0234 21.6939 49.3565 21.9035 49.7596 22.0556C50.1786 22.2093 50.7632 22.3953 51.5135 22.6136C52.5154 22.8889 53.3167 23.1605 53.9173 23.4284C54.5355 23.6821 55.0441 24.0696 55.443 24.5911C55.842 25.1126 55.9993 25.8032 55.9148 26.6631C55.8023 27.8096 55.2188 28.6767 54.1643 29.2645C53.1273 29.8379 51.7648 30.0418 50.077 29.876ZM59.6693 17.892L61.9623 18.1171L60.7194 30.7762L58.4264 30.5511L59.6693 17.892ZM61.055 15.5682C60.6091 15.5245 60.249 15.3444 59.9746 15.0281C59.7161 14.7133 59.6072 14.3489 59.6478 13.9349C59.6885 13.5209 59.8662 13.1847 60.1809 12.9262C60.5132 12.6534 60.9022 12.5388 61.3481 12.5826C61.794 12.6264 62.1461 12.8056 62.4046 13.1204C62.6806 13.4208 62.7982 13.778 62.7576 14.192C62.7154 14.622 62.5281 14.9733 62.1959 15.2462C61.8811 15.5047 61.5008 15.612 61.055 15.5682ZM70.9619 18.8801C72.7135 19.0521 74.0088 19.6133 74.848 20.5639C75.703 21.516 76.0469 22.8439 75.8796 24.5478L75.1292 32.191L72.9557 31.9776L73.1198 30.3056C72.6798 30.8573 72.0859 31.2572 71.3381 31.5053C70.6077 31.739 69.7569 31.8082 68.7856 31.7129C67.3684 31.5737 66.2635 31.1196 65.4708 30.3505C64.6941 29.5829 64.3605 28.6418 64.4699 27.5272C64.5793 26.4125 65.0729 25.5607 65.9507 24.9716C66.83 24.3666 68.1534 24.1509 69.9209 24.3245L73.5515 24.6809L73.596 24.2271C73.693 23.2398 73.4806 22.4553 72.959 21.8736C72.4373 21.2918 71.6192 20.9462 70.5045 20.8368C69.7561 20.7633 69.0111 20.8188 68.2696 21.0032C67.5296 21.1717 66.8924 21.4387 66.3581 21.8043L65.5716 19.9907C66.276 19.5294 67.0954 19.2079 68.0296 19.0263C68.9654 18.8288 69.9428 18.7801 70.9619 18.8801ZM69.3413 29.9829C70.2171 30.0689 70.9922 29.9521 71.6666 29.6324C72.3427 29.2969 72.8592 28.7849 73.2161 28.0965L73.3897 26.329L69.8547 25.9819C67.912 25.7912 66.8766 26.3487 66.7484 27.6544C66.6858 28.2913 66.8834 28.8172 67.3411 29.2319C67.7988 29.6466 68.4655 29.8969 69.3413 29.9829ZM87.3389 20.488C88.565 20.6084 89.6371 20.987 90.5553 21.6237C91.4735 22.2605 92.1556 23.0911 92.6016 24.1156C93.0636 25.1417 93.232 26.2916 93.1069 27.5655C92.9819 28.8394 92.5922 29.9426 91.938 30.8751C91.3012 31.7933 90.4706 32.4754 89.4461 32.9214C88.4216 33.3675 87.2963 33.5303 86.0702 33.4099C85.1626 33.3208 84.3438 33.0635 83.6139 32.6382C82.8999 32.2144 82.3129 31.6423 81.8531 30.9219L81.2106 37.4665L78.9176 37.2413L80.6154 19.9485L82.8129 20.1642L82.6159 22.1706C83.1942 21.52 83.8907 21.0578 84.7054 20.7841C85.5216 20.4945 86.3994 20.3958 87.3389 20.488ZM86.0761 31.3848C86.8882 31.4645 87.6307 31.3525 88.3036 31.0488C88.994 30.7308 89.5551 30.2553 89.987 29.6225C90.4364 28.9753 90.7041 28.2138 90.7901 27.338C90.8761 26.4622 90.7608 25.6712 90.4443 24.9649C90.1453 24.2442 89.6873 23.6687 89.0704 23.2384C88.4695 22.8096 87.7629 22.5554 86.9508 22.4756C86.1547 22.3975 85.4114 22.5174 84.721 22.8355C84.0481 23.1392 83.4877 23.6067 83.0399 24.2379C82.608 24.8707 82.3491 25.625 82.2631 26.5008C82.1771 27.3766 82.2836 28.1749 82.5826 28.8955C82.8832 29.6003 83.3412 30.1758 83.9565 30.622C84.5734 31.0524 85.2799 31.3066 86.0761 31.3848ZM101.401 21.8687C103.153 22.0407 104.448 22.6019 105.288 23.5525C106.143 24.5046 106.486 25.8325 106.319 27.5363L105.569 35.1796L103.395 34.9662L103.559 33.2942C103.119 33.8459 102.525 34.2458 101.778 34.4939C101.047 34.7276 100.196 34.7968 99.2251 34.7015C97.808 34.5623 96.703 34.1082 95.9104 33.3391C95.1337 32.5715 94.8001 31.6304 94.9095 30.5157C95.0189 29.4011 95.5125 28.5493 96.3903 27.9602C97.2696 27.3552 98.593 27.1395 100.361 27.313L103.991 27.6695L104.036 27.2157C104.133 26.2284 103.92 25.4439 103.399 24.8622C102.877 24.2804 102.059 23.9348 100.944 23.8254C100.196 23.7519 99.4507 23.8074 98.7091 23.9918C97.9691 24.1603 97.332 24.4273 96.7977 24.7929L96.0112 22.9793C96.7156 22.518 97.5349 22.1965 98.4692 22.0149C99.4049 21.8174 100.382 21.7687 101.401 21.8687ZM99.7808 32.9715C100.657 33.0575 101.432 32.9407 102.106 32.621C102.782 32.2855 103.299 31.7735 103.656 31.0851L103.829 29.3176L100.294 28.9705C98.3516 28.7798 97.3162 29.3373 97.188 30.643C97.1254 31.2799 97.323 31.8057 97.7807 32.2204C98.2383 32.6352 98.9051 32.8855 99.7808 32.9715ZM124.241 24.1111C125.849 24.269 127.077 24.8638 127.924 25.8955C128.789 26.9129 129.133 28.3212 128.956 30.1206L128.241 37.4056L125.948 37.1804L126.637 30.1582C126.758 28.9321 126.554 27.9796 126.026 27.3008C125.497 26.6219 124.684 26.2285 123.585 26.1207C122.343 25.9987 121.328 26.2688 120.539 26.9309C119.753 27.5771 119.293 28.577 119.16 29.9305L118.52 36.4511L116.227 36.226L117.469 23.5669L119.667 23.7826L119.479 25.6934C120.005 25.0859 120.675 24.6453 121.49 24.3716C122.321 24.0994 123.238 24.0126 124.241 24.1111ZM133.727 25.1631L136.02 25.3882L134.777 38.0473L132.484 37.8222L133.727 25.1631ZM135.113 22.8393C134.667 22.7956 134.307 22.6155 134.033 22.2992C133.774 21.9844 133.665 21.62 133.706 21.206C133.746 20.792 133.924 20.4558 134.239 20.1973C134.571 19.9245 134.96 19.8099 135.406 19.8537C135.852 19.8975 136.204 20.0767 136.463 20.3915C136.739 20.6919 136.856 21.0491 136.816 21.4631C136.773 21.8931 136.586 22.2444 136.254 22.5173C135.939 22.7758 135.559 22.8831 135.113 22.8393ZM143.272 33.5519C143.335 32.915 143.493 32.3678 143.747 31.9104C144.019 31.4387 144.322 31.0505 144.657 30.7458C145.009 30.4427 145.462 30.0852 146.017 29.6735C146.708 29.1787 147.225 28.7471 147.567 28.3787C147.91 27.9944 148.109 27.5156 148.166 26.9424C148.242 26.1621 148.001 25.5114 147.441 24.9902C146.883 24.4531 146.07 24.1322 145.003 24.0274C143.14 23.8445 141.653 24.3336 140.543 25.4946L138.921 24.0814C139.674 23.2872 140.591 22.71 141.671 22.3498C142.768 21.9912 144.001 21.8792 145.37 22.0136C147.106 22.184 148.445 22.7014 149.39 23.5658C150.335 24.4143 150.743 25.4993 150.613 26.821C150.549 27.4738 150.381 28.0441 150.108 28.5317C149.852 29.0051 149.557 29.394 149.221 29.6987C148.886 30.0034 148.441 30.3616 147.886 30.7734C147.175 31.2985 146.639 31.7683 146.277 32.1829C145.93 32.599 145.725 33.1335 145.661 33.7864L143.272 33.5519ZM143.958 39.0934C143.512 39.0496 143.152 38.8696 142.878 38.5533C142.621 38.2226 142.514 37.8423 142.556 37.4123C142.598 36.9824 142.777 36.6382 143.091 36.3797C143.424 36.1069 143.813 35.9923 144.258 36.0361C144.704 36.0799 145.056 36.2671 145.313 36.5978C145.571 36.9126 145.679 37.2849 145.637 37.7149C145.595 38.1448 145.408 38.4962 145.075 38.769C144.761 39.0275 144.388 39.1356 143.958 39.0934Z" fill="#0D2040"/>
<g clip-path="url(#clip0)">
<path d="M61.8781 40.3166C63.3996 44.3722 64.1048 48.6886 63.9531 53.0176C63.8015 57.3466 62.7961 61.603 60.9946 65.5423C59.2352 69.4151 56.7409 72.9095 53.65 75.8317C50.5089 78.8052 46.81 81.1273 42.7669 82.6639L39.0926 81.5842L41.1636 78.3504C48.116 75.7016 53.7391 70.4114 56.8069 63.6334C58.3625 60.2454 59.2308 56.5825 59.3613 52.8567C59.4919 49.1309 58.8823 45.4162 57.5676 41.9277C57.354 41.3561 57.3762 40.723 57.6293 40.1677C57.8824 39.6125 58.3457 39.1805 58.9173 38.9669C59.4889 38.7532 60.122 38.7754 60.6773 39.0285C61.2325 39.2816 61.6645 39.7449 61.8781 40.3166ZM50.0303 88.7952C50.2023 88.2098 50.1348 87.5799 49.8424 87.0443C49.5501 86.5086 49.0569 86.111 48.4715 85.939L36.6979 82.4792L43.3159 72.1454C43.4789 71.8909 43.5901 71.6069 43.6433 71.3094C43.6965 71.012 43.6905 70.707 43.6258 70.4118C43.5611 70.1167 43.4389 69.8372 43.2662 69.5892C43.0935 69.3413 42.8736 69.1298 42.6192 68.9669C42.3647 68.8039 42.0807 68.6927 41.7832 68.6395C41.4858 68.5863 41.1808 68.5923 40.8857 68.657C40.5905 68.7217 40.311 68.8439 40.0631 69.0166C39.8151 69.1893 39.6037 69.4092 39.4407 69.6636L31.1682 82.5809C30.9756 82.8817 30.8556 83.2233 30.8179 83.5784C30.7801 83.9336 30.8255 84.2928 30.9506 84.6274C31.0756 84.9619 31.2769 85.2628 31.5384 85.5062C31.7999 85.7495 32.1144 85.9286 32.4571 86.0293L47.174 90.3541C47.4639 90.4393 47.7678 90.4665 48.0682 90.4343C48.3686 90.402 48.6598 90.311 48.925 90.1662C49.1902 90.0215 49.4244 89.8259 49.614 89.5906C49.8036 89.3554 49.9451 89.0851 50.0303 88.7952Z" fill="#0D2040"/>
</g>
<defs>
<clipPath id="clip0">
<rect x="16" y="52.5059" width="50" height="50" transform="rotate(-20.4939 16 52.5059)" fill="white"/>
</clipPath>
</defs>
</svg>
