<svg width="1556" height="1098" viewBox="0 0 1556 1098" fill="none" xmlns="http://www.w3.org/2000/svg">
<g clip-path="url(#clip0)">
<path d="M1559 42H35V785H1559V42Z" fill="#E5E6DE"/>
<path d="M1498.02 476.876C1498.02 476.876 1577.38 408.763 1528.97 339.655C1490.56 284.845 1507.93 238.413 1516.76 221.543C1519.58 216.155 1521.17 210.202 1521.3 204.129C1521.84 177.951 1518.4 112.92 1470.52 119.084C1410.72 126.771 1426.57 188.685 1426.57 188.685C1426.57 188.685 1427.47 222.129 1391.01 211.39C1376.04 206.982 1368.25 213.34 1364.28 222.35C1357.95 236.674 1363.58 253.393 1376.77 261.833C1390.73 270.78 1409.72 288.048 1416.36 318.141C1427.32 367.879 1380.02 445.691 1380.02 445.691C1380.02 445.691 1368.52 479.084 1379.98 485.384C1391.44 491.685 1501.16 477.359 1501.16 477.359L1498.02 476.876Z" fill="#F2CF35"/>
<path d="M1607.67 683.038C1607.67 683.038 1503.58 693.127 1487.26 610.34C1474.31 544.674 1428.78 525.048 1410.51 519.748C1404.67 518.056 1399.27 515.088 1394.8 510.959C1375.53 493.22 1330.99 445.704 1368.6 415.432C1415.56 377.615 1449.24 431.92 1449.24 431.92C1449.24 431.92 1472.74 455.734 1490.25 421.99C1497.43 408.139 1507.42 406.916 1516.67 410.284C1531.38 415.649 1539.54 431.281 1536.5 446.637C1533.28 462.909 1532.58 488.559 1549.71 514.195C1578 556.539 1666.89 576.302 1666.89 576.302C1666.89 576.302 1698.95 591.127 1695.56 603.755C1692.18 616.376 1605.86 685.626 1605.86 685.626L1607.67 683.038Z" fill="#E9622A"/>
<path d="M1642.55 642.556C1642.55 642.556 1587.54 622.45 1540.13 591.658C1508.41 571.045 1480.08 545.634 1473.92 518.257C1458.55 449.962 1393.99 438.686 1393.99 438.686" stroke="#FCF4E7" stroke-width="4" stroke-miterlimit="10"/>
<path d="M1394.09 242.221C1394.09 242.221 1458.11 304.086 1506.56 289.01C1555.03 273.928 1583.95 294.847 1583.95 294.847" stroke="#FCF4E7" stroke-width="4" stroke-miterlimit="10"/>
<path d="M98.6147 471.49C98.6147 471.49 183.153 444.774 165.833 381.979C152.098 332.169 180.358 303.787 192.638 294.184C196.562 291.117 199.682 287.306 201.658 282.99C210.198 264.426 227.588 216.989 187.401 208.142C137.207 197.088 130.713 245.724 130.713 245.724C130.713 245.724 121.087 269.878 95.2552 252.109C84.6544 244.815 76.4533 247.2 70.4824 252.539C60.9967 261.032 60.3192 274.535 68.2521 284.214C76.6509 294.474 86.4894 312.066 82.4665 335.425C75.8322 374.003 13.9214 416.531 13.9214 416.531C13.9214 416.531 -5.61451 437.215 1.59853 444.888C8.79746 452.561 100.958 472.702 100.958 472.702L98.6147 471.49Z" fill="#33B3A6"/>
<path d="M238.287 647.246C238.287 647.246 148.71 643.561 144.941 578.973C141.963 527.75 105.714 507.899 90.8365 501.88C86.0796 499.961 81.8731 497.109 78.5701 493.5C64.384 477.94 32.384 437.04 67.9693 418.173C112.433 394.6 134.397 439.463 134.397 439.463C134.397 439.463 151.435 460.096 170.406 436.396C178.198 426.666 186.808 426.83 194.247 430.389C206.076 436.055 211.101 448.814 206.64 460.134C201.926 472.122 198.213 491.519 209.619 512.821C228.477 548.03 301.497 572.701 301.497 572.701C301.497 572.701 326.891 587.441 322.487 596.653C318.083 605.866 236.396 649 236.396 649L238.287 647.246Z" fill="#F2CF35"/>
<path d="M284.517 632.455C284.517 632.455 240.279 611.216 203.804 582.683C179.384 563.589 158.451 541.227 156.559 519.774C151.831 466.279 98.4175 450.693 98.4175 450.693" stroke="#FCF4E7" stroke-width="4" stroke-miterlimit="10"/>
<path d="M183.21 463.516C183.21 463.516 157.477 500.819 172.468 526.248C187.458 551.677 179.751 568.221 179.751 568.221" stroke="#FCF4E7" stroke-width="4" stroke-miterlimit="10"/>
<path d="M170.942 240.99C170.942 240.99 159.989 284.806 139.098 323.902C125.109 350.075 106.674 374.128 84.0893 381.548C27.7401 400.036 25.3687 450.237 25.3687 450.237" stroke="#FCF4E7" stroke-width="4" stroke-miterlimit="10"/>
<path d="M1554.86 522H0V2717.07H1554.86V522Z" fill="#0D2040"/>
<path d="M778.321 789.902H718.137C677.798 789.902 644.787 756.891 644.787 716.552V690.334C644.787 649.995 677.798 616.984 718.137 616.984H778.321C818.66 616.984 851.671 649.995 851.671 690.334V716.552C851.671 756.891 818.66 789.902 778.321 789.902Z" fill="#E5E6DE"/>
<path d="M978.022 797.185H911.117C878.265 797.185 851.382 770.302 851.382 737.45V675.36C851.382 642.508 878.265 615.625 911.117 615.625H978.022C1010.87 615.625 1037.76 642.508 1037.76 675.36V737.45C1037.76 770.302 1010.87 797.185 978.022 797.185Z" fill="#E5E6DE"/>
<path d="M561.406 773.612H521.703C481.363 773.612 448.352 740.601 448.352 700.262V691.908C448.352 651.569 481.363 618.559 521.703 618.559H561.406C601.745 618.559 634.756 651.569 634.756 691.908V700.262C634.756 740.615 601.745 773.612 561.406 773.612Z" fill="#E5E6DE"/>
<path d="M385.885 788.714H318.98C286.128 788.714 259.245 761.832 259.245 728.98V680.041C259.245 647.189 286.128 620.307 318.98 620.307H385.885C418.737 620.307 445.62 647.189 445.62 680.041V728.965C445.62 761.832 418.737 788.714 385.885 788.714Z" fill="#E5E6DE"/>
<path d="M1248.04 797.185H1181.13C1148.28 797.185 1121.4 770.302 1121.4 737.45V675.36C1121.4 642.508 1148.28 615.625 1181.13 615.625H1248.04C1280.89 615.625 1307.77 642.508 1307.77 675.36V737.45C1307.77 770.302 1280.89 797.185 1248.04 797.185Z" fill="#E5E6DE"/>
<path d="M1039.52 569.564L1050.2 587.616C1050.2 587.616 1054.55 595.044 1046.39 611.434C1038.23 627.824 1102.54 623.257 1102.54 623.257C1102.54 623.257 1095.6 607.807 1094.95 595.42C1094.3 583.034 1101.37 579.291 1101.37 579.291L1070.09 551.945L1039.52 569.564Z" fill="#B6845F"/>
<path d="M1150.03 648.636L1150.62 638.822C1150.62 638.822 1147.24 588.974 1090.15 605.147C1052.85 615.726 1044.41 600.522 1024.63 602.458C1021.51 602.762 992.923 609.887 987.012 637.565C981.1 665.242 987.388 711.174 987.388 711.174L1144.32 709.035L1150.03 648.636Z" fill="#E9622A"/>
<path d="M1077.2 590H1071.25C1051.42 590 1035.2 573.784 1035.2 553.954V530.135C1035.2 516.636 1051.6 504.12 1058.08 503.224C1060.41 502.906 1062.76 502.92 1065.07 503.31L1074.9 504.756L1082.78 503.57C1088.07 502.645 1093.95 502.559 1098.37 505.565C1105.62 510.494 1113.23 518.949 1113.23 529.355V553.954C1113.25 573.769 1097.02 590 1077.2 590Z" fill="#F2CF35"/>
<path d="M1105.9 906.264H998.242C957.902 906.264 924.891 873.253 924.891 832.915V743.652C924.891 703.314 957.902 670.303 998.242 670.303H1105.9C1146.24 670.303 1179.25 703.314 1179.25 743.652V832.915C1179.25 873.253 1146.24 906.264 1105.9 906.264Z" fill="#0D2040"/>
<path d="M1390.65 831.468H1282.99C1242.65 831.468 1209.64 798.457 1209.64 758.119V741.758C1209.64 701.419 1242.65 668.408 1282.99 668.408H1390.65C1430.99 668.408 1464 701.419 1464 741.758V758.119C1464 798.457 1430.99 831.468 1390.65 831.468Z" fill="#0D2040"/>
<path d="M847.104 882.747H739.441C699.102 882.747 666.09 849.736 666.09 809.398V744.518C666.09 704.179 699.102 671.168 739.441 671.168H847.104C887.443 671.168 920.454 704.179 920.454 744.518V809.398C920.454 849.751 887.443 882.747 847.104 882.747Z" fill="#0D2040"/>
<path d="M589.025 836.584H481.363C441.024 836.584 408.012 803.573 408.012 763.234V746.873C408.012 706.534 441.024 673.523 481.363 673.523H589.025C629.365 673.523 662.376 706.534 662.376 746.873V763.234C662.376 803.587 629.365 836.584 589.025 836.584Z" fill="#0D2040"/>
<path d="M1113.43 833.839H1005.77C965.433 833.839 932.421 800.828 932.421 760.49V744.129C932.421 703.79 965.433 670.779 1005.77 670.779H1113.43C1153.77 670.779 1186.79 703.79 1186.79 744.129V760.49C1186.79 800.843 1153.77 833.839 1113.43 833.839Z" stroke="#0D2040" stroke-width="5" stroke-miterlimit="10"/>
<path d="M1372.79 835.718H1265.11C1224.77 835.718 1191.76 802.707 1191.76 762.369V746.008C1191.76 705.669 1224.77 672.658 1265.11 672.658H1372.77C1413.11 672.658 1446.12 705.669 1446.12 746.008V762.369C1446.12 802.707 1413.12 835.718 1372.79 835.718Z" stroke="#0D2040" stroke-width="5" stroke-miterlimit="10"/>
<path d="M591.844 837.075H484.181C443.842 837.075 410.831 804.065 410.831 763.726V747.365C410.831 707.027 443.842 674.016 484.181 674.016H591.844C632.183 674.016 665.194 707.027 665.194 747.365V763.726C665.194 804.065 632.183 837.075 591.844 837.075Z" stroke="#0D2040" stroke-width="5" stroke-miterlimit="10"/>
<path d="M979.265 979.669H871.602C831.263 979.669 798.251 946.658 798.251 906.32V889.959C798.251 849.62 831.263 816.609 871.602 816.609H979.265C1019.6 816.609 1052.62 849.62 1052.62 889.959V906.32C1052.62 946.673 1019.6 979.669 979.265 979.669Z" fill="#0D2040"/>
<path d="M331.106 829.156H223.443C183.104 829.156 150.093 796.145 150.093 755.806V739.445C150.093 699.107 183.104 666.096 223.443 666.096H331.106C371.445 666.096 404.457 699.107 404.457 739.445V755.806C404.457 796.145 371.46 829.156 331.106 829.156Z" fill="#0D2040"/>
<path d="M1341.58 1157.37H451.083C410.744 1157.37 377.732 1124.36 377.732 1084.02V1031.15C377.732 990.814 410.744 957.803 451.083 957.803H1341.58C1381.92 957.803 1414.93 990.814 1414.93 1031.15V1084.02C1414.93 1124.36 1381.93 1157.37 1341.58 1157.37Z" fill="#444FCB"/>
<path d="M1069.61 710.322C1068.57 688.787 1062.89 680.39 1061.66 678.814C1061.49 678.583 1061.33 678.338 1061.22 678.077L1048.16 650.674C1048.11 650.573 1048.06 650.457 1048.02 650.356C1047.01 647.668 1034.53 613.125 1054.19 600.363C1064.76 593.498 1068.54 590.145 1069.76 588.511C1070.52 587.471 1071.69 586.835 1072.98 586.763L1073.76 586.719C1076.17 586.589 1078.21 588.482 1078.27 590.896C1078.28 591.59 1078.47 592.269 1078.8 592.876L1079.98 594.986C1080.26 595.507 1080.65 595.955 1081.13 596.316C1085.63 599.713 1110.04 619.166 1106.77 639.198C1103.17 661.254 1070.13 721.148 1069.61 710.322Z" fill="#F2CF35"/>
<path d="M1078.69 592.659H1065.52C1064.74 592.659 1064.11 592.023 1064.11 591.243C1064.11 590.462 1064.74 589.826 1065.52 589.826H1078.69C1079.47 589.826 1080.11 590.462 1080.11 591.243C1080.09 592.023 1079.46 592.659 1078.69 592.659Z" fill="#0D2040"/>
<path d="M798.598 963.773H431.34C391.001 963.773 357.989 930.762 357.989 890.423V874.062C357.989 833.724 391.001 800.713 431.34 800.713H798.598C838.938 800.713 871.949 833.724 871.949 874.062V890.423C871.949 930.776 838.938 963.773 798.598 963.773Z" fill="#0D2040"/>
<path d="M662.318 607.794C662.318 607.794 665.454 609.832 667.333 620.18C668.446 626.323 669.01 630.095 669.285 632.133C669.472 633.491 669.949 634.778 670.687 635.919L678.303 647.757C678.303 647.757 678.303 651.052 673.447 650.257C668.591 649.477 672.97 656.616 672.97 656.616C672.97 656.616 673.722 658.322 671.25 659.854C668.519 661.545 669.299 660.562 670.947 662.455C671.814 663.438 671.149 665.375 671.091 665.375C669.848 665.621 668.909 666.661 669.545 667.789C669.921 668.439 670.759 672.038 670.73 672.789C670.499 678.426 666.148 683.311 659.5 683.167C644.757 682.849 637.603 683.933 634.813 691.159C634.177 692.807 633.903 694.57 633.874 696.333C633.831 698.617 633.831 700.857 633.961 701.97C634.279 704.789 590.659 704.948 590.659 704.948L593.52 689.381C593.809 686.982 593.795 684.569 593.477 682.184C592.841 677.458 591.15 667.153 591.063 666.603L582.984 622.521L616.993 586.316L662.318 607.794Z" fill="#F4BF7F"/>
<path d="M712.789 751.313L713.541 739.057C713.541 739.057 709.306 676.75 637.964 696.984C591.352 710.194 580.802 691.203 556.086 693.631C552.184 694.021 516.455 702.91 509.07 737.51C501.684 772.111 476.55 835.228 476.55 835.228L705.664 826.845L712.789 751.313Z" fill="#33B3A6"/>
<path d="M595.096 667.845C596.845 667.889 598.059 666.125 597.409 664.507L593.622 655.054L588.708 642.177C588.535 641.714 588.173 641.353 587.769 641.064C587.205 640.645 586.511 639.358 587.003 635.398C587.61 630.6 591.367 628.475 593.015 627.767C593.478 627.565 593.998 627.507 594.489 627.637C598.551 628.62 601.817 631.192 603.32 632.551C603.927 633.1 604.78 633.302 605.575 633.086L606.558 632.825C607.295 632.638 607.888 632.117 608.177 631.409L609.593 628.056C609.795 627.579 609.839 627.044 609.723 626.538L605.98 611.016C605.879 610.597 605.893 610.163 606.009 609.758L606.616 607.706C606.731 607.33 606.934 606.969 607.208 606.694L608.885 604.96C609.029 604.815 609.188 604.685 609.362 604.584L614.319 601.563C614.449 601.477 614.594 601.419 614.738 601.361L618.597 599.93C618.858 599.829 619.132 599.786 619.421 599.786L626.879 599.713C626.937 599.713 627.009 599.713 627.067 599.713L636.78 600.393C636.924 600.407 637.054 600.422 637.184 600.45L649.788 603.529C649.976 603.572 650.163 603.645 650.337 603.746L657.665 607.59C657.896 607.72 658.113 607.879 658.301 608.067L662.044 612.027C662.145 612.143 662.246 612.259 662.333 612.389L665.094 616.71L666.655 620.165C666.713 620.266 667.71 623.518 667.797 623.619C667.797 623.619 671.598 623.706 672.436 622.231L673.13 621.249C673.318 620.988 673.549 620.757 673.824 620.598C674.705 620.063 677.061 618.141 679.085 612.1C681.513 604.83 683.276 593.426 683.421 592.415C683.435 592.357 683.435 592.313 683.449 592.256L684.028 589.654C684.49 587.616 684.664 585.52 684.577 583.425L684.172 574.507C684.042 571.703 683.305 568.943 682.004 566.457L679.663 561.947C678.463 559.635 676.801 557.597 674.777 555.949L672.465 554.07C671.569 553.333 670.615 552.697 669.589 552.148C667.594 551.107 663.952 549.489 658.445 548.087C649.499 545.818 641.622 546.295 635.407 554.764C631.331 560.314 628.657 564.332 627.298 566.442C625.983 568.495 623.801 569.882 621.372 570.041C621.344 570.041 621.3 570.041 621.271 570.041C617.138 570.287 613.51 571.66 611.27 571.833C609.709 571.949 608.177 572.238 606.673 572.686C604.216 573.438 600.545 574.579 598.291 575.389C596.556 576.01 593.608 577.629 591.006 579.161C587.624 581.141 584.748 583.873 582.623 587.154L580.947 589.726C579.689 591.663 578.75 593.773 578.157 595.999L575.324 606.622L573.388 615.655C573.113 616.913 572.983 618.199 572.968 619.485L572.939 625.613C572.939 626.394 573.041 627.174 573.257 627.926L577.29 642.408C577.348 642.625 577.42 642.856 577.507 643.073L581.77 654.982C582.175 656.109 582.753 657.15 583.505 658.09L590.529 666.848C590.977 667.412 591.656 667.744 592.379 667.759L595.096 667.845Z" fill="#E9622A"/>
<path d="M1326.91 973.557H1162.27C1121.93 973.557 1088.92 940.546 1088.92 900.207V847.338C1088.92 806.999 1121.93 773.988 1162.27 773.988H1326.91C1367.25 773.988 1400.26 806.999 1400.26 847.338V900.207C1400.26 940.546 1367.25 973.557 1326.91 973.557Z" stroke="#0D2040" stroke-width="5" stroke-miterlimit="10"/>
<path d="M703.626 970.928H539.002C498.663 970.928 465.652 937.917 465.652 897.578V844.709C465.652 804.37 498.663 771.359 539.002 771.359H703.64C743.979 771.359 776.991 804.37 776.991 844.709V897.578C776.976 937.917 743.965 970.928 703.626 970.928Z" fill="#444FCB"/>
<path d="M1022 970.393H857.366C817.027 970.393 784.015 937.382 784.015 897.043V844.174C784.015 803.835 817.027 770.824 857.366 770.824H1022C1062.34 770.824 1095.35 803.835 1095.35 844.174V897.043C1095.34 937.382 1062.34 970.393 1022 970.393Z" fill="#444FCB"/>
<path d="M384.988 970.537H220.351C180.011 970.537 147 937.526 147 897.188V844.318C147 803.98 180.011 770.969 220.351 770.969H384.988C425.327 770.969 458.339 803.98 458.339 844.318V897.188C458.339 937.541 425.327 970.537 384.988 970.537Z" fill="#444FCB"/>
<path d="M1345.97 974.873H1181.35C1141.01 974.873 1108 941.862 1108 901.524V848.654C1108 808.316 1141.01 775.305 1181.35 775.305H1345.99C1386.33 775.305 1419.34 808.316 1419.34 848.654V901.524C1419.32 941.877 1386.31 974.873 1345.97 974.873Z" fill="#444FCB"/>
<path d="M1135.84 703.676C1135.84 703.676 1131.66 706.393 1129.15 720.181C1127.66 728.376 1126.91 733.406 1126.54 736.137C1126.3 737.944 1125.66 739.664 1124.68 741.182L1114.52 756.964C1114.52 756.964 1114.52 761.358 1120.99 760.303C1127.47 759.262 1121.64 768.773 1121.64 768.773C1121.64 768.773 1120.65 771.056 1123.94 773.094C1127.59 775.349 1126.54 774.048 1124.35 776.577C1123.21 777.892 1124.09 780.465 1124.15 780.48C1125.81 780.812 1127.06 782.199 1126.2 783.688C1125.69 784.555 1124.58 789.339 1124.61 790.351C1124.93 797.867 1130.72 804.371 1139.58 804.183C1150.62 803.937 1158.49 804.298 1163.89 806.365C1169.7 808.576 1173.56 814.126 1173.72 820.341C1173.81 823.839 1173.84 827.539 1173.65 829.259C1173.23 833.017 1226.3 830.935 1226.3 830.935L1226.1 722.696L1135.84 703.676Z" fill="#945E44"/>
<path d="M1068.56 895.034L1067.56 878.688C1067.56 878.688 1073.2 795.611 1168.34 822.581C1230.51 840.199 1307.57 817.984 1304.06 814.097C1300.55 810.209 1353.33 828.347 1363.19 874.482C1373.05 920.616 1383.58 1006.92 1383.58 1006.92L1078.08 995.729L1068.56 895.034Z" fill="#E5E6DE"/>
<path d="M1168 663.336C1150.88 665.909 1140.84 680.058 1140.84 680.058C1140.84 680.058 1122.38 701.579 1141.06 716.205C1154.25 726.554 1162.89 727.175 1166.83 726.655C1171.73 726.005 1176.7 727.725 1180.14 731.28C1180.2 731.338 1180.25 731.396 1180.31 731.454C1185.25 736.686 1184.66 757.151 1184.42 762.672C1184.39 763.409 1184.3 764.146 1184.16 764.869C1183.64 767.601 1182.8 776.388 1192.61 778.672C1198.96 780.146 1203.16 784.034 1205.68 787.271C1207.67 789.83 1208.75 792.995 1208.91 796.232L1210.43 829.243C1210.43 829.243 1212.12 852.44 1234.4 853.279C1256.67 854.117 1302.27 834.475 1311.82 818.794C1321.36 803.126 1323.7 789.743 1323.7 789.743C1323.7 789.743 1330.28 750.04 1286.15 742.308C1242.03 734.604 1307.36 642.451 1168 663.336Z" fill="#33B3A6"/>
<path d="M936.194 1146.56H716.157C675.818 1146.56 642.807 1113.55 642.807 1073.21V984.816C642.807 944.478 675.818 911.467 716.157 911.467H936.194C976.534 911.467 1009.54 944.478 1009.54 984.816V1073.21C1009.54 1113.56 976.534 1146.56 936.194 1146.56Z" fill="#0D2040"/>
<path d="M1312.95 1148.01H1092.9C1052.56 1148.01 1019.55 1115 1019.55 1074.66V986.262C1019.55 945.923 1052.56 912.912 1092.9 912.912H1312.95C1353.29 912.912 1386.3 945.923 1386.3 986.262V1074.66C1386.29 1115.01 1353.29 1148.01 1312.95 1148.01Z" fill="#0D2040"/>
<path d="M558.341 1145.94H338.304C297.965 1145.94 264.954 1112.93 264.954 1072.59V984.195C264.954 943.857 297.965 910.846 338.304 910.846H558.341C598.68 910.846 631.692 943.857 631.692 984.195V1072.59C631.692 1112.93 598.68 1145.94 558.341 1145.94Z" fill="#0D2040"/>
</g>
<defs>
<clipPath id="clip0">
<rect width="1556" height="1098" fill="white"/>
</clipPath>
</defs>
</svg>
